<?xml version="1.0" encoding="UTF-8" standalone="no"?><!DOCTYPE svg PUBLIC "-//W3C//DTD SVG 1.1//EN" "http://www.w3.org/Graphics/SVG/1.1/DTD/svg11.dtd"><svg width="100%" height="100%" viewBox="0 0 180 180" version="1.1" xmlns="http://www.w3.org/2000/svg" xmlns:xlink="http://www.w3.org/1999/xlink" xml:space="preserve" xmlns:serif="http://www.serif.com/" style="fill-rule:evenodd;clip-rule:evenodd;stroke-linejoin:round;stroke-miterlimit:2;"><path id="Smile" d="M90,0c49.672,0 90,40.328 90,90c-0,49.672 -40.328,90 -90,90c-49.672,0 -90,-40.328 -90,-90c0,-49.672 40.328,-90 90,-90Zm-20.849,40.06c-5.659,0 -10.253,9.976 -10.253,22.263c-0,12.287 4.594,22.262 10.253,22.262c5.659,0 10.253,-9.975 10.253,-22.262c0,-12.287 -4.594,-22.263 -10.253,-22.263Zm-35.123,70.874c7.003,24.388 29.366,44.352 55.838,44.352c26.485,0 48.856,-19.982 55.848,-44.384c5.3,0.724 10.2,-2.033 11.463,-6.514c0.227,-0.804 -0.241,-1.64 -1.045,-1.866l-1.572,-0.444c-0.745,-0.209 -1.527,0.176 -1.815,0.893c-1.012,2.523 -4.257,3.679 -7.433,2.784c-3.177,-0.896 -5.34,-3.577 -4.885,-6.256c0.129,-0.762 -0.337,-1.5 -1.082,-1.709l-1.572,-0.444c-0.804,-0.226 -1.64,0.242 -1.866,1.046c-1.232,4.369 1.341,9.147 6.011,11.375c-7.49,21.536 -27.978,37.011 -52.052,37.011c-24.033,-0 -44.493,-15.423 -52.014,-36.904c4.815,-2.18 7.493,-7.041 6.241,-11.482c-0.226,-0.804 -1.062,-1.272 -1.866,-1.046l-1.572,0.444c-0.745,0.209 -1.211,0.947 -1.082,1.709c0.455,2.679 -1.708,5.36 -4.885,6.256c-3.176,0.895 -6.421,-0.261 -7.433,-2.784c-0.288,-0.717 -1.07,-1.102 -1.815,-0.893l-1.572,0.444c-0.804,0.226 -1.272,1.062 -1.045,1.866c1.242,4.409 6.004,7.148 11.205,6.546Zm76.554,-70.874c-5.659,0 -10.253,9.976 -10.253,22.263c-0,12.287 4.594,22.262 10.253,22.262c5.659,0 10.253,-9.975 10.253,-22.262c0,-12.287 -4.594,-22.263 -10.253,-22.263Z" style="fill:#ffc900;"/></svg>