<?xml version="1.0" encoding="UTF-8" standalone="no"?><!DOCTYPE svg PUBLIC "-//W3C//DTD SVG 1.1//EN" "http://www.w3.org/Graphics/SVG/1.1/DTD/svg11.dtd"><svg width="100%" height="100%" viewBox="0 0 720 720" version="1.1" xmlns="http://www.w3.org/2000/svg" xmlns:xlink="http://www.w3.org/1999/xlink" xml:space="preserve" xmlns:serif="http://www.serif.com/" style="fill-rule:evenodd;clip-rule:evenodd;stroke-linejoin:round;stroke-miterlimit:2;"><rect x="0" y="-0" width="720" height="720" style="fill:#23191b;"/><g><path d="M370.25,335.446c0.054,-2.923 0.107,-5.847 0.16,-8.77c0.021,0.034 0.042,0.067 0.063,0.101c1.389,2.206 2.87,4.41 4.702,6.283c-1.641,0.795 -3.283,1.591 -4.925,2.386Zm-18.401,8.917c6.134,-2.972 12.268,-5.945 18.401,-8.917c-0.091,5.014 -0.182,10.027 -0.274,15.041c-6.129,2.968 -12.257,5.936 -18.386,8.905c0.087,-5.01 0.173,-10.019 0.259,-15.029Zm19.225,-54.134c2.377,-1.154 4.754,-2.308 7.132,-3.461c-2.49,4.196 -4.96,8.407 -7.3,12.688c0.056,-3.076 0.112,-6.152 0.168,-9.227Zm18.756,-24.077c0.458,-0.223 0.916,-0.445 1.374,-0.668c-0.469,0.748 -0.937,1.497 -1.404,2.246c0.01,-0.526 0.02,-1.052 0.03,-1.578Zm20.643,-115.326c0.057,-0.028 0.114,-0.056 0.172,-0.083c-0.061,0.199 -0.122,0.398 -0.182,0.597c0.003,-0.171 0.007,-0.342 0.01,-0.514Zm-18.606,9.064c0.098,-5.081 0.195,-10.162 0.293,-15.244c6.206,-3.025 12.413,-6.051 18.62,-9.076c-0.102,5.085 -0.205,10.171 -0.307,15.256c-6.202,3.021 -12.404,6.043 -18.606,9.064Zm-367.641,358.372c0,-4.939 0,-9.879 0,-14.819c6.008,-2.922 12.016,-5.845 18.025,-8.767c-0.005,4.944 -0.01,9.887 -0.015,14.831c-6.003,2.918 -12.006,5.837 -18.01,8.755Zm18.025,-23.586c0.004,-4.949 0.009,-9.897 0.014,-14.846c6.019,-2.93 12.039,-5.859 18.059,-8.787c-0.01,4.952 -0.019,9.905 -0.029,14.857c-6.015,2.925 -12.03,5.851 -18.044,8.776Zm18.044,-8.776c6.022,-2.928 12.044,-5.856 18.066,-8.784c-0.014,4.952 -0.028,9.903 -0.043,14.854c-6.017,2.924 -12.034,5.848 -18.051,8.773c0.009,-4.948 0.019,-9.895 0.028,-14.843Zm18.066,-8.784c0.014,-4.956 0.028,-9.912 0.043,-14.869c6.033,-2.935 12.067,-5.869 18.1,-8.804c-0.019,4.961 -0.038,9.921 -0.057,14.881c-6.029,2.931 -12.057,5.862 -18.086,8.792Zm18.086,-8.792c6.036,-2.933 12.072,-5.867 18.107,-8.8c-0.023,4.959 -0.047,9.918 -0.071,14.877c-6.031,2.929 -12.062,5.859 -18.093,8.789c0.019,-4.955 0.038,-9.911 0.057,-14.866Zm18.107,-8.8c0.024,-4.964 0.048,-9.929 0.072,-14.893c6.047,-2.94 12.094,-5.88 18.142,-8.82c-0.029,4.968 -0.057,9.936 -0.086,14.904c-6.043,2.936 -12.085,5.872 -18.128,8.809Zm18.128,-8.809c6.05,-2.939 12.099,-5.878 18.149,-8.817c-0.033,4.967 -0.067,9.934 -0.1,14.901c-6.045,2.934 -12.09,5.869 -18.134,8.805c0.028,-4.963 0.057,-9.926 0.085,-14.889Zm18.149,-8.817c0.033,-4.972 0.067,-9.944 0.1,-14.916c6.061,-2.946 12.122,-5.891 18.184,-8.837c-0.038,4.976 -0.076,9.952 -0.114,14.928c-6.057,2.942 -12.114,5.883 -18.17,8.825Zm18.17,-8.825c6.063,-2.945 12.126,-5.889 18.19,-8.833c-0.043,4.974 -0.086,9.949 -0.129,14.923c-6.059,2.94 -12.117,5.881 -18.176,8.822c0.038,-4.971 0.076,-9.941 0.115,-14.912Zm18.19,-8.833c0.043,-4.98 0.086,-9.96 0.129,-14.94c6.075,-2.951 12.15,-5.902 18.226,-8.853c-0.048,4.983 -0.096,9.967 -0.144,14.951c-6.07,2.947 -12.141,5.894 -18.211,8.842Zm18.211,-8.842c6.078,-2.951 12.155,-5.901 18.233,-8.85c-0.053,4.982 -0.105,9.964 -0.158,14.946c-6.073,2.946 -12.145,5.893 -18.218,8.839c0.048,-4.978 0.096,-9.957 0.143,-14.935Zm18.233,-8.85c0.052,-4.988 0.105,-9.976 0.157,-14.963c6.089,-2.957 12.179,-5.914 18.268,-8.87c-0.057,4.991 -0.115,9.983 -0.172,14.974c-6.085,2.953 -12.169,5.905 -18.253,8.859Zm18.253,-8.859c6.091,-2.956 12.183,-5.911 18.274,-8.867c-0.062,4.99 -0.124,9.981 -0.186,14.971c-6.087,2.951 -12.174,5.903 -18.26,8.855c0.057,-4.987 0.115,-9.973 0.172,-14.959Zm18.274,-8.867c0.062,-4.995 0.125,-9.99 0.187,-14.986c6.103,-2.962 12.206,-5.925 18.31,-8.887c-0.067,5 -0.134,9.999 -0.202,14.998c-6.098,2.958 -12.196,5.917 -18.295,8.875Zm18.295,-8.875c6.106,-2.961 12.211,-5.922 18.317,-8.883c-0.072,4.998 -0.144,9.996 -0.216,14.993c-6.1,2.957 -12.201,5.915 -18.302,8.872c0.067,-4.994 0.134,-9.988 0.201,-14.982Zm18.317,-8.883c0.072,-5.003 0.144,-10.007 0.216,-15.01c6.117,-2.968 12.234,-5.936 18.352,-8.903c-0.077,5.007 -0.154,10.014 -0.231,15.021c-6.112,2.964 -12.225,5.928 -18.337,8.892Zm18.337,-8.892c6.12,-2.967 12.239,-5.934 18.359,-8.9c-0.082,5.005 -0.163,10.011 -0.245,15.017c-6.115,2.962 -12.229,5.925 -18.344,8.888c0.077,-5.001 0.154,-10.003 0.23,-15.005Zm18.359,-8.9c0.081,-5.011 0.163,-10.022 0.245,-15.033c6.131,-2.974 12.262,-5.948 18.394,-8.921c-0.086,5.015 -0.173,10.03 -0.26,15.045c-6.126,2.969 -12.253,5.939 -18.379,8.909Zm18.639,-23.954c0.087,-5.02 0.173,-10.04 0.26,-15.06c5.114,-2.482 10.229,-4.963 15.343,-7.444c-1.339,4.829 -1.205,9.99 0.361,14.764c-5.321,2.58 -10.643,5.16 -15.964,7.74Zm0.26,-15.06c-6.137,2.977 -12.273,5.954 -18.409,8.932c0.082,-5.022 0.164,-10.044 0.245,-15.065c6.142,-2.982 12.283,-5.963 18.424,-8.944c-0.087,5.025 -0.173,10.051 -0.26,15.077Zm0.26,-15.077c0.087,-5.031 0.174,-10.062 0.26,-15.093c6.154,-2.988 12.307,-5.976 18.46,-8.964c-0.092,5.035 -0.183,10.07 -0.275,15.105c-6.149,2.983 -12.297,5.968 -18.445,8.952Zm18.72,-24.057c0.092,-5.04 0.184,-10.08 0.275,-15.12c6.165,-2.995 12.331,-5.99 18.496,-8.985c-0.097,5.044 -0.193,10.089 -0.29,15.133c-6.161,2.99 -12.321,5.981 -18.481,8.972Zm18.771,-24.105c0.097,-5.049 0.194,-10.098 0.29,-15.148c4.249,-2.064 8.498,-4.129 12.746,-6.193c0.792,2.54 1.662,5.057 2.402,7.612c0.096,0.33 0.204,0.656 0.314,0.981c0.434,1.278 1.059,2.761 0.495,4.096c-0.09,0.214 -0.207,0.416 -0.344,0.604c-0.121,0.167 -0.242,0.334 -0.363,0.501c-5.18,2.516 -10.36,5.031 -15.54,7.547Zm0.29,-15.148c-6.17,2.999 -12.34,5.997 -18.51,8.997c0.092,-5.051 0.184,-10.102 0.276,-15.153c6.175,-3.003 12.35,-6.005 18.525,-9.008c-0.097,5.055 -0.194,10.11 -0.291,15.164Zm0.291,-15.164c0.097,-5.06 0.194,-10.12 0.291,-15.18c3.273,-1.592 6.545,-3.184 9.818,-4.776c-0.429,5.064 -0.741,10.191 -0.485,15.277c-3.208,1.56 -6.416,3.119 -9.624,4.679Zm0.291,-15.18c-6.18,3.006 -12.36,6.013 -18.54,9.02c0.093,-5.061 0.185,-10.123 0.277,-15.184c6.185,-3.011 12.37,-6.022 18.555,-9.032c-0.098,5.065 -0.195,10.131 -0.292,15.196Zm0.292,-15.196c0.097,-5.071 0.194,-10.142 0.291,-15.212c4.813,-2.344 9.627,-4.688 14.44,-7.031c-1.263,5.509 -2.345,11.062 -3.233,16.647c-3.833,1.865 -7.666,3.73 -11.498,5.596Zm0.291,-15.212c-6.19,3.014 -12.38,6.029 -18.569,9.043c0.092,-5.072 0.185,-10.144 0.277,-15.216c6.195,-3.019 12.389,-6.037 18.584,-9.056c-0.097,5.076 -0.194,10.153 -0.292,15.229Zm-18.292,-6.173c-6.188,3.016 -12.375,6.031 -18.563,9.047c0.088,-5.073 0.175,-10.147 0.263,-15.22c6.192,-3.02 12.385,-6.04 18.577,-9.059c-0.092,5.077 -0.185,10.155 -0.277,15.232Zm-18.563,9.047c-0.087,5.068 -0.175,10.137 -0.262,15.205c-6.176,3.008 -12.351,6.017 -18.527,9.027c0.083,-5.065 0.165,-10.129 0.248,-15.193c6.18,-3.013 12.36,-6.026 18.541,-9.039Zm-18.541,9.039c-6.174,3.01 -12.347,6.02 -18.52,9.03c0.077,-5.065 0.155,-10.131 0.233,-15.196c6.178,-3.015 12.356,-6.029 18.534,-9.042c-0.082,5.069 -0.165,10.139 -0.247,15.208Zm-18.52,9.03c-0.078,5.061 -0.156,10.121 -0.233,15.181c-6.162,3.003 -12.323,6.006 -18.484,9.01c0.073,-5.056 0.145,-10.113 0.218,-15.169c6.166,-3.007 12.332,-6.015 18.499,-9.022Zm-18.499,9.022c-6.159,3.004 -12.318,6.009 -18.477,9.013c0.068,-5.057 0.135,-10.115 0.203,-15.173c6.164,-3.008 12.328,-6.017 18.492,-9.025c-0.072,5.062 -0.145,10.123 -0.218,15.185Zm-18.477,9.013c-0.068,5.053 -0.136,10.105 -0.204,15.157c-6.147,2.998 -12.294,5.995 -18.441,8.993c0.063,-5.048 0.126,-10.097 0.189,-15.145c6.152,-3.002 12.304,-6.003 18.456,-9.005Zm-18.456,9.005c-6.145,2.999 -12.29,5.997 -18.435,8.997c0.058,-5.05 0.116,-10.1 0.174,-15.15c6.15,-3.003 12.3,-6.005 18.45,-9.008c-0.063,5.054 -0.126,10.107 -0.189,15.161Zm-18.435,8.997c-0.058,5.044 -0.116,10.088 -0.174,15.133c-6.133,2.991 -12.266,5.983 -18.399,8.976c0.053,-5.041 0.107,-10.081 0.16,-15.122c6.137,-2.996 12.275,-5.992 18.413,-8.987Zm-18.413,8.987c-6.131,2.993 -12.262,5.986 -18.393,8.98c0.049,-5.042 0.097,-10.084 0.145,-15.126c6.136,-2.997 12.271,-5.994 18.407,-8.991c-0.053,5.046 -0.106,10.092 -0.159,15.137Zm-18.393,8.98c-0.048,5.036 -0.096,10.073 -0.144,15.109c-6.119,2.987 -12.238,5.973 -18.357,8.96c0.044,-5.033 0.087,-10.065 0.13,-15.098c6.124,-2.991 12.248,-5.981 18.371,-8.971Zm-18.371,8.971c-6.116,2.987 -12.233,5.975 -18.349,8.963c0.038,-5.034 0.077,-10.068 0.115,-15.102c6.122,-2.992 12.243,-5.983 18.365,-8.975c-0.044,5.038 -0.087,10.076 -0.131,15.114Zm-18.349,8.963c-0.039,5.028 -0.077,10.057 -0.116,15.085c-6.105,2.981 -12.209,5.962 -18.314,8.943c0.034,-5.025 0.067,-10.05 0.101,-15.074c6.109,-2.985 12.219,-5.97 18.329,-8.954Zm-18.329,8.954c-6.103,2.981 -12.205,5.963 -18.307,8.946c0.028,-5.027 0.057,-10.053 0.086,-15.079c6.107,-2.986 12.215,-5.972 18.322,-8.957c-0.033,5.03 -0.067,10.06 -0.101,15.09Zm-18.307,8.946c-0.029,5.02 -0.058,10.041 -0.087,15.062c-6.091,2.975 -12.181,5.95 -18.272,8.926c0.024,-5.017 0.048,-10.034 0.072,-15.051c6.095,-2.979 12.191,-5.959 18.287,-8.937Zm-18.287,8.937c-6.088,2.976 -12.177,5.952 -18.265,8.929c0.019,-5.018 0.038,-10.036 0.057,-15.055c6.094,-2.98 12.187,-5.96 18.28,-8.94c-0.024,5.022 -0.048,10.044 -0.072,15.066Zm-18.265,8.929c-0.019,5.013 -0.039,10.026 -0.058,15.039c-6.077,2.969 -12.153,5.939 -18.23,8.909c0.015,-5.009 0.029,-10.018 0.043,-15.027c6.082,-2.974 12.163,-5.948 18.245,-8.921Zm-18.245,8.921c-6.074,2.97 -12.149,5.941 -18.223,8.912c0.01,-5.01 0.019,-10.021 0.029,-15.031c6.079,-2.975 12.158,-5.95 18.238,-8.924c-0.015,5.014 -0.029,10.028 -0.044,15.043Zm-18.223,8.912c-0.009,5.005 -0.019,10.01 -0.029,15.015c-6.062,2.964 -12.125,5.928 -18.188,8.893c0.005,-5.002 0.01,-10.003 0.015,-15.004c6.067,-2.968 12.135,-5.936 18.202,-8.904Zm-18.202,8.904c-6.061,2.965 -12.121,5.93 -18.182,8.895c0,-5.002 0,-10.005 0,-15.007c6.066,-2.97 12.131,-5.939 18.196,-8.908c-0.005,5.007 -0.009,10.013 -0.014,15.02Zm-18.182,143.256c6.018,-2.931 12.035,-5.861 18.053,-8.791c-0.005,4.954 -0.009,9.908 -0.014,14.862c-6.013,2.926 -12.026,5.852 -18.039,8.779c0,-4.95 0,-9.9 0,-14.85Zm0,-29.748c6.027,-2.938 12.054,-5.876 18.082,-8.814c-0.005,4.964 -0.01,9.929 -0.015,14.893c-6.022,2.934 -12.044,5.868 -18.067,8.803c0,-4.961 0,-9.922 0,-14.882Zm0,-29.811c6.037,-2.946 12.073,-5.891 18.11,-8.837c-0.005,4.975 -0.009,9.95 -0.014,14.925c-6.032,2.942 -12.064,5.883 -18.096,8.825c0,-4.971 0,-9.942 0,-14.913Zm0,-29.873c6.046,-2.954 12.093,-5.907 18.139,-8.861c-0.005,4.986 -0.01,9.971 -0.015,14.957c-6.041,2.949 -12.082,5.899 -18.124,8.849c0,-4.982 0,-9.964 0,-14.945Zm0,-29.937c6.056,-2.961 12.112,-5.922 18.167,-8.883c-0.004,4.995 -0.009,9.991 -0.014,14.987c-6.051,2.958 -12.102,5.915 -18.153,8.873c0,-4.993 0,-9.985 0,-14.977Zm18.067,95.7c6.029,-2.937 12.059,-5.874 18.088,-8.81c-0.01,4.963 -0.019,9.926 -0.029,14.889c-6.024,2.933 -12.049,5.866 -18.073,8.799c0.005,-4.959 0.01,-9.918 0.014,-14.878Zm0.029,-29.802c6.038,-2.945 12.077,-5.889 18.116,-8.834c-0.01,4.974 -0.019,9.947 -0.029,14.921c-6.034,2.94 -12.068,5.881 -18.101,8.822c0.004,-4.97 0.009,-9.939 0.014,-14.909Zm0.028,-29.865c6.049,-2.953 12.097,-5.905 18.145,-8.857c-0.009,4.984 -0.019,9.968 -0.028,14.952c-6.044,2.948 -12.087,5.896 -18.131,8.845c0.005,-4.98 0.01,-9.96 0.014,-14.94Zm0.029,-29.929c6.058,-2.96 12.116,-5.92 18.174,-8.88c-0.01,4.994 -0.019,9.989 -0.029,14.984c-6.053,2.956 -12.106,5.912 -18.159,8.868c0.005,-4.99 0.009,-9.981 0.014,-14.972Zm17.945,110.549c0.009,-4.958 0.019,-9.916 0.028,-14.874c6.032,-2.936 12.063,-5.872 18.094,-8.807c-0.014,4.962 -0.028,9.923 -0.042,14.885c-6.027,2.932 -12.054,5.863 -18.08,8.796Zm36.18,-17.6c0.019,-4.965 0.038,-9.931 0.057,-14.896c6.045,-2.942 12.091,-5.883 18.136,-8.824c-0.024,4.969 -0.048,9.939 -0.071,14.908c-6.041,2.937 -12.081,5.875 -18.122,8.812Zm-18.058,-6.081c0.015,-4.967 0.029,-9.934 0.043,-14.901c6.043,-2.943 12.086,-5.885 18.13,-8.827c-0.02,4.971 -0.039,9.942 -0.058,14.913c-6.038,2.938 -12.076,5.876 -18.115,8.815Zm54.322,-11.551c0.028,-4.973 0.057,-9.947 0.086,-14.92c6.059,-2.947 12.118,-5.894 18.177,-8.84c-0.033,4.977 -0.067,9.954 -0.1,14.931c-6.055,2.943 -12.109,5.886 -18.163,8.829Zm-18.071,-6.088c0.024,-4.975 0.048,-9.95 0.072,-14.924c6.056,-2.948 12.113,-5.896 18.17,-8.844c-0.028,4.979 -0.057,9.957 -0.085,14.936c-6.053,2.944 -12.105,5.888 -18.157,8.832Zm54.418,-11.578c0.038,-4.981 0.076,-9.962 0.114,-14.943c6.073,-2.953 12.147,-5.905 18.22,-8.857c-0.043,4.985 -0.086,9.97 -0.129,14.955c-6.069,2.948 -12.137,5.897 -18.205,8.845Zm-18.084,-6.094c0.034,-4.983 0.067,-9.965 0.1,-14.948c6.071,-2.954 12.142,-5.907 18.213,-8.86c-0.038,4.986 -0.076,9.973 -0.115,14.959c-6.066,2.949 -12.132,5.899 -18.198,8.849Zm54.515,-11.604c0.047,-4.989 0.095,-9.978 0.143,-14.967c6.087,-2.958 12.174,-5.916 18.261,-8.874c-0.052,4.993 -0.105,9.986 -0.158,14.979c-6.082,2.954 -12.164,5.908 -18.246,8.862Zm-18.097,-6.102c0.043,-4.99 0.086,-9.98 0.129,-14.971c6.085,-2.959 12.17,-5.918 18.255,-8.877c-0.048,4.995 -0.096,9.989 -0.144,14.983c-6.08,2.955 -12.16,5.91 -18.24,8.865Zm54.611,-11.63c0.058,-4.997 0.115,-9.994 0.172,-14.991c6.101,-2.963 12.203,-5.927 18.304,-8.89c-0.063,5.001 -0.125,10.002 -0.187,15.002c-6.096,2.959 -12.193,5.919 -18.289,8.879Zm-18.11,-6.109c0.053,-4.998 0.106,-9.996 0.158,-14.994c6.099,-2.965 12.198,-5.929 18.297,-8.894c-0.057,5.002 -0.115,10.004 -0.173,15.006c-6.094,2.961 -12.188,5.921 -18.282,8.882Zm54.709,-11.657c0.067,-5.004 0.134,-10.009 0.201,-15.013c6.115,-2.97 12.23,-5.939 18.346,-8.907c-0.072,5.008 -0.144,10.017 -0.216,15.025c-6.111,2.965 -12.221,5.93 -18.331,8.895Zm-18.123,-6.115c0.062,-5.006 0.125,-10.012 0.187,-15.018c6.113,-2.97 12.226,-5.94 18.339,-8.91c-0.067,5.01 -0.135,10.02 -0.202,15.03c-6.108,2.966 -12.216,5.932 -18.324,8.898Zm54.806,-11.683c0.076,-5.013 0.153,-10.025 0.23,-15.038c6.129,-2.974 12.259,-5.949 18.388,-8.923c-0.082,5.016 -0.164,10.032 -0.245,15.049c-6.125,2.97 -12.249,5.941 -18.373,8.912Zm-18.136,-6.122c0.072,-5.014 0.144,-10.028 0.216,-15.042c6.127,-2.976 12.254,-5.951 18.381,-8.927c-0.077,5.018 -0.154,10.036 -0.231,15.053c-6.122,2.972 -12.244,5.944 -18.366,8.916Zm36.999,-32.904c-6.134,2.978 -12.268,5.957 -18.402,8.935c0.077,-5.023 0.154,-10.046 0.231,-15.069c6.139,-2.982 12.278,-5.965 18.417,-8.947c-0.082,5.027 -0.164,10.054 -0.246,15.081Zm0.246,-15.081c0.082,-5.032 0.164,-10.064 0.246,-15.097c6.151,-2.989 12.302,-5.978 18.453,-8.967c-0.087,5.036 -0.174,10.072 -0.261,15.108c-6.146,2.985 -12.292,5.971 -18.438,8.956Zm18.699,-24.064c0.087,-5.042 0.174,-10.083 0.261,-15.125c6.163,-2.996 12.326,-5.992 18.489,-8.987c-0.092,5.045 -0.184,10.09 -0.276,15.136c-6.158,2.992 -12.316,5.984 -18.474,8.976Zm19.026,-39.265c-6.168,3 -12.336,6 -18.504,9c0.088,-5.052 0.175,-10.104 0.262,-15.156c6.173,-3.005 12.345,-6.008 18.518,-9.012c-0.092,5.056 -0.184,10.112 -0.276,15.168Zm-18.765,24.14c-6.156,2.993 -12.312,5.986 -18.468,8.98c0.083,-5.043 0.165,-10.086 0.247,-15.129c6.161,-2.997 12.321,-5.994 18.482,-8.991c-0.087,5.047 -0.174,10.094 -0.261,15.14Zm19.318,-54.492c-6.178,3.007 -12.356,6.015 -18.533,9.023c0.087,-5.063 0.174,-10.125 0.262,-15.188c6.182,-3.012 12.365,-6.024 18.548,-9.036c-0.093,5.067 -0.185,10.134 -0.277,15.201Zm-18.795,24.196c-6.166,3 -12.332,6.001 -18.497,9.003c0.082,-5.054 0.164,-10.107 0.247,-15.161c6.17,-3.005 12.341,-6.01 18.512,-9.015c-0.088,5.058 -0.175,10.115 -0.262,15.173Zm-18.003,-21.334c-0.082,5.058 -0.165,10.117 -0.247,15.176c-6.164,3.002 -12.327,6.004 -18.491,9.007c0.078,-5.055 0.155,-10.11 0.233,-15.165c6.168,-3.006 12.337,-6.013 18.505,-9.018Zm-36.989,18.028c-0.073,5.051 -0.145,10.102 -0.218,15.153c-6.149,2.996 -12.299,5.992 -18.448,8.989c0.068,-5.047 0.136,-10.094 0.203,-15.141c6.154,-3.001 12.309,-6.001 18.463,-9.001Zm18.251,6.155c-0.077,5.049 -0.155,10.099 -0.232,15.148c-6.152,2.995 -12.303,5.991 -18.455,8.986c0.073,-5.045 0.146,-10.091 0.218,-15.136c6.156,-3 12.313,-5.999 18.469,-8.998Zm-55.155,11.839c-0.063,5.043 -0.126,10.086 -0.188,15.129c-6.136,2.991 -12.271,5.982 -18.406,8.973c0.058,-5.039 0.116,-10.078 0.174,-15.117c6.14,-2.995 12.28,-5.99 18.42,-8.985Zm18.238,6.148c-0.067,5.042 -0.135,10.083 -0.203,15.125c-6.137,2.99 -12.274,5.979 -18.412,8.969c0.063,-5.037 0.126,-10.075 0.189,-15.113c6.142,-2.994 12.284,-5.987 18.426,-8.981Zm-55.057,11.813c-0.053,5.035 -0.106,10.07 -0.159,15.105c-6.121,2.985 -12.242,5.97 -18.363,8.956c0.048,-5.031 0.096,-10.062 0.145,-15.094c6.125,-2.989 12.251,-5.978 18.377,-8.967Zm18.225,6.141c-0.058,5.034 -0.116,10.067 -0.173,15.101c-6.124,2.984 -12.247,5.968 -18.37,8.953c0.053,-5.03 0.106,-10.06 0.159,-15.09c6.128,-2.988 12.256,-5.976 18.384,-8.964Zm-54.959,11.786c-0.043,5.027 -0.086,10.054 -0.13,15.081c-6.107,2.98 -12.214,5.96 -18.32,8.94c0.038,-5.024 0.077,-10.047 0.115,-15.071c6.112,-2.983 12.223,-5.967 18.335,-8.95Zm18.212,6.134c-0.048,5.026 -0.096,10.052 -0.144,15.078c-6.11,2.978 -12.219,5.957 -18.328,8.935c0.044,-5.022 0.087,-10.044 0.13,-15.066c6.114,-2.982 12.228,-5.965 18.342,-8.947Zm-54.861,11.759c-0.034,5.019 -0.067,10.039 -0.101,15.058c-6.093,2.974 -12.186,5.948 -18.279,8.922c0.029,-5.015 0.058,-10.031 0.087,-15.046c6.097,-2.978 12.195,-5.956 18.293,-8.934Zm18.199,6.128c-0.039,5.018 -0.077,10.036 -0.116,15.054c-6.095,2.972 -12.19,5.945 -18.285,8.919c0.034,-5.015 0.067,-10.029 0.101,-15.043c6.1,-2.977 12.2,-5.954 18.3,-8.93Zm-54.764,11.732c-0.024,5.011 -0.048,10.023 -0.072,15.034c-6.079,2.969 -12.158,5.937 -18.236,8.906c0.019,-5.008 0.038,-10.015 0.057,-15.023c6.084,-2.973 12.167,-5.945 18.251,-8.917Zm18.185,6.12c-0.028,5.011 -0.057,10.021 -0.086,15.031c-6.081,2.967 -12.162,5.935 -18.243,8.902c0.024,-5.006 0.048,-10.012 0.072,-15.019c6.086,-2.971 12.172,-5.943 18.257,-8.914Zm-54.666,11.706c-0.014,5.004 -0.029,10.007 -0.043,15.011c-6.065,2.963 -12.13,5.926 -18.194,8.889c0.009,-5 0.019,-10 0.028,-15c6.07,-2.967 12.14,-5.934 18.209,-8.9Zm18.173,6.114c-0.02,5.002 -0.039,10.005 -0.058,15.007c-6.067,2.962 -12.134,5.923 -18.201,8.885c0.014,-4.998 0.029,-9.996 0.043,-14.995c6.072,-2.966 12.144,-5.932 18.216,-8.897Zm-36.554,92.547c6.041,-2.944 12.082,-5.887 18.123,-8.831c-0.014,4.973 -0.028,9.945 -0.043,14.917c-6.036,2.939 -12.072,5.879 -18.108,8.819c0.009,-4.968 0.019,-9.937 0.028,-14.905Zm0.058,-29.857c6.05,-2.952 12.1,-5.903 18.151,-8.854c-0.014,4.983 -0.029,9.965 -0.043,14.948c-6.046,2.947 -12.091,5.895 -18.137,8.842c0.01,-4.979 0.019,-9.957 0.029,-14.936Zm0.057,-29.92c6.06,-2.96 12.12,-5.919 18.18,-8.878c-0.014,4.994 -0.029,9.987 -0.043,14.98c-6.055,2.955 -12.111,5.91 -18.166,8.866c0.01,-4.99 0.019,-9.979 0.029,-14.968Zm18.051,36.014c6.053,-2.95 12.105,-5.9 18.158,-8.85c-0.019,4.981 -0.038,9.962 -0.057,14.944c-6.048,2.946 -12.096,5.892 -18.144,8.838c0.014,-4.977 0.029,-9.954 0.043,-14.932Zm0.086,-29.912c6.062,-2.958 12.124,-5.916 18.187,-8.874c-0.019,4.992 -0.039,9.984 -0.058,14.976c-6.057,2.954 -12.115,5.908 -18.172,8.862c0.014,-4.988 0.029,-9.976 0.043,-14.964Zm17.958,50.934c0.019,-4.976 0.038,-9.952 0.057,-14.928c6.054,-2.949 12.109,-5.898 18.164,-8.847c-0.024,4.98 -0.048,9.96 -0.071,14.94c-6.051,2.945 -12.101,5.89 -18.15,8.835Zm36.32,-17.679c0.029,-4.984 0.058,-9.968 0.086,-14.952c6.069,-2.954 12.138,-5.909 18.207,-8.863c-0.034,4.988 -0.067,9.975 -0.101,14.963c-6.064,2.95 -12.128,5.901 -18.192,8.852Zm-18.099,-6.096c0.024,-4.985 0.048,-9.971 0.072,-14.956c6.066,-2.956 12.133,-5.912 18.199,-8.867c-0.028,4.989 -0.057,9.978 -0.086,14.967c-6.061,2.952 -12.123,5.904 -18.185,8.856Zm54.504,-11.616c0.038,-4.992 0.077,-9.983 0.115,-14.975c6.082,-2.961 12.165,-5.921 18.248,-8.88c-0.043,4.995 -0.086,9.991 -0.129,14.986c-6.078,2.956 -12.156,5.912 -18.234,8.869Zm-18.112,-6.103c0.033,-4.993 0.067,-9.986 0.1,-14.979c6.081,-2.962 12.161,-5.923 18.242,-8.884c-0.039,4.997 -0.077,9.994 -0.115,14.991c-6.076,2.957 -12.152,5.914 -18.227,8.872Zm54.601,-11.643c0.047,-4.999 0.095,-9.999 0.143,-14.998c6.097,-2.966 12.194,-5.932 18.29,-8.897c-0.052,5.003 -0.105,10.007 -0.158,15.01c-6.092,2.962 -12.184,5.923 -18.275,8.885Zm-18.126,-6.109c0.043,-5.001 0.086,-10.002 0.129,-15.003c6.095,-2.967 12.189,-5.934 18.284,-8.9c-0.048,5.004 -0.096,10.009 -0.144,15.014c-6.09,2.963 -12.179,5.925 -18.269,8.889Zm54.698,-11.67c0.058,-5.007 0.115,-10.014 0.173,-15.021c6.11,-2.972 12.221,-5.943 18.332,-8.914c-0.062,5.011 -0.125,10.022 -0.187,15.033c-6.106,2.968 -12.212,5.935 -18.318,8.902Zm-18.139,-6.116c0.053,-5.009 0.106,-10.017 0.159,-15.026c6.108,-2.973 12.217,-5.945 18.326,-8.917c-0.058,5.012 -0.116,10.025 -0.173,15.038c-6.104,2.968 -12.208,5.936 -18.312,8.905Zm54.796,-11.696c0.067,-5.015 0.134,-10.03 0.202,-15.045c6.124,-2.977 12.249,-5.954 18.374,-8.931c-0.072,5.019 -0.144,10.038 -0.216,15.057c-6.12,2.973 -12.24,5.946 -18.36,8.919Zm-18.152,-6.123c0.063,-5.017 0.125,-10.033 0.188,-15.05c6.122,-2.978 12.245,-5.956 18.368,-8.934c-0.068,5.021 -0.135,10.041 -0.202,15.062c-6.118,2.973 -12.236,5.948 -18.354,8.922Zm36.728,-17.853c0.073,-5.024 0.145,-10.049 0.217,-15.073c6.137,-2.984 12.274,-5.967 18.411,-8.951c-0.078,5.029 -0.155,10.057 -0.232,15.085c-6.132,2.98 -12.264,5.959 -18.396,8.939Zm18.628,-24.024c0.077,-5.033 0.154,-10.067 0.231,-15.1c6.149,-2.991 12.298,-5.981 18.446,-8.971c-0.082,5.037 -0.164,10.075 -0.246,15.112c-6.144,2.986 -12.288,5.973 -18.431,8.959Zm18.924,-39.2c-6.154,2.994 -12.308,5.988 -18.461,8.983c0.077,-5.044 0.155,-10.089 0.232,-15.133c6.158,-2.998 12.317,-5.996 18.476,-8.994c-0.082,5.048 -0.165,10.096 -0.247,15.144Zm-18.693,24.1c-6.142,2.987 -12.283,5.974 -18.425,8.962c0.072,-5.035 0.145,-10.07 0.217,-15.105c6.147,-2.991 12.293,-5.983 18.44,-8.974c-0.077,5.039 -0.155,10.078 -0.232,15.117Zm-17.991,-21.264c-0.072,5.041 -0.144,10.081 -0.217,15.121c-6.14,2.989 -12.279,5.977 -18.418,8.966c0.067,-5.036 0.135,-10.073 0.202,-15.109c6.145,-2.993 12.289,-5.985 18.433,-8.978Zm-36.845,17.947c-0.062,5.033 -0.125,10.065 -0.188,15.098c-6.125,2.982 -12.251,5.965 -18.376,8.949c0.058,-5.029 0.116,-10.057 0.174,-15.086c6.13,-2.987 12.26,-5.974 18.39,-8.961Zm18.21,6.14c-0.068,5.031 -0.135,10.062 -0.203,15.093c-6.128,2.982 -12.255,5.964 -18.383,8.946c0.063,-5.027 0.126,-10.054 0.188,-15.081c6.133,-2.986 12.265,-5.972 18.398,-8.958Zm-54.97,11.774c-0.053,5.024 -0.106,10.049 -0.159,15.073c-6.111,2.977 -12.223,5.955 -18.334,8.933c0.048,-5.021 0.096,-10.042 0.145,-15.062c6.116,-2.982 12.232,-5.963 18.348,-8.944Zm18.196,6.133c-0.058,5.023 -0.115,10.046 -0.173,15.069c-6.114,2.976 -12.227,5.952 -18.341,8.929c0.053,-5.019 0.106,-10.038 0.159,-15.058c6.118,-2.98 12.237,-5.96 18.355,-8.94Zm-54.872,11.746c-0.043,5.017 -0.086,10.034 -0.129,15.05c-6.098,2.972 -12.195,5.944 -18.292,8.916c0.038,-5.013 0.077,-10.026 0.115,-15.038c6.102,-2.976 12.204,-5.952 18.306,-8.928Zm18.183,6.127c-0.048,5.015 -0.096,10.03 -0.144,15.046c-6.099,2.97 -12.199,5.941 -18.298,8.912c0.043,-5.012 0.086,-10.023 0.13,-15.035c6.104,-2.974 12.208,-5.949 18.312,-8.923Zm-54.774,11.72c-0.033,5.008 -0.067,10.017 -0.101,15.026c-6.083,2.966 -12.166,5.932 -18.249,8.899c0.029,-5.005 0.057,-10.01 0.086,-15.015c6.088,-2.97 12.176,-5.941 18.264,-8.91Zm18.17,6.119c-0.038,5.007 -0.077,10.015 -0.115,15.022c-6.086,2.965 -12.171,5.93 -18.256,8.896c0.033,-5.004 0.067,-10.007 0.1,-15.011c6.09,-2.969 12.181,-5.938 18.271,-8.907Zm-54.677,11.693c-0.024,5.001 -0.048,10.002 -0.072,15.003c-6.069,2.961 -12.138,5.921 -18.207,8.882c0.019,-4.997 0.038,-9.994 0.057,-14.991c6.074,-2.965 12.148,-5.929 18.222,-8.894Zm18.157,6.113c-0.029,5 -0.058,9.999 -0.086,14.999c-6.072,2.959 -12.143,5.919 -18.215,8.879c0.024,-4.996 0.048,-9.992 0.072,-14.988c6.076,-2.963 12.152,-5.927 18.229,-8.89Zm-36.494,32.748c6.065,-2.957 12.129,-5.914 18.193,-8.87c-0.023,4.99 -0.047,9.981 -0.071,14.971c-6.06,2.953 -12.12,5.906 -18.179,8.859c0.019,-4.987 0.038,-9.973 0.057,-14.96Zm36.321,-2.766c0.029,-4.994 0.058,-9.989 0.087,-14.983c6.078,-2.963 12.156,-5.925 18.235,-8.887c-0.034,4.998 -0.067,9.996 -0.101,14.995c-6.074,2.958 -12.147,5.916 -18.221,8.875Zm36.463,-17.759c0.038,-5.002 0.076,-10.004 0.115,-15.007c6.092,-2.968 12.184,-5.936 18.277,-8.903c-0.043,5.006 -0.086,10.012 -0.13,15.018c-6.087,2.964 -12.175,5.928 -18.262,8.892Zm36.546,-17.792c0.048,-5.01 0.096,-10.02 0.144,-15.03c6.106,-2.974 12.213,-5.948 18.319,-8.921c-0.052,5.014 -0.105,10.028 -0.158,15.042c-6.102,2.969 -12.203,5.939 -18.305,8.909Zm36.631,-17.826c0.057,-5.018 0.115,-10.036 0.173,-15.054c6.12,-2.979 12.241,-5.958 18.361,-8.937c-0.062,5.022 -0.125,10.043 -0.187,15.065c-6.116,2.975 -12.232,5.95 -18.347,8.926Zm36.715,-17.86c0.067,-5.025 0.135,-10.051 0.202,-15.077c6.135,-2.985 12.269,-5.969 18.404,-8.954c-0.072,5.03 -0.145,10.059 -0.217,15.089c-6.13,2.981 -12.26,5.961 -18.389,8.942Z" style="fill:#fff;"/></g><path id="bkup" d="M514.735,318.948l-132.892,0c-0.847,-1.85 -1.531,-4.307 -1.402,-7.124l132.408,0c0.065,2.903 0.945,5.374 1.886,7.124Zm-0.35,-14.247l-131.854,-0l0.037,-0.067c1.049,-1.872 2.475,-4.28 4.17,-7.057l131.733,0c-1.372,2.268 -2.539,4.254 -3.436,5.855c-0.239,0.426 -0.455,0.849 -0.65,1.269Zm8.484,-14.248l-131.704,0c1.437,-2.278 2.964,-4.672 4.544,-7.123l131.681,-0c-1.581,2.464 -3.101,4.859 -4.521,7.123Zm9.133,-14.247l-131.661,-0c1.569,-2.392 3.153,-4.784 4.717,-7.124l131.639,0c-1.566,2.355 -3.141,4.746 -4.695,7.124Zm9.478,-14.248l-131.609,0c1.739,-2.543 3.405,-4.945 4.947,-7.123l131.562,-0c-1.551,2.221 -3.199,4.618 -4.9,7.123Zm9.997,-14.247l-131.442,0c0.091,-0.118 0.179,-0.232 0.267,-0.344c1.668,-2.144 2.267,-4.389 2.206,-6.78l133.119,0c-0.307,1.494 -0.95,2.933 -2.037,4.331c-0.643,0.825 -1.35,1.761 -2.113,2.793Zm3.626,-14.247l-134.168,-0c-0.779,-2.239 -1.749,-4.605 -2.678,-7.124l134.346,-0c0.971,2.519 1.889,4.885 2.5,7.124Zm-5.038,-14.248l-134.032,0c-0.229,-0.96 -0.429,-1.941 -0.591,-2.944c-0.162,-1.006 -0.287,-2.413 -0.351,-4.179l133.393,-0c0.043,0.388 0.09,0.739 0.14,1.053c0.342,2.114 0.849,4.134 1.441,6.07Zm-1.845,-14.247l-133.092,-0c0.082,-2.155 0.227,-4.538 0.448,-7.124l132.92,0c-0.169,2.641 -0.255,5.028 -0.276,7.124Zm0.886,-14.248l-132.776,0c0.284,-2.27 0.622,-4.648 1.021,-7.123l132.641,-0c-0.355,2.488 -0.648,4.867 -0.886,7.123Zm2.025,-14.247l-132.505,-0c0.454,-2.314 0.961,-4.691 1.523,-7.124l132.367,0c-0.516,2.439 -0.976,4.817 -1.385,7.124Zm3.013,-14.247l-132.22,-0c0.624,-2.339 1.301,-4.715 2.032,-7.124l132.064,-0c-0.678,2.413 -1.302,4.79 -1.876,7.124Zm4.008,-14.248l-131.895,0c0.807,-2.355 1.668,-4.732 2.585,-7.124l131.71,0c-0.854,2.397 -1.653,4.774 -2.4,7.124Zm5.083,-14.247l-131.507,-0c1.012,-2.368 2.082,-4.744 3.212,-7.124l131.281,-0c-1.053,2.384 -2.047,4.76 -2.986,7.124Zm6.297,-14.248l-131.026,0c1.254,-2.379 2.571,-4.756 3.955,-7.123l130.739,-0c-1.285,2.372 -2.506,4.748 -3.668,7.123Zm7.726,-14.247l-130.408,-0c1.552,-2.392 3.176,-4.769 4.876,-7.124l130.027,0c-1.568,2.361 -3.065,4.737 -4.495,7.124Zm9.48,-14.248l-129.577,0c1.941,-2.408 3.967,-4.785 6.082,-7.123l129.041,-0c-1.929,2.346 -3.777,4.723 -5.546,7.123Zm11.745,-14.247l-128.385,0c2.572,-2.498 5.259,-4.872 8.04,-7.124l127.331,0c-0.651,0.618 -1.296,1.243 -1.933,1.876c-1.737,1.725 -3.42,3.476 -5.053,5.248Zm15.204,-14.247l-125.878,-0c3.808,-2.554 7.742,-4.925 11.76,-7.124l123.973,-0c-3.387,2.232 -6.68,4.604 -9.855,7.124Zm21.804,-14.248l-121.33,0c6.213,-2.701 12.524,-5.062 18.807,-7.124l117.306,0c-5.007,2.153 -9.955,4.52 -14.783,7.124Zm33.778,-14.247l-109.938,-0c26.274,-5.726 48.718,-6.866 56.904,-7.092l0,-0.032l79.539,0c-8.55,1.859 -17.5,4.193 -26.505,7.124Zm17.797,484.412l-135.556,0c-0,0 -0.459,-2.587 -1.191,-7.124l135.594,0c0.463,2.945 0.858,5.353 1.153,7.124Zm-2.246,-14.247l-135.62,-0c-0.333,-2.175 -0.689,-4.559 -1.062,-7.124l135.635,-0c0.07,0.452 0.138,0.909 0.204,1.37c0.291,2.023 0.573,3.945 0.843,5.754Zm-2.417,-14.248l-135.432,0c-0.513,-2.579 -1.107,-4.959 -1.791,-7.123l135.074,-0c0.82,2.132 1.532,4.512 2.149,7.123Zm-5.998,-14.247l-134.256,-0c-2.039,-3.53 -4.581,-5.952 -7.737,-7.124l54.306,0c21.132,6.868 50.027,-2.451 78.784,1.69c3.599,0.518 6.527,2.379 8.903,5.434Zm-100.433,-14.248l-130.956,0c-3.184,-2.241 -5.669,-4.635 -7.586,-7.123l132.211,-0c1.58,2.464 3.651,4.856 6.331,7.123Zm-9.583,-14.247l-132.939,-0c-0.883,-2.358 -1.403,-4.747 -1.657,-7.124l133.397,0c0.131,2.366 0.5,4.755 1.199,7.124Zm-0.96,-14.247l-133.691,-0c0.197,-2.458 0.585,-4.85 1.047,-7.124l133.864,-0c-0.496,2.261 -0.942,4.654 -1.22,7.124Zm2.929,-14.248l-133.909,0c0.69,-2.796 1.26,-5.224 1.359,-7.124l133.625,0c0.117,1.804 -0.381,4.241 -1.075,7.124Zm-1.249,-14.247l-133.094,-0c-1.325,-2.767 -3.155,-5.112 -4.989,-7.124l132.719,-0c1.9,2.001 3.869,4.344 5.364,7.124Zm-11.651,-14.248l-133.021,0c-0.219,-0.377 -0.364,-0.735 -0.42,-1.076c-0.385,-2.354 -0.734,-3.824 0.297,-6.047l133.583,-0c-1.355,2.565 -0.977,4.105 -0.555,6.684c0.024,0.144 0.063,0.29 0.116,0.439Zm4.567,-14.247l-133.214,-0c-0.129,-0.357 -0.511,-0.694 -1.265,-1.024c-2.138,-0.935 -6.045,-2.543 -8.389,-6.017c-0.018,-0.027 -0.036,-0.055 -0.054,-0.083l133.097,0c0.056,0.096 0.115,0.189 0.177,0.28c2.394,3.55 6.387,5.194 8.571,6.149c0.52,0.227 0.866,0.457 1.077,0.695Zm-10.366,-14.248l-133.216,0c0.247,-0.918 0.593,-1.743 1,-2.381c0.898,-1.408 1.676,-3.041 2.292,-4.742l133.235,-0c-0.624,1.697 -1.404,3.324 -2.301,4.731c-0.409,0.642 -0.759,1.471 -1.01,2.392Zm4.896,-14.247l-133.293,0c0.077,-1.492 -0.041,-2.849 -0.389,-3.94c-0.395,-1.24 -0.957,-2.29 -1.641,-3.184l133.573,0c0.56,0.817 1.026,1.753 1.369,2.828c0.376,1.181 0.489,2.666 0.381,4.296Zm-17.021,-14.247l-134.738,-0c-4.083,-1.322 -8.068,-2.806 -10.794,-4.204c-1.906,-0.978 -3.283,-1.702 -4.693,-2.92l133.492,-0c1.143,0.837 2.341,1.463 3.873,2.248c3.193,1.637 8.074,3.391 12.86,4.876Z" style="fill:#ffdb00;"/><path d="M506.695,544.339l0,148.785l189.079,-0l-0,-148.785l-189.079,-0Zm186.311,146.017l-183.543,0l-0,-36.53l183.543,-0l0,36.53Zm-19.656,-25.981c0,8.467 9.179,9.614 9.179,15.709c0,2.122 -0.942,2.879 -2.444,2.879c-1.509,0 -2.458,-0.757 -2.458,-2.879l-0,-2.115l-4.316,-0l-0,1.818c-0,4.738 2.326,7.433 6.899,7.433c4.612,0 6.991,-2.695 6.991,-7.433c-0,-8.467 -9.179,-9.607 -9.179,-15.708c0,-2.116 0.857,-2.919 2.359,-2.919c1.654,-0 2.544,0.803 2.544,2.919l-0,1.232l4.315,-0l0,-0.936c0,-4.744 -2.279,-7.465 -6.898,-7.465c-4.652,-0 -6.992,2.721 -6.992,7.465Zm-95.642,11.479l-0,4.23c-0,2.122 -0.864,2.879 -2.234,2.879c-1.371,0 -2.234,-0.757 -2.234,-2.879l0,-16.005c0,-2.116 0.863,-2.919 2.234,-2.919c1.37,-0 2.234,0.803 2.234,2.919l-0,3.176l4.309,-0l-0,-2.88c-0,-4.744 -2.32,-7.465 -6.662,-7.465c-4.408,-0 -6.787,2.721 -6.787,7.465l0,15.412c0,4.738 2.379,7.433 6.787,7.433c4.342,0 6.662,-2.695 6.662,-7.433l-0,-3.933l-4.309,-0Zm16.73,3.9c-0,4.745 2.504,7.459 6.925,7.459c4.415,0 6.919,-2.714 6.919,-7.459l-0,-15.385c-0,-4.738 -2.504,-7.459 -6.919,-7.459c-4.421,-0 -6.925,2.721 -6.925,7.459l-0,15.385Zm53.05,7.025l7.347,-0c4.638,-0 6.931,-2.597 6.931,-7.308l0,-14.819c0,-4.711 -2.293,-7.301 -6.931,-7.301l-7.347,-0l-0,29.428Zm-98.806,-25.178l7.966,0l0,-4.25l-12.638,-0l0,29.428l12.638,-0l0,-4.251l-7.966,0l-0,-8.559l6.332,0l0,-4.25l-6.332,-0l-0,-8.118Zm86.846,25.131c-0.461,-1.093 -0.501,-2.141 -0.501,-3.571l0,-4.54c0,-3.064 -0.764,-5.311 -3.103,-6.286c2.082,-0.975 3.057,-2.945 3.057,-5.93l0,-2.28c0,-4.527 -2.075,-6.774 -6.839,-6.774l-6.965,-0l-0,29.381l4.672,0l-0,-11.972l1.555,-0c2.049,-0 2.952,1.008 2.952,3.736l-0,4.619c-0,2.398 0.171,2.86 0.421,3.617l4.751,0Zm-103.471,0c-0.461,-1.093 -0.507,-2.141 -0.507,-3.571l-0,-4.54c-0,-3.064 -0.764,-5.311 -3.097,-6.286c2.082,-0.975 3.057,-2.945 3.057,-5.93l0,-2.28c0,-4.527 -2.082,-6.774 -6.839,-6.774l-6.965,-0l-0,29.381l4.672,0l-0,-11.972l1.555,-0c2.049,-0 2.952,1.008 2.952,3.736l-0,4.619c-0,2.398 0.164,2.86 0.421,3.617l4.751,0Zm67.052,-22.653c0,-2.116 0.87,-2.919 2.254,-2.919c1.384,-0 2.253,0.803 2.253,2.919l0,15.972c0,2.115 -0.869,2.912 -2.253,2.912c-1.384,0 -2.254,-0.797 -2.254,-2.912l0,-15.972Zm55.647,-2.478c1.462,0 2.345,0.751 2.345,2.847l0,15.234c0,2.095 -0.883,2.846 -2.345,2.846l-2.603,0l-0,-20.927l2.603,0Zm-26.733,0c1.595,0 2.293,0.909 2.293,2.978l0,2.86c0,2.326 -1.028,3.071 -2.702,3.071l-1.765,-0l-0,-8.909l2.174,0Zm-103.477,0c1.601,0 2.299,0.909 2.299,2.978l0,2.86c0,2.326 -1.028,3.071 -2.708,3.071l-1.759,-0l-0,-8.909l2.168,0Zm-11.948,-39.703c-0,14.152 7.455,22.239 21.101,22.239c13.647,-0 21.102,-8.087 21.102,-22.239l-0,-45.993c-0,-14.152 -7.455,-22.239 -21.102,-22.239c-13.646,0 -21.101,8.087 -21.101,22.239l-0,45.993Zm154.659,-54.585l22.871,-0l-0,-12.636l-36.77,-0l0,88.449l13.899,0l0,-36.517l17.943,0l-0,-12.635l-17.943,-0l0,-26.661Zm-32.599,75.813l14.278,0l-0,-88.449l-12.383,-0l-0,52.943l-14.278,-52.943l-17.437,-0l-0,88.449l12.509,0l-0,-64.062l17.311,64.062Zm-44.73,0l14.278,0l-19.333,-49.026l19.333,-39.423l-13.899,-0l-18.195,38.539l-0,-38.539l-13.9,-0l0,88.449l13.9,0l-0,-27.166l4.296,-8.087l13.52,35.253Zm-63.431,-68.106c0,-6.318 2.78,-8.718 7.202,-8.718c4.423,-0 7.203,2.4 7.203,8.718l-0,47.763c-0,6.318 -2.78,8.718 -7.203,8.718c-4.422,0 -7.202,-2.4 -7.202,-8.718l0,-47.763Z" style="fill:#fff;"/><path d="M25.489,654.282l8.442,0c5.848,0 8.289,2.727 8.289,8.284l0,1.286c0,3.704 -1.119,6.071 -3.611,7.254c3.052,1.184 4.171,3.859 4.171,7.718l-0,2.933c-0,5.556 -2.848,8.54 -8.493,8.54l-8.798,0l-0,-36.015Zm8.289,5.145l-2.695,0l-0,9.519l2.187,-0c2.085,-0 3.356,-0.927 3.356,-3.808l0,-2.006c0,-2.624 -0.864,-3.705 -2.848,-3.705Zm-0.203,14.664l-2.492,-0l-0,11.061l3.204,0c1.881,0 2.899,-0.874 2.899,-3.55l-0,-3.138c-0,-3.344 -1.018,-4.373 -3.611,-4.373Zm32.497,16.206l-5.696,0c-0.051,-0.257 -0.153,-0.463 -0.204,-0.669c-0.152,-0.411 -0.254,-0.977 -0.254,-1.955c-0.051,-0.463 -0.051,-1.08 -0.051,-1.801l0,-5.659c0,-3.344 -1.068,-4.579 -3.661,-4.579l-1.933,0l0,14.663l-5.594,0l-0,-36.015l8.442,0c5.848,0 8.29,2.727 8.29,8.284l-0,2.83c-0,3.704 -1.221,6.122 -3.662,7.305c2.848,1.184 3.712,3.911 3.712,7.666l0,5.557c0,1.801 0.051,2.984 0.611,4.373Zm-9.104,-30.87l-2.695,0l0,11.062l2.187,0c2.085,0 3.356,-0.926 3.356,-3.807l0,-3.55c0,-2.624 -0.864,-3.705 -2.848,-3.705Zm14.24,22.227l0,-18.728c0,-5.814 3.001,-9.055 8.493,-9.055c5.492,-0 8.493,3.241 8.493,9.055l-0,18.728c-0,5.813 -3.001,9.055 -8.493,9.055c-5.492,-0 -8.493,-3.242 -8.493,-9.055Zm5.594,-19.088l0,19.448c0,2.624 1.119,3.55 2.899,3.55c1.78,-0 2.899,-0.926 2.899,-3.55l-0,-19.448c-0,-2.624 -1.119,-3.55 -2.899,-3.55c-1.78,-0 -2.899,0.926 -2.899,3.55Zm30.31,27.731l-5.441,-14.354l-1.729,3.292l-0,11.062l-5.595,0l0,-36.015l5.595,0l-0,15.693l7.323,-15.693l5.594,0l-7.781,16.053l7.781,19.962l-5.747,0Zm16.427,-30.87l-0,10.033l7.679,0l-0,5.145l-7.679,0l-0,10.547l9.662,0l0,5.145l-15.256,0l-0,-36.015l15.256,0l0,5.145l-9.662,0Zm27.614,30.87l-6.967,-26.085l0,26.085l-5.035,0l0,-36.015l7.019,0l5.746,21.558l0,-21.558l4.984,0l0,36.015l-5.747,0Z" style="fill:#fff;"/><path d="M44.435,600.907l9.383,0l0,11.77c0,14.3 -5.052,22.273 -14.796,22.273c-9.743,-0 -14.796,-7.973 -14.796,-22.273l0,-46.065c0,-14.3 5.053,-22.273 14.796,-22.273c9.744,-0 14.796,7.973 14.796,22.273l0,8.605l-9.383,0l0,-9.491c0,-6.454 -1.984,-8.732 -5.142,-8.732c-3.158,0 -5.143,2.278 -5.143,8.732l0,47.836c0,6.454 1.985,8.606 5.143,8.606c3.158,-0 5.142,-2.152 5.142,-8.606l0,-12.655Zm39.696,-55.556l10.105,88.586l-10.014,0l-1.715,-16.072l-12.179,0l-1.714,16.072l-9.112,0l10.104,-88.586l14.525,0Zm-7.758,15.693l-4.782,44.799l9.563,-0l-4.781,-44.799Zm55.574,72.893l-10.104,0c-0.091,-0.633 -0.271,-1.139 -0.361,-1.645c-0.271,-1.012 -0.451,-2.405 -0.451,-4.809c-0.091,-1.139 -0.091,-2.658 -0.091,-4.429l0,-13.921c0,-8.226 -1.894,-11.263 -6.495,-11.263l-3.429,0l0,36.067l-9.924,0l0,-88.586l14.977,0c10.375,0 14.705,6.708 14.705,20.375l0,6.96c0,9.112 -2.165,15.06 -6.496,17.971c5.053,2.91 6.586,9.618 6.586,18.856l0,13.667c0,4.43 0.091,7.34 1.083,10.757Zm-16.149,-75.931l-4.782,0l0,27.209l3.88,-0c3.699,-0 5.954,-2.278 5.954,-9.365l0,-8.732c0,-6.454 -1.534,-9.112 -5.052,-9.112Zm20.931,0l-0,-12.655l30.674,0l-0,12.655l-10.375,0l-0,75.931l-9.924,0l-0,-75.931l-10.375,0Zm47.184,0l-0,24.678l13.623,-0l-0,12.655l-13.623,0l-0,25.943l17.141,0l0,12.655l-27.065,0l-0,-88.586l27.065,0l0,12.655l-17.141,0Zm25.531,-12.655l14.977,0c10.375,0 14.705,6.708 14.705,20.375l0,3.164c0,9.112 -1.985,14.933 -6.405,17.844c5.413,2.91 7.398,9.491 7.398,18.982l-0,7.214c-0,13.667 -5.053,21.007 -15.067,21.007l-15.608,0l0,-88.586Zm14.706,12.655l-4.782,0l0,23.412l3.88,0c3.699,0 5.954,-2.278 5.954,-9.364l0,-4.936c0,-6.454 -1.534,-9.112 -5.052,-9.112Zm-0.361,36.068l-4.421,-0l0,27.208l5.684,0c3.338,0 5.143,-2.151 5.143,-8.732l-0,-7.72c-0,-8.225 -1.805,-10.756 -6.406,-10.756Zm24.539,39.863l0,-88.586l9.924,0l0,75.931l16.33,0l-0,12.655l-26.254,0Zm54.853,-88.586l10.105,88.586l-10.015,0l-1.714,-16.072l-12.179,0l-1.714,16.072l-9.112,0l10.104,-88.586l14.525,0Zm-7.759,15.693l-4.781,44.799l9.563,-0l-4.782,-44.799Zm45.921,72.893l-12.36,-64.161l0,64.161l-8.931,0l-0,-88.586l12.45,0l10.195,53.025l-0,-53.025l8.841,0l0,88.586l-10.195,0Zm38.975,-33.03l9.382,0l0,11.77c0,14.3 -5.052,22.273 -14.795,22.273c-9.744,-0 -14.796,-7.973 -14.796,-22.273l-0,-46.065c-0,-14.3 5.052,-22.273 14.796,-22.273c9.743,-0 14.795,7.973 14.795,22.273l0,8.605l-9.382,0l-0,-9.491c-0,-6.454 -1.985,-8.732 -5.143,-8.732c-3.157,0 -5.142,2.278 -5.142,8.732l-0,47.836c-0,6.454 1.985,8.606 5.142,8.606c3.158,-0 5.143,-2.152 5.143,-8.606l-0,-12.655Zm27.606,-4.935l0,37.965l-9.924,0l0,-88.586l9.924,0l0,37.966l11.278,-0l-0,-37.966l10.104,0l0,88.586l-10.104,0l-0,-37.965l-11.278,-0Zm40.779,-37.966l-0,24.678l13.623,-0l-0,12.655l-13.623,0l-0,25.943l17.141,0l0,12.655l-27.065,0l-0,-88.586l27.065,0l0,12.655l-17.141,0Z" style="fill:#fff;"/><circle cx="100.016" cy="102.921" r="75.789" style="fill:#ffdb00;"/><path d="M595.474,265.455c0,-0 -8.488,17.826 -8.488,25.465c-0,4.685 3.803,8.489 8.488,8.489c4.685,-0 8.489,-3.804 8.489,-8.489c-0,-7.639 -8.489,-25.465 -8.489,-25.465Z" style="fill:#fff;"/></svg>