<svg id="evEFSul6xnV1" xmlns="http://www.w3.org/2000/svg" xmlns:xlink="http://www.w3.org/1999/xlink" viewBox="0 0 720 720" shape-rendering="geometricPrecision" text-rendering="geometricPrecision">
<style><![CDATA[
#evEFSul6xnV3_to {animation: evEFSul6xnV3_to__to 7500ms linear infinite normal forwards}@keyframes evEFSul6xnV3_to__to { 0% {transform: translate(360px,720px)} 100% {transform: translate(360px,0px)}} #evEFSul6xnV4_to {animation: evEFSul6xnV4_to__to 7500ms linear infinite normal forwards}@keyframes evEFSul6xnV4_to__to { 0% {transform: translate(360px,1440px)} 100% {transform: translate(360px,-720px)}} #evEFSul6xnV5_to {animation: evEFSul6xnV5_to__to 7500ms linear infinite normal forwards}@keyframes evEFSul6xnV5_to__to { 0% {transform: translate(360px,2159.999995px)} 100% {transform: translate(360px,-1440.000005px)}} #evEFSul6xnV6_ts {animation: evEFSul6xnV6_ts__ts 7500ms linear infinite normal forwards}@keyframes evEFSul6xnV6_ts__ts { 0% {transform: translate(601.850403px,367.069321px) scale(1,1)} 8.333333% {transform: translate(601.850403px,367.069321px) scale(1,1);animation-timing-function: cubic-bezier(0.445,0.05,0.55,0.95)} 10% {transform: translate(601.850403px,367.069321px) scale(1.2,1.2);animation-timing-function: cubic-bezier(0.445,0.05,0.55,0.95)} 11.666667% {transform: translate(601.850403px,367.069321px) scale(1,1)} 100% {transform: translate(601.850403px,367.069321px) scale(1,1)}} #evEFSul6xnV7_ts {animation: evEFSul6xnV7_ts__ts 7500ms linear infinite normal forwards}@keyframes evEFSul6xnV7_ts__ts { 0% {transform: translate(505.857712px,361.055023px) scale(1,1)} 6.666667% {transform: translate(505.857712px,361.055023px) scale(1,1);animation-timing-function: cubic-bezier(0.445,0.05,0.55,0.95)} 8.333333% {transform: translate(505.857712px,361.055023px) scale(1.2,1.2);animation-timing-function: cubic-bezier(0.445,0.05,0.55,0.95)} 10% {transform: translate(505.857712px,361.055023px) scale(1,1)} 100% {transform: translate(505.857712px,361.055023px) scale(1,1)}} #evEFSul6xnV8_ts {animation: evEFSul6xnV8_ts__ts 7500ms linear infinite normal forwards}@keyframes evEFSul6xnV8_ts__ts { 0% {transform: translate(411.628143px,357.90889px) scale(1,1)} 5% {transform: translate(411.628143px,357.90889px) scale(1,1);animation-timing-function: cubic-bezier(0.445,0.05,0.55,0.95)} 6.666667% {transform: translate(411.628143px,357.90889px) scale(1.2,1.2);animation-timing-function: cubic-bezier(0.445,0.05,0.55,0.95)} 8.333333% {transform: translate(411.628143px,357.90889px) scale(1,1)} 100% {transform: translate(411.628143px,357.90889px) scale(1,1)}} #evEFSul6xnV9_ts {animation: evEFSul6xnV9_ts__ts 7500ms linear infinite normal forwards}@keyframes evEFSul6xnV9_ts__ts { 0% {transform: translate(331.982346px,357.345764px) scale(1,1)} 3.333333% {transform: translate(331.982346px,357.345764px) scale(1,1);animation-timing-function: cubic-bezier(0.445,0.05,0.55,0.95)} 5% {transform: translate(331.982346px,357.345764px) scale(1.2,1.2);animation-timing-function: cubic-bezier(0.445,0.05,0.55,0.95)} 6.666667% {transform: translate(331.982346px,357.345764px) scale(1,1)} 100% {transform: translate(331.982346px,357.345764px) scale(1,1)}} #evEFSul6xnV10_ts {animation: evEFSul6xnV10_ts__ts 7500ms linear infinite normal forwards}@keyframes evEFSul6xnV10_ts__ts { 0% {transform: translate(229.779884px,367.916122px) scale(1,1)} 1.666667% {transform: translate(229.779884px,367.916122px) scale(1,1);animation-timing-function: cubic-bezier(0.445,0.05,0.55,0.95)} 3.333333% {transform: translate(229.779884px,367.916122px) scale(1.2,1.2);animation-timing-function: cubic-bezier(0.445,0.05,0.55,0.95)} 5% {transform: translate(229.779884px,367.916122px) scale(1,1)} 100% {transform: translate(229.779884px,367.916122px) scale(1,1)}} #evEFSul6xnV11_ts {animation: evEFSul6xnV11_ts__ts 7500ms linear infinite normal forwards}@keyframes evEFSul6xnV11_ts__ts { 0% {transform: translate(125.366318px,372.440338px) scale(1,1);animation-timing-function: cubic-bezier(0.445,0.05,0.55,0.95)} 1.666667% {transform: translate(125.366318px,372.440338px) scale(1.2,1.2);animation-timing-function: cubic-bezier(0.445,0.05,0.55,0.95)} 3.333333% {transform: translate(125.366318px,372.440338px) scale(1,1)} 100% {transform: translate(125.366318px,372.440338px) scale(1,1)}} #evEFSul6xnV12_ts {animation: evEFSul6xnV12_ts__ts 7500ms linear infinite normal forwards}@keyframes evEFSul6xnV12_ts__ts { 0% {transform: translate(125.462074px,366.689011px) scale(1,1);animation-timing-function: cubic-bezier(0.445,0.05,0.55,0.95)} 1.666667% {transform: translate(125.462074px,366.689011px) scale(1.2,1.2);animation-timing-function: cubic-bezier(0.445,0.05,0.55,0.95)} 3.333333% {transform: translate(125.462074px,366.689011px) scale(1,1)} 100% {transform: translate(125.462074px,366.689011px) scale(1,1)}} #evEFSul6xnV13_ts {animation: evEFSul6xnV13_ts__ts 7500ms linear infinite normal forwards}@keyframes evEFSul6xnV13_ts__ts { 0% {transform: translate(601.864777px,361.473602px) scale(1,1)} 8.333333% {transform: translate(601.864777px,361.473602px) scale(1,1);animation-timing-function: cubic-bezier(0.445,0.05,0.55,0.95)} 10% {transform: translate(601.864777px,361.473602px) scale(1.2,1.2);animation-timing-function: cubic-bezier(0.445,0.05,0.55,0.95)} 11.666667% {transform: translate(601.864777px,361.473602px) scale(1,1)} 100% {transform: translate(601.864777px,361.473602px) scale(1,1)}} #evEFSul6xnV14_ts {animation: evEFSul6xnV14_ts__ts 7500ms linear infinite normal forwards}@keyframes evEFSul6xnV14_ts__ts { 0% {transform: translate(505.857681px,355.337601px) scale(1,1)} 6.666667% {transform: translate(505.857681px,355.337601px) scale(1,1);animation-timing-function: cubic-bezier(0.445,0.05,0.55,0.95)} 8.333333% {transform: translate(505.857681px,355.337601px) scale(1.2,1.2);animation-timing-function: cubic-bezier(0.445,0.05,0.55,0.95)} 10% {transform: translate(505.857681px,355.337601px) scale(1,1)} 100% {transform: translate(505.857681px,355.337601px) scale(1,1)}} #evEFSul6xnV15_ts {animation: evEFSul6xnV15_ts__ts 7500ms linear infinite normal forwards}@keyframes evEFSul6xnV15_ts__ts { 0% {transform: translate(411.62788px,352.180786px) scale(1,1)} 5% {transform: translate(411.62788px,352.180786px) scale(1,1);animation-timing-function: cubic-bezier(0.445,0.05,0.55,0.95)} 6.666667% {transform: translate(411.62788px,352.180786px) scale(1.2,1.2);animation-timing-function: cubic-bezier(0.445,0.05,0.55,0.95)} 8.333333% {transform: translate(411.62788px,352.180786px) scale(1,1)} 100% {transform: translate(411.62788px,352.180786px) scale(1,1)}} #evEFSul6xnV16_ts {animation: evEFSul6xnV16_ts__ts 7500ms linear infinite normal forwards}@keyframes evEFSul6xnV16_ts__ts { 0% {transform: translate(331.992798px,351.531876px) scale(1,1)} 3.333333% {transform: translate(331.992798px,351.531876px) scale(1,1);animation-timing-function: cubic-bezier(0.445,0.05,0.55,0.95)} 5% {transform: translate(331.992798px,351.531876px) scale(1.2,1.2);animation-timing-function: cubic-bezier(0.445,0.05,0.55,0.95)} 6.666667% {transform: translate(331.992798px,351.531876px) scale(1,1)} 100% {transform: translate(331.992798px,351.531876px) scale(1,1)}} #evEFSul6xnV17_ts {animation: evEFSul6xnV17_ts__ts 7500ms linear infinite normal forwards}@keyframes evEFSul6xnV17_ts__ts { 0% {transform: translate(229.793449px,362.173386px) scale(1,1)} 1.666667% {transform: translate(229.793449px,362.173386px) scale(1,1);animation-timing-function: cubic-bezier(0.445,0.05,0.55,0.95)} 3.333333% {transform: translate(229.793449px,362.173386px) scale(1.2,1.2);animation-timing-function: cubic-bezier(0.445,0.05,0.55,0.95)} 5% {transform: translate(229.793449px,362.173386px) scale(1,1)} 100% {transform: translate(229.793449px,362.173386px) scale(1,1)}}
]]></style>
<rect width="720" height="720" rx="0" ry="0" clip-rule="evenodd" fill="#7362d5" fill-rule="evenodd" stroke-linejoin="round" stroke-miterlimit="2"/><g id="evEFSul6xnV3_to" transform="translate(360,720)"><path d="M554,720c0-5.518667,4.481333-10,10-10s10,4.481333,10,10-4.481333,10-10,10-10-4.481333-10-10Zm5.906667,0c.150666-.577333.362666-1.146667.628-1.710667.454666-.961333,1.025333-2.682666.368-3.678666-.328-.497334-.918667-.590667-1.434667-.481334-1.054667.225334-1.926667,1.145334-2.408,2.168-.532,1.129334-.784,2.413334-.778667,3.702667.005334,1.645333.430667,3.297333,1.225334,4.646667.576.978666,1.382666,1.878666,2.358666,2.364.209334.102666.832.418666,1.037334.106666.161333-.246666-.104-.721333-.193334-.926666-.326666-.754667-.666666-1.502667-.856-2.317334-.313333-1.350666-.272-2.630666.053334-3.873333ZM0,144c5.518667,0,10,4.481333,10,10s-4.481333,10-10,10v-20Zm720,20c-5.518667,0-10-4.481333-10-10s4.481333-10,10-10v20Zm-3.097333-15.389333c-.328-.497334-.918667-.590667-1.434667-.481334-1.054667.225334-1.926667,1.145334-2.408,2.168-1.212,2.572-.970667,5.942667.446667,8.349334.576.978666,1.382666,1.878666,2.358666,2.364.209334.102666.832.418666,1.037334.106666.161333-.246666-.104-.721333-.193334-.926666-.326666-.754667-.666666-1.502667-.856-2.317334-.458666-1.977333-.157333-3.802666.681334-5.584.454666-.961333,1.025333-2.682666.368-3.678666ZM574,0c0,5.518667-4.481333,10-10,10s-10-4.481333-10-10h2.281333c.005334,1.645333.430667,3.297333,1.225334,4.646667.576.978666,1.382666,1.878666,2.358666,2.364.209334.102666.832.418666,1.037334.106666.161333-.246666-.104-.721333-.193334-.926666-.326666-.754667-.666666-1.502667-.856-2.317334-.313333-1.350666-.272-2.630666.053334-3.873333L574,0ZM440.457333,447.652c5.518667,0,10,4.481333,10,10c0,5.52-4.481333,10-10,10-5.52,0-10-4.48-10-10c0-5.518667,4.48-10,10-10Zm-3.098666,4.610667c-.328-.497334-.918667-.590667-1.434667-.48-1.053333.224-1.925333,1.145333-2.406667,2.166666-1.212,2.572-.972,5.942667.445334,8.349334.577333.978666,1.382666,1.878666,2.36,2.364.209333.102666.830666.418666,1.036.106666.162666-.245333-.104-.721333-.192-.926666-.326667-.754667-.668-1.502667-.856-2.317334-.458667-1.977333-.158667-3.802666.681333-5.584.453333-.961333,1.024-2.681333.366667-3.678666Zm-14.936-216.68c5.518666,0,10,4.48,10,10c0,5.518666-4.481334,10-10,10s-10-4.481334-10-10c0-5.52,4.481333-10,10-10Zm-3.097334,4.610666c-.328-.497333-.918666-.590666-1.436-.481333-1.053333.225333-1.925333,1.145333-2.406666,2.166667-1.212,2.572-.970667,5.944.446666,8.349333.576.978667,1.381334,1.88,2.358667,2.364.209333.104.832.418667,1.037333.108.161334-.246667-.104-.721333-.193333-.928-.326667-.753333-.666667-1.502667-.856-2.316-.458667-1.977333-.157333-3.804.681333-5.584.453334-.962667,1.024-2.682667.368-3.678667ZM162.992,487.781333c5.52,0,10,4.481334,10,10s-4.48,10-10,10c-5.518667,0-10-4.481333-10-10s4.481333-10,10-10ZM159.894667,492.392c-.328-.497333-.918667-.590667-1.434667-.481333-1.054667.225333-1.925333,1.145333-2.408,2.168-1.210667,2.572-.970667,5.942666.446667,8.349333.577333.978667,1.382666,1.878667,2.36,2.364.208.102667.830666.418667,1.036.106667.162666-.246667-.104-.721334-.193334-.926667-.325333-.754667-.666666-1.502667-.856-2.317333-.458666-1.977334-.157333-3.802667.682667-5.584.453333-.961334,1.024-2.682667.366667-3.678667Zm87.334666,193.462667c5.518667,0,10,4.481333,10,10c0,5.52-4.481333,10-10,10s-10-4.48-10-10c0-5.518667,4.481334-10,10-10Zm-3.097333,4.612c-.328-.498667-.918667-.592-1.436-.481334-1.053333.224-1.925333,1.145334-2.406667,2.166667-1.212,2.572-.970666,5.942667.446667,8.349333.576.978667,1.382667,1.878667,2.358667,2.364.209333.104.832.418667,1.037333.106667.161333-.245333-.104-.721333-.193333-.926667-.326667-.753333-.666667-1.502666-.856-2.316-.458667-1.978666-.157334-3.804.681333-5.584.454667-.962666,1.025333-2.682666.368-3.678666Zm196.918667-44.909334c5.518666,0,10,4.48,10,10c0,5.518667-4.481334,10-10,10s-10-4.481333-10-10c0-5.52,4.481333-10,10-10ZM437.953333,650.168c-.328-.497333-.918666-.590667-1.436-.481333-1.053333.225333-1.925333,1.145333-2.406666,2.168-1.212,2.570666-.970667,5.942666.446666,8.348.576.98,1.381334,1.88,2.358667,2.364.209333.104.832.418666,1.037333.108.161334-.246667-.104-.721334-.193333-.926667-.326667-.754667-.666667-1.502667-.856-2.317333-.458667-1.977334-.157333-3.802667.681333-5.584.453334-.962667,1.024-2.682667.368-3.678667ZM347.924,84.589333c5.52,0,10,4.481334,10,10c0,5.52-4.48,10-10,10-5.518667,0-10-4.48-10-10c0-5.518666,4.481333-10,10-10ZM344.826667,89.2c-.328-.497333-.918667-.590667-1.434667-.48-1.054667.224-1.925333,1.145333-2.406667,2.166667-1.212,2.572-.972,5.942666.445334,8.349333.577333.978667,1.382666,1.878667,2.36,2.364.208.102667.830666.418667,1.036.106667.162666-.245334-.104-.721334-.193334-.926667-.325333-.754667-.666666-1.502667-.856-2.317333-.458666-1.977334-.157333-3.802667.682667-5.584.453333-.961334,1.024-2.681334.366667-3.678667ZM128.577333,69.017333c5.52,0,10,4.481334,10,10c0,5.52-4.48,10-10,10-5.518666,0-10-4.48-10-10c0-5.518666,4.481334-10,10-10ZM125.48,73.628c-.328-.497333-.918667-.590667-1.434667-.48-1.054666.224-1.925333,1.145333-2.408,2.166667-1.210666,2.572-.970666,5.942666.446667,8.349333.577333.978667,1.382667,1.878667,2.36,2.364.208.102667.830667.418667,1.036.106667.162667-.245334-.104-.721334-.193333-.926667-.325334-.754667-.666667-1.502667-.856-2.317333-.458667-1.977334-.157334-3.802667.682666-5.584.453334-.961334,1.024-2.681334.366667-3.678667ZM532.317333,347.816c5.518667,0,10,4.481333,10,10s-4.481333,10-10,10-10-4.481333-10-10s4.481334-10,10-10ZM529.22,352.426667c-.328-.497334-.918667-.590667-1.434667-.481334-1.054666.225334-1.925333,1.145334-2.408,2.168-1.212,2.570667-.970666,5.942667.446667,8.348.576.98,1.382667,1.88,2.36,2.364.208.104.830667.418667,1.036.108.162667-.246666-.104-.721333-.193333-.926666-.326667-.754667-.666667-1.502667-.856-2.317334-.458667-1.977333-.157334-3.802666.682666-5.584.453334-.962666,1.024-2.682666.366667-3.678666Zm-164.942667,156.308c5.52,0,10,4.48,10,10c0,5.518666-4.48,10-10,10-5.518666,0-10-4.481334-10-10c0-5.52,4.481334-10,10-10ZM361.18,513.345333c-.328-.497333-.918667-.590666-1.434667-.481333-1.054666.225333-1.925333,1.145333-2.408,2.168-1.210666,2.570667-.970666,5.942667.446667,8.348.576.98,1.382667,1.88,2.36,2.364.208.104.830667.418667,1.036.108.162667-.246667-.104-.721333-.193333-.926667-.326667-.754666-.666667-1.502666-.856-2.317333-.458667-1.977333-.157334-3.802667.682666-5.584.453334-.962667,1.024-2.682667.366667-3.678667Zm283.284-253.128c5.52,0,10,4.48,10,10c0,5.518667-4.48,10-10,10-5.518667,0-10-4.481333-10-10c0-5.52,4.481333-10,10-10ZM641.366667,264.828c-.328-.497333-.918667-.590667-1.434667-.481333-1.054667.225333-1.925333,1.145333-2.408,2.166666-1.210667,2.572-.970667,5.944.446667,8.349334.577333.98,1.382666,1.88,2.36,2.364.208.104.830666.418666,1.036.108.162666-.246667-.104-.721334-.193334-.928-.325333-.753334-.666666-1.501334-.856-2.316-.458666-1.977334-.157333-3.802667.682667-5.584.453333-.962667,1.024-2.682667.366667-3.678667Zm-38.708,227.342667c5.518666,0,10,4.481333,10,10c0,5.52-4.481334,10-10,10s-10-4.48-10-10c0-5.518667,4.481333-10,10-10Zm-3.097334,4.610666c-.328-.497333-.918666-.590666-1.434666-.48-1.054667.224-1.925334,1.145334-2.408,2.166667-1.212,2.572-.970667,5.942667.446666,8.349333.576.978667,1.382667,1.878667,2.36,2.364.208.102667.830667.418667,1.036.106667.162667-.245333-.104-.721333-.193333-.926667-.326667-.754666-.666667-1.502666-.856-2.317333-.458667-1.977333-.157333-3.802667.682667-5.584.453333-.961333,1.024-2.681333.366666-3.678667ZM41.664,434.569333c5.518667,0,10,4.481334,10,10c0,5.52-4.481333,10-10,10s-10-4.48-10-10c0-5.518666,4.481333-10,10-10ZM38.566667,439.18c-.328-.497333-.918667-.590667-1.436-.48-1.053334.224-1.925334,1.145333-2.406667,2.166667-1.212,2.572-.970667,5.942666.446667,8.349333.576.978667,1.381333,1.878667,2.358666,2.364.209334.102667.832.418667,1.037334.106667.161333-.245334-.104-.721334-.193334-.926667-.326666-.754667-.666666-1.502667-.856-2.317333-.458666-1.977334-.157333-3.802667.681334-5.584.453333-.961334,1.025333-2.681334.368-3.678667ZM78.568,639.317333c5.518667,0,10,4.481334,10,10s-4.481333,10-10,10-10-4.481333-10-10s4.481333-10,10-10ZM75.470667,643.928c-.328-.497333-.918667-.590667-1.434667-.481333-1.054667.225333-1.925333,1.146666-2.408,2.168-1.212,2.572-.970667,5.942666.446667,8.349333.576.978667,1.382666,1.878667,2.36,2.364.208.102667.830666.418667,1.036.106667.162666-.246667-.104-.721334-.193334-.926667-.326666-.754667-.666666-1.502667-.856-2.317333-.458666-1.977334-.157333-3.802667.682667-5.584.453333-.961334,1.024-2.682667.366667-3.678667ZM252.432,585.297333c5.518667,0,10,4.481334,10,10s-4.481333,10-10,10-10-4.481333-10-10s4.481333-10,10-10ZM249.334667,589.908c-.328-.497333-.918667-.590667-1.434667-.481333-1.054667.225333-1.925333,1.145333-2.408,2.168-1.212,2.570666-.970667,5.942666.446667,8.348.576.98,1.382666,1.88,2.36,2.364.208.104.830666.418666,1.036.108.162666-.246667-.104-.721334-.193334-.926667-.326666-.754667-.666666-1.502667-.856-2.317333-.458666-1.977334-.157333-3.802667.682667-5.584.453333-.962667,1.024-2.682667.366667-3.678667ZM268,449.045333c5.518667,0,10,4.481334,10,10s-4.481333,10-10,10c-5.52,0-10-4.481333-10-10s4.48-10,10-10ZM264.901333,453.656c-.328-.497333-.918666-.590667-1.434666-.48-1.053334.224-1.925334,1.145333-2.406667,2.166667-1.212,2.572-.972,5.942666.445333,8.349333.577334.978667,1.382667,1.878667,2.36,2.364.209334.102667.830667.418667,1.036.106667.162667-.246667-.104-.721334-.192-.926667-.326666-.754667-.668-1.502667-.856-2.317333-.458666-1.977334-.157333-3.802667.681334-5.584.453333-.961334,1.024-2.682667.366666-3.678667ZM235.568,188.838667c5.518667,0,10,4.481333,10,10s-4.481333,10-10,10c-5.52,0-10-4.481334-10-10s4.48-10,10-10Zm-3.098667,4.610666c-.328-.497333-.918666-.590666-1.434666-.481333-1.053334.225333-1.925334,1.145333-2.406667,2.168-1.212,2.572-.972,5.942667.445333,8.349333.577334.978667,1.382667,1.878667,2.36,2.362667.209334.104.830667.418667,1.036.108.162667-.246667-.104-.721333-.192-.926667-.326666-.754666-.668-1.502666-.856-2.317333-.458666-1.977333-.157333-3.802667.681334-5.584.453333-.961333,1.024-2.682667.366666-3.678667Zm-74.132,101.045334c5.52,0,10,4.481333,10,10s-4.48,10-10,10c-5.518666,0-10-4.481334-10-10s4.481334-10,10-10ZM155.24,299.105333c-.328-.497333-.918667-.590666-1.434667-.481333-1.054666.225333-1.925333,1.145333-2.408,2.168-1.210666,2.570667-.970666,5.942667.446667,8.348.577333.98,1.382667,1.88,2.36,2.364.208.104.830667.418667,1.036.108.162667-.246667-.104-.721333-.193333-.926667-.325334-.754666-.666667-1.502666-.856-2.317333-.458667-1.977333-.157334-3.802667.682666-5.584.453334-.962667,1.024-2.682667.366667-3.678667ZM497.829333,157.256c5.52,0,10,4.481333,10,10s-4.48,10-10,10c-5.518666,0-10-4.481333-10-10s4.481334-10,10-10ZM494.732,161.866667c-.328-.497334-.918667-.590667-1.434667-.48-1.054666.224-1.925333,1.145333-2.406666,2.166666-1.212,2.572-.972,5.942667.445333,8.349334.577333.978666,1.382667,1.878666,2.36,2.364.208.102666.830667.418666,1.036.106666.162667-.246666-.104-.721333-.193333-.926666-.325334-.754667-.666667-1.502667-.856-2.317334-.458667-1.977333-.157334-3.802666.682666-5.584.453334-.961333,1.024-2.682666.366667-3.678666ZM632.546667,80.46c5.518666,0,10,4.481333,10,10c0,5.52-4.481334,10-10,10s-10-4.48-10-10c0-5.518667,4.481333-10,10-10Zm-3.097334,4.610667c-.328-.497334-.918666-.590667-1.434666-.48-1.054667.224-1.926667,1.145333-2.408,2.166666-1.212,2.572-.970667,5.942667.446666,8.349334.576.978666,1.382667,1.878666,2.36,2.364.208.102666.830667.418666,1.036.106666.162667-.245333-.104-.721333-.193333-.926666-.326667-.754667-.666667-1.502667-.856-2.317334-.458667-1.977333-.157333-3.802666.681333-5.584.454667-.961333,1.025334-2.681333.368-3.678666Zm1.873334,568.86c5.518666,0,10,4.48,10,10c0,5.518666-4.481334,10-10,10s-10-4.481334-10-10c0-5.52,4.481333-10,10-10Zm-3.097334,4.610666c-.328-.497333-.918666-.592-1.436-.481333-1.053333.225333-1.925333,1.145333-2.406666,2.166667-1.212,2.572-.970667,5.944.446666,8.349333.576.978667,1.381334,1.88,2.358667,2.364.209333.104.832.418667,1.037333.108.161334-.246667-.104-.721333-.193333-.928-.326667-.753333-.666667-1.502667-.856-2.316-.458667-1.977333-.157333-3.804.681333-5.584.453334-.962667,1.024-2.682667.368-3.678667ZM313.778667,333.4c5.52,0,10,4.48,10,10c0,5.518667-4.48,10-10,10-5.518667,0-10-4.481333-10-10c0-5.52,4.481333-10,10-10Zm-3.097334,4.610667c-.328-.497334-.918666-.590667-1.434666-.481334-1.054667.225334-1.925334,1.145334-2.406667,2.166667-1.212,2.572-.972,5.944.445333,8.349333.577334.98,1.382667,1.88,2.36,2.364.208.104.830667.418667,1.036.108.162667-.246666-.104-.721333-.192-.928-.326666-.753333-.668-1.502666-.856-2.316-.458666-1.977333-.158666-3.804.681334-5.584.453333-.962666,1.024-2.682666.366666-3.678666ZM74.64,203.072c5.518667,0,10,4.481333,10,10c0,5.52-4.481333,10-10,10-5.52,0-10-4.48-10-10c0-5.518667,4.48-10,10-10Zm-3.097333,4.610667c-.328-.497334-.92-.590667-1.436-.48-1.053334.224-1.925334,1.145333-2.406667,2.166666-1.212,2.572-.970667,5.942667.446667,8.349334.576.978666,1.381333,1.878666,2.358666,2.364.209334.102666.832.418666,1.037334.106666.161333-.245333-.104-.721333-.193334-.926666-.326666-.754667-.666666-1.502667-.856-2.317334-.458666-1.977333-.157333-3.802666.681334-5.584.453333-.961333,1.024-2.681333.368-3.678666ZM0,864c5.518667,0,10,4.481333,10,10s-4.481333,10-10,10v-20Zm554,576c0-5.518667,4.481333-10,10-10s10,4.481333,10,10h-14.093333c.150666-.577333.362666-1.146667.628-1.710667.454666-.961333,1.025333-2.682666.368-3.678666-.328-.497334-.918667-.590667-1.434667-.481334-1.054667.225334-1.926667,1.145334-2.408,2.168-.532,1.129334-.784,2.413334-.778667,3.702667L554,1440ZM720,884c-5.518667,0-10-4.481333-10-10s4.481333-10,10-10v20Zm-3.097333-15.389333c-.328-.497334-.918667-.590667-1.434667-.481334-1.054667.225334-1.926667,1.145334-2.408,2.168-1.212,2.572-.970667,5.942667.446667,8.349334.576.978666,1.382666,1.878666,2.358666,2.364.209334.102666.832.418666,1.037334.106666.161333-.246666-.104-.721333-.193334-.926666-.326666-.754667-.666666-1.502667-.856-2.317334-.458666-1.977333-.157333-3.802666.681334-5.584.454666-.961333,1.025333-2.682666.368-3.678666ZM440.457333,1167.652c5.518667,0,10,4.481333,10,10c0,5.52-4.481333,10-10,10-5.52,0-10-4.48-10-10c0-5.518667,4.48-10,10-10Zm-3.098666,4.610667c-.328-.497334-.918667-.590667-1.434667-.48-1.053333.224-1.925333,1.145333-2.406667,2.166666-1.212,2.572-.972,5.942667.445334,8.349334.577333.978666,1.382666,1.878666,2.36,2.364.209333.102666.830666.418666,1.036.106666.162666-.245333-.104-.721333-.192-.926666-.326667-.754667-.668-1.502667-.856-2.317334-.458667-1.977333-.158667-3.802666.681333-5.584.453333-.961333,1.024-2.681333.366667-3.678666Zm-14.936-216.68c5.518666,0,10,4.48,10,10c0,5.518666-4.481334,10-10,10s-10-4.481334-10-10c0-5.52,4.481333-10,10-10Zm-3.097334,4.610666c-.328-.497333-.918666-.590666-1.436-.481333-1.053333.225333-1.925333,1.145333-2.406666,2.166667-1.212,2.572-.970667,5.944.446666,8.349333.576.978667,1.381334,1.88,2.358667,2.364.209333.104.832.418667,1.037333.108.161334-.246667-.104-.721333-.193333-.928-.326667-.753333-.666667-1.502667-.856-2.316-.458667-1.977333-.157333-3.804.681333-5.584.453334-.962667,1.024-2.682667.368-3.678667ZM162.992,1207.781333c5.52,0,10,4.481334,10,10s-4.48,10-10,10c-5.518667,0-10-4.481333-10-10s4.481333-10,10-10Zm-3.097333,4.610667c-.328-.497333-.918667-.590667-1.434667-.481333-1.054667.225333-1.925333,1.145333-2.408,2.168-1.210667,2.572-.970667,5.942666.446667,8.349333.577333.978667,1.382666,1.878667,2.36,2.364.208.102667.830666.418667,1.036.106667.162666-.246667-.104-.721334-.193334-.926667-.325333-.754667-.666666-1.502667-.856-2.317333-.458666-1.977334-.157333-3.802667.682667-5.584.453333-.961334,1.024-2.682667.366667-3.678667Zm87.334666,193.462667c5.518667,0,10,4.481333,10,10c0,5.52-4.481333,10-10,10s-10-4.48-10-10c0-5.518667,4.481334-10,10-10Zm-3.097333,4.612c-.328-.498667-.918667-.592-1.436-.481334-1.053333.224-1.925333,1.145334-2.406667,2.166667-1.212,2.572-.970666,5.942667.446667,8.349333.576.978667,1.382667,1.878667,2.358667,2.364.209333.104.832.418667,1.037333.106667.161333-.245333-.104-.721333-.193333-.926667-.326667-.753333-.666667-1.502666-.856-2.316-.458667-1.978666-.157334-3.804.681333-5.584.454667-.962666,1.025333-2.682666.368-3.678666Zm196.918667-44.909334c5.518666,0,10,4.48,10,10c0,5.518667-4.481334,10-10,10s-10-4.481333-10-10c0-5.52,4.481333-10,10-10Zm-3.097334,4.610667c-.328-.497333-.918666-.590667-1.436-.481333-1.053333.225333-1.925333,1.145333-2.406666,2.168-1.212,2.570666-.970667,5.942666.446666,8.348.576.98,1.381334,1.88,2.358667,2.364.209333.104.832.418666,1.037333.108.161334-.246667-.104-.721334-.193333-.926667-.326667-.754667-.666667-1.502667-.856-2.317333-.458667-1.977334-.157333-3.802667.681333-5.584.453334-.962667,1.024-2.682667.368-3.678667ZM347.924,804.589333c5.52,0,10,4.481334,10,10c0,5.52-4.48,10-10,10-5.518667,0-10-4.48-10-10c0-5.518666,4.481333-10,10-10ZM344.826667,809.2c-.328-.497333-.918667-.590667-1.434667-.48-1.054667.224-1.925333,1.145333-2.406667,2.166667-1.212,2.572-.972,5.942666.445334,8.349333.577333.978667,1.382666,1.878667,2.36,2.364.208.102667.830666.418667,1.036.106667.162666-.245334-.104-.721334-.193334-.926667-.325333-.754667-.666666-1.502667-.856-2.317333-.458666-1.977334-.157333-3.802667.682667-5.584.453333-.961334,1.024-2.681334.366667-3.678667ZM128.577333,789.017333c5.52,0,10,4.481334,10,10c0,5.52-4.48,10-10,10-5.518666,0-10-4.48-10-10c0-5.518666,4.481334-10,10-10ZM125.48,793.628c-.328-.497333-.918667-.590667-1.434667-.48-1.054666.224-1.925333,1.145333-2.408,2.166667-1.210666,2.572-.970666,5.942666.446667,8.349333.577333.978667,1.382667,1.878667,2.36,2.364.208.102667.830667.418667,1.036.106667.162667-.245334-.104-.721334-.193333-.926667-.325334-.754667-.666667-1.502667-.856-2.317333-.458667-1.977334-.157334-3.802667.682666-5.584.453334-.961334,1.024-2.681334.366667-3.678667Zm406.837333,274.188c5.518667,0,10,4.481333,10,10s-4.481333,10-10,10-10-4.481333-10-10s4.481334-10,10-10ZM529.22,1072.426667c-.328-.497334-.918667-.590667-1.434667-.481334-1.054666.225334-1.925333,1.145334-2.408,2.168-1.212,2.570667-.970666,5.942667.446667,8.348.576.98,1.382667,1.88,2.36,2.364.208.104.830667.418667,1.036.108.162667-.246666-.104-.721333-.193333-.926666-.326667-.754667-.666667-1.502667-.856-2.317334-.458667-1.977333-.157334-3.802666.682666-5.584.453334-.962666,1.024-2.682666.366667-3.678666Zm-164.942667,156.308c5.52,0,10,4.48,10,10c0,5.518666-4.48,10-10,10-5.518666,0-10-4.481334-10-10c0-5.52,4.481334-10,10-10ZM361.18,1233.345333c-.328-.497333-.918667-.590666-1.434667-.481333-1.054666.225333-1.925333,1.145333-2.408,2.168-1.210666,2.570667-.970666,5.942667.446667,8.348.576.98,1.382667,1.88,2.36,2.364.208.104.830667.418667,1.036.108.162667-.246667-.104-.721333-.193333-.926667-.326667-.754666-.666667-1.502666-.856-2.317333-.458667-1.977333-.157334-3.802667.682666-5.584.453334-.962667,1.024-2.682667.366667-3.678667Zm283.284-253.128c5.52,0,10,4.48,10,10c0,5.518667-4.48,10-10,10-5.518667,0-10-4.481333-10-10c0-5.52,4.481333-10,10-10ZM641.366667,984.828c-.328-.497333-.918667-.590667-1.434667-.481333-1.054667.225333-1.925333,1.145333-2.408,2.166666-1.210667,2.572-.970667,5.944.446667,8.349334.577333.98,1.382666,1.88,2.36,2.364.208.104.830666.418666,1.036.108.162666-.246667-.104-.721334-.193334-.928-.325333-.753334-.666666-1.501334-.856-2.316-.458666-1.977334-.157333-3.802667.682667-5.584.453333-.962667,1.024-2.682667.366667-3.678667Zm-38.708,227.342667c5.518666,0,10,4.481333,10,10c0,5.52-4.481334,10-10,10s-10-4.48-10-10c0-5.518667,4.481333-10,10-10Zm-3.097334,4.610666c-.328-.497333-.918666-.590666-1.434666-.48-1.054667.224-1.925334,1.145334-2.408,2.166667-1.212,2.572-.970667,5.942667.446666,8.349333.576.978667,1.382667,1.878667,2.36,2.364.208.102667.830667.418667,1.036.106667.162667-.245333-.104-.721333-.193333-.926667-.326667-.754666-.666667-1.502666-.856-2.317333-.458667-1.977333-.157333-3.802667.682667-5.584.453333-.961333,1.024-2.681333.366666-3.678667ZM41.664,1154.569333c5.518667,0,10,4.481334,10,10c0,5.52-4.481333,10-10,10s-10-4.48-10-10c0-5.518666,4.481333-10,10-10ZM38.566667,1159.18c-.328-.497333-.918667-.590667-1.436-.48-1.053334.224-1.925334,1.145333-2.406667,2.166667-1.212,2.572-.970667,5.942666.446667,8.349333.576.978667,1.381333,1.878667,2.358666,2.364.209334.102667.832.418667,1.037334.106667.161333-.245334-.104-.721334-.193334-.926667-.326666-.754667-.666666-1.502667-.856-2.317333-.458666-1.977334-.157333-3.802667.681334-5.584.453333-.961334,1.025333-2.681334.368-3.678667ZM78.568,1359.317333c5.518667,0,10,4.481334,10,10s-4.481333,10-10,10-10-4.481333-10-10s4.481333-10,10-10ZM75.470667,1363.928c-.328-.497333-.918667-.590667-1.434667-.481333-1.054667.225333-1.925333,1.146666-2.408,2.168-1.212,2.572-.970667,5.942666.446667,8.349333.576.978667,1.382666,1.878667,2.36,2.364.208.102667.830666.418667,1.036.106667.162666-.246667-.104-.721334-.193334-.926667-.326666-.754667-.666666-1.502667-.856-2.317333-.458666-1.977334-.157333-3.802667.682667-5.584.453333-.961334,1.024-2.682667.366667-3.678667ZM252.432,1305.297333c5.518667,0,10,4.481334,10,10s-4.481333,10-10,10-10-4.481333-10-10s4.481333-10,10-10Zm-3.097333,4.610667c-.328-.497333-.918667-.590667-1.434667-.481333-1.054667.225333-1.925333,1.145333-2.408,2.168-1.212,2.570666-.970667,5.942666.446667,8.348.576.98,1.382666,1.88,2.36,2.364.208.104.830666.418666,1.036.108.162666-.246667-.104-.721334-.193334-.926667-.326666-.754667-.666666-1.502667-.856-2.317333-.458666-1.977334-.157333-3.802667.682667-5.584.453333-.962667,1.024-2.682667.366667-3.678667ZM268,1169.045333c5.518667,0,10,4.481334,10,10s-4.481333,10-10,10c-5.52,0-10-4.481333-10-10s4.48-10,10-10Zm-3.098667,4.610667c-.328-.497333-.918666-.590667-1.434666-.48-1.053334.224-1.925334,1.145333-2.406667,2.166667-1.212,2.572-.972,5.942666.445333,8.349333.577334.978667,1.382667,1.878667,2.36,2.364.209334.102667.830667.418667,1.036.106667.162667-.246667-.104-.721334-.192-.926667-.326666-.754667-.668-1.502667-.856-2.317333-.458666-1.977334-.157333-3.802667.681334-5.584.453333-.961334,1.024-2.682667.366666-3.678667ZM235.568,908.838667c5.518667,0,10,4.481333,10,10s-4.481333,10-10,10c-5.52,0-10-4.481334-10-10s4.48-10,10-10Zm-3.098667,4.610666c-.328-.497333-.918666-.590666-1.434666-.481333-1.053334.225333-1.925334,1.145333-2.406667,2.168-1.212,2.572-.972,5.942667.445333,8.349333.577334.978667,1.382667,1.878667,2.36,2.362667.209334.104.830667.418667,1.036.108.162667-.246667-.104-.721333-.192-.926667-.326666-.754666-.668-1.502666-.856-2.317333-.458666-1.977333-.157333-3.802667.681334-5.584.453333-.961333,1.024-2.682667.366666-3.678667Zm-74.132,101.045334c5.52,0,10,4.481333,10,10s-4.48,10-10,10c-5.518666,0-10-4.481334-10-10s4.481334-10,10-10ZM155.24,1019.105333c-.328-.497333-.918667-.590666-1.434667-.481333-1.054666.225333-1.925333,1.145333-2.408,2.168-1.210666,2.570667-.970666,5.942667.446667,8.348.577333.98,1.382667,1.88,2.36,2.364.208.104.830667.418667,1.036.108.162667-.246667-.104-.721333-.193333-.926667-.325334-.754666-.666667-1.502666-.856-2.317333-.458667-1.977333-.157334-3.802667.682666-5.584.453334-.962667,1.024-2.682667.366667-3.678667ZM497.829333,877.256c5.52,0,10,4.481333,10,10s-4.48,10-10,10c-5.518666,0-10-4.481333-10-10s4.481334-10,10-10ZM494.732,881.866667c-.328-.497334-.918667-.590667-1.434667-.48-1.054666.224-1.925333,1.145333-2.406666,2.166666-1.212,2.572-.972,5.942667.445333,8.349334.577333.978666,1.382667,1.878666,2.36,2.364.208.102666.830667.418666,1.036.106666.162667-.246666-.104-.721333-.193333-.926666-.325334-.754667-.666667-1.502667-.856-2.317334-.458667-1.977333-.157334-3.802666.682666-5.584.453334-.961333,1.024-2.682666.366667-3.678666ZM632.546667,800.46c5.518666,0,10,4.481333,10,10c0,5.52-4.481334,10-10,10s-10-4.48-10-10c0-5.518667,4.481333-10,10-10Zm-3.097334,4.610667c-.328-.497334-.918666-.590667-1.434666-.48-1.054667.224-1.926667,1.145333-2.408,2.166666-1.212,2.572-.970667,5.942667.446666,8.349334.576.978666,1.382667,1.878666,2.36,2.364.208.102666.830667.418666,1.036.106666.162667-.245333-.104-.721333-.193333-.926666-.326667-.754667-.666667-1.502667-.856-2.317334-.458667-1.977333-.157333-3.802666.681333-5.584.454667-.961333,1.025334-2.681333.368-3.678666Zm1.873334,568.86c5.518666,0,10,4.48,10,10c0,5.518666-4.481334,10-10,10s-10-4.481334-10-10c0-5.52,4.481333-10,10-10Zm-3.097334,4.610666c-.328-.497333-.918666-.592-1.436-.481333-1.053333.225333-1.925333,1.145333-2.406666,2.166667-1.212,2.572-.970667,5.944.446666,8.349333.576.978667,1.381334,1.88,2.358667,2.364.209333.104.832.418667,1.037333.108.161334-.246667-.104-.721333-.193333-.928-.326667-.753333-.666667-1.502667-.856-2.316-.458667-1.977333-.157333-3.804.681333-5.584.453334-.962667,1.024-2.682667.368-3.678667ZM313.778667,1053.4c5.52,0,10,4.48,10,10c0,5.518667-4.48,10-10,10-5.518667,0-10-4.481333-10-10c0-5.52,4.481333-10,10-10Zm-3.097334,4.610667c-.328-.497334-.918666-.590667-1.434666-.481334-1.054667.225334-1.925334,1.145334-2.406667,2.166667-1.212,2.572-.972,5.944.445333,8.349333.577334.98,1.382667,1.88,2.36,2.364.208.104.830667.418667,1.036.108.162667-.246666-.104-.721333-.192-.928-.326666-.753333-.668-1.502666-.856-2.316-.458666-1.977333-.158666-3.804.681334-5.584.453333-.962666,1.024-2.682666.366666-3.678666ZM74.64,923.072c5.518667,0,10,4.481333,10,10c0,5.52-4.481333,10-10,10-5.52,0-10-4.48-10-10c0-5.518667,4.48-10,10-10Zm-3.097333,4.610667c-.328-.497334-.92-.590667-1.436-.48-1.053334.224-1.925334,1.145333-2.406667,2.166666-1.212,2.572-.970667,5.942667.446667,8.349334.576.978666,1.381333,1.878666,2.358666,2.364.209334.102666.832.418666,1.037334.106666.161333-.245333-.104-.721333-.193334-.926666-.326666-.754667-.666666-1.502667-.856-2.317334-.458666-1.977333-.157333-3.802666.681334-5.584.453333-.961333,1.024-2.681333.368-3.678666Z" transform="translate(-360,-720)" clip-rule="evenodd" fill="#9d91e2" fill-rule="evenodd" stroke-linejoin="round" stroke-miterlimit="2"/></g><g id="evEFSul6xnV4_to" transform="translate(360,1440)"><path d="M0,743v-46c12.69467,0,23,10.30533,23,23s-10.30533,23-23,23Zm697-23c0-12.69467,10.30533-23,23-23v46c-12.69467,0-23-10.30533-23-23Zm13.584,0c.348-1.32667.83467-2.636,1.44667-3.93467c1.044-2.212,2.356-6.16933.844-8.46133-.75333-1.144-2.112-1.35867-3.3-1.10533-2.424.51733-4.428,2.63467-5.536,4.984-1.224,2.59867-1.804,5.55333-1.79333,8.51733.01467,3.78267.992,7.58267,2.81867,10.68667c1.32667,2.25067,3.18,4.32133,5.428,5.436.48.23867,1.91067.96267,2.38267.24667.37467-.56533-.23867-1.65867-.44267-2.132-.75067-1.73467-1.53467-3.45467-1.96933-5.328-.72-3.10667-.62533-6.05067.12133-8.90933L710.584,720ZM23,0C23,12.69467,12.69467,23,0,23L0,0h23ZM720,23c-12.69467,0-23-10.30533-23-23h5.24533c.01467,3.78267.992,7.58267,2.81867,10.68667c1.32667,2.25067,3.18,4.32133,5.428,5.436.48.23867,1.91067.96267,2.38267.24667.37467-.56533-.23867-1.65867-.44267-2.132-.75067-1.73467-1.53467-3.45467-1.96933-5.328-.72-3.10667-.62533-6.05067.12133-8.90933h9.416L720,23ZM187.328,125.83467c12.69467,0,23,10.30667,23,23c0,12.69467-10.30533,23-23,23-12.69333,0-23-10.30533-23-23c0-12.69333,10.30667-23,23-23ZM180.204,136.44c-.75467-1.144-2.11333-1.36-3.30133-1.10667-2.424.51733-4.428,2.63467-5.536,4.984-2.78667,5.916-2.23333,13.66933,1.02667,19.204c1.32667,2.252,3.17867,4.32133,5.42667,5.436.48.23867,1.912.964,2.384.248.37333-.56667-.24-1.66-.444-2.132-.75067-1.736-1.53467-3.456-1.96933-5.32933-1.05467-4.548-.36133-8.74667,1.568-12.844c1.044-2.212,2.356-6.168.84533-8.46h-.00001ZM82.17067,386.05733c12.69467,0,23,10.30667,23,23c0,12.69467-10.30533,23-23,23-12.69333,0-23-10.30533-23-23c0-12.69333,10.30667-23,23-23Zm-7.124,10.60534c-.75467-1.144-2.11333-1.35867-3.30133-1.10667-2.424.51733-4.428,2.63467-5.536,4.98533-2.78667,5.91467-2.23333,13.668,1.02533,19.20267c1.32667,2.252,3.18,4.32133,5.428,5.43733.48.23733,1.91067.96267,2.384.24667.37333-.56667-.24-1.66-.444-2.132-.75067-1.73467-1.53467-3.456-1.96933-5.32933-1.05467-4.548-.36133-8.74667,1.568-12.84267c1.044-2.21333,2.356-6.16933.84533-8.46133ZM268.6,466.35467c12.69333,0,23,10.30667,23,23c0,12.69467-10.30667,23-23,23-12.69467,0-23-10.30533-23-23c0-12.69333,10.30533-23,23-23ZM261.47467,476.96c-.75467-1.144-2.11333-1.35867-3.3-1.10667-2.424.51733-4.42933,2.63467-5.536,4.98533-2.788,5.91467-2.23467,13.668,1.02533,19.20267c1.32667,2.252,3.18,4.32133,5.42667,5.43733.48.23733,1.912.96267,2.384.24667.37333-.56667-.23867-1.66-.444-2.132-.75067-1.73467-1.53467-3.456-1.968-5.32933-1.056-4.548-.36267-8.74667,1.568-12.84267c1.04267-2.21333,2.356-6.16933.844-8.46133ZM493.42133,95.12933c12.69467,0,23,10.30667,23,23c0,12.69467-10.30533,23-23,23-12.69333,0-23-10.30533-23-23c0-12.69333,10.30667-23,23-23Zm-7.124,10.60534c-.75467-1.144-2.11333-1.35867-3.3-1.10667-2.42533.51733-4.42933,2.63467-5.53733,4.98533-2.78667,5.91467-2.23333,13.668,1.02667,19.20267c1.32667,2.252,3.17867,4.32133,5.42667,5.43733.48.23733,1.912.96267,2.384.24667.37333-.56667-.23867-1.66-.444-2.132-.75067-1.73467-1.53467-3.456-1.96933-5.32933-1.05467-4.548-.36133-8.74667,1.56933-12.84267c1.04267-2.21333,2.35467-6.16933.844-8.46133h-.00001Zm-121.08,178.408c12.69467,0,23,10.30667,23,23c0,12.69467-10.30533,23-23,23s-23-10.30533-23-23c0-12.69333,10.30533-23,23-23ZM358.092,294.748c-.75333-1.144-2.112-1.35867-3.3-1.10533-2.424.516-4.428,2.63333-5.536,4.984-2.78667,5.91467-2.23467,13.668,1.02533,19.20267c1.32667,2.252,3.18,4.32133,5.428,5.43733.48.23733,1.91067.96267,2.38267.24667.37333-.56667-.23867-1.66-.44267-2.132-.75067-1.73467-1.53467-3.456-1.96933-5.32933-1.05467-4.548-.36267-8.74667,1.568-12.84267c1.04267-2.21333,2.356-6.16933.844-8.46133v-.00001ZM516.42133,539.252c12.69467,0,23,10.30667,23,23c0,12.69467-10.30533,23-23,23-12.69333,0-23-10.30533-23-23c0-12.69333,10.30667-23,23-23Zm-7.124,10.60533c-.75467-1.14533-2.11333-1.36-3.3-1.10667-2.42533.51733-4.42933,2.63467-5.53733,4.984-2.78667,5.916-2.23333,13.66933,1.02667,19.204c1.32667,2.25067,3.17867,4.32133,5.42667,5.436.48.23867,1.912.96267,2.384.24667.37333-.56533-.23867-1.65867-.444-2.13067-.75067-1.736-1.53467-3.456-1.96933-5.32933-1.05467-4.548-.36133-8.74667,1.56933-12.844c1.04267-2.212,2.35467-6.16933.844-8.46h-.00001Zm78.35067-209.8c12.69467,0,23,10.30667,23,23c0,12.69467-10.30533,23-23,23-12.69333,0-23-10.30533-23-23c0-12.69333,10.30667-23,23-23Zm-7.124,10.60534c-.75467-1.144-2.11333-1.35867-3.3-1.10667-2.424.51733-4.42933,2.63467-5.53733,4.98533-2.78667,5.91467-2.23333,13.668,1.02667,19.20267c1.32667,2.252,3.17867,4.32133,5.42667,5.43733.48.23733,1.912.96267,2.384.24667.37333-.56667-.23867-1.66-.444-2.132-.75067-1.73467-1.53467-3.456-1.968-5.32933-1.056-4.548-.36267-8.74667,1.568-12.84267c1.04267-2.21333,2.35467-6.16933.844-8.46133h-.00001ZM164.328,619.16933c12.69467,0,23,10.30667,23,23c0,12.69467-10.30533,23-23,23-12.69333,0-23-10.30533-23-23c0-12.69333,10.30667-23,23-23Zm-7.124,10.60534c-.75467-1.144-2.11333-1.35867-3.30133-1.10533-2.424.516-4.428,2.63333-5.536,4.984-2.78667,5.91467-2.23333,13.668,1.02667,19.20267c1.32667,2.252,3.17867,4.32133,5.42667,5.43733.48.23733,1.912.96267,2.384.24667.37333-.56667-.24-1.66-.444-2.132-.75067-1.73467-1.53467-3.456-1.96933-5.32933-1.05467-4.548-.36133-8.74667,1.568-12.84267c1.044-2.21333,2.356-6.16933.84533-8.46133l-.00001-.00001ZM0,1417c12.69467,0,23,10.30533,23,23c0,0,0,0,0,0c0,12.69466-10.30533,23-23,23v-46Zm720,0v46c-12.69467,0-23-10.30533-23-23c0,0,0,0,0-.00001c0-12.69466,10.30533-23,23-22.99999Zm-7.96933,19.06533c1.044-2.212,2.356-6.16933.844-8.46133-.75333-1.144-2.112-1.35867-3.3-1.10533-2.424.51733-4.428,2.63467-5.536,4.984-1.224,2.59866-1.804,5.55333-1.79333,8.51733c0,0,0,0,0,0c.01467,3.78267.992,7.58266,2.81867,10.68666c1.32667,2.25067,3.18,4.32133,5.428,5.436.48.23867,1.91067.96267,2.38267.24667.37467-.56533-.23867-1.65867-.44267-2.132-.75067-1.73467-1.53467-3.45467-1.96933-5.328-.72-3.10667-.62533-6.05067.12133-8.90933v0c.348-1.32667.83467-2.636,1.44667-3.93466l-.00001-.00001ZM187.328,845.83467c12.69467,0,23,10.30667,23,23c0,12.69467-10.30533,23-23,23-12.69333,0-23-10.30533-23-23c0-12.69333,10.30667-23,23-23ZM180.204,856.44c-.75467-1.144-2.11333-1.36-3.30133-1.10667-2.424.51733-4.428,2.63467-5.536,4.984-2.78667,5.916-2.23333,13.66933,1.02667,19.204c1.32667,2.252,3.17867,4.32133,5.42667,5.436.48.23867,1.912.964,2.384.248.37333-.56667-.24-1.66-.444-2.132-.75067-1.736-1.53467-3.456-1.96933-5.32933-1.05467-4.548-.36133-8.74667,1.568-12.844c1.044-2.212,2.356-6.168.84533-8.46h-.00001ZM82.17067,1106.05733c12.69467,0,23,10.30667,23,23c0,12.69467-10.30533,23-23,23-12.69333,0-23-10.30533-23-23c0-12.69333,10.30667-23,23-23Zm-7.124,10.60534c-.75467-1.144-2.11333-1.35867-3.30133-1.10667-2.424.51733-4.428,2.63467-5.536,4.98533-2.78667,5.91467-2.23333,13.668,1.02533,19.20267c1.32667,2.252,3.18,4.32133,5.428,5.43733.48.23733,1.91067.96267,2.384.24667.37333-.56667-.24-1.66-.444-2.132-.75067-1.73467-1.53467-3.456-1.96933-5.32933-1.05467-4.548-.36133-8.74667,1.568-12.84267c1.044-2.21333,2.356-6.16933.84533-8.46133ZM268.6,1186.35467c12.69333,0,23,10.30667,23,23c0,12.69467-10.30667,23-23,23-12.69467,0-23-10.30533-23-23c0-12.69333,10.30533-23,23-23ZM261.47467,1196.96c-.75467-1.144-2.11333-1.35867-3.3-1.10667-2.424.51733-4.42933,2.63467-5.536,4.98533-2.788,5.91467-2.23467,13.668,1.02533,19.20267c1.32667,2.252,3.18,4.32133,5.42667,5.43733.48.23733,1.912.96267,2.384.24667.37333-.56667-.23867-1.66-.444-2.132-.75067-1.73467-1.53467-3.456-1.968-5.32933-1.056-4.548-.36267-8.74667,1.568-12.84267c1.04267-2.21333,2.356-6.16933.844-8.46133ZM493.42133,815.12933c12.69467,0,23,10.30667,23,23c0,12.69467-10.30533,23-23,23-12.69333,0-23-10.30533-23-23c0-12.69333,10.30667-23,23-23Zm-7.124,10.60534c-.75467-1.144-2.11333-1.35867-3.3-1.10667-2.42533.51733-4.42933,2.63467-5.53733,4.98533-2.78667,5.91467-2.23333,13.668,1.02667,19.20267c1.32667,2.252,3.17867,4.32133,5.42667,5.43733.48.23733,1.912.96267,2.384.24667.37333-.56667-.23867-1.66-.444-2.132-.75067-1.73467-1.53467-3.456-1.96933-5.32933-1.05467-4.548-.36133-8.74667,1.56933-12.84267c1.04267-2.21333,2.35467-6.16933.844-8.46133h-.00001Zm-121.08,178.408c12.69467,0,23,10.30667,23,23c0,12.69467-10.30533,23-23,23s-23-10.30533-23-23c0-12.69333,10.30533-23,23-23ZM358.092,1014.748c-.75333-1.144-2.112-1.35867-3.3-1.10533-2.424.516-4.428,2.63333-5.536,4.984-2.78667,5.91467-2.23467,13.668,1.02533,19.20267c1.32667,2.252,3.18,4.32133,5.428,5.43733.48.23733,1.91067.96267,2.38267.24667.37333-.56667-.23867-1.66-.44267-2.132-.75067-1.73467-1.53467-3.456-1.96933-5.32933-1.05467-4.548-.36267-8.74667,1.568-12.84267c1.04267-2.21333,2.356-6.16933.844-8.46133v-.00001Zm158.32933,244.504c12.69467,0,23,10.30667,23,23c0,12.69467-10.30533,23-23,23-12.69333,0-23-10.30533-23-23c0-12.69333,10.30667-23,23-23Zm-7.124,10.60533c-.75467-1.14533-2.11333-1.36-3.3-1.10667-2.42533.51733-4.42933,2.63467-5.53733,4.984-2.78667,5.916-2.23333,13.66933,1.02667,19.204c1.32667,2.25067,3.17867,4.32133,5.42667,5.436.48.23867,1.912.96267,2.384.24667.37333-.56533-.23867-1.65867-.444-2.13067-.75067-1.736-1.53467-3.456-1.96933-5.32933-1.05467-4.548-.36133-8.74667,1.56933-12.844c1.04267-2.212,2.35467-6.16933.844-8.46h-.00001Zm78.35067-209.8c12.69467,0,23,10.30667,23,23c0,12.69467-10.30533,23-23,23-12.69333,0-23-10.30533-23-23c0-12.69333,10.30667-23,23-23Zm-7.124,10.60534c-.75467-1.144-2.11333-1.35867-3.3-1.10667-2.424.51733-4.42933,2.63467-5.53733,4.98533-2.78667,5.91467-2.23333,13.668,1.02667,19.20267c1.32667,2.252,3.17867,4.32133,5.42667,5.43733.48.23733,1.912.96267,2.384.24667.37333-.56667-.23867-1.66-.444-2.132-.75067-1.73467-1.53467-3.456-1.968-5.32933-1.056-4.548-.36267-8.74667,1.568-12.84267c1.04267-2.21333,2.35467-6.16933.844-8.46133h-.00001ZM164.328,1339.16933c12.69467,0,23,10.30667,23,23c0,12.69467-10.30533,23-23,23-12.69333,0-23-10.30533-23-23c0-12.69333,10.30667-23,23-23Zm-7.124,10.60534c-.75467-1.144-2.11333-1.35867-3.30133-1.10533-2.424.516-4.428,2.63333-5.536,4.984-2.78667,5.91467-2.23333,13.668,1.02667,19.20267c1.32667,2.252,3.17867,4.32133,5.42667,5.43733.48.23733,1.912.96267,2.384.24667.37333-.56667-.24-1.66-.444-2.132-.75067-1.73467-1.53467-3.456-1.96933-5.32933-1.05467-4.548-.36133-8.74667,1.568-12.84267c1.044-2.21333,2.356-6.16933.84533-8.46133l-.00001-.00001ZM0,2183v-46c12.69467,0,23,10.30533,23,23s-10.30533,23-23,23Zm697-23c0-12.69467,10.30533-23,23-23v46c-12.69467,0-23-10.30533-23-23Zm13.584,0c.348-1.32667.83467-2.636,1.44667-3.93467c1.044-2.212,2.356-6.16933.844-8.46133-.75333-1.144-2.112-1.35867-3.3-1.10533-2.424.51733-4.428,2.63467-5.536,4.984-1.224,2.59867-1.804,5.55333-1.79333,8.51733.01467,3.78267.992,7.58267,2.81867,10.68667c1.32667,2.25067,3.18,4.32133,5.428,5.436.48.23867,1.91067.96267,2.38267.24667.37467-.56533-.23867-1.65867-.44267-2.132-.75067-1.73467-1.53467-3.45467-1.96933-5.328-.72-3.10667-.62533-6.05067.12133-8.90933L710.584,2160ZM187.328,1565.83466c12.69467,0,23,10.30667,23,23c0,12.69467-10.30533,23-23,23-12.69333,0-23-10.30533-23-23c0-12.69333,10.30667-23,23-23ZM180.204,1576.44c-.75467-1.144-2.11333-1.36-3.30133-1.10667-2.424.51733-4.428,2.63467-5.536,4.984-2.78667,5.916-2.23333,13.66933,1.02667,19.204c1.32667,2.252,3.17867,4.32133,5.42667,5.436.48.23867,1.912.964,2.384.248.37333-.56667-.24-1.66-.444-2.132-.75067-1.736-1.53467-3.456-1.96933-5.32933-1.05467-4.548-.36133-8.74667,1.568-12.844c1.044-2.212,2.356-6.168.84533-8.46h-.00001ZM82.17067,1826.05733c12.69467,0,23,10.30667,23,23c0,12.69467-10.30533,23-23,23-12.69333,0-23-10.30533-23-23c0-12.69333,10.30667-23,23-23Zm-7.124,10.60533c-.75467-1.144-2.11333-1.35867-3.30133-1.10667-2.424.51733-4.428,2.63467-5.536,4.98533-2.78667,5.91467-2.23333,13.668,1.02533,19.20267c1.32667,2.252,3.18,4.32133,5.428,5.43733.48.23733,1.91067.96267,2.384.24667.37333-.56667-.24-1.66-.444-2.132-.75067-1.73467-1.53467-3.456-1.96933-5.32933-1.05467-4.548-.36133-8.74667,1.568-12.84267c1.044-2.21333,2.356-6.16933.84533-8.46133ZM268.6,1906.35466c12.69333,0,23,10.30667,23,23c0,12.69467-10.30667,23-23,23-12.69467,0-23-10.30533-23-23c0-12.69333,10.30533-23,23-23ZM261.47467,1916.96c-.75467-1.144-2.11333-1.35867-3.3-1.10667-2.424.51733-4.42933,2.63467-5.536,4.98533-2.788,5.91467-2.23467,13.668,1.02533,19.20267c1.32667,2.252,3.18,4.32133,5.42667,5.43733.48.23733,1.912.96267,2.384.24667.37333-.56667-.23867-1.66-.444-2.132-.75067-1.73467-1.53467-3.456-1.968-5.32933-1.056-4.548-.36267-8.74667,1.568-12.84267c1.04267-2.21333,2.356-6.16933.844-8.46133Zm231.94666-381.83067c12.69467,0,23,10.30667,23,23c0,12.69467-10.30533,23-23,23-12.69333,0-23-10.30533-23-23c0-12.69333,10.30667-23,23-23Zm-7.124,10.60533c-.75467-1.144-2.11333-1.35867-3.3-1.10667-2.42533.51733-4.42933,2.63467-5.53733,4.98533-2.78667,5.91467-2.23333,13.668,1.02667,19.20267c1.32667,2.252,3.17867,4.32133,5.42667,5.43733.48.23733,1.912.96267,2.384.24667.37333-.56667-.23867-1.66-.444-2.132-.75067-1.73467-1.53467-3.456-1.96933-5.32933-1.05467-4.548-.36133-8.74667,1.56933-12.84267c1.04267-2.21333,2.35467-6.16933.844-8.46133h-.00001Zm-121.08,178.408c12.69467,0,23,10.30667,23,23c0,12.69467-10.30533,23-23,23s-23-10.30533-23-23c0-12.69333,10.30533-23,23-23ZM358.092,1734.748c-.75333-1.144-2.112-1.35867-3.3-1.10533-2.424.516-4.428,2.63333-5.536,4.984-2.78667,5.91467-2.23467,13.668,1.02533,19.20267c1.32667,2.252,3.18,4.32133,5.428,5.43733.48.23733,1.91067.96267,2.38267.24667.37333-.56667-.23867-1.66-.44267-2.132-.75067-1.73467-1.53467-3.456-1.96933-5.32933-1.05467-4.548-.36267-8.74667,1.568-12.84267c1.04267-2.21333,2.356-6.16933.844-8.46133v-.00001Zm158.32933,244.504c12.69467,0,23,10.30667,23,23c0,12.69467-10.30533,23-23,23-12.69333,0-23-10.30533-23-23c0-12.69333,10.30667-23,23-23Zm-7.124,10.60533c-.75467-1.14533-2.11333-1.36-3.3-1.10667-2.42533.51733-4.42933,2.63467-5.53733,4.984-2.78667,5.916-2.23333,13.66933,1.02667,19.204c1.32667,2.25067,3.17867,4.32133,5.42667,5.436.48.23867,1.912.96267,2.384.24667.37333-.56533-.23867-1.65867-.444-2.13067-.75067-1.736-1.53467-3.456-1.96933-5.32933-1.05467-4.548-.36133-8.74667,1.56933-12.844c1.04267-2.212,2.35467-6.16933.844-8.46h-.00001Zm78.35067-209.8c12.69467,0,23,10.30667,23,23c0,12.69467-10.30533,23-23,23-12.69333,0-23-10.30533-23-23c0-12.69333,10.30667-23,23-23Zm-7.124,10.60533c-.75467-1.144-2.11333-1.35867-3.3-1.10667-2.424.51733-4.42933,2.63467-5.53733,4.98533-2.78667,5.91467-2.23333,13.668,1.02667,19.20267c1.32667,2.252,3.17867,4.32133,5.42667,5.43733.48.23733,1.912.96267,2.384.24667.37333-.56667-.23867-1.66-.444-2.132-.75067-1.73467-1.53467-3.456-1.968-5.32933-1.056-4.548-.36267-8.74667,1.568-12.84267c1.04267-2.21333,2.35467-6.16933.844-8.46133h-.00001ZM164.328,2059.16933c12.69467,0,23,10.30667,23,23c0,12.69467-10.30533,23-23,23-12.69333,0-23-10.30533-23-23c0-12.69333,10.30667-23,23-23Zm-7.124,10.60533c-.75467-1.144-2.11333-1.35867-3.30133-1.10533-2.424.516-4.428,2.63333-5.536,4.984-2.78667,5.91467-2.23333,13.668,1.02667,19.20267c1.32667,2.252,3.17867,4.32133,5.42667,5.43733.48.23733,1.912.96267,2.384.24667.37333-.56667-.24-1.66-.444-2.132-.75067-1.73467-1.53467-3.456-1.96933-5.32933-1.05467-4.548-.36133-8.74667,1.568-12.84267c1.044-2.21333,2.356-6.16933.84533-8.46133l-.00001-.00001ZM0,2857c12.69467,0,23,10.30533,23,23h-23v-23Zm697,23c0-12.69467,10.30533-23,23-23v23h-9.416c.348-1.32667.83467-2.636,1.44667-3.93467c1.044-2.212,2.356-6.16933.844-8.46133-.75333-1.144-2.112-1.35867-3.3-1.10533-2.424.51733-4.428,2.63467-5.536,4.984-1.224,2.59867-1.804,5.55333-1.79333,8.51733L697,2880ZM187.328,2285.83466c12.69467,0,23,10.30667,23,23c0,12.69467-10.30533,23-23,23-12.69333,0-23-10.30533-23-23c0-12.69333,10.30667-23,23-23ZM180.204,2296.44c-.75467-1.144-2.11333-1.36-3.30133-1.10667-2.424.51733-4.428,2.63467-5.536,4.984-2.78667,5.916-2.23333,13.66933,1.02667,19.204c1.32667,2.252,3.17867,4.32133,5.42667,5.436.48.23867,1.912.964,2.384.248.37333-.56667-.24-1.66-.444-2.132-.75067-1.736-1.53467-3.456-1.96933-5.32933-1.05467-4.548-.36133-8.74667,1.568-12.844c1.044-2.212,2.356-6.168.84533-8.46h-.00001ZM82.17067,2546.05733c12.69467,0,23,10.30667,23,23c0,12.69467-10.30533,23-23,23-12.69333,0-23-10.30533-23-23c0-12.69333,10.30667-23,23-23Zm-7.124,10.60533c-.75467-1.144-2.11333-1.35867-3.30133-1.10667-2.424.51733-4.428,2.63467-5.536,4.98533-2.78667,5.91467-2.23333,13.668,1.02533,19.20267c1.32667,2.252,3.18,4.32133,5.428,5.43733.48.23733,1.91067.96267,2.384.24667.37333-.56667-.24-1.66-.444-2.132-.75067-1.73467-1.53467-3.456-1.96933-5.32933-1.05467-4.548-.36133-8.74667,1.568-12.84267c1.044-2.21333,2.356-6.16933.84533-8.46133ZM268.6,2626.35466c12.69333,0,23,10.30667,23,23c0,12.69467-10.30667,23-23,23-12.69467,0-23-10.30533-23-23c0-12.69333,10.30533-23,23-23ZM261.47467,2636.96c-.75467-1.144-2.11333-1.35867-3.3-1.10667-2.424.51733-4.42933,2.63467-5.536,4.98533-2.788,5.91467-2.23467,13.668,1.02533,19.20267c1.32667,2.252,3.18,4.32133,5.42667,5.43733.48.23733,1.912.96267,2.384.24667.37333-.56667-.23867-1.66-.444-2.132-.75067-1.73467-1.53467-3.456-1.968-5.32933-1.056-4.548-.36267-8.74667,1.568-12.84267c1.04267-2.21333,2.356-6.16933.844-8.46133Zm231.94666-381.83067c12.69467,0,23,10.30667,23,23c0,12.69467-10.30533,23-23,23-12.69333,0-23-10.30533-23-23c0-12.69333,10.30667-23,23-23Zm-7.124,10.60533c-.75467-1.144-2.11333-1.35867-3.3-1.10667-2.42533.51733-4.42933,2.63467-5.53733,4.98533-2.78667,5.91467-2.23333,13.668,1.02667,19.20267c1.32667,2.252,3.17867,4.32133,5.42667,5.43733.48.23733,1.912.96267,2.384.24667.37333-.56667-.23867-1.66-.444-2.132-.75067-1.73467-1.53467-3.456-1.96933-5.32933-1.05467-4.548-.36133-8.74667,1.56933-12.84267c1.04267-2.21333,2.35467-6.16933.844-8.46133h-.00001Zm-121.08,178.408c12.69467,0,23,10.30667,23,23c0,12.69467-10.30533,23-23,23s-23-10.30533-23-23c0-12.69333,10.30533-23,23-23ZM358.092,2454.748c-.75333-1.144-2.112-1.35867-3.3-1.10533-2.424.516-4.428,2.63333-5.536,4.984-2.78667,5.91467-2.23467,13.668,1.02533,19.20267c1.32667,2.252,3.18,4.32133,5.428,5.43733.48.23733,1.91067.96267,2.38267.24667.37333-.56667-.23867-1.66-.44267-2.132-.75067-1.73467-1.53467-3.456-1.96933-5.32933-1.05467-4.548-.36267-8.74667,1.568-12.84267c1.04267-2.21333,2.356-6.16933.844-8.46133v-.00001Zm158.32933,244.504c12.69467,0,23,10.30667,23,23c0,12.69467-10.30533,23-23,23-12.69333,0-23-10.30533-23-23c0-12.69333,10.30667-23,23-23Zm-7.124,10.60533c-.75467-1.14533-2.11333-1.36-3.3-1.10667-2.42533.51733-4.42933,2.63467-5.53733,4.984-2.78667,5.916-2.23333,13.66933,1.02667,19.204c1.32667,2.25067,3.17867,4.32133,5.42667,5.436.48.23867,1.912.96267,2.384.24667.37333-.56533-.23867-1.65867-.444-2.13067-.75067-1.736-1.53467-3.456-1.96933-5.32933-1.05467-4.548-.36133-8.74667,1.56933-12.844c1.04267-2.212,2.35467-6.16933.844-8.46h-.00001Zm78.35067-209.8c12.69467,0,23,10.30667,23,23c0,12.69467-10.30533,23-23,23-12.69333,0-23-10.30533-23-23c0-12.69333,10.30667-23,23-23Zm-7.124,10.60533c-.75467-1.144-2.11333-1.35867-3.3-1.10667-2.424.51733-4.42933,2.63467-5.53733,4.98533-2.78667,5.91467-2.23333,13.668,1.02667,19.20267c1.32667,2.252,3.17867,4.32133,5.42667,5.43733.48.23733,1.912.96267,2.384.24667.37333-.56667-.23867-1.66-.444-2.132-.75067-1.73467-1.53467-3.456-1.968-5.32933-1.056-4.548-.36267-8.74667,1.568-12.84267c1.04267-2.21333,2.35467-6.16933.844-8.46133h-.00001ZM164.328,2779.16933c12.69467,0,23,10.30667,23,23c0,12.69467-10.30533,23-23,23-12.69333,0-23-10.30533-23-23c0-12.69333,10.30667-23,23-23Zm-7.124,10.60533c-.75467-1.144-2.11333-1.35867-3.30133-1.10533-2.424.516-4.428,2.63333-5.536,4.984-2.78667,5.91467-2.23333,13.668,1.02667,19.20267c1.32667,2.252,3.17867,4.32133,5.42667,5.43733.48.23733,1.912.96267,2.384.24667.37333-.56667-.24-1.66-.444-2.132-.75067-1.73467-1.53467-3.456-1.96933-5.32933-1.05467-4.548-.36133-8.74667,1.568-12.84267c1.044-2.21333,2.356-6.16933.84533-8.46133l-.00001-.00001Z" transform="translate(-360,-1440)" clip-rule="evenodd" fill="#9d91e2" fill-rule="evenodd" stroke-linejoin="round" stroke-miterlimit="2"/></g><g id="evEFSul6xnV5_to" transform="translate(360,2159.999995)"><path d="M94.93333,720c0-24.284,19.716-44,44-44s44,19.716,44,44-19.716,44-44,44-44-19.716-44-44Zm25.988,0c.664-2.53867,1.596-5.04267,2.76667-7.52667c1.996-4.232,4.50667-11.80133,1.616-16.18667-1.444-2.188-4.04267-2.59867-6.31467-2.11467-4.63733.988-8.472,5.04-10.59067,9.53467-2.34267,4.972-3.452,10.62267-3.43067,16.29333.028,7.23733,1.89733,14.50667,5.39333,20.44267c2.53733,4.308,6.08267,8.268,10.38267,10.40133.91733.456,3.656,1.84267,4.56.472.71333-1.08267-.45733-3.17333-.84933-4.07867-1.436-3.31867-2.93467-6.61067-3.76667-10.19467-1.37733-5.94267-1.196-11.57333.23333-17.04267l.00001.00002ZM0,316c24.284,0,44,19.716,44,44s-19.716,44-44,44v-88Zm720,88c-24.284,0-44-19.716-44-44s19.716-44,44-44v88Zm-13.62933-67.71333c-1.444-2.188-4.04267-2.59867-6.31467-2.11467-4.63733.988-8.472,5.04-10.59067,9.53467-5.332,11.316-4.27333,26.14933,1.96267,36.736c2.53733,4.308,6.08267,8.268,10.38267,10.40133.91733.456,3.656,1.84267,4.56.472.71333-1.08267-.45733-3.17333-.84933-4.07867-1.436-3.31867-2.93467-6.61067-3.76667-10.19467-2.01733-8.7-.692-16.732,3-24.56933c1.996-4.232,4.50667-11.80133,1.616-16.18667v.00001ZM182.93333,0c0,24.284-19.716,44-44,44s-44-19.716-44-44h10.03467c.028,7.23733,1.89733,14.50667,5.39333,20.44267c2.53733,4.308,6.08267,8.268,10.38267,10.40133.91733.456,3.656,1.84267,4.56.472.71333-1.08267-.45733-3.17333-.84933-4.07867-1.436-3.31867-2.93467-6.61067-3.76667-10.19467-1.37733-5.94267-1.196-11.57333.23333-17.04267L182.93333,0ZM266.248,360c24.284,0,44,19.716,44,44s-19.716,44-44,44-44-19.716-44-44s19.716-44,44-44Zm-13.63067,20.28667c-1.44267-2.188-4.04267-2.59867-6.31333-2.11467-4.63733.988-8.472,5.04-10.59067,9.53467-5.332,11.316-4.27467,26.14933,1.96267,36.736c2.53733,4.308,6.08267,8.268,10.38267,10.40133.91733.456,3.656,1.84267,4.55867.472.71467-1.08267-.45733-3.17333-.848-4.07867-1.436-3.31867-2.936-6.61067-3.76667-10.19467-2.01733-8.7-.69333-16.732,3-24.56933c1.996-4.232,4.50667-11.80133,1.61467-16.18667l-.00001.00001Zm258.548-275.92c24.284,0,44,19.716,44,44s-19.716,44-44,44c-24.28533,0-44-19.716-44-44s19.71467-44,44-44Zm-13.63066,20.28666c-1.44267-2.188-4.04267-2.59867-6.31333-2.11467-4.63733.988-8.472,5.04-10.592,9.53467-5.33067,11.316-4.27333,26.14933,1.964,36.736c2.53733,4.308,6.08133,8.268,10.38133,10.40133.91867.456,3.65733,1.84267,4.56.472.71467-1.08267-.45733-3.17333-.848-4.07867-1.436-3.31867-2.936-6.61067-3.76667-10.19467-2.01867-8.7-.69333-16.732,3-24.56933c1.99467-4.232,4.50667-11.80133,1.61467-16.18667v.00001ZM571.892,576.38667c24.284,0,44,19.716,44,44s-19.716,44-44,44-44-19.716-44-44s19.716-44,44-44Zm-13.62933,20.288c-1.444-2.18933-4.044-2.6-6.31467-2.116-4.63733.98933-8.472,5.04-10.59067,9.53467-5.332,11.316-4.27333,26.14933,1.96267,36.736c2.53733,4.308,6.08267,8.268,10.38267,10.40133.91733.456,3.656,1.84267,4.56.472.71333-1.08267-.45733-3.17333-.84933-4.07733-1.436-3.32-2.936-6.612-3.76667-10.19467-2.01733-8.70133-.692-16.73333,3-24.57067c1.996-4.232,4.50667-11.80133,1.616-16.18533ZM0,1036c24.284,0,44,19.716,44,44s-19.716,44-44,44v-88Zm138.93333,360c24.284,0,44,19.716,44,44s-19.716,44-44,44-44-19.716-44-44s19.716-44,44-44ZM123.688,1432.47333c1.996-4.232,4.50667-11.80133,1.616-16.18667-1.444-2.188-4.04267-2.59867-6.31467-2.11467-4.63733.988-8.472,5.04-10.59067,9.53467-2.34267,4.972-3.452,10.62267-3.43067,16.29333.028,7.23733,1.89733,14.50667,5.39333,20.44267c2.53733,4.308,6.08267,8.268,10.38267,10.40133.91733.456,3.656,1.84267,4.56.472.71333-1.08267-.45733-3.17333-.84933-4.07867-1.436-3.31867-2.93467-6.61067-3.76667-10.19467-1.37733-5.94267-1.196-11.57333.23333-17.04267.664-2.53867,1.596-5.04267,2.76667-7.52667l.00001.00002ZM720,1124c-24.284,0-44-19.716-44-44s19.716-44,44-44v88Zm-13.62933-67.71333c-1.444-2.188-4.04267-2.59867-6.31467-2.11467-4.63733.988-8.472,5.04-10.59067,9.53467-5.332,11.316-4.27333,26.14933,1.96267,36.736c2.53733,4.308,6.08267,8.268,10.38267,10.40133.91733.456,3.656,1.84267,4.56.472.71333-1.08267-.45733-3.17333-.84933-4.07867-1.436-3.31867-2.93467-6.61067-3.76667-10.19467-2.01733-8.7-.692-16.732,3-24.56933c1.996-4.232,4.50667-11.80133,1.616-16.18667v.00001ZM266.248,1080c24.284,0,44,19.716,44,44s-19.716,44-44,44-44-19.716-44-44s19.716-44,44-44Zm-13.63067,20.28667c-1.44267-2.188-4.04267-2.59867-6.31333-2.11467-4.63733.988-8.472,5.04-10.59067,9.53467-5.332,11.316-4.27467,26.14933,1.96267,36.736c2.53733,4.308,6.08267,8.268,10.38267,10.40133.91733.456,3.656,1.84267,4.55867.472.71467-1.08267-.45733-3.17333-.848-4.07867-1.436-3.31867-2.936-6.61067-3.76667-10.19467-2.01733-8.7-.69333-16.732,3-24.56933c1.996-4.232,4.50667-11.80133,1.61467-16.18667l-.00001.00001Zm258.548-275.92c24.284,0,44,19.716,44,44s-19.716,44-44,44c-24.28533,0-44-19.716-44-44s19.71467-44,44-44Zm-13.63066,20.28666c-1.44267-2.188-4.04267-2.59867-6.31333-2.11467-4.63733.988-8.472,5.04-10.592,9.53467-5.33067,11.316-4.27333,26.14933,1.964,36.736c2.53733,4.308,6.08133,8.268,10.38133,10.40133.91867.456,3.65733,1.84267,4.56.472.71467-1.08267-.45733-3.17333-.848-4.07867-1.436-3.31867-2.936-6.61067-3.76667-10.19467-2.01867-8.7-.69333-16.732,3-24.56933c1.99467-4.232,4.50667-11.80133,1.61467-16.18667v.00001ZM571.892,1296.38667c24.284,0,44,19.716,44,44s-19.716,44-44,44-44-19.716-44-44s19.716-44,44-44Zm-13.62933,20.288c-1.444-2.18933-4.044-2.6-6.31467-2.116-4.63733.98933-8.472,5.04-10.59067,9.53467-5.332,11.316-4.27333,26.14933,1.96267,36.736c2.53733,4.308,6.08267,8.268,10.38267,10.40133.91733.456,3.656,1.84267,4.56.472.71333-1.08267-.45733-3.17333-.84933-4.07733-1.436-3.32-2.936-6.612-3.76667-10.19467-2.01733-8.70133-.692-16.73333,3-24.57067c1.996-4.232,4.50667-11.80133,1.616-16.18533ZM94.93333,2160c0-24.284,19.716-44,44-44s44,19.716,44,44-19.716,44-44,44-44-19.716-44-44Zm25.988,0c.664-2.53867,1.596-5.04267,2.76667-7.52667c1.996-4.232,4.50667-11.80133,1.616-16.18667-1.444-2.188-4.04267-2.59867-6.31467-2.11467-4.63733.988-8.472,5.04-10.59067,9.53467-2.34267,4.972-3.452,10.62267-3.43067,16.29333.028,7.23733,1.89733,14.50667,5.39333,20.44267c2.53733,4.308,6.08267,8.268,10.38267,10.40133.91733.456,3.656,1.84267,4.56.472.71333-1.08267-.45733-3.17333-.84933-4.07867-1.436-3.31867-2.93467-6.61067-3.76667-10.19467-1.37733-5.94267-1.196-11.57333.23333-17.04267l.00001.00002ZM0,1756c24.284,0,44,19.716,44,44s-19.716,44-44,44v-88Zm720,88c-24.284,0-44-19.716-44-44s19.716-44,44-44v88Zm-13.62933-67.71333c-1.444-2.188-4.04267-2.59867-6.31467-2.11467-4.63733.988-8.472,5.04-10.59067,9.53467-5.332,11.316-4.27333,26.14933,1.96267,36.736c2.53733,4.308,6.08267,8.268,10.38267,10.40133.91733.456,3.656,1.84267,4.56.472.71333-1.08267-.45733-3.17333-.84933-4.07867-1.436-3.31867-2.93467-6.61067-3.76667-10.19467-2.01733-8.7-.692-16.732,3-24.56933c1.996-4.232,4.50667-11.80133,1.616-16.18667v.00001ZM266.248,1800c24.284,0,44,19.716,44,44s-19.716,44-44,44-44-19.716-44-44s19.716-44,44-44Zm-13.63067,20.28667c-1.44267-2.188-4.04267-2.59867-6.31333-2.11467-4.63733.988-8.472,5.04-10.59067,9.53467-5.332,11.316-4.27467,26.14933,1.96267,36.736c2.53733,4.308,6.08267,8.268,10.38267,10.40133.91733.456,3.656,1.84267,4.55867.472.71467-1.08267-.45733-3.17333-.848-4.07867-1.436-3.31867-2.936-6.61067-3.76667-10.19467-2.01733-8.7-.69333-16.732,3-24.56933c1.996-4.232,4.50667-11.80133,1.61467-16.18667l-.00001.00001Zm258.548-275.92c24.284,0,44,19.716,44,44s-19.716,44-44,44c-24.28533,0-44-19.716-44-44s19.71467-44,44-44Zm-13.63066,20.28666c-1.44267-2.188-4.04267-2.59867-6.31333-2.11467-4.63733.988-8.472,5.04-10.592,9.53467-5.33067,11.316-4.27333,26.14933,1.964,36.736c2.53733,4.308,6.08133,8.268,10.38133,10.40133.91867.456,3.65733,1.84267,4.56.472.71467-1.08267-.45733-3.17333-.848-4.07867-1.436-3.31867-2.936-6.61067-3.76667-10.19467-2.01867-8.7-.69333-16.732,3-24.56933c1.99467-4.232,4.50667-11.80133,1.61467-16.18667v.00001ZM571.892,2016.38667c24.284,0,44,19.716,44,44s-19.716,44-44,44-44-19.716-44-44s19.716-44,44-44Zm-13.62933,20.288c-1.444-2.18933-4.044-2.6-6.31467-2.116-4.63733.98933-8.472,5.04-10.59067,9.53467-5.332,11.316-4.27333,26.14933,1.96267,36.736c2.53733,4.308,6.08267,8.268,10.38267,10.40133.91733.456,3.656,1.84267,4.56.472.71333-1.08267-.45733-3.17333-.84933-4.07733-1.436-3.32-2.936-6.612-3.76667-10.19467-2.01733-8.70133-.692-16.73333,3-24.57067c1.996-4.232,4.50667-11.80133,1.616-16.18533ZM0,2476c24.284,0,44,19.716,44,44s-19.716,44-44,44v-88Zm138.93333,360c24.284,0,44,19.716,44,44s-19.716,44-44,44-44-19.716-44-44s19.716-44,44-44ZM123.688,2872.47333c1.996-4.232,4.50667-11.80133,1.616-16.18667-1.444-2.188-4.04267-2.59867-6.31467-2.11467-4.63733.988-8.472,5.04-10.59067,9.53467-2.34267,4.972-3.452,10.62267-3.43067,16.29333.028,7.23733,1.89733,14.50667,5.39333,20.44267c2.53733,4.308,6.08267,8.268,10.38267,10.40133.91733.456,3.656,1.84267,4.56.472.71333-1.08267-.45733-3.17333-.84933-4.07867-1.436-3.31867-2.93467-6.61067-3.76667-10.19467-1.37733-5.94267-1.196-11.57333.23333-17.04267.664-2.53867,1.596-5.04267,2.76667-7.52667l.00001.00002ZM720,2564c-24.284,0-44-19.716-44-44s19.716-44,44-44v88Zm-13.62933-67.71333c-1.444-2.188-4.04267-2.59867-6.31467-2.11467-4.63733.988-8.472,5.04-10.59067,9.53467-5.332,11.316-4.27333,26.14933,1.96267,36.736c2.53733,4.308,6.08267,8.268,10.38267,10.40133.91733.456,3.656,1.84267,4.56.472.71333-1.08267-.45733-3.17333-.84933-4.07867-1.436-3.31867-2.93467-6.61067-3.76667-10.19467-2.01733-8.7-.692-16.732,3-24.56933c1.996-4.232,4.50667-11.80133,1.616-16.18667v.00001ZM266.248,2520c24.284,0,44,19.716,44,44s-19.716,44-44,44-44-19.716-44-44s19.716-44,44-44Zm-13.63067,20.28667c-1.44267-2.188-4.04267-2.59867-6.31333-2.11467-4.63733.988-8.472,5.04-10.59067,9.53467-5.332,11.316-4.27467,26.14933,1.96267,36.736c2.53733,4.308,6.08267,8.268,10.38267,10.40133.91733.456,3.656,1.84267,4.55867.472.71467-1.08267-.45733-3.17333-.848-4.07867-1.436-3.31867-2.936-6.61067-3.76667-10.19467-2.01733-8.7-.69333-16.732,3-24.56933c1.996-4.232,4.50667-11.80133,1.61467-16.18667l-.00001.00001Zm258.548-275.92c24.284,0,44,19.716,44,44s-19.716,44-44,44c-24.28533,0-44-19.716-44-44s19.71467-44,44-44Zm-13.63066,20.28666c-1.44267-2.188-4.04267-2.59867-6.31333-2.11467-4.63733.988-8.472,5.04-10.592,9.53467-5.33067,11.316-4.27333,26.14933,1.964,36.736c2.53733,4.308,6.08133,8.268,10.38133,10.40133.91867.456,3.65733,1.84267,4.56.472.71467-1.08267-.45733-3.17333-.848-4.07867-1.436-3.31867-2.936-6.61067-3.76667-10.19467-2.01867-8.7-.69333-16.732,3-24.56933c1.99467-4.232,4.50667-11.80133,1.61467-16.18667v.00001ZM571.892,2736.38667c24.284,0,44,19.716,44,44s-19.716,44-44,44-44-19.716-44-44s19.716-44,44-44Zm-13.62933,20.288c-1.444-2.18933-4.044-2.6-6.31467-2.116-4.63733.98933-8.472,5.04-10.59067,9.53467-5.332,11.316-4.27333,26.14933,1.96267,36.736c2.53733,4.308,6.08267,8.268,10.38267,10.40133.91733.456,3.656,1.84267,4.56.472.71333-1.08267-.45733-3.17333-.84933-4.07733-1.436-3.32-2.936-6.612-3.76667-10.19467-2.01733-8.70133-.692-16.73333,3-24.57067c1.996-4.232,4.50667-11.80133,1.616-16.18533ZM94.93333,3600c0-24.284,19.716-44,44-44s44,19.716,44,44-19.716,44-44,44-44-19.716-44-44Zm25.988,0c.664-2.53867,1.596-5.04267,2.76667-7.52667c1.996-4.232,4.50667-11.80133,1.616-16.18667-1.444-2.188-4.04267-2.59867-6.31467-2.11467-4.63733.988-8.472,5.04-10.59067,9.53467-2.34267,4.972-3.452,10.62267-3.43067,16.29333.028,7.23733,1.89733,14.50667,5.39333,20.44267c2.53733,4.308,6.08267,8.268,10.38267,10.40133.91733.456,3.656,1.84267,4.56.472.71333-1.08267-.45733-3.17333-.84933-4.07867-1.436-3.31867-2.93467-6.61067-3.76667-10.19467-1.37733-5.94267-1.196-11.57333.23333-17.04267l.00001.00002ZM0,3196c24.284,0,44,19.716,44,44s-19.716,44-44,44v-88Zm720,88c-24.284,0-44-19.716-44-44s19.716-44,44-44v88Zm-13.62933-67.71333c-1.444-2.188-4.04267-2.59867-6.31467-2.11467-4.63733.988-8.472,5.04-10.59067,9.53467-5.332,11.316-4.27333,26.14933,1.96267,36.736c2.53733,4.308,6.08267,8.268,10.38267,10.40133.91733.456,3.656,1.84267,4.56.472.71333-1.08267-.45733-3.17333-.84933-4.07867-1.436-3.31867-2.93467-6.61067-3.76667-10.19467-2.01733-8.7-.692-16.732,3-24.56933c1.996-4.232,4.50667-11.80133,1.616-16.18667v.00001ZM266.248,3240c24.284,0,44,19.716,44,44s-19.716,44-44,44-44-19.716-44-44s19.716-44,44-44Zm-13.63067,20.28667c-1.44267-2.188-4.04267-2.59867-6.31333-2.11467-4.63733.988-8.472,5.04-10.59067,9.53467-5.332,11.316-4.27467,26.14933,1.96267,36.736c2.53733,4.308,6.08267,8.268,10.38267,10.40133.91733.456,3.656,1.84267,4.55867.472.71467-1.08267-.45733-3.17333-.848-4.07867-1.436-3.31867-2.936-6.61067-3.76667-10.19467-2.01733-8.7-.69333-16.732,3-24.56933c1.996-4.232,4.50667-11.80133,1.61467-16.18667l-.00001.00001Zm258.548-275.92c24.284,0,44,19.716,44,44s-19.716,44-44,44c-24.28533,0-44-19.716-44-44s19.71467-44,44-44Zm-13.63066,20.28666c-1.44267-2.188-4.04267-2.59867-6.31333-2.11467-4.63733.988-8.472,5.04-10.592,9.53467-5.33067,11.316-4.27333,26.14933,1.964,36.736c2.53733,4.308,6.08133,8.268,10.38133,10.40133.91867.456,3.65733,1.84267,4.56.472.71467-1.08267-.45733-3.17333-.848-4.07867-1.436-3.31867-2.936-6.61067-3.76667-10.19467-2.01867-8.7-.69333-16.732,3-24.56933c1.99467-4.232,4.50667-11.80133,1.61467-16.18667v.00001ZM571.892,3456.38667c24.284,0,44,19.716,44,44s-19.716,44-44,44-44-19.716-44-44s19.716-44,44-44Zm-13.62933,20.288c-1.444-2.18933-4.044-2.6-6.31467-2.116-4.63733.98933-8.472,5.04-10.59067,9.53467-5.332,11.316-4.27333,26.14933,1.96267,36.736c2.53733,4.308,6.08267,8.268,10.38267,10.40133.91733.456,3.656,1.84267,4.56.472.71333-1.08267-.45733-3.17333-.84933-4.07733-1.436-3.32-2.936-6.612-3.76667-10.19467-2.01733-8.70133-.692-16.73333,3-24.57067c1.996-4.232,4.50667-11.80133,1.616-16.18533ZM0,3916c24.284,0,44,19.716,44,44s-19.716,44-44,44v-88Zm94.93333,404c0-24.284,19.716-44,44-44s44,19.716,44,44h-62.012c.664-2.53867,1.596-5.04267,2.76667-7.52667c1.996-4.232,4.50667-11.80133,1.616-16.18667-1.444-2.188-4.04267-2.59867-6.31467-2.11467-4.63733.988-8.472,5.04-10.59067,9.53467-2.34267,4.972-3.452,10.62267-3.43067,16.29333L94.93333,4320ZM720,4004c-24.284,0-44-19.716-44-44s19.716-44,44-44v88Zm-13.62933-67.71333c-1.444-2.188-4.04267-2.59867-6.31467-2.11467-4.63733.988-8.472,5.04-10.59067,9.53467-5.332,11.316-4.27333,26.14933,1.96267,36.736c2.53733,4.308,6.08267,8.268,10.38267,10.40133.91733.456,3.656,1.84267,4.56.472.71333-1.08267-.45733-3.17333-.84933-4.07867-1.436-3.31867-2.93467-6.61067-3.76667-10.19467-2.01733-8.7-.692-16.732,3-24.56933c1.996-4.232,4.50667-11.80133,1.616-16.18667v.00001ZM266.248,3960c24.284,0,44,19.716,44,44s-19.716,44-44,44-44-19.716-44-44s19.716-44,44-44Zm-13.63067,20.28667c-1.44267-2.188-4.04267-2.59867-6.31333-2.11467-4.63733.988-8.472,5.04-10.59067,9.53467-5.332,11.316-4.27467,26.14933,1.96267,36.736c2.53733,4.308,6.08267,8.268,10.38267,10.40133.91733.456,3.656,1.84267,4.55867.472.71467-1.08267-.45733-3.17333-.848-4.07867-1.436-3.31867-2.936-6.61067-3.76667-10.19467-2.01733-8.7-.69333-16.732,3-24.56933c1.996-4.232,4.50667-11.80133,1.61467-16.18667l-.00001.00001Zm258.548-275.92c24.284,0,44,19.716,44,44s-19.716,44-44,44c-24.28533,0-44-19.716-44-44s19.71467-44,44-44Zm-13.63066,20.28666c-1.44267-2.188-4.04267-2.59867-6.31333-2.11467-4.63733.988-8.472,5.04-10.592,9.53467-5.33067,11.316-4.27333,26.14933,1.964,36.736c2.53733,4.308,6.08133,8.268,10.38133,10.40133.91867.456,3.65733,1.84267,4.56.472.71467-1.08267-.45733-3.17333-.848-4.07867-1.436-3.31867-2.936-6.61067-3.76667-10.19467-2.01867-8.7-.69333-16.732,3-24.56933c1.99467-4.232,4.50667-11.80133,1.61467-16.18667v.00001ZM571.892,4176.38667c24.284,0,44,19.716,44,44s-19.716,44-44,44-44-19.716-44-44s19.716-44,44-44Zm-13.62933,20.288c-1.444-2.18933-4.044-2.6-6.31467-2.116-4.63733.98933-8.472,5.04-10.59067,9.53467-5.332,11.316-4.27333,26.14933,1.96267,36.736c2.53733,4.308,6.08267,8.268,10.38267,10.40133.91733.456,3.656,1.84267,4.56.472.71333-1.08267-.45733-3.17333-.84933-4.07733-1.436-3.32-2.936-6.612-3.76667-10.19467-2.01733-8.70133-.692-16.73333,3-24.57067c1.996-4.232,4.50667-11.80133,1.616-16.18533Z" transform="translate(-360,-2159.999995)" clip-rule="evenodd" fill="#9d91e2" fill-rule="evenodd" stroke-linejoin="round" stroke-miterlimit="2"/></g><g id="evEFSul6xnV6_ts" transform="translate(601.850403,367.069321) scale(1,1)"><path d="M536.319,299.865c-.29-4.453-.355-8.045-.164-10.137.668-7.339,4.515-10.955,6.265-12.308c8.354-6.459,19.7-8.074,32.895,3.609.021.019.041.037.062.055c4.267,3.82,8.415,8.227,11.895,12.746c1.18,1.53,2.314,3.065,3.403,4.604.029-1.264.063-2.518.105-3.757.002-.056.004-.113.007-.17.198-4.374,1.53-8.17,3.317-11.201c5.074-8.617,18.922-14.652,33.041-.181.016.017.032.033.048.05c3.027,3.132,5.923,6.846,8.095,10.341.007.012.015.023.022.035c6.39,10.344,9.356,19.881,10.921,29.067c1.289,7.445,1.736,14.604,1.225,21.463.815,11.722-.753,22.665-5.206,32.771-.871,1.984-1.832,3.926-2.904,5.81c5.469,4.35,10.689,8.679,15.401,13.191.015.015.031.029.046.044c4.956,4.787,8.406,10.903,11.012,16.943c1.959,4.525,2.26,10.531,1.379,16.184.658,3.641.6,7.709-.018,11.603-1.326,8.538-7.244,15.671-17.076,18.97-7.432,2.501-14.133,2.61-20.086,1.358-.037-.008-.075-.016-.112-.024-14.109-3.08-23.623-10.334-30.341-21.512-9.175,9.493-20.562,13.924-32.182,13.058-12.518-.923-21.591-7.126-27.482-18.15-.014-.026-.028-.053-.042-.079-3.042-5.775-3.975-12.032-2.483-18.011-2.221-9.234.781-18.943,10.138-26.392c3.548-2.823,7.428-5.195,11.37-7.281-4.032-5.189-7.749-10.773-11.235-16.744-2.764-4.726-5.751-14.849-7.797-26.123-2.771-15.27-4.213-32.664-3.683-38.48.042-.466.097-.916.164-1.352Z" transform="translate(-601.850403,-367.069321)" clip-rule="evenodd" fill-rule="evenodd" stroke-linejoin="round" stroke-miterlimit="2"/></g><g id="evEFSul6xnV7_ts" transform="translate(505.857712,361.055023) scale(1,1)"><path d="M443.857,300.368c-.706-1.711-1.1-3.56-1.135-5.463-.094-5.045,2.342-9.802,6.491-12.673c1.99-1.378,3.969-2.957,6.194-3.873.04-.017.081-.033.121-.05c9.014-3.623,18.328-2.993,27.568,2.154c1.723-4.681,4.554-8.158,7.772-10.526c5.738-4.226,14.168-6.23,24.819-1.761c8.964,3.757,17.513,10.212,25.315,18.059c5.932,5.942,8.951,12.935,9.42,20.443.32,4.872,1.387,9.822,2.691,14.804l.003.012c1.492,5.719,1.191,9.706.29,12.679.481,2.118.707,3.984.746,5.641c2.177,1.441,4.984,2.597,1.625,4.118c3.363,5.37,5.166,11.655,5.072,18.241c1.552.413,3.104.949,4.658,1.617c3.55,1.524-6.099,5.65-3.09,8.065.06.048.12.097.179.146c1.295,1.072,2.372,2.232,3.25,3.456.295.193.434.418.455.667c1.819,2.81,2.644,5.927,2.693,9.085.03,1.941-.257,3.971-.945,5.988.616,1.783.916,3.635.945,5.501.061,3.912-1.166,8.183-4.369,11.981-1.713,2.044-3.55,4.029-5.567,5.832-1.497,1.388-2.63,3.053-3.361,4.849.193,1.173.358,2.356.463,3.566.001.012.002.024.003.036.224,2.646-.007,5.026-.588,7.169.245,1.409.458,2.827.585,4.284.001.012.002.024.003.036.461,5.443-1.006,9.759-3.472,13.205-2.356,3.293-5.842,6.072-11.039,7.513-8.801,2.45-16.929,1.444-23.353-3.237l-.009-.007c-3.456-2.522-6.809-5.582-9.291-9.319l-.001-.002c-.04-.06-.091-.129-.145-.2-.672.136-1.961.421-2.81.766-8.893,3.621-17.928,5.547-26.814,4.668-14.966-1.463-26.69-8.016-33.089-23.729-3.023-7.363-4.03-14.897-2.986-22.4-1.265-9.092.472-18.29,5.273-27.226c5.745-10.699,13.467-19.31,22.084-26.595c1.566-1.325,2.625-2.962,3.237-4.842-1.558-6.166-5.552-11.537-11.303-16.058-3.957-3.069-8.308-5.33-12.763-8.173-4.253-2.714-6.866-7.377-6.96-12.422-.039-2.096.359-4.143,1.135-6.025Z" transform="translate(-505.857712,-361.055023)" clip-rule="evenodd" fill-rule="evenodd" stroke-linejoin="round" stroke-miterlimit="2"/></g><g id="evEFSul6xnV8_ts" transform="translate(411.628143,357.90889) scale(1,1)"><path d="M331.176,312.693c-.55-4.275-.429-8.65.195-12.986.003-.019.005-.037.008-.056c1.417-9.589,5.822-16.48,11.27-20.647c6.484-4.961,14.877-6.871,24.529-3.74c5.008,1.622,10.021,4.283,14.461,7.55c3.485,2.554,6.974,5.178,10.475,7.851c1.975-8.32,5.772-15.369,10.66-21.498.01-.012.019-.024.028-.035c7.181-8.949,14.73-9,20.059-7.385c3.684,1.116,9.042,4.268,12.836,12.976.005.013.011.026.017.04c2.733,6.322,3.974,12.832,4.142,19.423.576-.178,1.161-.34,1.757-.483c9.001-2.175,19.424-.234,28.565,5.324c12.562,7.638,22.215,21.89,22.253,37.182c0,.053,0,.106-.001.158-.015,1.929-.175,3.769-.473,5.517.306,1.913.469,3.855.474,5.814c0,.053,0,.106-.001.158-.097,12.243-6.036,20.903-15.863,25.414-.022.01,7.738,4.898,7.716,4.908-5.001,2.268-21.512,18.899-20.262,27.311c1.651,11.107-10.924,19.895-13.544,31.217-.007.03-.014.06-.022.09-.153.646-.297,1.254-.484,1.867-.014.048-.029.096-.044.144-2.157,6.83-5.671,10.703-9.241,12.987-4.531,2.898-10.119,4.191-17.44,1.944-7.623-2.308-14.156-6.754-19.608-13.096-.009-.009-.017-.019-.025-.029-10.692-12.5-23.406-21.432-26.582-39.169-.001-.006,1.215-1.422,2.488-2.903-.872-2.126-1.594-4.385-2.133-6.812-5.871-.999-14.578.449-13.079-4.25-1.449-.209-2.886-.472-4.305-.824h-.002c-22.043-5.463-19.176-31.609-27.146-55.132l-.006-.017c-2.033-6.027-2.414-12.445-1.672-18.813Z" transform="translate(-411.628143,-357.90889)" clip-rule="evenodd" fill-rule="evenodd" stroke-linejoin="round" stroke-miterlimit="2"/></g><g id="evEFSul6xnV9_ts" transform="translate(331.982346,357.345764) scale(1,1)"><path d="M267.977,341.27c-1.212-17.074,2.912-33.828,12.935-49.926c7.652-12.36,17.71-21.16,28.907-27.172.031-.017.063-.033.094-.05c7.744-4.088,16.708-5.144,23.787,2.082.017.017.034.035.051.053.545.561,1.042,1.153,1.495,1.771c3.051-.49,6.36-.202,9.89.995c3.977,1.348,7.211,4.295,8.922,8.13c1.685,3.774,1.744,8.071.171,11.886c1.541,3.738,1.518,7.945-.077,11.673-.698,1.631-1.267,3.029-1.978,4.168-1.668,2.688-2.731,5.402-3.316,8.132.419,2.301,1.046,4.605,1.809,6.908.007.02.013.04.019.059c1.627,4.977,3.901,9.514,7.832,12.714c1.82,1.478,4.026,2.377,6.057,3.52.011.006.022.013.034.019c8.4,4.754,10.342,10.77,10.684,14.814.17,2.01.063,4.508-.945,7.199.572,1.557.837,3.021.945,4.29.089,1.06.102,2.257-.054,3.547c9.936,6.481,16.82,16.278,19.883,29.979.005.023.01.047.015.07c1.115,5.099,1.356,10.249.681,15.388.691,5.304.434,10.645-.821,15.956-.01.043-.021.085-.031.128-2.592,10.554-8.575,18.014-15.678,22.153-7.982,4.651-17.708,5.581-27.658,1.144-6.054-2.684-11.008-7.103-15.442-12.245-4.943,7.278-12.748,11.863-21.669,12.809l-.018.002c-18.726,1.962-37.959-14.094-43.12-33.52-.003-.011-.005-.022-.008-.033-1.459-5.541-2.008-11.411-1.153-17.241-.745-5.439-.515-11.062,1.113-16.553.726-2.468,1.628-4.467,2.622-6.098-1.818-4.254-3.308-8.666-4.283-13.346-1.67-7.863-2.253-15.675-1.695-23.405Z" transform="translate(-331.982346,-357.345764)" clip-rule="evenodd" fill-rule="evenodd" stroke-linejoin="round" stroke-miterlimit="2"/></g><g id="evEFSul6xnV10_ts" transform="translate(229.779884,367.916122) scale(1,1)"><path d="M168.907,388.883c-1.096-9.146.516-18.27,4.164-27.266c1.293-3.188,2.756-6.323,4.388-9.394-1.589-3.117-2.542-7.451-1.293-13.465.006-.024.011-.049.016-.074.053-.246.107-.492.163-.738-.829-2.782-1.092-6.28-.179-10.676.006-.025.011-.05.016-.075c1.756-8.239,5.617-16.252,11.097-23.599.01-.013.02-.027.031-.04c14.238-18.956,31.234-28.878,48.956-29.111l.007-.001c9.851-.125,18.269,3.078,25.804,8.644c6.524,4.79,12.232,10.945,17.599,17.868.012.015.023.03.035.045c5.408,7.031,7.507,15.77,6.58,25.916-.001.018-.003.037-.005.056-.046.484-.088.967-.127,1.449.412,3.153.452,6.484.132,9.984-.001.018-.003.037-.005.056-.081.855-.151,1.708-.21,2.559.365,4.801,1.227,9.505,2.713,14.09c1.066,3.267,1.856,6.772,2.053,10.251.191,3.245.249,6.619-.134,9.859.058.543.103,1.087.134,1.63.252,4.274.272,8.772-.642,12.892-.003.011-.005.022-.008.033-.508,2.265-.944,4.524-1.241,6.787.079.503.169,1.006.273,1.511c1.084,5.214,1.232,10.051.535,14.549c1.752,12.391-1.984,22.57-9.904,31.107-9.654,10.467-20.541,16.625-40.338,17.608l-.039.002c-10.183.517-22.404-2.841-33.847-9.696-16.079-9.633-30.507-26.025-35.572-45.128-.015-.06-.031-.12-.046-.18-1.468-5.827-1.779-11.653-1.106-17.453Z" transform="translate(-229.779884,-367.916122)" clip-rule="evenodd" fill-rule="evenodd" stroke-linejoin="round" stroke-miterlimit="2"/></g><g id="evEFSul6xnV11_ts" transform="translate(125.366318,372.440338) scale(1,1)"><path d="M55.277,405.566c-1.576-15.377,3.336-30.65,12.756-46.312.009-.013.017-.027.025-.041c14.448-23.846,37.064-46.545,62.445-64.223l.013-.009c9.658-6.712,19.382-12.216,28.711-14.805c8.585-2.397,15.515-1.643,20.897.821c6.224,2.848,11.282,8.094,13.977,16.949.031.1.06.201.089.301c1.488,5.28,1.886,11.701,1.293,18.567c1.686,17.039-4.801,40.729-17.299,55.964c6.484,8.512,6.104,17.428,10.643,28.984c1.39,3.513,2.414,7.373,2.767,11.046.339,3.374.188,6.375-.327,9.046.139.82.249,1.636.327,2.443.951,9.458-1.95,15.977-5.918,20.553-5.668,6.536-14.8,9.449-23.601,8.826-3.346-.237-6.839-1.006-10.243-1.922-8.807,10.436-20.481,14.761-35.478,14.388-10.571-.235-21.342-2.749-32.131-8.01l-.013-.006c-13.444-6.571-22.303-16.692-26.343-29.019-2.597-7.885-3.373-15.71-2.59-23.541Z" transform="translate(-125.366318,-372.440338)" clip-rule="evenodd" fill-rule="evenodd" stroke-linejoin="round" stroke-miterlimit="2"/></g><g id="evEFSul6xnV12_ts" transform="translate(125.462074,366.689011) scale(1,1)"><path d="M131.591,396.028c.353-.86.82-1.687,1.027-2.579.669-3.006,1.225-6.044,2.105-9.072.656-2.276,1.393-4.588,2.535-6.682c1.994-3.677,4.903-5.06,8.661-4.669c4.551.48,8.152,2.736,11.143,6.031c7.232,7.991,13.416,17.204,17.745,28.231.882,2.226,1.57,4.664,1.789,6.991c1.073,10.503-6.623,13.36-13.457,12.876-2.656-.188-5.426-.896-8.116-1.64-5.445-1.522-9.813-.474-13.038,3.177-.387.46-.823.835-1.209,1.295-5.868,7.29-13.905,9.858-24.073,9.6-8.516-.187-17.184-2.251-25.876-6.489-9.422-4.605-15.809-11.535-18.64-20.174-5.072-15.378-.608-30.328,8.76-45.902c13.44-22.183,34.558-43.221,58.169-59.666c8.156-5.668,16.282-10.482,24.159-12.664c8.685-2.426,14.052-.102,16.41,7.643c4.016,14.251-2.551,39.005-15.651,52.169-4.21,4.158-8.766,6.915-14.158,6.714-3.513-.135-5.625-2.04-6.284-5.383-.527-2.582-.553-5.382-.708-8.11-.018-.435.11-.959-.021-1.322-.311-.846-.575-2.302-1.141-2.272-.858.052-2.182,1.002-2.891,1.904-4.014,5.007-6.763,10.475-8.622,16.063-3.172,9.461-3.82,18.66-1.991,27.685.445,2.218,1.682,4.262,2.596,6.383l.777-.138Z" transform="translate(-125.462074,-366.689011)" clip-rule="evenodd" fill="#fca80e" fill-rule="evenodd" stroke-linejoin="round" stroke-miterlimit="2"/></g><g id="evEFSul6xnV13_ts" transform="translate(601.864777,361.473602) scale(1,1)"><path d="M601.983,395.686c-1.35,2.707-2.411,4.904-3.586,7.033-2.155,3.873-4.181,7.986-7.001,11.646-6.253,8.011-14.382,12.234-22.916,11.594-6.995-.515-12.01-4.064-15.302-10.224-2.493-4.732-1.298-10.115,3.707-14.099c3.277-2.608,6.928-4.702,10.581-6.553c3.587-1.832,7.388-3.007,11.057-4.51c2.215-.899,4.446-1.78,6.579-2.851c4.703-2.308,5.166-4.283,1.769-8.179-2.357-2.664-4.859-5.274-7.459-7.864-7.181-7.209-13.281-15.555-18.769-24.956-6.205-10.605-11.301-55.609-9.008-57.379c3.536-2.735,8.104-1.978,13.69,2.968c3.589,3.213,7.083,6.915,10.01,10.716c9.27,12.02,15.385,24.401,18.778,36.647c1.903,6.902,3.124,13.696,4.2,20.424.298,1.75,1.065,3.474,1.589,5.203l.599.127c.434-.81,1.015-1.553,1.222-2.444c1.386-6.518,2.61-12.963,2.699-19.698.117-13.084.997-25.263,1.213-37.446.036-3.602.088-7.186.206-10.651.075-1.654.572-3.091,1.248-4.236c1.48-2.519,5.143-1.534,9.269,2.695c2.291,2.37,4.487,5.177,6.131,7.822c5.21,8.434,7.617,16.212,8.89,23.701c2.148,12.394,1.621,23.817-2.924,34.124-2.233,5.092-5.211,9.869-9.796,13.617-1.42,1.178-2.645,2.7-3.708,4.27-1.466,2.171-1.201,3.992.7,5.901.959.971,2.095,1.8,3.183,2.63c9.074,7.135,17.969,13.821,25.49,21.023c3.509,3.389,5.807,7.812,7.651,12.088.963,2.224.747,5.204.303,7.979-.506,3.316-3.169,5.738-6.985,7.018-4.511,1.52-8.574,1.657-12.187.897-14.403-3.144-21.577-12.893-26.356-27.633-.867-2.679-1.67-5.411-2.748-8.085-.376-1.001-1.091-1.856-2.019-3.315Z" transform="translate(-601.864777,-361.473602)" clip-rule="evenodd" fill="#fca80e" fill-rule="evenodd" stroke-linejoin="round" stroke-miterlimit="2"/></g><g id="evEFSul6xnV14_ts" transform="translate(505.857681,355.337601) scale(1,1)"><path d="M509.498,387.385c2.83-.755,5.16-1.169,7.326-1.997c3.978-1.544,7.84-3.347,11.72-4.994c5.965-2.525,12.032-3.713,18.128-1.091c2.319.995,4.348,2.728,6.313,4.305c1.25,1.035,1.223,2.566.111,3.877-1.274,1.522-2.629,3.012-4.114,4.33-7.455,6.801-10.626,16.836-8.844,26.176.379,2.079.823,4.106,1.009,6.242.219,2.587-.941,4.212-3.528,4.927-3.914,1.091-7.589,1.185-10.445-.896-2.062-1.505-4.14-3.254-5.621-5.484-4.899-7.379-12.172-8.723-21.193-5.056-6.531,2.659-13.131,4.275-19.657,3.628-9.248-.903-16.659-4.715-20.611-14.427-3.429-8.331-2.86-16.989,1.611-25.311c4.809-8.956,11.325-16.12,18.54-22.22c5.23-4.424,8.221-10.244,9.022-17.168c1.792-15.364-4.697-28.52-17.522-38.586-4.334-3.372-9.07-5.9-13.954-9.017c1.114-.771,2.114-1.818,3.359-2.331c6.758-2.716,13.597-.423,20.466,5.506c2.809,2.446,5.233,5.562,7.929,8.22c2.405,2.402,4.938,4.629,7.764,7.266c1.17-3.504.575-6.779.289-9.939-.337-3.873-1.047-7.842-1.174-11.615-.291-9.266,4.827-13.27,13.436-9.657c7.28,3.05,14.13,8.422,20.466,14.796c3.136,3.136,4.816,6.789,5.056,10.733.377,5.82,1.596,11.744,3.154,17.696c1.264,4.845.636,5.78-3.326,7.15-2.328.762-4.641,1.576-7.002,2.286-6.905,2.04-14.046,1.772-21.378-2.407-.276-.151-.567-.302-.843-.418-1.735-.625-3.567-1.491-4.808.188-.805,1.095.079,3.843,2.124,5.488c1.899,1.491,4.089,2.646,6.229,3.61c4.427,1.978,9.014,3.431,13.328,5.707c6.715,3.583,10.592,10.548,9.971,18.059-.372,4.792-2.886,8.097-7.268,9.632-3.04,1.09-6.161,1.921-9.201,3.063-2.878,1.086-5.202,2.944-6.227,6.236-.288.876-.35,1.799-.635,3.493Z" transform="translate(-505.857681,-355.337601)" clip-rule="evenodd" fill="#fca80e" fill-rule="evenodd" stroke-linejoin="round" stroke-miterlimit="2"/></g><g id="evEFSul6xnV15_ts" transform="translate(411.62788,352.180786) scale(1,1)"><path d="M425.393,322.003c2.389-1.911,4.181-3.305,5.925-4.751c4.326-3.604,8.343-7.585,13.826-8.899c13.604-3.294,32.175,11.072,32.217,27.894-.045,5.637-2.556,9.761-7.081,11.838-3.54,1.605-7.503,2.644-11.419,3.039-5.471.532-11.055.822-16.582-1.011-1.021-.344-2.185-.007-3.286-.019-2.04-.027-4.096.086-6.12-.133-3.094-.353-4.304.716-3.952,4.084.168,1.823.692,3.621,1.119,5.387c2.728,11.425,5.439,22.763,7.146,34.245c1.376,9.261.794,18.702-1.391,28.142-.079.332-.143.647-.239.962-1.537,4.868-3.799,6.325-7.915,5.053-4.911-1.48-9.065-4.421-12.576-8.505-9.006-10.529-15.17-23.292-17.845-38.232-.942-5.339-.507-10.689,1.661-15.814c1.412-3.37,2.663-6.805,3.638-10.323c1.056-3.814.275-4.946-3.386-5.461-5.377-.723-10.914-.59-16.163-1.89-16.965-4.204-29.709-14.307-35.843-32.411-1.44-4.267-1.488-8.842-.84-13.344c1.47-9.947,7.831-14.985,16.243-12.255c3.533,1.144,7.053,3.054,10.202,5.371c8.196,6.005,16.411,12.41,24.738,18.882c4.886,3.778,6.649,3.063,7.257-3.369.376-3.714.8-7.411,1.176-11.107.845-8.385,4.124-15.134,8.653-20.813c3.095-3.857,4.959-3.252,7.325,2.179c1.975,4.569,2.817,9.283,2.915,14.048.156,7.686.102,15.324-.001,22.964-.012,1.148.332,2.324.598,4.249Z" transform="translate(-411.624374,-352.180786)" clip-rule="evenodd" fill="#fca80e" fill-rule="evenodd" stroke-linejoin="round" stroke-miterlimit="2"/></g><g id="evEFSul6xnV16_ts" transform="translate(331.992798,351.531876) scale(1,1)"><path d="M320.014,311.622c.692-1.041,1.514-1.997,2.045-3.104c2.298-4.763,4.337-9.694,6.749-14.354c1.576-3.06,3.46-5.97,5.49-8.639c1.483-1.945,3.486-3.082,5.999-2.23-.338.79-.513,1.507-.867,2.053-8.034,12.868-7.453,26.077-3.068,39.312c2.552,7.81,6.478,14.704,12.648,19.725c2.484,2.019,5.403,3.402,8.176,4.962c3.942,2.231,4.157,3.619.427,6.202-5.023,3.479-10.241,6.598-15.329,9.905-.937.594-1.841,1.256-3.182,2.206c1.249.618,2.028,1.123,2.887,1.436c5.381,1.802,10.778,3.533,16.143,5.387c11.492,3.901,19.372,11.844,22.283,24.866.954,4.364.953,8.783-.084,13.171-2.937,11.96-12.55,17.606-22.586,13.118-5.367-2.376-9.253-6.974-12.977-11.803-3.513-4.537-6.751-9.41-10.167-14.105-2.115-2.949-4.279-5.861-7.995-8.289-.035,3.881-.007,7.098.004,10.334-.006,2.958.248,5.962-.066,8.891-.911,8.039-6.46,13.565-13.613,14.323-12.025,1.26-23.671-9.927-26.985-22.401-1.198-4.551-1.571-9.449-.163-14.193c1.104-3.763,1.993-4.199,5.188-2.509c2.644,1.389,5.335,2.603,8.043,3.799.908.399,1.944.482,3.338.783-.247-1.195-.267-2.099-.609-2.823-1.794-3.738-3.427-7.6-5.511-11.123-4.951-8.387-9.788-16.689-11.814-26.441-3.703-17.407-.849-34.498,9.294-50.784c6.149-9.94,14.235-17.015,23.236-21.848c1.955-1.032,4.2-2.523,5.987-.699c1.82,1.876,1.167,4.882.609,7.451-1.227,5.679-2.875,11.281-3.939,16.957-.62,3.37-.446,6.829-.612,10.242l1.021.222Zm-4.052,44.952l.857-.036c.388-.356.84-.644,1.162-1.068c4.031-4.729,5.055-17.624,1.848-22.637-.375-.584-1.268-1.313-1.623-1.132-.614.291-1.275,1.227-1.386,1.943-.791,5.305-1.614,10.593-1.952,15.872-.153,2.352.697,4.717,1.094,7.058Z" transform="translate(-331.992798,-351.531876)" clip-rule="evenodd" fill="#fca80e" fill-rule="evenodd" stroke-linejoin="round" stroke-miterlimit="2"/></g><g id="evEFSul6xnV17_ts" transform="translate(229.793449,362.173386) scale(1,1)"><path d="M238.737,434.799c-19.132.991-47.336-18.08-54.111-43.634-2.019-8.013-.785-16.006,2.41-23.884c3.21-7.913,7.652-15.434,13.294-22.389c1.982-2.424,3.672-5.243,5.12-8.057c1.334-2.602.651-3.649-1.825-3.354-2.946.357-5.938.993-8.899,1.438-3.544.509-4.633-.599-3.805-4.583c1.322-6.204,4.312-12.198,8.438-17.73c10.925-14.545,23.507-22.914,37.105-23.093c6.379-.081,11.793,2.102,16.695,5.723c5.438,3.992,10.134,9.183,14.607,14.953c3.187,4.143,4.064,9.379,3.518,15.357-1.124,11.819-.372,23.285,3.179,34.241.671,2.056,1.213,4.254,1.334,6.444.172,2.901.312,5.96-.309,8.757-1.945,8.669-2.838,17.282-1.026,26.117c1.762,8.435-.432,15.266-5.674,20.907-7.161,7.769-15.354,12.063-30.051,12.787Zm1.004-36.972c.851,2.575,2.656,4.851,4.057,7.275l.905-.35c.158-1.047.433-2.097.41-3.175-.066-3.078-.236-6.171-.324-9.248-.347-12.118.53-24.297-.775-36.344-.652-6.023-1.205-12.039-3.799-17.161-.551-1.086-1.886-2.201-2.938-2.113-.89.074-2.412,1.788-2.79,2.946-1.01,3.094-2.052,6.41-2.023,9.454.094,10.001.863,19.919,2.435,29.75c1.01,6.416,2.813,12.711,4.842,18.966Z" transform="translate(-229.793449,-362.173386)" clip-rule="evenodd" fill="#fca80e" fill-rule="evenodd" stroke-linejoin="round" stroke-miterlimit="2"/></g></svg>
