<?xml version="1.0" encoding="UTF-8" standalone="no"?><!DOCTYPE svg PUBLIC "-//W3C//DTD SVG 1.1//EN" "http://www.w3.org/Graphics/SVG/1.1/DTD/svg11.dtd"><svg width="100%" height="100%" viewBox="0 0 720 720" version="1.1" xmlns="http://www.w3.org/2000/svg" xmlns:xlink="http://www.w3.org/1999/xlink" xml:space="preserve" xmlns:serif="http://www.serif.com/" style="fill-rule:evenodd;clip-rule:evenodd;stroke-linejoin:round;stroke-miterlimit:2;"><rect id="Artboard1" x="0" y="0" width="720" height="720" style="fill:none;"/><clipPath id="_clip1"><rect id="Artboard11" serif:id="Artboard1" x="0" y="0" width="720" height="720"/></clipPath><g clip-path="url(#_clip1)"><rect x="0" y="0" width="720" height="720" style="fill:url(#_Linear2);"/><path d="M230.137,165.442l-30.165,17.897l30.165,17.898l30.165,-17.898l-30.165,-17.897Z" style="fill:#333;"/><path d="M221.831,180.227l-3.061,1.815l12.241,7.263l3.06,-1.816l-12.24,-7.262Z" style="fill:#c60086;"/><path d="M227.951,176.595l-3.06,1.816l12.241,7.263l3.06,-1.816l-12.241,-7.263Z" style="fill:#c60086;"/><path d="M230.137,201.237l-30.165,-17.898l-0,18.676l30.165,17.898l-0,-18.676Z"/><path d="M316.92,232.376l0,-7.794l10.801,-0l-0,18.727c0.044,4.21 -4.669,8.11 -11.023,11.88c-10.672,6.332 -21.962,9.916 -35.302,2.001l-53.983,-32.03l38.673,-22.945l50.834,30.161Z" style="fill:#444;"/><path d="M277.352,236.114l-49.939,-29.63l0,18.676l49.939,29.63l-0,-18.676Z"/><path d="M260.302,183.339l-30.165,17.898l-0,18.676l30.165,-17.898l-0,-18.676Z"/><path d="M266.086,183.539l-38.673,22.945l53.983,32.03c13.34,7.915 24.63,4.331 35.302,-2.001c10.672,-6.332 16.711,-13.03 3.371,-20.945l-53.983,-32.029Z" style="fill:#333;"/><path d="M320.695,47.367l-14.958,8.875l14.958,8.875l14.958,-8.875l-14.958,-8.875Z" style="fill:#333;"/><path d="M316.576,54.699l-1.517,0.9l6.07,3.601l1.517,-0.9l-6.07,-3.601Z" style="fill:#c60086;"/><path d="M319.611,52.898l-1.517,0.9l6.07,3.602l1.517,-0.901l-6.07,-3.601Z" style="fill:#c60086;"/><path d="M320.695,65.117l-14.958,-8.875l-0,9.261l14.958,8.875l0,-9.261Z"/><path d="M363.729,80.558l0,-3.865l5.356,0l-0,9.287c0.022,2.087 -2.315,4.021 -5.466,5.891c-5.292,3.14 -10.89,4.917 -17.506,0.992l-26.769,-15.883l19.177,-11.378l25.208,14.956Z" style="fill:#444;"/><path d="M344.108,82.412l-24.764,-14.693l0,9.261l24.764,14.693l-0,-9.261Z"/><path d="M335.653,56.242l-14.958,8.875l0,9.261l14.958,-8.875l0,-9.261Z"/><path d="M338.521,56.341l-19.177,11.378l26.769,15.883c6.616,3.925 12.214,2.148 17.506,-0.992c5.292,-3.14 8.287,-6.461 1.672,-10.386l-26.77,-15.883Z" style="fill:#333;"/><path d="M389.345,687.016l18.219,10.809l-18.219,10.81l-18.219,-10.81l18.219,-10.809Z" style="fill:#333;"/><path d="M394.362,695.945l1.848,1.097l-7.393,4.387l-1.848,-1.097l7.393,-4.387Z" style="fill:#c60086;"/><path d="M390.665,693.752l1.848,1.097l-7.393,4.386l-1.848,-1.096l7.393,-4.387Z" style="fill:#c60086;"/><path d="M389.345,708.635l18.219,-10.81l0,11.28l-18.219,10.81l-0,-11.28Z"/><path d="M336.93,727.442l-0,-4.707l-6.524,-0l0,11.311c-0.026,2.542 2.82,4.898 6.658,7.175c6.446,3.825 13.264,5.989 21.321,1.208l32.605,-19.345l-23.358,-13.858l-30.702,18.216Z" style="fill:#444;"/><path d="M360.828,729.7l30.162,-17.895l0,11.279l-30.162,17.896l0,-11.28Z"/><path d="M371.126,697.825l18.219,10.81l-0,11.28l-18.219,-10.81l-0,-11.28Z"/><path d="M367.632,697.946l23.358,13.859l-32.605,19.345c-8.057,4.78 -14.875,2.616 -21.321,-1.209c-6.446,-3.824 -10.093,-7.869 -2.036,-12.65l32.604,-19.345Z" style="fill:#333;"/><path d="M93.379,208.434l20.604,12.225l-20.604,12.225l-20.604,-12.225l20.604,-12.225Z" style="fill:#333;"/><path d="M99.053,218.533l2.09,1.241l-8.361,4.96l-2.09,-1.24l8.361,-4.961Z" style="fill:#c60086;"/><path d="M94.872,216.053l2.09,1.24l-8.361,4.961l-2.09,-1.24l8.361,-4.961Z" style="fill:#c60086;"/><path d="M93.379,232.884l20.604,-12.225l0,12.757l-20.604,12.225l0,-12.757Z"/><path d="M34.102,254.154l-0,-5.324l-7.377,-0l-0,12.792c-0.03,2.875 3.188,5.539 7.529,8.114c7.29,4.325 15.001,6.773 24.113,1.367l36.873,-21.878l-26.416,-15.673l-34.722,20.602Z" style="fill:#444;"/><path d="M61.129,256.707l34.111,-20.238l-0,12.756l-34.111,20.239l0,-12.757Z"/><path d="M72.775,220.659l20.604,12.225l0,12.757l-20.604,-12.225l-0,-12.757Z"/><path d="M68.824,220.796l26.416,15.673l-36.873,21.877c-9.112,5.407 -16.823,2.959 -24.113,-1.366c-7.29,-4.325 -11.415,-8.9 -2.303,-14.307l36.873,-21.877Z" style="fill:#333;"/><path d="M544.585,208.434l27.225,16.154l-27.225,16.153l-27.226,-16.153l27.226,-16.154Z" style="fill:#333;"/><path d="M552.081,221.779l2.762,1.638l-11.048,6.555l-2.762,-1.638l11.048,-6.555Z" style="fill:#c60086;"/><path d="M546.557,218.501l2.762,1.639l-11.048,6.555l-2.762,-1.639l11.048,-6.555Z" style="fill:#c60086;"/><path d="M544.585,240.741l27.225,-16.153l-0,16.856l-27.225,16.153l-0,-16.856Z"/><path d="M466.259,268.845l-0,-7.034l-9.748,-0l-0,16.902c-0.04,3.8 4.213,7.32 9.949,10.723c9.632,5.714 19.821,8.949 31.861,1.805l48.722,-28.908l-34.904,-20.709l-45.88,27.221Z" style="fill:#444;"/><path d="M501.971,272.22l45.072,-26.743l-0,16.856l-45.072,26.742l0,-16.855Z"/><path d="M517.359,224.588l27.226,16.153l-0,16.856l-27.226,-16.153l0,-16.856Z"/><path d="M512.139,224.768l34.904,20.709l-48.722,28.908c-12.04,7.144 -22.229,3.91 -31.861,-1.805c-9.632,-5.715 -15.083,-11.76 -3.043,-18.904l48.722,-28.908Z" style="fill:#333;"/><path d="M444.39,340.528l42.861,25.43l-42.861,25.43l-42.86,-25.43l42.86,-25.43Z" style="fill:#333;"/><path d="M456.192,361.535l4.348,2.58l-17.392,10.319l-4.348,-2.579l17.392,-10.32Z" style="fill:#c60086;"/><path d="M447.496,356.375l4.348,2.58l-17.392,10.32l-4.349,-2.58l17.393,-10.32Z" style="fill:#c60086;"/><path d="M444.39,391.388l42.861,-25.43l-0,26.536l-42.861,25.43l0,-26.536Z"/><path d="M321.083,435.632l0,-11.074l-15.346,-0l0,26.608c-0.062,5.982 6.633,11.523 15.663,16.881c15.163,8.996 31.204,14.088 50.158,2.842l76.702,-45.509l-54.948,-32.603l-72.229,42.855Z" style="fill:#444;"/><path d="M377.304,440.944l70.956,-42.1l0,26.536l-70.956,42.099l0,-26.535Z"/><path d="M401.53,365.958l42.86,25.43l0,26.536l-42.86,-25.43l-0,-26.536Z"/><path d="M393.312,366.241l54.948,32.603l-76.702,45.509c-18.954,11.246 -34.995,6.155 -50.158,-2.842c-15.164,-8.997 -23.745,-18.514 -4.791,-29.76l76.703,-45.51Z" style="fill:#333;"/><path d="M30.699,353.122l0,-11.074l15.346,0l0,26.609c0.062,5.981 -6.633,11.523 -15.662,16.88c-15.164,8.997 -31.204,14.089 -50.159,2.842l-76.702,-45.509l54.949,-32.602l72.228,42.854Z" style="fill:#444;"/><path d="M-41.529,283.732l-54.949,32.602l76.702,45.51c18.955,11.246 34.995,6.154 50.159,-2.843c15.163,-8.996 23.745,-18.514 4.79,-29.76l-76.702,-45.509Z" style="fill:#333;"/><path d="M22.457,611.445l-42.86,25.431l42.86,25.43l42.861,-25.43l-42.861,-25.431Z" style="fill:#333;"/><path d="M10.655,632.453l-4.348,2.58l17.393,10.319l4.348,-2.58l-17.393,-10.319Z" style="fill:#c60086;"/><path d="M19.351,627.293l-4.348,2.58l17.393,10.319l4.348,-2.579l-17.393,-10.32Z" style="fill:#c60086;"/><path d="M22.457,662.306l-42.86,-25.43l-0,26.535l42.86,25.43l0,-26.535Z"/><path d="M145.764,706.55l0,-11.075l15.347,0l-0.001,26.609c0.063,5.981 -6.633,11.523 -15.662,16.88c-15.164,8.997 -31.204,14.089 -50.159,2.843l-76.702,-45.51l54.949,-32.602l72.228,42.855Z" style="fill:#444;"/><path d="M89.543,711.861l-70.956,-42.099l0,26.535l70.956,42.1l0,-26.536Z"/><path d="M65.318,636.876l-42.861,25.43l0,26.535l42.861,-25.43l-0,-26.535Z"/><path d="M73.536,637.159l-54.949,32.603l76.702,45.509c18.955,11.246 34.995,6.155 50.159,-2.842c15.163,-8.997 23.745,-18.514 4.79,-29.761l-76.702,-45.509Z" style="fill:#333;"/><path d="M465.122,4.508l-0,-11.074l15.346,-0l-0,26.608c0.062,5.982 -6.634,11.523 -15.663,16.881c-15.163,8.997 -31.204,14.088 -50.158,2.842l-76.702,-45.509l54.948,-32.603l72.229,42.855Z" style="fill:#444;"/><path d="M408.9,9.82l-70.955,-42.1l-0,26.536l70.955,42.099l0,-26.535Z"/><path d="M392.893,-64.883l-54.948,32.603l76.702,45.509c18.954,11.246 34.995,6.155 50.158,-2.842c15.164,-8.997 23.745,-18.514 4.791,-29.76l-76.703,-45.51Z" style="fill:#333;"/><path d="M519.873,458.268l-64.5,38.269l80.675,47.867l64.5,-38.27l-80.675,-47.866Z" style="fill:#333;"/><path d="M509.515,451.429l-40.579,24.077l18.445,24.077l40.58,-24.077l-18.446,-24.077Z" style="fill:#444;"/><path d="M506.749,457.448l-30.435,18.058l13.834,18.058l30.435,-18.058l-13.834,-18.058Z"/><path d="M487.381,499.583l-18.445,-24.077l-0,13.133l18.445,10.944Z"/><path d="M513.705,521.58l-5.058,3.001l26.875,15.945l5.058,-3.001l-26.875,-15.945Z"/><path d="M505.643,516.796l-5.058,3.001l5.375,3.189l5.058,-3.001l-5.375,-3.189Z"/><path d="M528.607,479.479l-3.993,2.369l3.993,2.369l3.992,-2.369l-3.992,-2.369Z" style="fill:#c60086;"/><path d="M534.596,475.925l-3.993,2.369l3.993,2.369l3.993,-2.369l-3.993,-2.369Z" style="fill:#c60086;"/><path d="M536.048,544.404l-80.675,-47.867l0,19.194l80.675,47.867l0,-19.194Z"/><path d="M600.548,506.134l-64.5,38.27l0,19.194l64.5,-38.269l0,-19.195Z" style="fill:#444;"/><path d="M587.111,520.109l-37.625,22.324l-0,6.378l37.625,-22.324l-0,-6.378Z"/><path d="M520.629,493.489c10.392,-6.166 27.266,-6.166 37.658,0c10.392,6.166 10.392,18.171 0,24.337c-10.392,6.166 -27.266,6.166 -37.658,-0c-10.392,-6.166 -10.392,-18.171 0,-24.337Z"/><path d="M523.319,491.543c8.907,-5.285 23.371,-5.285 32.278,-0c8.908,5.285 8.908,13.866 0,19.151c-8.907,5.285 -23.371,5.285 -32.278,0c-8.908,-5.285 -8.908,-13.866 -0,-19.151Z" style="fill:#444;"/><path d="M532.733,497.129c3.712,-2.203 9.738,-2.203 13.45,-0c3.711,2.202 3.711,5.777 -0,7.979c-3.712,2.202 -9.738,2.202 -13.45,0c-3.711,-2.202 -3.711,-5.777 0,-7.979Z"/><path d="M480.894,503.779c1.483,-0.88 3.891,-0.88 5.375,-0c1.483,0.88 1.483,2.309 -0,3.189c-1.484,0.88 -3.892,0.88 -5.375,-0c-1.484,-0.88 -1.484,-2.309 -0,-3.189Z"/><path d="M449.66,103.104l64.5,38.27l-80.675,47.866l-64.5,-38.269l80.675,-47.867Z" style="fill:#333;"/><path d="M460.018,96.266l40.579,24.076l-18.445,24.077l-40.579,-24.077l18.445,-24.076Z" style="fill:#444;"/><path d="M462.785,102.285l30.434,18.057l-13.834,18.058l-30.434,-18.058l13.834,-18.057Z"/><path d="M482.152,144.419l18.445,-24.077l0,13.133l-18.445,10.944Z"/><path d="M455.828,166.416l5.058,3.001l-26.875,15.946l-5.058,-3.001l26.875,-15.946Z"/><path d="M463.891,161.633l5.057,3.001l-5.375,3.189l-5.057,-3.001l5.375,-3.189Z"/><path d="M440.927,124.315l3.993,2.369l-3.993,2.369l-3.993,-2.369l3.993,-2.369Z" style="fill:#c60086;"/><path d="M434.937,120.761l3.993,2.369l-3.993,2.37l-3.993,-2.37l3.993,-2.369Z" style="fill:#c60086;"/><path d="M433.485,189.24l80.675,-47.866l0,19.194l-80.675,47.866l0,-19.194Z"/><path d="M368.985,150.971l64.5,38.269l0,19.194l-64.5,-38.269l0,-19.194Z" style="fill:#444;"/><path d="M382.423,164.946l37.625,22.323l-0,6.379l-37.625,-22.324l-0,-6.378Z"/><path d="M448.904,138.326c-10.392,-6.166 -27.266,-6.166 -37.658,-0c-10.392,6.166 -10.392,18.171 0,24.336c10.392,6.166 27.266,6.166 37.658,0c10.392,-6.165 10.392,-18.17 0,-24.336Z"/><path d="M446.214,136.379c-8.907,-5.285 -23.371,-5.285 -32.278,0c-8.907,5.285 -8.907,13.867 0,19.152c8.907,5.285 23.371,5.285 32.278,-0c8.908,-5.285 8.908,-13.867 0,-19.152Z" style="fill:#444;"/><path d="M436.8,141.965c-3.712,-2.202 -9.738,-2.202 -13.449,0c-3.712,2.202 -3.712,5.778 -0,7.98c3.711,2.202 9.737,2.202 13.449,-0c3.711,-2.202 3.711,-5.778 -0,-7.98Z"/><path d="M488.64,148.615c-1.484,-0.88 -3.892,-0.88 -5.375,0c-1.484,0.88 -1.484,2.309 -0,3.189c1.483,0.88 3.891,0.88 5.375,0c1.483,-0.88 1.483,-2.309 -0,-3.189Z"/><path d="M184.912,280.419l-87.854,52.126l109.885,65.198l87.855,-52.126l-109.886,-65.198Z" style="fill:#333;"/><path d="M170.804,271.104l-55.273,32.794l25.124,32.795l55.273,-32.795l-25.124,-32.794Z" style="fill:#444;"/><path d="M167.035,279.302l-41.454,24.596l18.843,24.596l41.454,-24.596l-18.843,-24.596Z"/><path d="M140.655,336.693l-25.124,-32.795l0,17.888l25.124,14.907Z"/><path d="M176.511,366.655l-6.89,4.087l36.606,21.719l6.889,-4.087l-36.605,-21.719Z"/><path d="M165.529,360.139l-6.889,4.087l7.321,4.344l6.889,-4.087l-7.321,-4.344Z"/><path d="M196.807,309.309l-5.438,3.227l5.438,3.227l5.439,-3.227l-5.439,-3.227Z" style="fill:#c60086;"/><path d="M204.965,304.469l-5.438,3.227l5.438,3.227l5.439,-3.227l-5.439,-3.227Z" style="fill:#c60086;"/><path d="M206.943,397.743l-109.885,-65.198l-0,26.144l109.885,65.198l0,-26.144Z"/><path d="M294.798,345.617l-87.855,52.126l0,26.144l87.855,-52.126l-0,-26.144Z" style="fill:#444;"/><path d="M276.495,364.651l-51.249,30.407l0,8.688l51.249,-30.407l-0,-8.688Z"/><path d="M185.941,328.393c14.155,-8.398 37.139,-8.398 51.294,-0c14.154,8.398 14.154,24.75 -0,33.148c-14.155,8.399 -37.139,8.399 -51.294,0c-14.154,-8.398 -14.154,-24.75 0,-33.148Z"/><path d="M189.605,325.742c12.133,-7.199 31.833,-7.199 43.966,-0c12.132,7.198 12.132,18.887 -0,26.085c-12.133,7.199 -31.833,7.199 -43.966,0c-12.133,-7.198 -12.133,-18.887 0,-26.085Z" style="fill:#444;"/><path d="M202.428,333.35c5.056,-2.999 13.264,-2.999 18.319,-0c5.056,2.999 5.056,7.87 0,10.869c-5.055,3 -13.263,3 -18.319,0c-5.055,-2.999 -5.055,-7.87 0,-10.869Z"/><path d="M131.819,342.408c2.02,-1.199 5.3,-1.199 7.321,-0c2.02,1.199 2.02,3.145 -0,4.344c-2.021,1.198 -5.301,1.198 -7.321,-0c-2.021,-1.199 -2.021,-3.145 -0,-4.344Z"/><path d="M154.029,7.49l106.469,63.17l-133.168,79.012l-106.469,-63.17l133.168,-79.012Z" style="fill:#333;"/><path d="M171.127,-3.798l66.983,39.743l-30.447,39.742l-66.983,-39.742l30.447,-39.743Z" style="fill:#444;"/><path d="M175.694,6.137l50.237,29.808l-22.835,29.807l-50.238,-29.807l22.836,-29.808Z"/><path d="M207.663,75.687l30.447,-39.742l0,21.678l-30.447,18.064Z"/><path d="M164.211,111.997l8.348,4.954l-44.361,26.321l-8.349,-4.954l44.362,-26.321Z"/><path d="M177.519,104.101l8.349,4.954l-8.872,5.264l-8.349,-4.954l8.872,-5.264Z"/><path d="M139.613,42.502l6.591,3.91l-6.591,3.911l-6.591,-3.911l6.591,-3.91Z" style="fill:#c60086;"/><path d="M129.727,36.636l6.591,3.911l-6.591,3.91l-6.591,-3.91l6.591,-3.911Z" style="fill:#c60086;"/><path d="M127.33,149.672l133.168,-79.012l-0,31.684l-133.168,79.011l-0,-31.683Z"/><path d="M20.861,86.502l106.469,63.17l-0,31.683l-106.469,-63.17l0,-31.683Z" style="fill:#444;"/><path d="M43.042,109.569l62.107,36.85l-0,10.528l-62.107,-36.849l0,-10.529Z"/><path d="M152.782,65.629c-17.154,-10.178 -45.008,-10.178 -62.162,-0c-17.153,10.178 -17.153,29.994 0,40.172c17.154,10.178 45.008,10.178 62.162,-0c17.153,-10.178 17.153,-29.994 -0,-40.172Z"/><path d="M148.342,62.416c-14.704,-8.724 -38.578,-8.724 -53.281,-0c-14.704,8.724 -14.704,22.889 -0,31.613c14.703,8.724 38.577,8.724 53.281,-0c14.703,-8.724 14.703,-22.889 -0,-31.613Z" style="fill:#444;"/><path d="M132.801,71.636c-6.126,-3.635 -16.074,-3.635 -22.2,0c-6.127,3.635 -6.127,9.537 -0,13.172c6.126,3.635 16.074,3.635 22.2,0c6.127,-3.635 6.127,-9.537 0,-13.172Z"/><path d="M218.372,82.613c-2.449,-1.452 -6.424,-1.452 -8.873,0c-2.448,1.453 -2.448,3.812 0,5.264c2.449,1.453 6.424,1.453 8.873,0c2.448,-1.452 2.448,-3.811 -0,-5.264Z"/><path d="M715.952,176.73l-106.468,63.17l133.168,79.012l106.468,-63.17l-133.168,-79.012Z" style="fill:#333;"/><path d="M698.855,165.442l-66.984,39.742l30.447,39.743l66.984,-39.743l-30.447,-39.742Z" style="fill:#444;"/><path d="M694.288,175.377l-50.238,29.807l22.835,29.808l50.238,-29.808l-22.835,-29.807Z"/><path d="M662.318,244.927l-30.447,-39.743l0,21.678l30.447,18.065Z"/><path d="M705.771,281.237l-8.349,4.954l44.362,26.32l8.349,-4.953l-44.362,-26.321Z"/><path d="M692.462,273.341l-8.349,4.953l8.873,5.265l8.349,-4.954l-8.873,-5.264Z"/><path d="M742.652,318.912l-133.168,-79.012l-0,31.683l133.168,79.012l-0,-31.683Z"/><path d="M717.2,234.869c17.154,-10.178 45.007,-10.178 62.161,-0c17.154,10.178 17.154,29.994 -0,40.172c-17.154,10.177 -45.007,10.177 -62.161,-0c-17.154,-10.178 -17.154,-29.994 -0,-40.172Z"/><path d="M721.64,231.656c14.703,-8.724 38.578,-8.724 53.281,-0c14.703,8.723 14.703,22.889 -0,31.613c-14.703,8.723 -38.578,8.723 -53.281,-0c-14.703,-8.724 -14.703,-22.89 -0,-31.613Z" style="fill:#444;"/><path d="M651.61,251.853c2.448,-1.453 6.424,-1.453 8.872,0c2.448,1.453 2.448,3.812 0,5.264c-2.448,1.453 -6.424,1.453 -8.872,0c-2.449,-1.452 -2.449,-3.811 -0,-5.264Z"/><path d="M295.947,513.15l106.468,63.171l-133.168,79.011l-106.468,-63.17l133.168,-79.012Z" style="fill:#333;"/><path d="M313.044,501.862l66.984,39.743l-30.447,39.743l-66.984,-39.743l30.447,-39.743Z" style="fill:#444;"/><path d="M317.611,511.798l50.238,29.807l-22.836,29.807l-50.237,-29.807l22.835,-29.807Z"/><path d="M349.581,581.348l30.447,-39.743l-0,21.678l-30.447,18.065Z"/><path d="M306.128,617.657l8.349,4.954l-44.362,26.321l-8.349,-4.954l44.362,-26.321Z"/><path d="M319.437,609.761l8.348,4.954l-8.872,5.264l-8.349,-4.954l8.873,-5.264Z"/><path d="M281.531,548.162l6.591,3.911l-6.591,3.91l-6.591,-3.91l6.591,-3.911Z" style="fill:#c60086;"/><path d="M271.644,542.296l6.591,3.911l-6.591,3.91l-6.59,-3.91l6.59,-3.911Z" style="fill:#c60086;"/><path d="M269.247,655.332l133.168,-79.011l0,31.683l-133.168,79.012l0,-31.684Z"/><path d="M162.779,592.162l106.468,63.17l0,31.684l-106.468,-63.171l-0,-31.683Z" style="fill:#444;"/><path d="M184.96,615.23l62.106,36.849l0,10.528l-62.106,-36.849l-0,-10.528Z"/><path d="M294.699,571.289c-17.154,-10.178 -45.007,-10.178 -62.161,0c-17.154,10.178 -17.154,29.994 0,40.172c17.154,10.178 45.007,10.178 62.161,0c17.154,-10.178 17.154,-29.994 0,-40.172Z"/><path d="M290.259,568.076c-14.703,-8.724 -38.578,-8.724 -53.281,0c-14.703,8.724 -14.703,22.889 0,31.613c14.703,8.724 38.578,8.724 53.281,-0c14.703,-8.724 14.703,-22.889 0,-31.613Z" style="fill:#444;"/><path d="M274.719,577.297c-6.127,-3.635 -16.074,-3.635 -22.201,-0c-6.126,3.634 -6.126,9.537 0,13.172c6.127,3.634 16.074,3.634 22.201,-0c6.126,-3.635 6.126,-9.538 -0,-13.172Z"/><path d="M360.289,588.274c-2.448,-1.453 -6.424,-1.453 -8.872,-0c-2.449,1.452 -2.449,3.811 -0,5.264c2.448,1.452 6.424,1.452 8.872,-0c2.449,-1.453 2.449,-3.812 0,-5.264Z"/><path d="M-65.109,-24.143c24.312,-14.426 63.79,-14.426 88.102,-0c24.313,14.425 24.313,37.848 0,52.273c-24.312,14.425 -63.79,14.425 -88.102,0c-24.313,-14.425 -24.313,-37.848 -0,-52.273Z"/><path d="M-63.585,-24.221c23.471,-13.926 61.583,-13.926 85.054,0c23.471,13.926 23.471,36.539 -0,50.465c-23.471,13.926 -61.583,13.926 -85.054,-0c-23.472,-13.926 -23.472,-36.539 -0,-50.465Z" style="fill:#2b2b2b;"/><path d="M-40.824,-10.716c10.909,-6.473 28.623,-6.473 39.532,-0c10.909,6.473 10.909,16.983 -0,23.455c-10.909,6.473 -28.623,6.473 -39.532,0c-10.909,-6.472 -10.909,-16.982 -0,-23.455Z"/><path d="M-34.834,-7.162c7.603,-4.511 19.949,-4.511 27.552,-0c7.604,4.511 7.604,11.836 0,16.347c-7.603,4.512 -19.949,4.512 -27.552,0c-7.604,-4.511 -7.604,-11.836 -0,-16.347Z" style="fill:#2b2b2b;"/><path d="M-32.794,-5.951c6.477,-3.843 16.994,-3.843 23.471,-0c6.477,3.843 6.477,10.083 0,13.926c-6.477,3.842 -16.994,3.842 -23.471,-0c-6.477,-3.843 -6.477,-10.083 0,-13.926Z" style="fill:#c60086;"/><path d="M556.497,358.314c24.313,-14.425 63.79,-14.425 88.103,0c24.312,14.425 24.312,37.848 -0,52.273c-24.313,14.426 -63.79,14.426 -88.103,0c-24.313,-14.425 -24.313,-37.848 -0,-52.273Z"/><path d="M558.021,358.237c23.471,-13.926 61.583,-13.926 85.054,-0c23.472,13.926 23.472,36.538 0,50.464c-23.471,13.926 -61.583,13.926 -85.054,0c-23.471,-13.926 -23.471,-36.538 0,-50.464Z" style="fill:#2b2b2b;"/><path d="M580.782,371.741c10.909,-6.472 28.623,-6.472 39.532,0c10.91,6.473 10.91,16.983 0,23.456c-10.909,6.472 -28.623,6.472 -39.532,-0c-10.909,-6.473 -10.909,-16.983 0,-23.456Z"/><path d="M586.772,375.295c7.603,-4.511 19.949,-4.511 27.553,0c7.603,4.511 7.603,11.837 -0,16.348c-7.604,4.511 -19.95,4.511 -27.553,-0c-7.604,-4.511 -7.604,-11.837 -0,-16.348Z" style="fill:#2b2b2b;"/><path d="M588.813,376.506c6.477,-3.843 16.994,-3.843 23.471,0c6.477,3.843 6.477,10.083 -0,13.926c-6.477,3.843 -16.994,3.843 -23.471,-0c-6.477,-3.843 -6.477,-10.083 -0,-13.926Z" style="fill:#c60086;"/><path d="M599.5,382.847c0.579,-0.343 1.518,-0.343 2.096,0c0.579,0.343 0.579,0.901 0,1.244c-0.578,0.343 -1.517,0.343 -2.096,-0c-0.578,-0.343 -0.578,-0.901 0,-1.244Z"/><path d="M339.801,281.371c16.107,-9.556 42.261,-9.556 58.368,0c16.107,9.557 16.107,25.074 -0,34.631c-16.107,9.557 -42.261,9.557 -58.368,0c-16.107,-9.557 -16.107,-25.074 0,-34.631Z"/><path d="M340.811,281.32c15.55,-9.226 40.798,-9.226 56.348,-0c15.55,9.226 15.55,24.207 -0,33.432c-15.55,9.226 -40.798,9.226 -56.348,0c-15.549,-9.225 -15.549,-24.206 0,-33.432Z" style="fill:#2b2b2b;"/><path d="M355.89,290.267c7.227,-4.288 18.963,-4.288 26.19,-0c7.227,4.288 7.227,11.251 -0,15.539c-7.227,4.288 -18.963,4.288 -26.19,-0c-7.227,-4.288 -7.227,-11.251 0,-15.539Z"/><path d="M359.858,292.621c5.037,-2.989 13.217,-2.989 18.254,0c5.037,2.989 5.037,7.842 -0,10.83c-5.037,2.989 -13.217,2.989 -18.254,0c-5.037,-2.988 -5.037,-7.841 0,-10.83Z" style="fill:#2b2b2b;"/><path d="M361.21,293.423c4.291,-2.546 11.259,-2.546 15.55,0c4.291,2.546 4.291,6.68 -0,9.226c-4.291,2.546 -11.259,2.546 -15.55,0c-4.291,-2.546 -4.291,-6.68 0,-9.226Z" style="fill:#c60086;"/><path d="M368.291,297.624c0.383,-0.227 1.005,-0.227 1.388,0c0.384,0.228 0.384,0.597 0,0.824c-0.383,0.228 -1.005,0.228 -1.388,0c-0.384,-0.227 -0.384,-0.596 -0,-0.824Z"/><path d="M19.577,461.823c37.245,-22.099 97.722,-22.099 134.967,-0c37.245,22.098 37.245,57.98 -0,80.078c-37.245,22.099 -97.722,22.099 -134.967,0c-37.245,-22.098 -37.245,-57.98 0,-80.078Z"/><path d="M21.912,461.704c35.957,-21.334 94.34,-21.334 130.297,0c35.956,21.334 35.956,55.974 -0,77.308c-35.957,21.334 -94.34,21.334 -130.297,-0c-35.956,-21.334 -35.956,-55.974 0,-77.308Z" style="fill:#2b2b2b;"/><path d="M56.78,482.392c16.712,-9.916 43.849,-9.916 60.561,0c16.712,9.916 16.712,26.016 -0,35.932c-16.712,9.916 -43.849,9.916 -60.561,-0c-16.712,-9.916 -16.712,-26.016 0,-35.932Z"/><path d="M65.956,487.836c11.648,-6.911 30.561,-6.911 42.209,0c11.648,6.911 11.648,18.133 -0,25.044c-11.648,6.911 -30.561,6.911 -42.209,-0c-11.648,-6.911 -11.648,-18.133 0,-25.044Z" style="fill:#2b2b2b;"/><path d="M69.083,489.691c9.922,-5.887 26.033,-5.887 35.955,0c9.923,5.887 9.923,15.447 0,21.334c-9.922,5.887 -26.033,5.887 -35.955,-0c-9.922,-5.887 -9.922,-15.447 -0,-21.334Z" style="fill:#c60086;"/><path d="M85.455,499.405c0.886,-0.526 2.325,-0.526 3.211,0c0.887,0.526 0.887,1.38 0,1.906c-0.886,0.526 -2.325,0.526 -3.211,-0c-0.886,-0.526 -0.886,-1.38 -0,-1.906Z"/><path d="M681.711,470.981c33.984,-20.163 89.164,-20.163 123.147,-0c33.983,20.163 33.983,52.902 -0,73.065c-33.983,20.163 -89.163,20.163 -123.147,0c-33.983,-20.163 -33.983,-52.902 0,-73.065Z"/><path d="M683.842,470.873c32.807,-19.466 86.078,-19.466 118.885,-0c32.808,19.465 32.808,51.072 0,70.537c-32.807,19.465 -86.078,19.465 -118.885,0c-32.807,-19.465 -32.807,-51.072 0,-70.537Z" style="fill:#2b2b2b;"/><path d="M715.656,489.749c15.249,-9.047 40.009,-9.047 55.257,-0c15.248,9.047 15.248,23.738 -0,32.785c-15.248,9.047 -40.008,9.047 -55.257,-0c-15.248,-9.047 -15.248,-23.738 0,-32.785Z"/><path d="M724.029,494.716c10.627,-6.305 27.884,-6.305 38.512,0c10.627,6.306 10.627,16.545 -0,22.85c-10.628,6.306 -27.885,6.306 -38.512,0c-10.628,-6.305 -10.628,-16.544 -0,-22.85Z" style="fill:#2b2b2b;"/><path d="M726.881,496.409c9.054,-5.372 23.754,-5.372 32.807,-0c9.053,5.371 9.053,14.093 0,19.465c-9.053,5.371 -23.753,5.371 -32.807,-0c-9.053,-5.372 -9.053,-14.094 0,-19.465Z" style="fill:#c60086;"/><path d="M548.911,13.993c39.981,-23.722 104.9,-23.722 144.881,0c39.982,23.722 39.982,62.24 0,85.962c-39.981,23.722 -104.9,23.722 -144.881,-0c-39.982,-23.722 -39.982,-62.24 -0,-85.962Z"/><path d="M551.417,13.866c38.598,-22.901 101.271,-22.901 139.869,-0c38.598,22.901 38.598,60.086 -0,82.987c-38.598,22.901 -101.271,22.901 -139.869,0c-38.598,-22.901 -38.598,-60.086 0,-82.987Z" style="fill:#2b2b2b;"/><path d="M588.847,36.074c17.94,-10.644 47.069,-10.644 65.009,-0c17.94,10.644 17.94,27.927 0,38.571c-17.94,10.644 -47.069,10.644 -65.009,0c-17.94,-10.644 -17.94,-27.927 -0,-38.571Z"/><path d="M598.697,41.918c12.503,-7.419 32.806,-7.419 45.309,-0c12.504,7.419 12.504,19.465 0,26.883c-12.503,7.419 -32.806,7.419 -45.309,0c-12.504,-7.418 -12.504,-19.464 -0,-26.883Z" style="fill:#2b2b2b;"/><path d="M602.053,43.909c10.651,-6.319 27.946,-6.319 38.597,0c10.651,6.32 10.651,16.581 0,22.901c-10.651,6.319 -27.946,6.319 -38.597,-0c-10.651,-6.32 -10.651,-16.581 -0,-22.901Z" style="fill:#c60086;"/><path d="M619.628,54.337c0.951,-0.565 2.496,-0.565 3.447,-0c0.952,0.564 0.952,1.481 0,2.045c-0.951,0.565 -2.496,0.565 -3.447,0c-0.952,-0.564 -0.952,-1.481 -0,-2.045Z"/><path d="M492.153,619.594c49.041,-29.097 128.67,-29.097 177.71,-0c49.041,29.097 49.041,76.343 0,105.439c-49.04,29.097 -128.669,29.097 -177.71,0c-49.04,-29.096 -49.04,-76.342 0,-105.439Z"/><path d="M495.228,619.438c47.343,-28.09 124.217,-28.09 171.561,-0c47.344,28.09 47.344,73.701 -0,101.791c-47.344,28.09 -124.218,28.09 -171.561,-0c-47.344,-28.09 -47.344,-73.701 -0,-101.791Z" style="fill:#2b2b2b;"/><path d="M541.139,646.678c22.004,-13.056 57.734,-13.056 79.739,-0c22.005,13.056 22.005,34.255 0,47.311c-22.005,13.056 -57.735,13.056 -79.739,0c-22.005,-13.056 -22.005,-34.255 -0,-47.311Z"/><path d="M553.22,653.846c15.337,-9.1 40.24,-9.1 55.576,0c15.337,9.1 15.337,23.875 0,32.975c-15.336,9.099 -40.239,9.099 -55.576,-0c-15.336,-9.1 -15.336,-23.875 0,-32.975Z" style="fill:#2b2b2b;"/><path d="M557.337,656.289c13.065,-7.752 34.278,-7.752 47.343,-0c13.064,7.751 13.064,20.338 -0,28.089c-13.065,7.752 -34.278,7.752 -47.343,0c-13.064,-7.751 -13.064,-20.338 0,-28.089Z" style="fill:#c60086;"/><path d="M578.894,669.079c1.167,-0.692 3.062,-0.692 4.229,-0c1.167,0.692 1.167,1.816 -0,2.509c-1.167,0.692 -3.062,0.692 -4.229,-0c-1.167,-0.693 -1.167,-1.817 0,-2.509Z"/></g><defs><linearGradient id="_Linear2" x1="0" y1="0" x2="1" y2="0" gradientUnits="userSpaceOnUse" gradientTransform="matrix(3.17413,720,-720,3.17413,356.826,0)"><stop offset="0" style="stop-color:#f7004e;stop-opacity:1"/><stop offset="1" style="stop-color:#9300c2;stop-opacity:1"/></linearGradient></defs></svg>