<svg id="ebn7SCqte8o1" xmlns="http://www.w3.org/2000/svg" xmlns:xlink="http://www.w3.org/1999/xlink" viewBox="0 0 720 720" shape-rendering="geometricPrecision" text-rendering="geometricPrecision">
<style><![CDATA[
#ebn7SCqte8o6_ts {animation: ebn7SCqte8o6_ts__ts 8000ms linear infinite normal forwards}@keyframes ebn7SCqte8o6_ts__ts { 0% {transform: translate(278.609497px,82.341003px) scale(0,0)} 62.5% {transform: translate(278.609497px,82.341003px) scale(0,0)} 75% {transform: translate(278.609497px,82.341003px) scale(1,1)} 87.5% {transform: translate(278.609497px,82.341003px) scale(0,0)} 100% {transform: translate(278.609497px,82.341003px) scale(0,0)}} #ebn7SCqte8o7_ts {animation: ebn7SCqte8o7_ts__ts 8000ms linear infinite normal forwards}@keyframes ebn7SCqte8o7_ts__ts { 0% {transform: translate(552.741058px,182.40451px) scale(0,0)} 50% {transform: translate(552.741058px,182.40451px) scale(0,0)} 62.5% {transform: translate(552.741058px,182.40451px) scale(1,1)} 75% {transform: translate(552.741058px,182.40451px) scale(0,0)} 100% {transform: translate(552.741058px,182.40451px) scale(0,0)}} #ebn7SCqte8o8_ts {animation: ebn7SCqte8o8_ts__ts 8000ms linear infinite normal forwards}@keyframes ebn7SCqte8o8_ts__ts { 0% {transform: translate(21.796px,154.136505px) scale(0,0)} 37.5% {transform: translate(21.796px,154.136505px) scale(0,0)} 50% {transform: translate(21.796px,154.136505px) scale(1,1)} 62.5% {transform: translate(21.796px,154.136505px) scale(0,0)} 100% {transform: translate(21.796px,154.136505px) scale(0,0)}} #ebn7SCqte8o9_ts {animation: ebn7SCqte8o9_ts__ts 8000ms linear infinite normal forwards}@keyframes ebn7SCqte8o9_ts__ts { 0% {transform: translate(369.295013px,698.879974px) scale(0,0)} 25% {transform: translate(369.295013px,698.879974px) scale(0,0)} 37.5% {transform: translate(369.295013px,698.879974px) scale(1,1)} 50% {transform: translate(369.295013px,698.879974px) scale(0,0)} 100% {transform: translate(369.295013px,698.879974px) scale(0,0)}} #ebn7SCqte8o10_ts {animation: ebn7SCqte8o10_ts__ts 8000ms linear infinite normal forwards}@keyframes ebn7SCqte8o10_ts__ts { 0% {transform: translate(213.917007px,616.198547px) scale(0,0)} 12.5% {transform: translate(213.917007px,616.198547px) scale(0,0)} 25% {transform: translate(213.917007px,616.198547px) scale(1,1)} 37.5% {transform: translate(213.917007px,616.198547px) scale(0,0)} 100% {transform: translate(213.917007px,616.198547px) scale(0,0)}} #ebn7SCqte8o11_ts {animation: ebn7SCqte8o11_ts__ts 8000ms linear infinite normal forwards}@keyframes ebn7SCqte8o11_ts__ts { 0% {transform: translate(505.932037px,556.327515px) scale(0,0)} 12.5% {transform: translate(505.932037px,556.327515px) scale(1,1)} 25% {transform: translate(505.932037px,556.327515px) scale(0,0)} 100% {transform: translate(505.932037px,556.327515px) scale(0,0)}} #ebn7SCqte8o12 {animation: ebn7SCqte8o12_c_o 8000ms linear infinite normal forwards}@keyframes ebn7SCqte8o12_c_o { 0% {opacity: 1} 12.5% {opacity: 0} 25% {opacity: 1} 37.5% {opacity: 0} 50% {opacity: 1} 62.5% {opacity: 0} 75% {opacity: 1} 87.5% {opacity: 0} 100% {opacity: 1}} #ebn7SCqte8o13 {animation: ebn7SCqte8o13_c_o 8000ms linear infinite normal forwards}@keyframes ebn7SCqte8o13_c_o { 0% {opacity: 0} 12.5% {opacity: 1} 25% {opacity: 0} 37.5% {opacity: 1} 50% {opacity: 0} 62.5% {opacity: 1} 75% {opacity: 0} 87.5% {opacity: 1} 100% {opacity: 0}} #ebn7SCqte8o17_to {animation: ebn7SCqte8o17_to__to 8000ms linear infinite normal forwards}@keyframes ebn7SCqte8o17_to__to { 0% {transform: translate(7.2px,360px)} 25% {transform: translate(727.2px,360px)} 100% {transform: translate(727.2px,360px)}} #ebn7SCqte8o18_to {animation: ebn7SCqte8o18_to__to 8000ms linear infinite normal forwards}@keyframes ebn7SCqte8o18_to__to { 0% {transform: translate(7.2px,360px)} 60% {transform: translate(7.2px,360px)} 85% {transform: translate(727.2px,360px)} 100% {transform: translate(727.2px,360px)}} #ebn7SCqte8o19_to {animation: ebn7SCqte8o19_to__to 8000ms linear infinite normal forwards}@keyframes ebn7SCqte8o19_to__to { 0% {transform: translate(360px,375.240874px);animation-timing-function: cubic-bezier(0.445,0.05,0.55,0.95)} 25% {transform: translate(360px,345.642934px);animation-timing-function: cubic-bezier(0.445,0.05,0.55,0.95)} 50% {transform: translate(360px,375.240874px);animation-timing-function: cubic-bezier(0.445,0.05,0.55,0.95)} 75% {transform: translate(360px,345.642934px);animation-timing-function: cubic-bezier(0.445,0.05,0.55,0.95)} 100% {transform: translate(360px,375.240874px)}} #ebn7SCqte8o27_to {animation: ebn7SCqte8o27_to__to 8000ms linear infinite normal forwards}@keyframes ebn7SCqte8o27_to__to { 0% {offset-distance: 0%} 37.5% {offset-distance: 0%} 87.5% {offset-distance: 100%} 100% {offset-distance: 100%}}
]]></style>
<defs><linearGradient id="ebn7SCqte8o5-fill" x1="360" y1="720" x2="360" y2="0" spreadMethod="pad" gradientUnits="userSpaceOnUse" gradientTransform="translate(0 0)"><stop id="ebn7SCqte8o5-fill-0" offset="0%" stop-color="#262360"/><stop id="ebn7SCqte8o5-fill-1" offset="100%" stop-color="#07070e"/></linearGradient></defs><rect width="720" height="720" rx="0" ry="0" clip-rule="evenodd" fill="none" fill-rule="evenodd" stroke-linejoin="round" stroke-miterlimit="2"/><g clip-path="url(#ebn7SCqte8o33)" clip-rule="evenodd"><g><rect width="720" height="720" rx="0" ry="0" clip-rule="evenodd" fill="url(#ebn7SCqte8o5-fill)" fill-rule="evenodd" stroke-linejoin="round" stroke-miterlimit="2"/><g id="ebn7SCqte8o6_ts" transform="translate(278.609497,82.341003) scale(0,0)"><path d="M278.61,70.647l.898,8.629c.058.555.305,1.073.699,1.467.395.395.913.642,1.468.699l8.629.899-8.629.899c-.555.057-1.073.304-1.468.699-.394.394-.641.912-.699,1.467l-.898,8.629-.899-8.629c-.058-.555-.305-1.073-.699-1.467-.395-.395-.913-.642-1.468-.699l-8.629-.899l8.629-.899c.555-.057,1.073-.304,1.468-.699.394-.394.641-.912.699-1.467l.899-8.629Z" transform="translate(-278.609497,-82.341003)" clip-rule="evenodd" fill="#fffdfe" fill-rule="evenodd" stroke-linejoin="round" stroke-miterlimit="2"/></g><g id="ebn7SCqte8o7_ts" transform="translate(552.741058,182.40451) scale(0,0)"><path d="M552.741,175.177l.555,5.333c.036.343.189.663.432.907.244.244.565.396.908.432l5.333.555-5.333.556c-.343.036-.664.188-.908.432-.243.244-.396.564-.432.907l-.555,5.333-.555-5.333c-.036-.343-.189-.663-.433-.907-.243-.244-.564-.396-.907-.432l-5.333-.556l5.333-.555c.343-.036.664-.188.907-.432.244-.244.397-.564.433-.907l.555-5.333Z" transform="translate(-552.741058,-182.40451)" clip-rule="evenodd" fill="#fffdfe" fill-rule="evenodd" stroke-linejoin="round" stroke-miterlimit="2"/></g><g id="ebn7SCqte8o8_ts" transform="translate(21.796,154.136505) scale(0,0)"><path d="M21.796,146.909l.555,5.333c.036.343.189.663.433.907.243.244.564.397.907.432l5.333.556-5.333.555c-.343.036-.664.188-.907.432-.244.244-.397.564-.433.907l-.555,5.333-.555-5.333c-.036-.343-.189-.663-.432-.907-.244-.244-.564-.396-.907-.432l-5.334-.555l5.334-.556c.343-.035.663-.188.907-.432.243-.244.396-.564.432-.907l.555-5.333Z" transform="translate(-21.796,-154.136505)" clip-rule="evenodd" fill="#fffdfe" fill-rule="evenodd" stroke-linejoin="round" stroke-miterlimit="2"/></g><g id="ebn7SCqte8o9_ts" transform="translate(369.295013,698.879974) scale(0,0)"><path d="M369.295,691.652l.555,5.333c.036.343.189.664.432.908.244.243.565.396.907.432l5.334.555-5.334.555c-.342.036-.663.189-.907.433-.243.243-.396.564-.432.907l-.555,5.333-.555-5.333c-.036-.343-.189-.664-.433-.907-.243-.244-.564-.397-.907-.433l-5.333-.555l5.333-.555c.343-.036.664-.189.907-.432.244-.244.397-.565.433-.908l.555-5.333Z" transform="translate(-369.295013,-698.879974)" clip-rule="evenodd" fill="#fffdfe" fill-rule="evenodd" stroke-linejoin="round" stroke-miterlimit="2"/></g><g id="ebn7SCqte8o10_ts" transform="translate(213.917007,616.198547) scale(0,0)"><path d="M213.917,604.504l.899,8.629c.057.555.304,1.073.699,1.468.394.394.912.641,1.467.699l8.629.899-8.629.898c-.555.058-1.073.305-1.467.699-.395.395-.642.913-.699,1.468l-.899,8.629-.899-8.629c-.057-.555-.304-1.073-.699-1.468-.394-.394-.912-.641-1.467-.699l-8.629-.898l8.629-.899c.555-.058,1.073-.305,1.467-.699.395-.395.642-.913.699-1.468l.899-8.629Z" transform="translate(-213.917007,-616.198547)" clip-rule="evenodd" fill="#fffdfe" fill-rule="evenodd" stroke-linejoin="round" stroke-miterlimit="2"/></g><g id="ebn7SCqte8o11_ts" transform="translate(505.932037,556.327515) scale(0,0)"><path d="M505.932,544.633l.899,8.629c.057.555.304,1.073.699,1.468.394.394.912.641,1.467.699l8.629.898-8.629.899c-.555.058-1.073.305-1.467.699-.395.395-.642.913-.699,1.468l-.899,8.629-.899-8.629c-.057-.555-.304-1.073-.699-1.468-.394-.394-.912-.641-1.467-.699l-8.629-.899l8.629-.898c.555-.058,1.073-.305,1.467-.699.395-.395.642-.913.699-1.468l.899-8.629Z" transform="translate(-505.932037,-556.327515)" clip-rule="evenodd" fill="#fffdfe" fill-rule="evenodd" stroke-linejoin="round" stroke-miterlimit="2"/></g><path id="ebn7SCqte8o12" d="M0,276.525c.048-.006.097-.009.147-.009.662,0,1.2.538,1.2,1.2s-.538,1.2-1.2,1.2c-.05,0-.099-.003-.147-.009v-2.382ZM242.498,720c-.663,0-1.2-.538-1.2-1.2s.537-1.2,1.2-1.2c.662,0,1.2.538,1.2,1.2s-.538,1.2-1.2,1.2Zm211.533,0c-.034-.11-.052-.227-.052-.348c0-.662.538-1.2,1.2-1.2.663,0,1.2.538,1.2,1.2c0,.121-.018.238-.051.348h-2.297ZM720,498.825c-.142.059-.297.092-.46.092-.663,0-1.2-.538-1.2-1.2c0-.663.537-1.2,1.2-1.2.163,0,.318.032.46.091v2.217ZM593.519,0c.131.193.208.425.208.676c0,.662-.537,1.2-1.2,1.2-.662,0-1.2-.538-1.2-1.2c0-.251.077-.483.209-.676h1.983ZM141.662,667.723c.662,0,1.2.538,1.2,1.2c0,.663-.538,1.2-1.2,1.2-.663,0-1.2-.537-1.2-1.2c0-.662.537-1.2,1.2-1.2Zm-93.88-49.357c.662,0,1.2.537,1.2,1.2c0,.662-.538,1.2-1.2,1.2s-1.2-.538-1.2-1.2c0-.663.538-1.2,1.2-1.2Zm.333-92.371c.662,0,1.2.538,1.2,1.2s-.538,1.2-1.2,1.2-1.2-.538-1.2-1.2.538-1.2,1.2-1.2Zm26.491-75.097c.662,0,1.2.538,1.2,1.2s-.538,1.2-1.2,1.2-1.2-.538-1.2-1.2.538-1.2,1.2-1.2ZM30.393,394.599c.662,0,1.2.538,1.2,1.2c0,.663-.538,1.2-1.2,1.2s-1.2-.537-1.2-1.2c0-.662.538-1.2,1.2-1.2Zm31.745-25.787c.662,0,1.2.537,1.2,1.2c0,.662-.538,1.2-1.2,1.2-.663,0-1.2-.538-1.2-1.2c0-.663.537-1.2,1.2-1.2Zm32.714-78.197c.662,0,1.2.537,1.2,1.2c0,.662-.538,1.2-1.2,1.2s-1.2-.538-1.2-1.2c0-.663.538-1.2,1.2-1.2ZM29.103,301.669c.662,0,1.2.538,1.2,1.2c0,.663-.538,1.2-1.2,1.2s-1.2-.537-1.2-1.2c0-.662.538-1.2,1.2-1.2Zm48.474-78.112c.662,0,1.2.538,1.2,1.2c0,.663-.538,1.2-1.2,1.2-.663,0-1.2-.537-1.2-1.2c0-.662.537-1.2,1.2-1.2ZM148.305,97.554c.662,0,1.2.538,1.2,1.2s-.538,1.2-1.2,1.2c-.663,0-1.2-.538-1.2-1.2s.537-1.2,1.2-1.2Zm65.942,69.54c.662,0,1.2.538,1.2,1.2s-.538,1.2-1.2,1.2-1.2-.538-1.2-1.2.538-1.2,1.2-1.2ZM30.379,202.71c.662,0,1.2.538,1.2,1.2s-.538,1.2-1.2,1.2c-.663,0-1.2-.538-1.2-1.2s.537-1.2,1.2-1.2ZM703.852,555.27c.662,0,1.2.538,1.2,1.2s-.538,1.2-1.2,1.2-1.2-.538-1.2-1.2.538-1.2,1.2-1.2ZM589.51,528.711c.662,0,1.2.538,1.2,1.2s-.538,1.2-1.2,1.2-1.2-.538-1.2-1.2.538-1.2,1.2-1.2Zm43.709,71.205c.663,0,1.2.538,1.2,1.2s-.537,1.2-1.2,1.2c-.662,0-1.2-.538-1.2-1.2s.538-1.2,1.2-1.2Zm63.304,55.328c.662,0,1.2.537,1.2,1.2c0,.662-.538,1.2-1.2,1.2-.663,0-1.2-.538-1.2-1.2c0-.663.537-1.2,1.2-1.2ZM571.198,687.511c.663,0,1.2.538,1.2,1.2s-.537,1.2-1.2,1.2c-.662,0-1.2-.538-1.2-1.2s.538-1.2,1.2-1.2ZM522.927,586.457c.662,0,1.2.538,1.2,1.2s-.538,1.2-1.2,1.2-1.2-.538-1.2-1.2.538-1.2,1.2-1.2Zm-26.077,68.31c.663,0,1.2.537,1.2,1.2c0,.662-.537,1.2-1.2,1.2-.662,0-1.2-.538-1.2-1.2c0-.663.538-1.2,1.2-1.2Zm12.567-151.226c.662,0,1.2.538,1.2,1.2s-.538,1.2-1.2,1.2c-.663,0-1.2-.538-1.2-1.2s.537-1.2,1.2-1.2ZM401.688,569.27c.662,0,1.2.538,1.2,1.2s-.538,1.2-1.2,1.2-1.2-.538-1.2-1.2.538-1.2,1.2-1.2Zm-14.477,18.854c.663,0,1.2.538,1.2,1.2s-.537,1.2-1.2,1.2c-.662,0-1.2-.538-1.2-1.2s.538-1.2,1.2-1.2ZM407.398,619.4c.662,0,1.2.538,1.2,1.2c0,.663-.538,1.2-1.2,1.2-.663,0-1.2-.537-1.2-1.2c0-.662.537-1.2,1.2-1.2Zm47.961-2.706c.662,0,1.2.538,1.2,1.2c0,.663-.538,1.2-1.2,1.2-.663,0-1.2-.537-1.2-1.2c0-.662.537-1.2,1.2-1.2Zm-110.957,66.1c.662,0,1.2.537,1.2,1.2c0,.662-.538,1.2-1.2,1.2-.663,0-1.2-.538-1.2-1.2c0-.663.537-1.2,1.2-1.2ZM315.255,521.595c.662,0,1.2.538,1.2,1.2s-.538,1.2-1.2,1.2c-.663,0-1.2-.538-1.2-1.2s.537-1.2,1.2-1.2Zm-112.522.925c.662,0,1.2.538,1.2,1.2s-.538,1.2-1.2,1.2-1.2-.538-1.2-1.2.538-1.2,1.2-1.2Zm-60.308,52.394c.662,0,1.2.538,1.2,1.2s-.538,1.2-1.2,1.2c-.663,0-1.2-.538-1.2-1.2s.537-1.2,1.2-1.2ZM243.698,47.725c.662,0,1.2.538,1.2,1.2c0,.663-.538,1.2-1.2,1.2-.663,0-1.2-.537-1.2-1.2c0-.662.537-1.2,1.2-1.2ZM257.671,1.338c.662,0,1.2.538,1.2,1.2s-.538,1.2-1.2,1.2c-.663,0-1.2-.538-1.2-1.2s.537-1.2,1.2-1.2ZM131.105,12.976c.662,0,1.2.538,1.2,1.2s-.538,1.2-1.2,1.2-1.2-.538-1.2-1.2.538-1.2,1.2-1.2ZM310.9,58.655c.662,0,1.2.538,1.2,1.2c0,.663-.538,1.2-1.2,1.2-.663,0-1.2-.537-1.2-1.2c0-.662.537-1.2,1.2-1.2Zm78.794-45.057c.662,0,1.2.537,1.2,1.2c0,.662-.538,1.2-1.2,1.2s-1.2-.538-1.2-1.2c0-.663.538-1.2,1.2-1.2Zm-6.718,8.299c.663,0,1.2.537,1.2,1.2c0,.662-.537,1.2-1.2,1.2-.662,0-1.2-.538-1.2-1.2c0-.663.538-1.2,1.2-1.2Zm-.742,11.673c.662,0,1.2.538,1.2,1.2s-.538,1.2-1.2,1.2-1.2-.538-1.2-1.2.538-1.2,1.2-1.2Zm1.084,96.069c.662,0,1.2.538,1.2,1.2c0,.663-.538,1.2-1.2,1.2-.663,0-1.2-.537-1.2-1.2c0-.662.537-1.2,1.2-1.2Zm-67.351,63.99c.662,0,1.2.537,1.2,1.2c0,.662-.538,1.2-1.2,1.2-.663,0-1.2-.538-1.2-1.2c0-.663.537-1.2,1.2-1.2ZM454.626,82.943c.662,0,1.2.537,1.2,1.2c0,.662-.538,1.2-1.2,1.2s-1.2-.538-1.2-1.2c0-.663.538-1.2,1.2-1.2Zm-3.438,80.155c.663,0,1.2.537,1.2,1.2c0,.662-.537,1.2-1.2,1.2-.662,0-1.2-.538-1.2-1.2c0-.663.538-1.2,1.2-1.2Zm68.647-25.35c.663,0,1.2.538,1.2,1.2c0,.663-.537,1.2-1.2,1.2-.662,0-1.2-.537-1.2-1.2c0-.662.538-1.2,1.2-1.2Zm.242-40.783c.662,0,1.2.538,1.2,1.2s-.538,1.2-1.2,1.2c-.663,0-1.2-.538-1.2-1.2s.537-1.2,1.2-1.2ZM490.157,36.89c.663,0,1.2.538,1.2,1.2s-.537,1.2-1.2,1.2c-.662,0-1.2-.538-1.2-1.2s.538-1.2,1.2-1.2Zm87.376-3.138c.662,0,1.2.538,1.2,1.2s-.538,1.2-1.2,1.2-1.2-.538-1.2-1.2.538-1.2,1.2-1.2Zm33.008,70.01c.663,0,1.2.537,1.2,1.2c0,.662-.537,1.2-1.2,1.2-.662,0-1.2-.538-1.2-1.2c0-.663.538-1.2,1.2-1.2Zm28.788-58.76c.662,0,1.2.537,1.2,1.2c0,.662-.538,1.2-1.2,1.2-.663,0-1.2-.538-1.2-1.2c0-.663.537-1.2,1.2-1.2ZM665.107,82.34c.662,0,1.2.538,1.2,1.2s-.538,1.2-1.2,1.2-1.2-.538-1.2-1.2.538-1.2,1.2-1.2Zm33.684,19.282c.662,0,1.2.538,1.2,1.2s-.538,1.2-1.2,1.2-1.2-.538-1.2-1.2.538-1.2,1.2-1.2Zm-3.704-64.038c.662,0,1.2.538,1.2,1.2c0,.663-.538,1.2-1.2,1.2-.663,0-1.2-.537-1.2-1.2c0-.662.537-1.2,1.2-1.2Zm-76.78,132.15c.662,0,1.2.538,1.2,1.2c0,.663-.538,1.2-1.2,1.2s-1.2-.537-1.2-1.2c0-.662.538-1.2,1.2-1.2Zm69.839,13.641c.662,0,1.2.538,1.2,1.2c0,.663-.538,1.2-1.2,1.2-.663,0-1.2-.537-1.2-1.2c0-.662.537-1.2,1.2-1.2Zm-25.213,73.151c.662,0,1.2.537,1.2,1.2c0,.662-.538,1.2-1.2,1.2-.663,0-1.2-.538-1.2-1.2c0-.663.537-1.2,1.2-1.2Zm47.349,68.879c.662,0,1.2.538,1.2,1.2s-.538,1.2-1.2,1.2c-.663,0-1.2-.538-1.2-1.2s.537-1.2,1.2-1.2Zm-69.846,61.017c.662,0,1.2.538,1.2,1.2s-.538,1.2-1.2,1.2c-.663,0-1.2-.538-1.2-1.2s.537-1.2,1.2-1.2Zm7.382-40.467c.663,0,1.2.538,1.2,1.2s-.537,1.2-1.2,1.2c-.662,0-1.2-.538-1.2-1.2s.538-1.2,1.2-1.2Zm53.638,82.937c.663,0,1.2.538,1.2,1.2c0,.663-.537,1.2-1.2,1.2-.662,0-1.2-.537-1.2-1.2c0-.662.538-1.2,1.2-1.2Zm-66.541,34.295c.662,0,1.2.538,1.2,1.2s-.538,1.2-1.2,1.2c-.663,0-1.2-.538-1.2-1.2s.537-1.2,1.2-1.2ZM63.017,107.763c.663,0,1.2.538,1.2,1.2c0,.663-.537,1.2-1.2,1.2-.662,0-1.2-.537-1.2-1.2c0-.662.538-1.2,1.2-1.2ZM253.78,148.072c.662,0,1.2.538,1.2,1.2c0,.663-.538,1.2-1.2,1.2-.663,0-1.2-.537-1.2-1.2c0-.662.537-1.2,1.2-1.2Zm32.085-22.204c.663,0,1.2.537,1.2,1.2c0,.662-.537,1.2-1.2,1.2-.662,0-1.2-.538-1.2-1.2c0-.663.538-1.2,1.2-1.2ZM132.09,115.952c.662,0,1.2.538,1.2,1.2c0,.663-.538,1.2-1.2,1.2-.663,0-1.2-.537-1.2-1.2c0-.662.537-1.2,1.2-1.2ZM65.463,60.074c.663,0,1.2.537,1.2,1.2c0,.662-.537,1.2-1.2,1.2-.662,0-1.2-.538-1.2-1.2c0-.663.538-1.2,1.2-1.2ZM209.785,79.458c.663,0,1.2.537,1.2,1.2c0,.662-.537,1.2-1.2,1.2-.662,0-1.2-.538-1.2-1.2c0-.663.538-1.2,1.2-1.2Zm-107.893,91.82c.662,0,1.2.537,1.2,1.2c0,.662-.538,1.2-1.2,1.2-.663,0-1.2-.538-1.2-1.2c0-.663.537-1.2,1.2-1.2ZM272.617,567.826c.662,0,1.2.538,1.2,1.2s-.538,1.2-1.2,1.2-1.2-.538-1.2-1.2.538-1.2,1.2-1.2Zm34.05,27.94c.662,0,1.2.538,1.2,1.2c0,.663-.538,1.2-1.2,1.2s-1.2-.537-1.2-1.2c0-.662.538-1.2,1.2-1.2Zm13.23,39.165c.662,0,1.2.538,1.2,1.2s-.538,1.2-1.2,1.2-1.2-.538-1.2-1.2.538-1.2,1.2-1.2Zm-36.15,3.792c.663,0,1.2.538,1.2,1.2c0,.663-.537,1.2-1.2,1.2-.662,0-1.2-.537-1.2-1.2c0-.662.538-1.2,1.2-1.2Zm57.255-21.141c.662,0,1.2.538,1.2,1.2s-.538,1.2-1.2,1.2-1.2-.538-1.2-1.2.538-1.2,1.2-1.2Zm36.053-86.601c.662,0,1.2.538,1.2,1.2s-.538,1.2-1.2,1.2-1.2-.538-1.2-1.2.538-1.2,1.2-1.2Zm37.504,134.42c.663,0,1.2.538,1.2,1.2s-.537,1.2-1.2,1.2c-.662,0-1.2-.538-1.2-1.2s.538-1.2,1.2-1.2Zm46.963-127.662c.663,0,1.2.538,1.2,1.2s-.537,1.2-1.2,1.2c-.662,0-1.2-.538-1.2-1.2s.538-1.2,1.2-1.2ZM237.46,672.375c.662,0,1.2.537,1.2,1.2c0,.662-.538,1.2-1.2,1.2-.663,0-1.2-.538-1.2-1.2c0-.663.537-1.2,1.2-1.2ZM118.92,617.266c.662,0,1.2.537,1.2,1.2c0,.662-.538,1.2-1.2,1.2s-1.2-.538-1.2-1.2c0-.663.538-1.2,1.2-1.2ZM96.444,545.838c.662,0,1.2.538,1.2,1.2c0,.663-.538,1.2-1.2,1.2s-1.2-.537-1.2-1.2c0-.662.538-1.2,1.2-1.2ZM64.156,674.057c.663,0,1.2.537,1.2,1.2c0,.662-.537,1.2-1.2,1.2-.662,0-1.2-.538-1.2-1.2c0-.663.538-1.2,1.2-1.2ZM34.784,477.013c.663,0,1.2.538,1.2,1.2s-.537,1.2-1.2,1.2c-.662,0-1.2-.538-1.2-1.2s.538-1.2,1.2-1.2Zm34.09-144.164c.662,0,1.2.538,1.2,1.2s-.538,1.2-1.2,1.2c-.663,0-1.2-.538-1.2-1.2s.537-1.2,1.2-1.2ZM49.875,255.508c.662,0,1.2.537,1.2,1.2c0,.662-.538,1.2-1.2,1.2-.663,0-1.2-.538-1.2-1.2c0-.663.537-1.2,1.2-1.2Zm5.21-104.795c.662,0,1.2.538,1.2,1.2c0,.663-.538,1.2-1.2,1.2-.663,0-1.2-.537-1.2-1.2c0-.662.537-1.2,1.2-1.2Zm88.982,38.361c.662,0,1.2.538,1.2,1.2s-.538,1.2-1.2,1.2c-.663,0-1.2-.538-1.2-1.2s.537-1.2,1.2-1.2Zm43.226-58.525c.662,0,1.2.537,1.2,1.2c0,.662-.538,1.2-1.2,1.2s-1.2-.538-1.2-1.2c0-.663.538-1.2,1.2-1.2ZM61.952,292.564c.662,0,1.2.538,1.2,1.2s-.538,1.2-1.2,1.2c-.663,0-1.2-.538-1.2-1.2s.537-1.2,1.2-1.2ZM29.284,351.275c.662,0,1.2.537,1.2,1.2c0,.662-.538,1.2-1.2,1.2s-1.2-.538-1.2-1.2c0-.663.538-1.2,1.2-1.2ZM56.29,385.616c.662,0,1.2.537,1.2,1.2c0,.662-.538,1.2-1.2,1.2s-1.2-.538-1.2-1.2c0-.663.538-1.2,1.2-1.2Zm-9.683-27.991c.662,0,1.2.537,1.2,1.2c0,.662-.538,1.2-1.2,1.2s-1.2-.538-1.2-1.2c0-.663.538-1.2,1.2-1.2ZM23.891,105.216c.662,0,1.2.538,1.2,1.2c0,.663-.538,1.2-1.2,1.2s-1.2-.537-1.2-1.2c0-.662.538-1.2,1.2-1.2ZM43.508,24.474c.663,0,1.2.538,1.2,1.2c0,.663-.537,1.2-1.2,1.2-.662,0-1.2-.537-1.2-1.2c0-.662.538-1.2,1.2-1.2Zm93.835,22.269c.663,0,1.2.538,1.2,1.2s-.537,1.2-1.2,1.2c-.662,0-1.2-.538-1.2-1.2s.538-1.2,1.2-1.2Zm51.699-14.775c.662,0,1.2.538,1.2,1.2s-.538,1.2-1.2,1.2-1.2-.538-1.2-1.2.538-1.2,1.2-1.2Zm40.302,81.361c.662,0,1.2.537,1.2,1.2c0,.662-.538,1.2-1.2,1.2-.663,0-1.2-.538-1.2-1.2c0-.663.537-1.2,1.2-1.2Zm-3.419,99.695c.663,0,1.2.537,1.2,1.2c0,.662-.537,1.2-1.2,1.2-.662,0-1.2-.538-1.2-1.2c0-.663.538-1.2,1.2-1.2Zm89.494-52.366c.662,0,1.2.537,1.2,1.2c0,.662-.538,1.2-1.2,1.2s-1.2-.538-1.2-1.2c0-.663.538-1.2,1.2-1.2Zm39.826-64.675c.662,0,1.2.538,1.2,1.2c0,.663-.538,1.2-1.2,1.2-.663,0-1.2-.537-1.2-1.2c0-.662.537-1.2,1.2-1.2Zm31.979,102.166c.662,0,1.2.538,1.2,1.2c0,.663-.538,1.2-1.2,1.2s-1.2-.537-1.2-1.2c0-.662.538-1.2,1.2-1.2Zm42.221-62.388c.662,0,1.2.538,1.2,1.2s-.538,1.2-1.2,1.2c-.663,0-1.2-.538-1.2-1.2s.537-1.2,1.2-1.2ZM512.61,208.23c.663,0,1.2.538,1.2,1.2s-.537,1.2-1.2,1.2c-.662,0-1.2-.538-1.2-1.2s.538-1.2,1.2-1.2Zm59.284-75.711c.662,0,1.2.538,1.2,1.2c0,.663-.538,1.2-1.2,1.2-.663,0-1.2-.537-1.2-1.2c0-.662.537-1.2,1.2-1.2ZM559.429,71.571c.663,0,1.2.537,1.2,1.2c0,.662-.537,1.2-1.2,1.2-.662,0-1.2-.538-1.2-1.2c0-.663.538-1.2,1.2-1.2Zm102.666,65.642c.662,0,1.2.538,1.2,1.2s-.538,1.2-1.2,1.2c-.663,0-1.2-.538-1.2-1.2s.537-1.2,1.2-1.2Zm-9.427,79.598c.662,0,1.2.538,1.2,1.2s-.538,1.2-1.2,1.2c-.663,0-1.2-.538-1.2-1.2s.537-1.2,1.2-1.2Zm13.542,90.247c.662,0,1.2.538,1.2,1.2s-.538,1.2-1.2,1.2-1.2-.538-1.2-1.2.538-1.2,1.2-1.2Zm19.628,76.495c.662,0,1.2.538,1.2,1.2c0,.663-.538,1.2-1.2,1.2s-1.2-.537-1.2-1.2c0-.662.538-1.2,1.2-1.2Zm23.5-120.473c.662,0,1.2.538,1.2,1.2c0,.663-.538,1.2-1.2,1.2-.663,0-1.2-.537-1.2-1.2c0-.662.537-1.2,1.2-1.2ZM417.639,524.441c.663,0,1.2.538,1.2,1.2c0,.663-.537,1.2-1.2,1.2-.662,0-1.2-.537-1.2-1.2c0-.662.538-1.2,1.2-1.2ZM256.993,511.94c.662,0,1.2.538,1.2,1.2c0,.663-.538,1.2-1.2,1.2s-1.2-.537-1.2-1.2c0-.662.538-1.2,1.2-1.2Zm-40.921,61.442c.663,0,1.2.538,1.2,1.2c0,.663-.537,1.2-1.2,1.2-.662,0-1.2-.537-1.2-1.2c0-.662.538-1.2,1.2-1.2Zm-78.391-52.641c.662,0,1.2.538,1.2,1.2s-.538,1.2-1.2,1.2-1.2-.538-1.2-1.2.538-1.2,1.2-1.2ZM83.355,499.349c.663,0,1.2.538,1.2,1.2s-.537,1.2-1.2,1.2c-.662,0-1.2-.538-1.2-1.2s.538-1.2,1.2-1.2Zm1.65,127.817c.662,0,1.2.538,1.2,1.2s-.538,1.2-1.2,1.2-1.2-.538-1.2-1.2.538-1.2,1.2-1.2ZM10.817,713.223c.662,0,1.2.537,1.2,1.2c0,.662-.538,1.2-1.2,1.2s-1.2-.538-1.2-1.2c0-.663.538-1.2,1.2-1.2ZM27.864,595.557c.663,0,1.2.538,1.2,1.2s-.537,1.2-1.2,1.2c-.662,0-1.2-.538-1.2-1.2s.538-1.2,1.2-1.2ZM146.498,705.08c.662,0,1.2.538,1.2,1.2c0,.663-.538,1.2-1.2,1.2-.663,0-1.2-.537-1.2-1.2c0-.662.537-1.2,1.2-1.2Zm141.929-8.89c.662,0,1.2.538,1.2,1.2s-.538,1.2-1.2,1.2-1.2-.538-1.2-1.2.538-1.2,1.2-1.2ZM169.422,649.064c.662,0,1.2.537,1.2,1.2c0,.662-.538,1.2-1.2,1.2s-1.2-.538-1.2-1.2c0-.663.538-1.2,1.2-1.2Zm321.22,45.926c.662,0,1.2.538,1.2,1.2s-.538,1.2-1.2,1.2c-.663,0-1.2-.538-1.2-1.2s.537-1.2,1.2-1.2Zm75.765-61.452c.662,0,1.2.538,1.2,1.2c0,.663-.538,1.2-1.2,1.2s-1.2-.537-1.2-1.2c0-.662.538-1.2,1.2-1.2Zm87.139-95.903c.662,0,1.2.538,1.2,1.2s-.538,1.2-1.2,1.2-1.2-.538-1.2-1.2.538-1.2,1.2-1.2Zm25.779-45.693c.663,0,1.2.538,1.2,1.2s-.537,1.2-1.2,1.2c-.662,0-1.2-.538-1.2-1.2s.538-1.2,1.2-1.2ZM652.253,685.021c.662,0,1.2.538,1.2,1.2s-.538,1.2-1.2,1.2-1.2-.538-1.2-1.2.538-1.2,1.2-1.2Zm-63.117-98.952c.663,0,1.2.538,1.2,1.2s-.537,1.2-1.2,1.2c-.662,0-1.2-.538-1.2-1.2s.538-1.2,1.2-1.2ZM116.718,137.142c.016.032.032.067.046.105.014.039.032.078.053.118.061.121.194.192.398.215.205.023.431.014.679-.027.248-.04.49-.095.723-.164.234-.068.412-.133.532-.195.113-.057.248-.136.404-.237.157-.1.303-.217.437-.352.134-.134.234-.277.3-.427.065-.15.059-.301-.019-.454-.091-.177-.255-.256-.493-.236-.239.02-.518.084-.838.192-.321.108-.665.228-1.034.36-.369.133-.728.225-1.077.276-.349.052-.671.033-.964-.055-.294-.089-.529-.306-.706-.652-.263-.516-.259-1.035.011-1.559.271-.523.792-.982,1.565-1.377.378-.193.718-.328,1.018-.405.301-.078.562-.127.784-.149s.407-.033.554-.032c.148.001.25-.013.306-.042.065-.033.108-.068.13-.104.022-.037.051-.08.087-.128l.2.065-.024,1.443-.254.038-.099-.132c-.032-.045-.093-.074-.182-.09-.231-.054-.54-.044-.927.032-.388.076-.791.221-1.209.435-.161.082-.309.17-.444.264-.134.094-.246.194-.334.3s-.145.213-.17.323c-.025.109-.009.22.048.333.091.177.254.253.49.229.237-.024.515-.09.835-.198.321-.108.665-.228,1.034-.36.369-.133.729-.222,1.08-.27.351-.047.677-.021.977.08s.54.328.721.682.242.688.184,1.002-.183.601-.375.861-.432.49-.722.688c-.289.198-.57.367-.844.507s-.559.252-.855.338c-.296.085-.573.15-.829.195-.256.044-.476.075-.66.093s-.292.035-.324.051c-.056.029-.092.078-.108.147l-.231-.035-.135-1.636.261-.056Zm188.178.328c.11.002.206-.033.288-.105.083-.073.148-.141.197-.205l2.79-3.963c.076-.115.137-.207.182-.277s.074-.14.087-.211c.01-.053.005-.089-.014-.106-.02-.018-.042-.038-.065-.061l.045-.239l2.012.373-.044.24c-.03.013-.062.021-.094.024-.033.003-.055.036-.067.098-.01.053-.002.121.024.204s.052.178.079.284l1.318,4.932c.029.088.068.155.114.201.047.045.1.082.159.112l-.045.24-1.892-.352.037-.2c.044.009.093.004.147-.014.054-.017.087-.062.101-.133.009-.053.01-.103,0-.151-.009-.048-.021-.11-.034-.186l-.219-.826-2.853-.53-.506.651c-.049.064-.09.123-.123.177s-.053.103-.062.147c-.013.071.001.12.042.146s.102.046.182.061l-.045.24-1.786-.332.045-.239Zm4.862-1.387l-.664-2.439-1.362,2.063l2.026.376Zm328.697-29.457c.051-.165-.058-.288-.326-.37l-3.163-.968-.397,1.297l1.997.61c.147.045.258.068.334.067.075,0,.128-.048.157-.143l.233.071-.42,1.374-.26-.079c.055-.087.039-.156-.05-.207-.088-.05-.219-.102-.392-.155l-1.892-.579-.468,1.529l3.318,1.016c.104.032.198.034.281.008.084-.026.138-.078.161-.156l.234.071-.417,1.361-.233-.071c.024-.078.002-.132-.064-.162-.067-.029-.152-.06-.255-.092l-4.758-1.456.072-.233c.043.013.091.011.143-.006.053-.017.089-.06.111-.129l1.483-4.848c.021-.069.015-.125-.019-.169-.034-.043-.072-.072-.116-.085l.072-.233l4.602,1.408c.267.082.425.045.473-.11l.233.071-.44,1.439-.234-.071Z" clip-rule="evenodd" fill="#fff" fill-rule="evenodd" stroke-linejoin="round" stroke-miterlimit="2"/><path id="ebn7SCqte8o13" d="M-0.179,720.179c-.258-.22-.421-.547-.421-.912c0-.662.538-1.2,1.2-1.2.365,0,.692.163.912.421.258.22.421.547.421.912c0,.662-.538,1.2-1.2,1.2-.365,0-.692-.163-.912-.421ZM-0.6,555.182c.218-.227.525-.369.865-.369.663,0,1.2.538,1.2,1.2s-.537,1.2-1.2,1.2c-.34,0-.647-.141-.865-.369v-1.662ZM76.143,720.467c-.011-.065-.017-.131-.017-.199c0-.662.538-1.2,1.2-1.2.663,0,1.2.538,1.2,1.2c0,.068-.005.134-.016.199h-2.367ZM719.4,148.448c-.142.059-.297.091-.46.091-.663,0-1.2-.537-1.2-1.2c0-.662.537-1.2,1.2-1.2.163,0,.318.033.46.092v2.217ZM444.21,0.467c0,.662-.537,1.2-1.2,1.2-.662,0-1.2-.538-1.2-1.2h2.4ZM189.482,131.36c.663,0,1.2.538,1.2,1.2s-.537,1.2-1.2,1.2c-.662,0-1.2-.538-1.2-1.2s.538-1.2,1.2-1.2ZM592.883,634.17c.662,0,1.2.537,1.2,1.2c0,.662-.538,1.2-1.2,1.2-.663,0-1.2-.538-1.2-1.2c0-.663.537-1.2,1.2-1.2Zm-24.168-75.234c.662,0,1.2.538,1.2,1.2s-.538,1.2-1.2,1.2c-.663,0-1.2-.538-1.2-1.2s.537-1.2,1.2-1.2ZM675.403,701.23c.663,0,1.2.538,1.2,1.2s-.537,1.2-1.2,1.2c-.662,0-1.2-.538-1.2-1.2s.538-1.2,1.2-1.2Zm4.635-89.522c.662,0,1.2.538,1.2,1.2s-.538,1.2-1.2,1.2c-.663,0-1.2-.538-1.2-1.2s.537-1.2,1.2-1.2Zm-15.017-97.27c.663,0,1.2.538,1.2,1.2s-.537,1.2-1.2,1.2c-.662,0-1.2-.538-1.2-1.2s.538-1.2,1.2-1.2Zm20.533-124.391c.663,0,1.2.538,1.2,1.2s-.537,1.2-1.2,1.2c-.662,0-1.2-.538-1.2-1.2s.538-1.2,1.2-1.2ZM645.671,286.508c.662,0,1.2.538,1.2,1.2s-.538,1.2-1.2,1.2-1.2-.538-1.2-1.2.538-1.2,1.2-1.2Zm.166-67.157c.662,0,1.2.538,1.2,1.2s-.538,1.2-1.2,1.2-1.2-.538-1.2-1.2.538-1.2,1.2-1.2ZM23.522,363.527c.662,0,1.2.538,1.2,1.2s-.538,1.2-1.2,1.2-1.2-.538-1.2-1.2.538-1.2,1.2-1.2ZM77.585,583.864c.663,0,1.2.537,1.2,1.2c0,.662-.537,1.2-1.2,1.2-.662,0-1.2-.538-1.2-1.2c0-.663.538-1.2,1.2-1.2ZM224.45,667.222c.662,0,1.2.538,1.2,1.2c0,.663-.538,1.2-1.2,1.2-.663,0-1.2-.537-1.2-1.2c0-.662.537-1.2,1.2-1.2Zm-91.425-38.337c.663,0,1.2.538,1.2,1.2s-.537,1.2-1.2,1.2c-.662,0-1.2-.538-1.2-1.2s.538-1.2,1.2-1.2Zm-90.42,65.379c.662,0,1.2.538,1.2,1.2c0,.663-.538,1.2-1.2,1.2s-1.2-.537-1.2-1.2c0-.662.538-1.2,1.2-1.2Zm263.677-67.536c.662,0,1.2.537,1.2,1.2c0,.662-.538,1.2-1.2,1.2s-1.2-.538-1.2-1.2c0-.663.538-1.2,1.2-1.2ZM25.044,473.85c.662,0,1.2.538,1.2,1.2s-.538,1.2-1.2,1.2-1.2-.538-1.2-1.2.538-1.2,1.2-1.2ZM486.22,220.732c.662,0,1.2.538,1.2,1.2s-.538,1.2-1.2,1.2-1.2-.538-1.2-1.2.538-1.2,1.2-1.2ZM48.365,260.581c.663,0,1.2.537,1.2,1.2c0,.662-.537,1.2-1.2,1.2-.662,0-1.2-.538-1.2-1.2c0-.663.538-1.2,1.2-1.2ZM426.063,682.928c.662,0,1.2.538,1.2,1.2s-.538,1.2-1.2,1.2c-.663,0-1.2-.538-1.2-1.2s.537-1.2,1.2-1.2Zm90.776,13.404c.662,0,1.2.538,1.2,1.2c0,.663-.538,1.2-1.2,1.2s-1.2-.537-1.2-1.2c0-.662.538-1.2,1.2-1.2ZM276.637,567.136c.663,0,1.2.537,1.2,1.2c0,.662-.537,1.2-1.2,1.2-.662,0-1.2-.538-1.2-1.2c0-.663.538-1.2,1.2-1.2Zm159.518-41.461c.663,0,1.2.538,1.2,1.2s-.537,1.2-1.2,1.2c-.662,0-1.2-.538-1.2-1.2s.538-1.2,1.2-1.2Zm37.13,52.067c.662,0,1.2.538,1.2,1.2s-.538,1.2-1.2,1.2c-.663,0-1.2-.538-1.2-1.2s.537-1.2,1.2-1.2ZM350.884,95.035c.662,0,1.2.538,1.2,1.2c0,.663-.538,1.2-1.2,1.2s-1.2-.537-1.2-1.2c0-.662.538-1.2,1.2-1.2Zm56.294,96.627c.662,0,1.2.538,1.2,1.2c0,.663-.538,1.2-1.2,1.2-.663,0-1.2-.537-1.2-1.2c0-.662.537-1.2,1.2-1.2ZM64.839,303.839c.662,0,1.2.538,1.2,1.2s-.538,1.2-1.2,1.2-1.2-.538-1.2-1.2.538-1.2,1.2-1.2ZM234.607,199.205c.663,0,1.2.538,1.2,1.2c0,.663-.537,1.2-1.2,1.2-.662,0-1.2-.537-1.2-1.2c0-.662.538-1.2,1.2-1.2ZM134.408,175.644c.663,0,1.2.537,1.2,1.2c0,.662-.537,1.2-1.2,1.2-.662,0-1.2-.538-1.2-1.2c0-.663.538-1.2,1.2-1.2ZM68.345,119.629c.662,0,1.2.538,1.2,1.2s-.538,1.2-1.2,1.2-1.2-.538-1.2-1.2.538-1.2,1.2-1.2Zm39.859-95.608c.663,0,1.2.537,1.2,1.2c0,.662-.537,1.2-1.2,1.2-.662,0-1.2-.538-1.2-1.2c0-.663.538-1.2,1.2-1.2Zm86.387,46.722c.662,0,1.2.538,1.2,1.2c0,.663-.538,1.2-1.2,1.2s-1.2-.537-1.2-1.2c0-.662.538-1.2,1.2-1.2Zm-17.623,432.92c.663,0,1.2.538,1.2,1.2s-.537,1.2-1.2,1.2c-.662,0-1.2-.538-1.2-1.2s.538-1.2,1.2-1.2ZM406.347,604.615c.662,0,1.2.538,1.2,1.2s-.538,1.2-1.2,1.2c-.663,0-1.2-.538-1.2-1.2s.537-1.2,1.2-1.2ZM45.449,-0.467c.662,0,1.2.538,1.2,1.2s-.538,1.2-1.2,1.2-1.2-.538-1.2-1.2.538-1.2,1.2-1.2ZM292.428,149.738c.663,0,1.2.538,1.2,1.2s-.537,1.2-1.2,1.2c-.662,0-1.2-.538-1.2-1.2s.538-1.2,1.2-1.2ZM332.333,34.709c.663,0,1.2.538,1.2,1.2s-.537,1.2-1.2,1.2c-.662,0-1.2-.538-1.2-1.2s.538-1.2,1.2-1.2Zm108.816,112.65c.662,0,1.2.537,1.2,1.2c0,.662-.538,1.2-1.2,1.2s-1.2-.538-1.2-1.2c0-.663.538-1.2,1.2-1.2Zm106.669-77.01c.663,0,1.2.538,1.2,1.2c0,.663-.537,1.2-1.2,1.2-.662,0-1.2-.537-1.2-1.2c0-.662.538-1.2,1.2-1.2Zm-99.164,5.959c.662,0,1.2.538,1.2,1.2s-.538,1.2-1.2,1.2c-.663,0-1.2-.538-1.2-1.2s.537-1.2,1.2-1.2Zm188.328,61.099c.663,0,1.2.538,1.2,1.2c0,.663-.537,1.2-1.2,1.2-.662,0-1.2-.537-1.2-1.2c0-.662.538-1.2,1.2-1.2ZM719.4,-0.467c.662,0,1.2.538,1.2,1.2s-.538,1.2-1.2,1.2-1.2-.538-1.2-1.2.538-1.2,1.2-1.2ZM640.78,69.638c.662,0,1.2.538,1.2,1.2s-.538,1.2-1.2,1.2-1.2-.538-1.2-1.2.538-1.2,1.2-1.2ZM614.327,17.61c.662,0,1.2.538,1.2,1.2s-.538,1.2-1.2,1.2-1.2-.538-1.2-1.2.538-1.2,1.2-1.2ZM575.192,124.079c.662,0,1.2.537,1.2,1.2c0,.662-.538,1.2-1.2,1.2s-1.2-.538-1.2-1.2c0-.663.538-1.2,1.2-1.2ZM555.182,-0.6h1.662c.228.218.369.525.369.865c0,.663-.538,1.2-1.2,1.2s-1.2-.537-1.2-1.2c0-.34.142-.647.369-.865ZM720.467,76.143v2.367c-.065.011-.131.016-.199.016-.662,0-1.2-.537-1.2-1.2c0-.662.538-1.2,1.2-1.2.068,0,.134.006.199.017ZM148.448,719.4h-2.217c-.059-.142-.092-.297-.092-.46c0-.663.538-1.2,1.2-1.2.663,0,1.2.537,1.2,1.2c0,.163-.032.318-.091.46ZM0.467,444.21v-2.4c.662,0,1.2.538,1.2,1.2c0,.663-.538,1.2-1.2,1.2ZM131.36,189.482c0-.662.538-1.2,1.2-1.2s1.2.538,1.2,1.2c0,.663-.538,1.2-1.2,1.2s-1.2-.537-1.2-1.2ZM634.17,592.883c0-.663.537-1.2,1.2-1.2.662,0,1.2.537,1.2,1.2c0,.662-.538,1.2-1.2,1.2-.663,0-1.2-.538-1.2-1.2Zm-75.234-24.168c0-.663.538-1.2,1.2-1.2s1.2.537,1.2,1.2c0,.662-.538,1.2-1.2,1.2s-1.2-.538-1.2-1.2ZM701.23,675.403c0-.662.538-1.2,1.2-1.2s1.2.538,1.2,1.2c0,.663-.538,1.2-1.2,1.2s-1.2-.537-1.2-1.2Zm-89.522,4.635c0-.663.538-1.2,1.2-1.2s1.2.537,1.2,1.2c0,.662-.538,1.2-1.2,1.2s-1.2-.538-1.2-1.2Zm-97.27-15.017c0-.662.538-1.2,1.2-1.2s1.2.538,1.2,1.2c0,.663-.538,1.2-1.2,1.2s-1.2-.537-1.2-1.2ZM390.047,685.554c0-.662.538-1.2,1.2-1.2s1.2.538,1.2,1.2c0,.663-.538,1.2-1.2,1.2s-1.2-.537-1.2-1.2ZM286.508,645.671c0-.662.538-1.2,1.2-1.2s1.2.538,1.2,1.2-.538,1.2-1.2,1.2-1.2-.538-1.2-1.2Zm-67.157.166c0-.662.538-1.2,1.2-1.2s1.2.538,1.2,1.2-.538,1.2-1.2,1.2-1.2-.538-1.2-1.2ZM363.527,23.522c0-.662.538-1.2,1.2-1.2s1.2.538,1.2,1.2-.538,1.2-1.2,1.2-1.2-.538-1.2-1.2ZM583.864,77.585c0-.662.537-1.2,1.2-1.2.662,0,1.2.538,1.2,1.2c0,.663-.538,1.2-1.2,1.2-.663,0-1.2-.537-1.2-1.2ZM667.222,224.45c0-.663.538-1.2,1.2-1.2.663,0,1.2.537,1.2,1.2c0,.662-.537,1.2-1.2,1.2-.662,0-1.2-.538-1.2-1.2Zm-38.337-91.425c0-.662.538-1.2,1.2-1.2s1.2.538,1.2,1.2c0,.663-.538,1.2-1.2,1.2s-1.2-.537-1.2-1.2Zm65.379-90.42c0-.662.538-1.2,1.2-1.2.663,0,1.2.538,1.2,1.2s-.537,1.2-1.2,1.2c-.662,0-1.2-.538-1.2-1.2ZM626.728,306.282c0-.662.537-1.2,1.2-1.2.662,0,1.2.538,1.2,1.2s-.538,1.2-1.2,1.2c-.663,0-1.2-.538-1.2-1.2ZM473.85,25.044c0-.662.538-1.2,1.2-1.2s1.2.538,1.2,1.2-.538,1.2-1.2,1.2-1.2-.538-1.2-1.2ZM220.732,486.22c0-.662.538-1.2,1.2-1.2s1.2.538,1.2,1.2-.538,1.2-1.2,1.2-1.2-.538-1.2-1.2ZM260.581,48.365c0-.662.537-1.2,1.2-1.2.662,0,1.2.538,1.2,1.2c0,.663-.538,1.2-1.2,1.2-.663,0-1.2-.537-1.2-1.2ZM682.928,426.063c0-.663.538-1.2,1.2-1.2s1.2.537,1.2,1.2c0,.662-.538,1.2-1.2,1.2s-1.2-.538-1.2-1.2Zm13.404,90.776c0-.662.538-1.2,1.2-1.2.663,0,1.2.538,1.2,1.2s-.537,1.2-1.2,1.2c-.662,0-1.2-.538-1.2-1.2ZM567.136,276.637c0-.662.537-1.2,1.2-1.2.662,0,1.2.538,1.2,1.2c0,.663-.538,1.2-1.2,1.2-.663,0-1.2-.537-1.2-1.2ZM525.675,436.155c0-.662.538-1.2,1.2-1.2s1.2.538,1.2,1.2c0,.663-.538,1.2-1.2,1.2s-1.2-.537-1.2-1.2Zm52.067,37.13c0-.663.538-1.2,1.2-1.2s1.2.537,1.2,1.2c0,.662-.538,1.2-1.2,1.2s-1.2-.538-1.2-1.2ZM95.035,350.884c0-.662.538-1.2,1.2-1.2.663,0,1.2.538,1.2,1.2s-.537,1.2-1.2,1.2c-.662,0-1.2-.538-1.2-1.2Zm96.627,56.294c0-.663.538-1.2,1.2-1.2.663,0,1.2.537,1.2,1.2c0,.662-.537,1.2-1.2,1.2-.662,0-1.2-.538-1.2-1.2ZM303.839,64.839c0-.662.538-1.2,1.2-1.2s1.2.538,1.2,1.2-.538,1.2-1.2,1.2-1.2-.538-1.2-1.2ZM199.205,234.607c0-.662.538-1.2,1.2-1.2.663,0,1.2.538,1.2,1.2c0,.663-.537,1.2-1.2,1.2-.662,0-1.2-.537-1.2-1.2ZM175.644,134.408c0-.662.537-1.2,1.2-1.2.662,0,1.2.538,1.2,1.2c0,.663-.538,1.2-1.2,1.2-.663,0-1.2-.537-1.2-1.2ZM119.629,68.345c0-.662.538-1.2,1.2-1.2s1.2.538,1.2,1.2-.538,1.2-1.2,1.2-1.2-.538-1.2-1.2ZM24.021,108.204c0-.662.537-1.2,1.2-1.2.662,0,1.2.538,1.2,1.2c0,.663-.538,1.2-1.2,1.2-.663,0-1.2-.537-1.2-1.2Zm46.722,86.387c0-.662.538-1.2,1.2-1.2.663,0,1.2.538,1.2,1.2s-.537,1.2-1.2,1.2c-.662,0-1.2-.538-1.2-1.2Zm432.92-17.623c0-.662.538-1.2,1.2-1.2s1.2.538,1.2,1.2c0,.663-.538,1.2-1.2,1.2s-1.2-.537-1.2-1.2ZM604.615,406.347c0-.663.538-1.2,1.2-1.2s1.2.537,1.2,1.2c0,.662-.538,1.2-1.2,1.2s-1.2-.538-1.2-1.2ZM-0.467,45.449c0-.662.538-1.2,1.2-1.2s1.2.538,1.2,1.2-.538,1.2-1.2,1.2-1.2-.538-1.2-1.2ZM149.738,292.428c0-.662.538-1.2,1.2-1.2s1.2.538,1.2,1.2c0,.663-.538,1.2-1.2,1.2s-1.2-.537-1.2-1.2ZM34.709,332.333c0-.662.538-1.2,1.2-1.2s1.2.538,1.2,1.2c0,.663-.538,1.2-1.2,1.2s-1.2-.537-1.2-1.2Zm112.65,108.816c0-.662.537-1.2,1.2-1.2.662,0,1.2.538,1.2,1.2s-.538,1.2-1.2,1.2c-.663,0-1.2-.538-1.2-1.2ZM70.349,547.818c0-.662.538-1.2,1.2-1.2.663,0,1.2.538,1.2,1.2c0,.663-.537,1.2-1.2,1.2-.662,0-1.2-.537-1.2-1.2Zm5.959-99.164c0-.663.538-1.2,1.2-1.2s1.2.537,1.2,1.2c0,.662-.538,1.2-1.2,1.2s-1.2-.538-1.2-1.2Zm61.099,188.328c0-.662.538-1.2,1.2-1.2.663,0,1.2.538,1.2,1.2c0,.663-.537,1.2-1.2,1.2-.662,0-1.2-.537-1.2-1.2ZM69.638,640.78c0-.662.538-1.2,1.2-1.2s1.2.538,1.2,1.2-.538,1.2-1.2,1.2-1.2-.538-1.2-1.2ZM17.61,614.327c0-.662.538-1.2,1.2-1.2s1.2.538,1.2,1.2-.538,1.2-1.2,1.2-1.2-.538-1.2-1.2Zm106.469-39.135c0-.662.537-1.2,1.2-1.2.662,0,1.2.538,1.2,1.2s-.538,1.2-1.2,1.2c-.663,0-1.2-.538-1.2-1.2ZM720.6,164.818c-.218.227-.525.369-.865.369-.663,0-1.2-.538-1.2-1.2s.537-1.2,1.2-1.2c.34,0,.647.141.865.369v1.662ZM643.857,-0.467c.011.065.017.131.017.199c0,.662-.538,1.2-1.2,1.2-.663,0-1.2-.538-1.2-1.2c0-.068.005-.134.016-.199h2.367ZM0.6,571.552c.142-.059.297-.091.46-.091.663,0,1.2.537,1.2,1.2c0,.662-.537,1.2-1.2,1.2-.163,0-.318-.033-.46-.092v-2.217ZM275.79,719.533c0-.662.537-1.2,1.2-1.2.662,0,1.2.538,1.2,1.2h-2.4ZM530.518,588.64c-.663,0-1.2-.538-1.2-1.2s.537-1.2,1.2-1.2c.662,0,1.2.538,1.2,1.2s-.538,1.2-1.2,1.2ZM127.117,85.83c-.662,0-1.2-.537-1.2-1.2c0-.662.538-1.2,1.2-1.2.663,0,1.2.538,1.2,1.2c0,.663-.537,1.2-1.2,1.2Zm24.168,75.234c-.662,0-1.2-.538-1.2-1.2s.538-1.2,1.2-1.2c.663,0,1.2.538,1.2,1.2s-.537,1.2-1.2,1.2ZM44.597,18.77c-.663,0-1.2-.538-1.2-1.2s.537-1.2,1.2-1.2c.662,0,1.2.538,1.2,1.2s-.538,1.2-1.2,1.2Zm-4.635,89.522c-.662,0-1.2-.538-1.2-1.2s.538-1.2,1.2-1.2c.663,0,1.2.538,1.2,1.2s-.537,1.2-1.2,1.2Zm15.017,97.27c-.663,0-1.2-.538-1.2-1.2s.537-1.2,1.2-1.2c.662,0,1.2.538,1.2,1.2s-.538,1.2-1.2,1.2ZM34.446,329.953c-.663,0-1.2-.538-1.2-1.2s.537-1.2,1.2-1.2c.662,0,1.2.538,1.2,1.2s-.538,1.2-1.2,1.2ZM74.329,433.492c-.662,0-1.2-.538-1.2-1.2s.538-1.2,1.2-1.2s1.2.538,1.2,1.2-.538,1.2-1.2,1.2Zm-.166,67.157c-.662,0-1.2-.538-1.2-1.2s.538-1.2,1.2-1.2s1.2.538,1.2,1.2-.538,1.2-1.2,1.2ZM696.478,356.473c-.662,0-1.2-.538-1.2-1.2s.538-1.2,1.2-1.2s1.2.538,1.2,1.2-.538,1.2-1.2,1.2ZM642.415,136.136c-.663,0-1.2-.537-1.2-1.2c0-.662.537-1.2,1.2-1.2.662,0,1.2.538,1.2,1.2c0,.663-.538,1.2-1.2,1.2ZM495.55,52.778c-.662,0-1.2-.538-1.2-1.2c0-.663.538-1.2,1.2-1.2.663,0,1.2.537,1.2,1.2c0,.662-.537,1.2-1.2,1.2Zm91.425,38.337c-.663,0-1.2-.538-1.2-1.2s.537-1.2,1.2-1.2c.662,0,1.2.538,1.2,1.2s-.538,1.2-1.2,1.2Zm90.42-65.379c-.662,0-1.2-.538-1.2-1.2c0-.663.538-1.2,1.2-1.2s1.2.537,1.2,1.2c0,.662-.538,1.2-1.2,1.2ZM413.718,93.272c-.662,0-1.2-.537-1.2-1.2c0-.662.538-1.2,1.2-1.2s1.2.538,1.2,1.2c0,.663-.538,1.2-1.2,1.2ZM694.956,246.15c-.662,0-1.2-.538-1.2-1.2s.538-1.2,1.2-1.2s1.2.538,1.2,1.2-.538,1.2-1.2,1.2ZM233.78,499.268c-.662,0-1.2-.538-1.2-1.2s.538-1.2,1.2-1.2s1.2.538,1.2,1.2-.538,1.2-1.2,1.2Zm437.855-39.849c-.663,0-1.2-.537-1.2-1.2c0-.662.537-1.2,1.2-1.2.662,0,1.2.538,1.2,1.2c0,.663-.538,1.2-1.2,1.2ZM293.937,37.072c-.662,0-1.2-.538-1.2-1.2s.538-1.2,1.2-1.2c.663,0,1.2.538,1.2,1.2s-.537,1.2-1.2,1.2ZM203.161,23.668c-.662,0-1.2-.538-1.2-1.2c0-.663.538-1.2,1.2-1.2s1.2.537,1.2,1.2c0,.662-.538,1.2-1.2,1.2ZM443.363,152.864c-.663,0-1.2-.537-1.2-1.2c0-.662.537-1.2,1.2-1.2.662,0,1.2.538,1.2,1.2c0,.663-.538,1.2-1.2,1.2ZM283.845,194.325c-.663,0-1.2-.538-1.2-1.2s.537-1.2,1.2-1.2c.662,0,1.2.538,1.2,1.2s-.538,1.2-1.2,1.2Zm-37.13-52.067c-.662,0-1.2-.538-1.2-1.2s.538-1.2,1.2-1.2c.663,0,1.2.538,1.2,1.2s-.537,1.2-1.2,1.2ZM369.116,624.965c-.662,0-1.2-.538-1.2-1.2c0-.663.538-1.2,1.2-1.2s1.2.537,1.2,1.2c0,.662-.538,1.2-1.2,1.2Zm-56.294-96.627c-.662,0-1.2-.538-1.2-1.2c0-.663.538-1.2,1.2-1.2.663,0,1.2.537,1.2,1.2c0,.662-.537,1.2-1.2,1.2ZM655.161,416.161c-.662,0-1.2-.538-1.2-1.2s.538-1.2,1.2-1.2s1.2.538,1.2,1.2-.538,1.2-1.2,1.2ZM485.393,520.795c-.663,0-1.2-.538-1.2-1.2c0-.663.537-1.2,1.2-1.2.662,0,1.2.537,1.2,1.2c0,.662-.538,1.2-1.2,1.2Zm100.199,23.561c-.663,0-1.2-.537-1.2-1.2c0-.662.537-1.2,1.2-1.2.662,0,1.2.538,1.2,1.2c0,.663-.538,1.2-1.2,1.2Zm66.063,56.015c-.662,0-1.2-.538-1.2-1.2s.538-1.2,1.2-1.2s1.2.538,1.2,1.2-.538,1.2-1.2,1.2Zm-39.859,95.608c-.663,0-1.2-.537-1.2-1.2c0-.662.537-1.2,1.2-1.2.662,0,1.2.538,1.2,1.2c0,.663-.538,1.2-1.2,1.2Zm-86.387-46.722c-.662,0-1.2-.538-1.2-1.2c0-.663.538-1.2,1.2-1.2s1.2.537,1.2,1.2c0,.662-.538,1.2-1.2,1.2Zm17.623-432.92c-.663,0-1.2-.538-1.2-1.2s.537-1.2,1.2-1.2c.662,0,1.2.538,1.2,1.2s-.538,1.2-1.2,1.2ZM313.653,115.385c-.662,0-1.2-.538-1.2-1.2s.538-1.2,1.2-1.2c.663,0,1.2.538,1.2,1.2s-.537,1.2-1.2,1.2ZM674.551,720.467c-.662,0-1.2-.538-1.2-1.2s.538-1.2,1.2-1.2s1.2.538,1.2,1.2-.538,1.2-1.2,1.2ZM427.572,570.262c-.663,0-1.2-.538-1.2-1.2s.537-1.2,1.2-1.2c.662,0,1.2.538,1.2,1.2s-.538,1.2-1.2,1.2ZM387.667,685.291c-.663,0-1.2-.538-1.2-1.2s.537-1.2,1.2-1.2c.662,0,1.2.538,1.2,1.2s-.538,1.2-1.2,1.2ZM278.851,572.641c-.662,0-1.2-.537-1.2-1.2c0-.662.538-1.2,1.2-1.2s1.2.538,1.2,1.2c0,.663-.538,1.2-1.2,1.2Zm-106.669,77.01c-.663,0-1.2-.538-1.2-1.2c0-.663.537-1.2,1.2-1.2.662,0,1.2.537,1.2,1.2c0,.662-.538,1.2-1.2,1.2Zm99.164-5.959c-.662,0-1.2-.538-1.2-1.2s.538-1.2,1.2-1.2c.663,0,1.2.538,1.2,1.2s-.537,1.2-1.2,1.2ZM83.018,582.593c-.663,0-1.2-.538-1.2-1.2c0-.663.537-1.2,1.2-1.2.662,0,1.2.537,1.2,1.2c0,.662-.538,1.2-1.2,1.2ZM79.22,650.362c-.662,0-1.2-.538-1.2-1.2s.538-1.2,1.2-1.2s1.2.538,1.2,1.2-.538,1.2-1.2,1.2Zm26.453,52.028c-.662,0-1.2-.538-1.2-1.2s.538-1.2,1.2-1.2s1.2.538,1.2,1.2-.538,1.2-1.2,1.2Zm39.135-106.469c-.662,0-1.2-.537-1.2-1.2c0-.662.538-1.2,1.2-1.2s1.2.538,1.2,1.2c0,.663-.538,1.2-1.2,1.2ZM361.2,156.794c.662,0,1.2.538,1.2,1.2s-.538,1.2-1.2,1.2-1.2-.538-1.2-1.2.538-1.2,1.2-1.2Zm1.753,59.224c.662,0,1.2.537,1.2,1.2c0,.662-.538,1.2-1.2,1.2-.663,0-1.2-.538-1.2-1.2c0-.663.537-1.2,1.2-1.2Zm89.26-2.22c.662,0,1.2.538,1.2,1.2s-.538,1.2-1.2,1.2-1.2-.538-1.2-1.2.538-1.2,1.2-1.2Zm52.537-98.642c.662,0,1.2.538,1.2,1.2s-.538,1.2-1.2,1.2c-.663,0-1.2-.538-1.2-1.2s.537-1.2,1.2-1.2ZM407.491,41.601c.662,0,1.2.538,1.2,1.2c0,.663-.538,1.2-1.2,1.2s-1.2-.537-1.2-1.2c0-.662.538-1.2,1.2-1.2ZM674.267,297.834c.662,0,1.2.538,1.2,1.2s-.538,1.2-1.2,1.2-1.2-.538-1.2-1.2.538-1.2,1.2-1.2Zm-19.228,56.297c.663,0,1.2.538,1.2,1.2s-.537,1.2-1.2,1.2c-.662,0-1.2-.538-1.2-1.2s.538-1.2,1.2-1.2Zm-42.38,149.461c.662,0,1.2.538,1.2,1.2c0,.663-.538,1.2-1.2,1.2-.663,0-1.2-.537-1.2-1.2c0-.662.537-1.2,1.2-1.2Zm-80.025,37.626c.663,0,1.2.537,1.2,1.2c0,.662-.537,1.2-1.2,1.2-.662,0-1.2-.538-1.2-1.2c0-.663.538-1.2,1.2-1.2Zm-132.11-13.801c.662,0,1.2.538,1.2,1.2c0,.663-.538,1.2-1.2,1.2-.663,0-1.2-.537-1.2-1.2c0-.662.537-1.2,1.2-1.2Zm-50.603,44.931c.663,0,1.2.537,1.2,1.2c0,.662-.537,1.2-1.2,1.2-.662,0-1.2-.538-1.2-1.2c0-.663.538-1.2,1.2-1.2ZM214.695,549.615c.662,0,1.2.538,1.2,1.2s-.538,1.2-1.2,1.2c-.663,0-1.2-.538-1.2-1.2s.537-1.2,1.2-1.2ZM201.315,582.1c.662,0,1.2.537,1.2,1.2c0,.662-.538,1.2-1.2,1.2s-1.2-.538-1.2-1.2c0-.663.538-1.2,1.2-1.2Zm112.781,15.611c.662,0,1.2.537,1.2,1.2c0,.662-.538,1.2-1.2,1.2s-1.2-.538-1.2-1.2c0-.663.538-1.2,1.2-1.2ZM354.44,511.12c.662,0,1.2.538,1.2,1.2s-.538,1.2-1.2,1.2-1.2-.538-1.2-1.2.538-1.2,1.2-1.2Zm112.4,122.921c.662,0,1.2.538,1.2,1.2c0,.663-.538,1.2-1.2,1.2s-1.2-.537-1.2-1.2c0-.662.538-1.2,1.2-1.2ZM322.898,679.88c.662,0,1.2.538,1.2,1.2c0,.663-.538,1.2-1.2,1.2s-1.2-.537-1.2-1.2c0-.662.538-1.2,1.2-1.2Zm-57.438,0c.662,0,1.2.538,1.2,1.2c0,.663-.538,1.2-1.2,1.2s-1.2-.537-1.2-1.2c0-.662.538-1.2,1.2-1.2Zm-94.838,2.4c.662,0,1.2.538,1.2,1.2c0,.663-.538,1.2-1.2,1.2s-1.2-.537-1.2-1.2c0-.662.538-1.2,1.2-1.2Zm244.724,27.704c.662,0,1.2.538,1.2,1.2c0,.663-.538,1.2-1.2,1.2s-1.2-.537-1.2-1.2c0-.662.538-1.2,1.2-1.2Zm-6.015-59.474c.662,0,1.2.538,1.2,1.2c0,.663-.538,1.2-1.2,1.2s-1.2-.537-1.2-1.2c0-.662.538-1.2,1.2-1.2ZM196.429,186.075c.056-.123-.019-.232-.225-.325l.101-.222l3.593,1.63c.666.302,1.112.648,1.337,1.038s.203.881-.065,1.474c-.269.592-.622.926-1.058,1.001s-.987-.038-1.654-.341l-2.098-.952-.84,1.852c-.056.123.002.224.175.303l-.101.222-1.753-.795.101-.222c.206.093.337.078.393-.046l2.094-4.617Zm2.419,3.331c.239.108.458.155.658.142.199-.014.359-.153.478-.416.116-.255.117-.471.003-.646-.114-.176-.29-.318-.528-.426l-2.074-.941-.611,1.346l2.074.941Zm266.382-1.591c-.005-.017-.012-.034-.021-.05-.01-.016-.018-.037-.025-.063-.013-.044-.073-.09-.18-.14-.108-.049-.252-.086-.433-.11s-.386-.03-.617-.016c-.231.013-.477.057-.738.13-.313.089-.586.21-.82.365-.233.155-.422.342-.567.562-.145.219-.235.465-.271.738-.035.273-.009.566.079.879.089.313.226.577.414.792.187.215.402.384.643.509.242.124.497.197.767.22.269.023.53-.001.782-.073.235-.066.465-.164.692-.293.226-.13.428-.264.605-.403.176-.139.314-.274.413-.406.1-.131.138-.236.116-.314l-.029-.104c-.015-.052-.032-.095-.05-.127l.107-.171l1.355,1.111-.112.102c-.117-.014-.197-.015-.24-.003-.07.02-.172.091-.306.213-.135.123-.308.268-.519.435-.211.168-.465.331-.763.49s-.642.294-1.034.404c-.4.113-.812.168-1.235.165-.423-.002-.822-.085-1.196-.247-.375-.162-.71-.401-1.005-.716-.296-.316-.512-.718-.65-1.205-.137-.487-.162-.94-.073-1.359.088-.42.254-.797.497-1.134.243-.336.55-.622.92-.858.37-.235.768-.413,1.195-.534.33-.093.641-.148.932-.164s.552-.015.783.005c.231.019.425.04.581.061.156.022.265.024.326.007.043-.012.077-.036.1-.07.023-.035.049-.066.079-.093l.182.047-.511,1.482-.173-.064Z" opacity="0" clip-rule="evenodd" fill="#fffdfe" fill-rule="evenodd" stroke-linejoin="round" stroke-miterlimit="2"/><g mask="url(#ebn7SCqte8o16)"><path d="M748.972,326.757l-.854.843-85.285-86.491.854-.842l85.285,86.49ZM132.144,40.167l.607,1.035L62.617,82.341l-.608-1.035l70.135-41.139Z" clip-rule="evenodd" fill="#fff" fill-rule="evenodd" stroke-linejoin="round" stroke-miterlimit="2"/><mask id="ebn7SCqte8o16" mask-type="luminance" x="-150%" y="-150%" height="400%" width="400%"><g id="ebn7SCqte8o17_to" transform="translate(7.2,360)"><rect width="14.4" height="720" rx="0" ry="0" transform="translate(-7.2,-360)" clip-rule="evenodd" fill="#fff" fill-rule="evenodd" stroke-linejoin="round" stroke-miterlimit="2"/></g><g id="ebn7SCqte8o18_to" transform="translate(7.2,360)"><rect width="14.4" height="720" rx="0" ry="0" transform="translate(-7.2,-360)" clip-rule="evenodd" fill="#fff" fill-rule="evenodd" stroke-linejoin="round" stroke-miterlimit="2"/></g></mask></g><g id="ebn7SCqte8o19_to" transform="translate(360,375.240874)"><g transform="translate(-360,-360)" clip-rule="evenodd"><path d="M106.99,367.065h197.869v-140.191h296.805v260.355h-494.674v-120.164Z" clip-rule="evenodd" fill="#fffdfe" fill-rule="evenodd" stroke-linejoin="round" stroke-miterlimit="2"/><path d="M601.664,226.874l11.346,5.897v260.355l-11.346-5.897v-260.355Z" clip-rule="evenodd" fill="#dbdbdb" fill-rule="evenodd" stroke-linejoin="round" stroke-miterlimit="2"/><path d="M107.002,487.229h494.662l11.346,5.897h-494.662l-11.346-5.897Z" clip-rule="evenodd" fill="#dbdbdb" fill-rule="evenodd" stroke-linejoin="round" stroke-miterlimit="2"/><path d="M601.664,467.202l11.346,5.897v20.027l-11.346-5.897v-20.027Zm0-40.055l11.346,5.897v20.027l-11.346-5.897v-20.027Zm0-40.055l11.346,5.897v20.028l-11.346-5.897v-20.028Zm0-40.054l11.346,5.897v20.027l-11.346-5.897v-20.027Zm0-40.055l11.346,5.897v20.028l-11.346-5.897v-20.028Zm0-40.054l11.346,5.897v20.027l-11.346-5.897v-20.027Zm0-40.055l11.346,5.897v20.027l-11.346-5.897v-20.027Z" clip-rule="evenodd" fill="#b41845" fill-rule="evenodd" stroke-linejoin="round" stroke-miterlimit="2"/><path d="M304.859,226.874h296.805v20.027h-296.805v-20.027Zm0,40.055h296.805v20.027h-296.805v-20.027Zm0,40.054h296.805v20.028h-296.805v-20.028Zm0,40.055h296.805v20.027h-296.805v-20.027Zm296.805,40.054v20.028h-494.674v-20.028h494.674Zm0,40.055v20.027h-494.674v-20.027h494.674Zm0,40.055v20.027h-494.674v-20.027h494.674Z" clip-rule="evenodd" fill="#da1e3f" fill-rule="evenodd" stroke-linejoin="round" stroke-miterlimit="2"/><rect width="197.869995" height="140.190994" rx="0" ry="0" transform="translate(106.989998 226.873993)" clip-rule="evenodd" fill="#2f2d67" fill-rule="evenodd" stroke-linejoin="round" stroke-miterlimit="2"/><path d="M242.728,281.51c25.863,4.008,43.56,12.106,43.56,21.434c0,7.09-10.224,13.469-26.486,17.882c2.017-1.75,3.113-3.628,3.113-5.583c0-9.436-25.537-17.097-56.99-17.097-31.454,0-56.991,7.661-56.991,17.097c0,1.955,1.096,3.833,3.113,5.583-16.262-4.413-26.485-10.792-26.485-17.882c0-9.328,17.696-17.426,43.559-21.434c3.897-16.718,18.906-29.188,36.804-29.188c17.897,0,32.906,12.47,36.803,29.188Zm-68.659,49.215c-9.779-2.626-15.936-6.441-15.936-10.684c0-7.913,21.415-14.338,47.792-14.338s47.792,6.425,47.792,14.338c0,4.243-6.158,8.058-15.937,10.684.13-.35.197-.707.197-1.068c0-5.307-14.362-9.616-32.052-9.616s-32.052,4.309-32.052,9.616c0,.361.066.718.196,1.068Zm31.856-4.519c15.059,0,27.285,3.668,27.285,8.186c0,4.517-12.226,8.185-27.285,8.185-15.06,0-27.286-3.668-27.286-8.185c0-4.518,12.226-8.186,27.286-8.186Z" clip-rule="evenodd" fill="#fffdfe" fill-rule="evenodd" stroke-linejoin="round" stroke-miterlimit="2"/></g></g><g id="ebn7SCqte8o27_to" style="offset-path:path('M934.053006,508.366899C874.351119,502.644363,80.649968,752.114266,-131.32376,865.363698');offset-rotate:0deg"><g transform="rotate(-12.758511) scale(1.2,1.2) translate(-537.533966,-538.889008)" clip-rule="evenodd"><path d="M387.965,511.931c8.704-74.853,72.396-133.033,149.569-133.033s140.864,58.18,149.568,133.033c.332-.045.67-.069,1.014-.069c4.075,0,10.429,3.309,10.429,7.384v39.286c0,4.075-6.354,7.384-10.429,7.384-.049,0-.097-.001-.146-.001-1.465,74.82-16.482,132.965-150.436,132.965s-148.972-58.145-150.437-132.965c-.048,0-.097.001-.145.001-4.076,0-10.429-3.309-10.429-7.384v-39.286c0-4.075,6.353-7.384,10.429-7.384.344,0,.682.024,1.013.069Z" clip-rule="evenodd" fill="#fffdfe" fill-rule="evenodd" stroke-linejoin="round" stroke-miterlimit="2"/><path d="M537.534,420.324c90.073,0,142.749,53.127,142.749,118.565s3.023,118.565-142.749,118.565-142.75-53.127-142.75-118.565s52.676-118.565,142.75-118.565Z" clip-rule="evenodd" fill="#16152b" fill-rule="evenodd" stroke-linejoin="round" stroke-miterlimit="2"/><path d="M451.978,626.687c-9.284-20.573-12.511-54.593-10.321-88.334c2.229-34.361,10.03-68.588,24.131-87.924c9.996-4.717,21.085-8.397,33.196-10.885-5.761,16.927-9.794,40.138-11.658,65.51-3.28,44.646-.056,95.974,10.387,130.317-18.529-1.672-33.557-4.603-45.735-8.684Z" clip-rule="evenodd" fill="#fffdfe" fill-rule="evenodd" stroke-linejoin="round" stroke-miterlimit="2"/><path d="M394.782,549.438c-.007-3.476.002-6.994.002-10.549c0-65.438,52.676-118.565,142.75-118.565c90.073,0,142.749,53.127,142.749,118.565c0,3.555.009,7.073.003,10.549-.114,60.504-4.899,108.016-142.752,108.016-137.854,0-142.639-47.512-142.752-108.016ZM680.26,543.15c-1.255-64.347-53.741-116.198-142.726-116.198-88.986,0-141.471,51.851-142.727,116.198.486,57.946,8.941,102.696,142.727,102.696c133.785,0,142.24-44.75,142.726-102.696Z" clip-rule="evenodd" fill="#444254" fill-rule="evenodd" stroke-linejoin="round" stroke-miterlimit="2"/><path d="M558.931,641.154h-42.795l-3.11,18.33h49.016l-3.111-18.33Z" clip-rule="evenodd" fill="#fffdfe" fill-rule="evenodd" stroke-linejoin="round" stroke-miterlimit="2"/></g></g></g><clipPath id="ebn7SCqte8o33"><rect width="720" height="720" rx="0" ry="0" clip-rule="evenodd" fill-rule="evenodd" stroke-linejoin="round" stroke-miterlimit="2"/></clipPath></g></svg>
