<svg id="edLHyW0b9Ax1" xmlns="http://www.w3.org/2000/svg" xmlns:xlink="http://www.w3.org/1999/xlink" viewBox="0 0 3000 3000" shape-rendering="geometricPrecision" text-rendering="geometricPrecision">
<style><![CDATA[
#edLHyW0b9Ax6_tr {animation: edLHyW0b9Ax6_tr__tr 15000ms linear infinite normal forwards}@keyframes edLHyW0b9Ax6_tr__tr { 0% {transform: translate(1467.086853px,1538.720032px) rotate(0deg)} 100% {transform: translate(1467.086853px,1538.720032px) rotate(180deg)}} #edLHyW0b9Ax7_to {animation: edLHyW0b9Ax7_to__to 15000ms linear infinite normal forwards}@keyframes edLHyW0b9Ax7_to__to { 0% {transform: translate(0px,1500px)} 100% {transform: translate(3000px,1500px)}} #edLHyW0b9Ax11_to {animation: edLHyW0b9Ax11_to__to 15000ms linear infinite normal forwards}@keyframes edLHyW0b9Ax11_to__to { 0% {transform: translate(42.621799px,62.335988px);animation-timing-function: cubic-bezier(0.445,0.05,0.55,0.95)} 16.666667% {transform: translate(42.621799px,-186.787467px);animation-timing-function: cubic-bezier(0.445,0.05,0.55,0.95)} 33.333333% {transform: translate(42.621799px,62.335988px)} 50% {transform: translate(42.621799px,-186.787467px);animation-timing-function: cubic-bezier(0.445,0.05,0.55,0.95)} 66.666667% {transform: translate(42.621799px,62.335988px)} 83.333333% {transform: translate(42.621799px,-186.787467px);animation-timing-function: cubic-bezier(0.445,0.05,0.55,0.95)} 100% {transform: translate(42.621799px,62.335988px)}}
]]></style>
<g mask="url(#edLHyW0b9Ax78)"><g transform="translate(0 0.000001)"><rect width="3000" height="3000" rx="0" ry="0" clip-rule="evenodd" fill="#42c7f2" fill-rule="evenodd" stroke-linejoin="round" stroke-miterlimit="2"/><g transform="matrix(24.741899 0 0 24.741899-34798.601562-36570.800781)" clip-rule="evenodd"><g id="edLHyW0b9Ax6_tr" transform="translate(1467.086853,1538.720032) rotate(0)"><path d="M1425.33,1228.64c-.25-1.86-.37-3.74-.37-5.62c0-23.25,18.87-42.13,42.13-42.13c23.25,0,42.13,18.88,42.13,42.13c0,1.88-.13,3.76-.38,5.62l-41.75,310.08l148.48-275.4c.89-1.66,1.89-3.25,3-4.77c13.66-18.81,40.03-22.99,58.84-9.32c18.82,13.66,22.99,40.03,9.33,58.84-1.11,1.53-2.32,2.97-3.61,4.33l-216.04,226.32l282-135.53c1.69-.82,3.44-1.52,5.23-2.1c22.11-7.18,45.9,4.94,53.08,27.05c7.19,22.12-4.93,45.9-27.04,53.09-1.79.58-3.62,1.04-5.47,1.38l-307.8,56.11l307.8,56.11c1.85.33,3.68.79,5.47,1.37c22.11,7.19,34.23,30.98,27.04,53.09-7.18,22.12-30.97,34.24-53.08,27.05-1.79-.58-3.54-1.28-5.23-2.09l-282-135.53l216.04,226.31c1.29,1.36,2.5,2.81,3.61,4.33c13.66,18.81,9.49,45.18-9.33,58.85-18.81,13.67-45.18,9.49-58.84-9.32-1.11-1.52-2.11-3.12-3-4.77l-148.48-275.4l41.75,310.07c.25,1.87.38,3.75.38,5.63c0,23.25-18.88,42.13-42.13,42.13-23.26,0-42.13-18.88-42.13-42.13c0-1.88.12-3.76.37-5.63l41.76-310.07-148.48,275.4c-.89,1.65-1.9,3.25-3,4.77-13.67,18.81-40.04,22.99-58.85,9.32s-22.99-40.04-9.32-58.85c1.1-1.52,2.31-2.97,3.61-4.33l216.04-226.31-282,135.53c-1.7.81-3.44,1.51-5.23,2.09-22.12,7.19-45.91-4.93-53.09-27.05-7.18-22.11,4.93-45.9,27.05-53.09c1.79-.58,3.61-1.04,5.46-1.37l307.81-56.11-307.81-56.11c-1.85-.34-3.67-.8-5.46-1.38-22.12-7.19-34.23-30.97-27.05-53.09c7.18-22.11,30.97-34.23,53.09-27.05c1.79.58,3.53,1.28,5.23,2.1l282,135.53-216.04-226.32c-1.3-1.36-2.51-2.8-3.61-4.33-13.67-18.81-9.49-45.18,9.32-58.84c18.81-13.67,45.18-9.49,58.85,9.32c1.1,1.52,2.11,3.11,3,4.77l148.48,275.4-41.76-310.08Z" transform="translate(-1467.086853,-1538.720032)" clip-rule="evenodd" fill="#ffc44a" fill-rule="evenodd" stroke-linejoin="round" stroke-miterlimit="2"/></g></g><g id="edLHyW0b9Ax7_to" transform="translate(0,1500)"><g transform="translate(0,0)" clip-rule="evenodd"><g transform="translate(-38.976898 0)" clip-rule="evenodd"><path d="M1018.4,0c-3.4,11.362-5.23,23.402-5.23,35.865c0,57.041,38.29,105.21,90.55,120.184c7.61,61.728,60.29,109.586,124.06,109.586h-38.98c-63.77,0-116.45-47.858-124.05-109.586-52.26-14.974-90.553-63.143-90.553-120.184c0-12.463,1.828-24.503,5.23-35.865c15.43-51.534,63.243-89.135,119.773-89.135h26.76c21.63-37.351,62.03-62.5,108.25-62.5h24.55c5.58-63.846,59.24-114,124.52-114h38.98c-65.28,0-118.95,50.154-124.52,114h-24.55c-46.23,0-86.63,25.149-108.25,62.5h-26.77c-56.52,0-104.34,37.601-119.77,89.135Zm-3000,0c-3.4,11.362-5.23,23.402-5.23,35.865c0,57.041,38.29,105.21,90.55,120.184c7.61,61.728,60.29,109.586,124.06,109.586h-38.98c-63.77,0-116.45-47.858-124.05-109.586-52.26-14.974-90.55-63.143-90.55-120.184c0-12.463,1.82-24.503,5.23-35.865c15.43-51.534,63.24-89.135,119.77-89.135h26.76c21.63-37.351,62.03-62.5,108.25-62.5h24.55c5.58-63.846,59.24-114,124.52-114h38.98c-65.28,0-118.95,50.154-124.52,114h-24.55c-46.23,0-86.63,25.149-108.25,62.5h-26.77c-56.52,0-104.34,37.601-119.77,89.135ZM-262.955,2308.73h-38.977c-94.261,0-170.789-76.53-170.789-170.79c0-57.49,28.469-108.39,72.068-139.35c2.379-92.03,77.712-166.04,170.254-166.3c26.714-59.49,86.496-100.96,155.889-100.96h38.977c-69.393,0-129.175,41.47-155.889,100.96-92.543.26-167.875,74.27-170.254,166.3-43.599,30.96-72.068,81.86-72.068,139.35c0,94.26,76.528,170.79,170.789,170.79ZM-295.523,575h-38.977c-68.989,0-125-56.011-125-125c0-55.346,36.048-102.339,85.925-118.761-.102-2.067-.153-4.147-.153-6.239c0-60.402,42.934-110.855,99.923-122.479-.017-.839-.025-1.679-.025-2.521c0-68.989,56.01-125,125-125h38.977c-68.99,0-125,56.011-125,125c0,.842.008,1.682.025,2.521-56.989,11.624-99.923,62.077-99.923,122.479c0,2.092.051,4.172.153,6.239-49.878,16.422-85.925,63.415-85.925,118.761c0,68.989,56.01,125,125,125Zm72.71,775.66h-38.977c-41.118,0-74.5-33.38-74.5-74.5s33.382-74.5,74.5-74.5h3.973c-8.613-16.96-13.469-36.15-13.469-56.47c0-68.99,56.01-125,125-125h24.661c.379,0,.758.01,1.136.01c20.639-40.655,62.856-68.54,111.534-68.54h38.976c-48.678,0-90.894,27.885-111.533,68.54-.378,0-.757-.01-1.136-.01h-24.661c-68.99,0-125,56.01-125,125c0,20.32,4.856,39.51,13.469,56.47h-3.973c-41.118,0-74.5,33.38-74.5,74.5s33.382,74.5,74.5,74.5ZM1018.4,3000h-38.973c15.43-51.53,63.243-89.13,119.773-89.13h26.76c21.63-37.36,62.03-62.5,108.25-62.5h24.55c5.58-63.85,59.24-114,124.52-114h38.98c-65.28,0-118.95,50.15-124.52,114h-24.55c-46.23,0-86.63,25.14-108.25,62.5h-26.77c-56.52,0-104.34,37.6-119.77,89.13Zm1718.65-691.27h-38.98c-94.26,0-170.79-76.53-170.79-170.79c0-57.49,28.47-108.39,72.07-139.35c2.38-92.03,77.71-166.04,170.25-166.3c26.72-59.49,86.5-100.96,155.89-100.96h38.98c-69.4,0-129.18,41.47-155.89,100.96-92.55.26-167.88,74.27-170.26,166.3-43.6,30.96-72.06,81.86-72.06,139.35c0,94.26,76.52,170.79,170.79,170.79Zm40.14-958.07h-38.98c-41.12,0-74.5-33.38-74.5-74.5s33.38-74.5,74.5-74.5h3.97c-8.61-16.96-13.47-36.15-13.47-56.47c0-68.99,56.01-125,125-125h24.67c.37,0,.75.01,1.13.01c20.64-40.655,62.86-68.54,111.54-68.54h8.95v3.635c-35.63,8.797-65.26,32.892-81.51,64.905-.38,0-.76-.01-1.14-.01h-24.66c-68.99,0-125,56.01-125,125c0,20.32,4.86,39.51,13.47,56.47h-3.97c-41.12,0-74.5,33.38-74.5,74.5s33.38,74.5,74.5,74.5ZM2704.48,575h-38.98c-68.99,0-125-56.011-125-125c0-55.346,36.05-102.339,85.93-118.761-.11-2.067-.16-4.147-.16-6.239c0-60.402,42.94-110.855,99.93-122.479-.02-.839-.03-1.679-.03-2.521c0-68.989,56.01-125,125-125h38.98c-68.99,0-125,56.011-125,125c0,.842.01,1.682.02,2.521-56.99,11.624-99.92,62.077-99.92,122.479c0,2.092.05,4.172.15,6.239-49.88,16.422-85.92,63.415-85.92,118.761c0,68.989,56.01,125,125,125ZM1317.85,2473.03h-38.98c-68.99,0-125-56.02-125-125c0-55.35,36.05-102.34,85.93-118.77-.11-2.06-.16-4.14-.16-6.23c0-60.41,42.94-110.86,99.93-122.48-.02-.84-.03-1.68-.03-2.52c0-68.99,56.01-125,125-125h38.98c-68.99,0-125,56.01-125,125c0,.84.01,1.68.02,2.52-56.99,11.62-99.92,62.07-99.92,122.48c0,2.09.05,4.17.15,6.23-49.87,16.43-85.92,63.42-85.92,118.77c0,68.98,56.01,125,125,125Zm-43.99-1126.66h-38.98c-23.03,0-41.74-18.7-41.74-41.74c0-23.03,18.71-41.74,41.74-41.74h5.43c0-23.03,18.71-41.73,41.74-41.73h24.46c0-23.04,18.7-41.74,41.73-41.74h38.98c-23.04,0-41.74,18.7-41.74,41.74h-24.45c-23.04,0-41.74,18.7-41.74,41.73h-5.43c-23.04,0-41.74,18.71-41.74,41.74c0,23.04,18.7,41.74,41.74,41.74ZM703.222,438.454h-38.977c-33.695,0-61.051-27.357-61.051-61.052c0-20.551,10.177-38.744,25.762-49.811.85-32.898,27.779-59.356,60.859-59.446c9.55-21.266,30.92-36.092,55.725-36.092h28.651c1.739,0,3.461.073,5.163.216-22.58,1.894-41.682,16.1-50.562,35.876-33.08.09-60.009,26.548-60.86,59.446-15.584,11.067-25.761,29.26-25.761,49.811c0,33.695,27.356,61.052,61.051,61.052ZM2212.53,2895.62h-38.98c-68.98,0-125-56.01-125-125c0-50.83,30.41-94.61,74.01-114.14c7.62-61.72,60.29-109.56,124.05-109.56h29.71c19.55-43.54,63.3-73.89,114.09-73.89h38.98c-50.79,0-94.54,30.35-114.1,73.89h-29.7c-63.76,0-116.44,47.84-124.06,109.56-43.59,19.53-74,63.31-74,114.14c0,68.99,56.01,125,125,125Zm-38.24-781.93h-38.98c-34.46,0-62.44-27.98-62.44-62.44c0-21.02,10.41-39.63,26.35-50.94.87-33.65,28.41-60.71,62.24-60.8c9.77-21.75,31.62-36.91,56.99-36.91h29.3c1.63,0,3.24.06,4.84.18-23.29,1.79-43.01,16.38-52.15,36.73-33.83.09-61.37,27.15-62.24,60.8-15.94,11.31-26.35,29.92-26.35,50.94c0,34.46,27.98,62.44,62.44,62.44Zm-308.6-431.26h-38.98c-63.77,0-116.45-47.86-124.06-109.59-52.26-14.97-90.55-63.14-90.55-120.18c0-68.99,56.02-125,125-125h26.77c21.62-37.35,62.02-62.5,108.25-62.5h24.55c5.58-63.85,59.24-114,124.52-114h38.98c-65.29,0-118.95,50.15-124.53,114h-24.54c-46.23,0-86.63,25.15-108.26,62.5h-26.76c-68.99,0-125,56.01-125,125c0,57.04,38.29,105.21,90.55,120.18c7.6,61.73,60.29,109.59,124.06,109.59ZM626,1902.6h-38.977c-63.085,0-114.302-51.22-114.302-114.3c0-52.16,35.014-96.21,82.799-109.9c6.954-56.45,55.127-100.21,113.44-100.21h24.472c19.775-34.15,56.718-57.15,98.99-57.15h22.445c5.1-58.38,54.169-104.24,113.865-104.24h38.977c-59.696,0-108.765,45.86-113.865,104.24h-22.445c-42.272,0-79.215,23-98.99,57.15h-24.472c-58.313,0-106.486,43.76-113.44,100.21-47.785,13.69-82.799,57.74-82.799,109.9c0,63.08,51.217,114.3,114.302,114.3ZM2160.13,427.611h-38.97c-26.65,0-48.29-21.636-48.29-48.286c0-22.034,14.79-40.641,34.98-46.425c2.94-23.845,23.29-42.332,47.92-42.332h10.34c8.35-14.428,23.96-24.142,41.82-24.142h9.48c2.15-24.663,22.88-44.037,48.1-44.037h38.98c-25.22,0-45.95,19.374-48.11,44.037h-9.48c-17.85,0-33.46,9.714-41.81,24.142h-10.34c-24.64,0-44.99,18.487-47.92,42.332-20.19,5.784-34.98,24.391-34.98,46.425c0,26.65,21.63,48.286,48.28,48.286ZM335.359,2895.62h-38.977c-68.99,0-125-56.01-125-125c0-42.08,20.836-79.33,52.746-101.98c1.741-67.36,56.877-121.53,124.608-121.72c19.552-43.54,63.307-73.89,114.095-73.89h38.977c-50.788,0-94.543,30.35-114.095,73.89-67.731.19-122.867,54.36-124.608,121.72-31.91,22.65-52.746,59.9-52.746,101.98c0,68.99,56.01,125,125,125Zm439.479-545.54h-38.976c-33.695,0-61.052-27.36-61.052-61.05c0-24.83,14.85-46.21,36.144-55.75c3.72-30.14,29.448-53.51,60.589-53.51h14.508c9.549-21.27,30.919-36.09,55.724-36.09h28.651c1.739,0,3.461.07,5.163.21-22.58,1.9-41.681,16.1-50.561,35.88h-14.508c-31.142,0-56.869,23.37-60.589,53.51-21.294,9.54-36.144,30.92-36.144,55.75c0,33.69,27.356,61.05,61.051,61.05ZM737.986,1032.51h-38.977c-59.701,0-108.171-48.472-108.171-108.173c0-48.896,32.513-90.258,77.08-103.629-.159-2.454-.24-4.93-.24-7.424C667.678,750.761,718.439,700,780.962,700h38.977c-62.523,0-113.284,50.761-113.284,113.284c0,2.494.081,4.97.24,7.424-44.567,13.371-77.08,54.733-77.08,103.629c0,59.701,48.47,108.173,108.171,108.173ZM835.263,700c0-68.989,56.01-125,125-125h38.977c-68.99,0-125,56.011-125,125h-38.977ZM1850.06,925.975h-38.98c-41.12,0-74.5-33.382-74.5-74.5c0-41.117,33.38-74.5,74.5-74.5h3.97c-8.61-16.964-13.46-36.152-13.46-56.465c0-68.99,56.01-125,125-125h24.66c.38,0,.75.001,1.13.005c20.64-40.654,62.86-68.54,111.54-68.54h38.97c-48.67,0-90.89,27.886-111.53,68.54-.38-.004-.76-.005-1.14-.005h-24.66c-68.99,0-125,56.01-125,125c0,20.313,4.86,39.501,13.47,56.465h-3.97c-41.12,0-74.5,33.383-74.5,74.5c0,41.118,33.38,74.5,74.5,74.5ZM-1981.6,3000h-38.97c15.43-51.53,63.24-89.13,119.77-89.13h26.76c21.63-37.36,62.03-62.5,108.25-62.5h24.55c5.58-63.85,59.24-114,124.52-114h38.98c-65.28,0-118.95,50.15-124.52,114h-24.55c-46.23,0-86.63,25.14-108.25,62.5h-26.77c-56.52,0-104.34,37.6-119.77,89.13Zm299.45-526.97h-38.98c-68.99,0-125-56.02-125-125c0-55.35,36.05-102.34,85.93-118.77-.11-2.06-.16-4.14-.16-6.23c0-60.41,42.94-110.86,99.93-122.48-.02-.84-.03-1.68-.03-2.52c0-68.99,56.01-125,125-125h38.98c-68.99,0-125,56.01-125,125c0,.84.01,1.68.02,2.52-56.99,11.62-99.92,62.07-99.92,122.48c0,2.09.05,4.17.15,6.23-49.87,16.43-85.92,63.42-85.92,118.77c0,68.98,56.01,125,125,125Zm-43.99-1126.66h-38.98c-23.03,0-41.74-18.7-41.74-41.74c0-23.03,18.71-41.74,41.74-41.74h5.43c0-23.03,18.7-41.73,41.74-41.73h24.45c0-23.04,18.71-41.74,41.74-41.74h38.98c-23.04,0-41.74,18.7-41.74,41.74h-24.45c-23.04,0-41.74,18.7-41.74,41.73h-5.43c-23.04,0-41.74,18.71-41.74,41.74c0,23.04,18.7,41.74,41.74,41.74Zm-570.64-907.916h-38.98c-33.69,0-61.05-27.357-61.05-61.052c0-20.551,10.18-38.744,25.77-49.811.85-32.898,27.78-59.356,60.86-59.446c9.54-21.266,30.92-36.092,55.72-36.092h28.65c1.74,0,3.46.073,5.16.216-22.58,1.894-41.68,16.1-50.56,35.876-33.08.09-60.01,26.548-60.86,59.446-15.58,11.067-25.76,29.26-25.76,49.811c0,33.695,27.36,61.052,61.05,61.052ZM-787.468,2895.62h-38.977c-68.989,0-125-56.01-125-125c0-50.83,30.405-94.61,74.003-114.14c7.617-61.72,60.293-109.56,124.054-109.56h29.704c19.552-43.54,63.306-73.89,114.094-73.89h38.977c-50.788,0-94.542,30.35-114.094,73.89h-29.704c-63.762,0-116.437,47.84-124.054,109.56-43.598,19.53-74.003,63.31-74.003,114.14c0,68.99,56.011,125,125,125Zm-38.246-781.93h-38.976c-34.461,0-62.439-27.98-62.439-62.44c0-21.02,10.408-39.63,26.347-50.94.87-33.65,28.411-60.71,62.243-60.8c9.766-21.75,31.622-36.91,56.991-36.91h29.302c1.627,0,3.241.06,4.837.18-23.286,1.79-43.013,16.38-52.153,36.73-33.832.09-61.373,27.15-62.243,60.8-15.939,11.31-26.347,29.92-26.347,50.94c0,34.46,27.978,62.44,62.438,62.44Zm-308.596-431.26h-38.98c-63.77,0-116.45-47.86-124.06-109.59-52.26-14.97-90.55-63.14-90.55-120.18c0-68.99,56.02-125,125-125h26.77c21.62-37.35,62.02-62.5,108.25-62.5h24.55c5.57-63.85,59.24-114,124.519-114h38.977c-65.286,0-118.946,50.15-124.526,114h-24.54c-46.23,0-86.63,25.15-108.26,62.5h-26.76c-68.99,0-125,56.01-125,125c0,57.04,38.29,105.21,90.55,120.18c7.6,61.73,60.29,109.59,124.06,109.59ZM-2374,1902.6h-38.98c-63.08,0-114.3-51.22-114.3-114.3c0-52.16,35.02-96.21,82.8-109.9c6.95-56.45,55.13-100.21,113.44-100.21h24.47c19.78-34.15,56.72-57.15,98.99-57.15h22.45c5.1-58.38,54.17-104.24,113.86-104.24h38.98c-59.7,0-108.77,45.86-113.87,104.24h-22.44c-42.27,0-79.22,23-98.99,57.15h-24.47c-58.32,0-106.49,43.76-113.44,100.21-47.79,13.69-82.8,57.74-82.8,109.9c0,63.08,51.21,114.3,114.3,114.3ZM-839.866,427.611h-38.977c-26.65,0-48.286-21.636-48.286-48.286c0-22.034,14.791-40.641,34.978-46.425c2.937-23.845,23.287-42.332,47.921-42.332h10.338c8.354-14.428,23.96-24.142,41.817-24.142h9.482c2.154-24.663,22.883-44.037,48.101-44.037h38.977c-25.218,0-45.947,19.374-48.101,44.037h-9.482c-17.857,0-33.463,9.714-41.817,24.142h-10.338c-24.634,0-44.984,18.487-47.921,42.332-20.187,5.784-34.978,24.391-34.978,46.425c0,26.65,21.636,48.286,48.286,48.286ZM-2664.64,2895.62h-38.98c-68.99,0-125-56.01-125-125c0-42.08,20.84-79.33,52.75-101.98c1.74-67.36,56.88-121.53,124.61-121.72c19.55-43.54,63.3-73.89,114.09-73.89h38.98c-50.79,0-94.55,30.35-114.1,73.89-67.73.19-122.86,54.36-124.6,121.72-31.91,22.65-52.75,59.9-52.75,101.98c0,68.99,56.01,125,125,125Zm439.48-545.54h-38.98c-33.69,0-61.05-27.36-61.05-61.05c0-24.83,14.85-46.21,36.14-55.75c3.72-30.14,29.45-53.51,60.59-53.51h14.51c9.55-21.27,30.92-36.09,55.73-36.09h28.65c1.73,0,3.46.07,5.16.21-22.58,1.9-41.68,16.1-50.56,35.88h-14.51c-31.14,0-56.87,23.37-60.59,53.51-21.29,9.54-36.14,30.92-36.14,55.75c0,33.69,27.35,61.05,61.05,61.05Zm-36.85-1317.57h-38.98c-59.7,0-108.17-48.472-108.17-108.173c0-48.896,32.51-90.258,77.08-103.629-.16-2.454-.24-4.93-.24-7.424c0-62.523,50.76-113.284,113.28-113.284h38.98c-62.52,0-113.29,50.761-113.29,113.284c0,2.494.09,4.97.24,7.424-44.56,13.371-77.07,54.733-77.07,103.629c0,59.701,48.46,108.173,108.17,108.173ZM-2164.74,700c0-68.989,56.01-125,125-125h38.98c-68.99,0-125,56.011-125,125h-38.98Zm1014.8,225.975h-38.98c-41.12,0-74.5-33.382-74.5-74.5c0-41.117,33.38-74.5,74.5-74.5h3.97c-8.61-16.964-13.46-36.152-13.46-56.465c0-68.99,56.01-125,125-125h24.66c.38,0,.75.001,1.13.005c20.64-40.654,62.858-68.54,111.536-68.54h38.977c-48.678,0-90.895,27.886-111.533,68.54-.38-.004-.76-.005-1.14-.005h-24.66c-68.99,0-125,56.01-125,125c0,20.313,4.86,39.501,13.47,56.465h-3.97c-41.12,0-74.5,33.383-74.5,74.5c0,41.118,33.38,74.5,74.5,74.5Zm886.985-1617.247h-38.977c-94.261,0-170.789-76.528-170.789-170.789c0-57.493,28.469-108.388,72.068-139.349c2.379-92.03,77.712-166.04,170.254-166.3c26.714-59.49,86.496-100.96,155.889-100.96h38.977c-69.393,0-129.175,41.47-155.889,100.96-92.543.26-167.875,74.27-170.254,166.3-43.599,30.961-72.068,81.856-72.068,139.349c0,94.261,76.528,170.789,170.789,170.789ZM-295.523,-2425h-38.977c-68.989,0-125-56.01-125-125c0-55.35,36.048-102.34,85.925-118.76-.102-2.07-.153-4.15-.153-6.24c0-60.4,42.934-110.86,99.923-122.48-.017-.84-.025-1.68-.025-2.52c0-68.99,56.01-125,125-125h38.977c-68.99,0-125,56.01-125,125c0,.84.008,1.68.025,2.52-56.989,11.62-99.923,62.08-99.923,122.48c0,2.09.051,4.17.153,6.24-49.878,16.42-85.925,63.41-85.925,118.76c0,68.99,56.01,125,125,125Zm72.71,775.66h-38.977c-41.118,0-74.5-33.38-74.5-74.5s33.382-74.5,74.5-74.5h3.973c-8.613-16.96-13.469-36.15-13.469-56.47c0-68.99,56.01-125,125-125h24.661c.379,0,.758.01,1.136.01c20.639-40.66,62.856-68.54,111.534-68.54h38.976c-48.678,0-90.894,27.88-111.533,68.54-.378,0-.757-.01-1.136-.01h-24.661c-68.99,0-125,56.01-125,125c0,20.32,4.856,39.51,13.469,56.47h-3.973c-41.118,0-74.5,33.38-74.5,74.5s33.382,74.5,74.5,74.5ZM2737.05,-691.272h-38.98c-94.26,0-170.79-76.528-170.79-170.789c0-57.493,28.47-108.388,72.07-139.349c2.38-92.03,77.71-166.04,170.25-166.3c26.72-59.49,86.5-100.96,155.89-100.96h38.98c-69.4,0-129.18,41.47-155.89,100.96-92.55.26-167.88,74.27-170.26,166.3-43.6,30.961-72.06,81.856-72.06,139.349c0,94.261,76.52,170.789,170.79,170.789Zm40.14-958.068h-38.98c-41.12,0-74.5-33.38-74.5-74.5s33.38-74.5,74.5-74.5h3.97c-8.61-16.96-13.47-36.15-13.47-56.47c0-68.99,56.01-125,125-125h24.67c.37,0,.75.01,1.13.01c20.64-40.66,62.86-68.54,111.54-68.54h8.95v3.63c-35.63,8.8-65.26,32.9-81.51,64.91-.38,0-.76-.01-1.14-.01h-24.66c-68.99,0-125,56.01-125,125c0,20.32,4.86,39.51,13.47,56.47h-3.97c-41.12,0-74.5,33.38-74.5,74.5s33.38,74.5,74.5,74.5ZM2704.48,-2425h-38.98c-68.99,0-125-56.01-125-125c0-55.35,36.05-102.34,85.93-118.76-.11-2.07-.16-4.15-.16-6.24c0-60.4,42.94-110.86,99.93-122.48-.02-.84-.03-1.68-.03-2.52c0-68.99,56.01-125,125-125h38.98c-68.99,0-125,56.01-125,125c0,.84.01,1.68.02,2.52-56.99,11.62-99.92,62.08-99.92,122.48c0,2.09.05,4.17.15,6.24-49.88,16.42-85.92,63.41-85.92,118.76c0,68.99,56.01,125,125,125Zm-1476.7-309.37h-38.98c-63.77,0-116.45-47.85-124.05-109.58-52.26-14.98-90.553-63.14-90.553-120.19c0-12.46,1.828-24.5,5.23-35.86h38.973c-3.4,11.36-5.23,23.4-5.23,35.86c0,57.05,38.29,105.21,90.55,120.19c7.61,61.73,60.29,109.58,124.06,109.58Zm90.07,2207.395h-38.98c-68.99,0-125-56.011-125-125c0-55.346,36.05-102.339,85.93-118.761-.11-2.067-.16-4.147-.16-6.239c0-60.402,42.94-110.855,99.93-122.48-.02-.838-.03-1.678-.03-2.52c0-68.99,56.01-124.995,125-124.995h38.98c-68.99,0-125,56.005-125,124.995c0,.842.01,1.682.02,2.52-56.99,11.625-99.92,62.078-99.92,122.48c0,2.092.05,4.172.15,6.239-49.87,16.422-85.92,63.415-85.92,118.761c0,68.989,56.01,125,125,125Zm-43.99-1126.655h-38.98c-23.03,0-41.74-18.7-41.74-41.74c0-23.03,18.71-41.74,41.74-41.74h5.43c0-23.03,18.71-41.73,41.74-41.73h24.46c0-23.04,18.7-41.74,41.73-41.74h38.98c-23.04,0-41.74,18.7-41.74,41.74h-24.45c-23.04,0-41.74,18.7-41.74,41.73h-5.43c-23.04,0-41.74,18.71-41.74,41.74c0,23.04,18.7,41.74,41.74,41.74Zm-570.638-907.92h-38.977c-33.695,0-61.051-27.35-61.051-61.05c0-20.55,10.177-38.74,25.762-49.81.85-32.9,27.779-59.35,60.859-59.45c9.55-21.26,30.92-36.09,55.725-36.09h28.651c1.739,0,3.461.08,5.163.22-22.58,1.89-41.682,16.1-50.562,35.87-33.08.1-60.009,26.55-60.86,59.45-15.584,11.07-25.761,29.26-25.761,49.81c0,33.7,27.356,61.05,61.051,61.05ZM2212.53,-104.377h-38.98c-68.98,0-125-56.011-125-125c0-50.83,30.41-94.614,74.01-114.142c7.62-61.716,60.29-109.56,124.05-109.56h29.71c19.55-43.542,63.3-73.896,114.09-73.896h38.98c-50.79,0-94.54,30.354-114.1,73.896h-29.7c-63.76,0-116.44,47.844-124.06,109.56-43.59,19.528-74,63.312-74,114.142c0,68.989,56.01,125,125,125Zm-38.24-781.935h-38.98c-34.46,0-62.44-27.977-62.44-62.438c0-21.018,10.41-39.625,26.35-50.943.87-33.647,28.41-60.707,62.24-60.797c9.77-21.75,31.62-36.91,56.99-36.91h29.3c1.63,0,3.24.06,4.84.18-23.29,1.79-43.01,16.38-52.15,36.73-33.83.09-61.37,27.15-62.24,60.797-15.94,11.318-26.35,29.925-26.35,50.943c0,34.461,27.98,62.438,62.44,62.438Zm-308.6-431.258h-38.98c-63.77,0-116.45-47.86-124.06-109.59-52.26-14.97-90.55-63.14-90.55-120.18c0-68.99,56.02-125,125-125h26.77c21.62-37.35,62.02-62.5,108.25-62.5h24.55c5.58-63.85,59.24-114,124.52-114h38.98c-65.29,0-118.95,50.15-124.53,114h-24.54c-46.23,0-86.63,25.15-108.26,62.5h-26.76c-68.99,0-125,56.01-125,125c0,57.04,38.29,105.21,90.55,120.18c7.6,61.73,60.29,109.59,124.06,109.59ZM626,-1097.4h-38.977c-63.085,0-114.302-51.22-114.302-114.3c0-52.16,35.014-96.21,82.799-109.9c6.954-56.45,55.127-100.21,113.44-100.21h24.472c19.775-34.15,56.718-57.15,98.99-57.15h22.445c5.1-58.38,54.169-104.24,113.865-104.24h38.977c-59.696,0-108.765,45.86-113.865,104.24h-22.445c-42.272,0-79.215,23-98.99,57.15h-24.472c-58.313,0-106.486,43.76-113.44,100.21-47.785,13.69-82.799,57.74-82.799,109.9c0,63.08,51.217,114.3,114.302,114.3Zm1534.13-1474.99h-38.97c-26.65,0-48.29-21.64-48.29-48.29c0-22.03,14.79-40.64,34.98-46.42c2.94-23.85,23.29-42.33,47.92-42.33h10.34c8.35-14.43,23.96-24.14,41.82-24.14h9.48c2.15-24.67,22.88-44.04,48.1-44.04h38.98c-25.22,0-45.95,19.37-48.11,44.04h-9.48c-17.85,0-33.46,9.71-41.81,24.14h-10.34c-24.64,0-44.99,18.48-47.92,42.33-20.19,5.78-34.98,24.39-34.98,46.42c0,26.65,21.63,48.29,48.28,48.29ZM335.359,-104.377h-38.977c-68.99,0-125-56.011-125-125c0-42.079,20.836-79.329,52.746-101.987c1.741-67.358,56.877-121.529,124.608-121.715c19.552-43.541,63.307-73.896,114.095-73.896h38.977c-50.788,0-94.543,30.355-114.095,73.896-67.731.186-122.867,54.357-124.608,121.715-31.91,22.658-52.746,59.908-52.746,101.987c0,68.989,56.01,125,125,125Zm439.479-545.547h-38.976c-33.695,0-61.052-27.356-61.052-61.051c0-24.825,14.85-46.21,36.144-55.748c3.72-30.142,29.448-53.51,60.589-53.51h14.508c9.549-21.266,30.919-36.091,55.724-36.091h28.651c1.739,0,3.461.073,5.163.216-22.58,1.894-41.681,16.1-50.561,35.875h-14.508c-31.142,0-56.869,23.368-60.589,53.51-21.294,9.538-36.144,30.923-36.144,55.748c0,33.695,27.356,61.051,61.051,61.051ZM737.986,-1967.49h-38.977c-59.701,0-108.171-48.47-108.171-108.17c0-48.9,32.513-90.26,77.08-103.63-.159-2.46-.24-4.93-.24-7.43c0-62.52,50.761-113.28,113.284-113.28h38.977c-62.523,0-113.284,50.76-113.284,113.28c0,2.5.081,4.97.24,7.43-44.567,13.37-77.08,54.73-77.08,103.63c0,59.7,48.47,108.17,108.171,108.17ZM835.263,-2300c0-68.99,56.01-125,125-125h38.977c-68.99,0-125,56.01-125,125h-38.977Zm1014.797,225.97h-38.98c-41.12,0-74.5-33.38-74.5-74.5c0-41.11,33.38-74.5,74.5-74.5h3.97c-8.61-16.96-13.46-36.15-13.46-56.46c0-68.99,56.01-125,125-125h24.66c.38,0,.75,0,1.13,0c20.64-40.65,62.86-68.54,111.54-68.54h38.97c-48.67,0-90.89,27.89-111.53,68.54-.38,0-.76,0-1.14,0h-24.66c-68.99,0-125,56.01-125,125c0,20.31,4.86,39.5,13.47,56.46h-3.97c-41.12,0-74.5,33.39-74.5,74.5c0,41.12,33.38,74.5,74.5,74.5Zm-3622.28-660.34h-38.98c-63.77,0-116.45-47.85-124.05-109.58-52.26-14.98-90.55-63.14-90.55-120.19c0-12.46,1.82-24.5,5.23-35.86h38.97c-3.4,11.36-5.23,23.4-5.23,35.86c0,57.05,38.29,105.21,90.55,120.19c7.61,61.73,60.29,109.58,124.06,109.58Zm90.07,2207.395h-38.98c-68.99,0-125-56.011-125-125c0-55.346,36.05-102.339,85.93-118.761-.11-2.067-.16-4.147-.16-6.239c0-60.402,42.94-110.855,99.93-122.48-.02-.838-.03-1.678-.03-2.52c0-68.99,56.01-124.995,125-124.995h38.98c-68.99,0-125,56.005-125,124.995c0,.842.01,1.682.02,2.52-56.99,11.625-99.92,62.078-99.92,122.48c0,2.092.05,4.172.15,6.239-49.87,16.422-85.92,63.415-85.92,118.761c0,68.989,56.01,125,125,125Zm-43.99-1126.655h-38.98c-23.03,0-41.74-18.7-41.74-41.74c0-23.03,18.71-41.74,41.74-41.74h5.43c0-23.03,18.7-41.73,41.74-41.73h24.45c0-23.04,18.71-41.74,41.74-41.74h38.98c-23.04,0-41.74,18.7-41.74,41.74h-24.45c-23.04,0-41.74,18.7-41.74,41.73h-5.43c-23.04,0-41.74,18.71-41.74,41.74c0,23.04,18.7,41.74,41.74,41.74Zm-570.64-907.92h-38.98c-33.69,0-61.05-27.35-61.05-61.05c0-20.55,10.18-38.74,25.77-49.81.85-32.9,27.78-59.35,60.86-59.45c9.54-21.26,30.92-36.09,55.72-36.09h28.65c1.74,0,3.46.08,5.16.22-22.58,1.89-41.68,16.1-50.56,35.87-33.08.1-60.01,26.55-60.86,59.45-15.58,11.07-25.76,29.26-25.76,49.81c0,33.7,27.36,61.05,61.05,61.05ZM-787.468,-104.377h-38.977c-68.989,0-125-56.011-125-125c0-50.83,30.405-94.614,74.003-114.142c7.617-61.716,60.293-109.56,124.054-109.56h29.704c19.552-43.542,63.306-73.896,114.094-73.896h38.977c-50.788,0-94.542,30.354-114.094,73.896h-29.704c-63.762,0-116.437,47.844-124.054,109.56-43.598,19.528-74.003,63.312-74.003,114.142c0,68.989,56.011,125,125,125Zm-38.246-781.935h-38.976c-34.461,0-62.439-27.977-62.439-62.438c0-21.018,10.408-39.625,26.347-50.943.87-33.647,28.411-60.707,62.243-60.797c9.766-21.75,31.622-36.91,56.991-36.91h29.302c1.627,0,3.241.06,4.837.18-23.286,1.79-43.013,16.38-52.153,36.73-33.832.09-61.373,27.15-62.243,60.797-15.939,11.318-26.347,29.925-26.347,50.943c0,34.461,27.978,62.438,62.438,62.438Zm-308.596-431.258h-38.98c-63.77,0-116.45-47.86-124.06-109.59-52.26-14.97-90.55-63.14-90.55-120.18c0-68.99,56.02-125,125-125h26.77c21.62-37.35,62.02-62.5,108.25-62.5h24.55c5.57-63.85,59.24-114,124.519-114h38.977c-65.286,0-118.946,50.15-124.526,114h-24.54c-46.23,0-86.63,25.15-108.26,62.5h-26.76c-68.99,0-125,56.01-125,125c0,57.04,38.29,105.21,90.55,120.18c7.6,61.73,60.29,109.59,124.06,109.59ZM-2374,-1097.4h-38.98c-63.08,0-114.3-51.22-114.3-114.3c0-52.16,35.02-96.21,82.8-109.9c6.95-56.45,55.13-100.21,113.44-100.21h24.47c19.78-34.15,56.72-57.15,98.99-57.15h22.45c5.1-58.38,54.17-104.24,113.86-104.24h38.98c-59.7,0-108.77,45.86-113.87,104.24h-22.44c-42.27,0-79.22,23-98.99,57.15h-24.47c-58.32,0-106.49,43.76-113.44,100.21-47.79,13.69-82.8,57.74-82.8,109.9c0,63.08,51.21,114.3,114.3,114.3Zm1534.134-1474.99h-38.977c-26.65,0-48.286-21.64-48.286-48.29c0-22.03,14.791-40.64,34.978-46.42c2.937-23.85,23.287-42.33,47.921-42.33h10.338c8.354-14.43,23.96-24.14,41.817-24.14h9.482c2.154-24.67,22.883-44.04,48.101-44.04h38.977c-25.218,0-45.947,19.37-48.101,44.04h-9.482c-17.857,0-33.463,9.71-41.817,24.14h-10.338c-24.634,0-44.984,18.48-47.921,42.33-20.187,5.78-34.978,24.39-34.978,46.42c0,26.65,21.636,48.29,48.286,48.29ZM-2664.64,-104.377h-38.98c-68.99,0-125-56.011-125-125c0-42.079,20.84-79.329,52.75-101.987c1.74-67.358,56.88-121.529,124.61-121.715c19.55-43.541,63.3-73.896,114.09-73.896h38.98c-50.79,0-94.55,30.355-114.1,73.896-67.73.186-122.86,54.357-124.6,121.715-31.91,22.658-52.75,59.908-52.75,101.987c0,68.989,56.01,125,125,125Zm439.48-545.547h-38.98c-33.69,0-61.05-27.356-61.05-61.051c0-24.825,14.85-46.21,36.14-55.748c3.72-30.142,29.45-53.51,60.59-53.51h14.51c9.55-21.266,30.92-36.091,55.73-36.091h28.65c1.73,0,3.46.073,5.16.216-22.58,1.894-41.68,16.1-50.56,35.875h-14.51c-31.14,0-56.87,23.368-60.59,53.51-21.29,9.538-36.14,30.923-36.14,55.748c0,33.695,27.35,61.051,61.05,61.051Zm-36.85-1317.566h-38.98c-59.7,0-108.17-48.47-108.17-108.17c0-48.9,32.51-90.26,77.08-103.63-.16-2.46-.24-4.93-.24-7.43c0-62.52,50.76-113.28,113.28-113.28h38.98c-62.52,0-113.29,50.76-113.29,113.28c0,2.5.09,4.97.24,7.43-44.56,13.37-77.07,54.73-77.07,103.63c0,59.7,48.46,108.17,108.17,108.17Zm97.27-332.51c0-68.99,56.01-125,125-125h38.98c-68.99,0-125,56.01-125,125h-38.98Zm1014.8,225.97h-38.98c-41.12,0-74.5-33.38-74.5-74.5c0-41.11,33.38-74.5,74.5-74.5h3.97c-8.61-16.96-13.46-36.15-13.46-56.46c0-68.99,56.01-125,125-125h24.66c.38,0,.75,0,1.13,0c20.64-40.65,62.858-68.54,111.536-68.54h38.977c-48.678,0-90.895,27.89-111.533,68.54-.38,0-.76,0-1.14,0h-24.66c-68.99,0-125,56.01-125,125c0,20.31,4.86,39.5,13.47,56.46h-3.97c-41.12,0-74.5,33.39-74.5,74.5c0,41.12,33.38,74.5,74.5,74.5Z" clip-rule="evenodd" fill="#b2f1ff" fill-rule="evenodd" stroke-linejoin="round" stroke-miterlimit="2"/></g><path d="M1930.97,0c1.97,6.605,3.42,13.439,4.28,20.451c52.26,14.974,90.55,63.143,90.55,120.184c0,68.99-56.01,125-125,125h-712c-63.77,0-116.45-47.858-124.05-109.586-52.26-14.974-90.553-63.143-90.553-120.184c0-12.463,1.828-24.503,5.23-35.865c15.43-51.534,63.243-89.135,119.773-89.135h26.76c21.63-37.351,62.03-62.5,108.25-62.5h24.55c5.58-63.846,59.24-114,124.52-114h143.83c65.28,0,118.95,50.154,124.52,114h24.55c46.23,0,86.63,25.149,108.25,62.5h26.77c56.52,0,104.34,37.601,119.77,89.135Zm-3000,0c1.97,6.605,3.42,13.439,4.28,20.451c52.26,14.974,90.553,63.143,90.553,120.184c0,68.99-56.013,125-125.003,125h-712c-63.77,0-116.45-47.858-124.05-109.586-52.26-14.974-90.55-63.143-90.55-120.184c0-12.463,1.82-24.503,5.23-35.865c15.43-51.534,63.24-89.135,119.77-89.135h26.76c21.63-37.351,62.03-62.5,108.25-62.5h24.55c5.58-63.846,59.24-114,124.52-114h143.83c65.28,0,118.95,50.154,124.52,114h24.55c46.23,0,86.63,25.149,108.25,62.5h26.77c56.52,0,104.34,37.601,119.77,89.135ZM301.932,2308.73h-603.864c-94.261,0-170.789-76.53-170.789-170.79c0-57.49,28.469-108.39,72.068-139.35c2.379-92.03,77.712-166.04,170.254-166.3c26.714-59.49,86.496-100.96,155.889-100.96h80.15c69.392,0,129.174,41.47,155.889,100.96h40.584c87.118,0,159.09,65.37,169.496,149.7c59.57,26.68,101.112,86.5,101.112,155.95c0,94.26-76.528,170.79-170.789,170.79ZM334.5,575h-669c-68.989,0-125-56.011-125-125c0-55.346,36.048-102.339,85.925-118.761-.102-2.067-.153-4.147-.153-6.239c0-60.402,42.934-110.855,99.923-122.479-.017-.839-.025-1.679-.025-2.521c0-68.989,56.01-125,125-125L-5,75c1.675,0,3.341.033,5,.098C66.675,77.727,120,132.685,120,200h73.237c68.99,0,125,56.011,125,125h16.263c68.989,0,125,56.011,125,125s-56.011,125-125,125Zm-72.71,775.66h-523.58c-41.118,0-74.5-33.38-74.5-74.5s33.382-74.5,74.5-74.5h3.973c-8.613-16.96-13.469-36.15-13.469-56.47c0-68.99,56.01-125,125-125h24.661c.379,0,.758.01,1.136.01c20.639-40.655,62.856-68.54,111.534-68.54h58.661c68.99,0,125,56.01,125,125c0,1.98-.046,3.95-.137,5.9c50.417,16.11,86.968,63.37,86.968,119.1h.253c41.118,0,74.5,33.38,74.5,74.5s-33.382,74.5-74.5,74.5ZM979.427,3000c15.43-51.53,63.243-89.13,119.773-89.13h26.76c21.63-37.36,62.03-62.5,108.25-62.5h24.55c5.58-63.85,59.24-114,124.52-114h143.83c65.28,0,118.95,50.15,124.52,114h24.55c46.23,0,86.63,25.14,108.25,62.5h26.77c56.52,0,104.34,37.6,119.77,89.13h-951.543ZM3000,2308.73h-301.93c-94.26,0-170.79-76.53-170.79-170.79c0-57.49,28.47-108.39,72.07-139.35c2.38-92.03,77.71-166.04,170.25-166.3c26.72-59.49,86.5-100.96,155.89-100.96h74.51v577.4Zm0-958.07h-261.79c-41.12,0-74.5-33.38-74.5-74.5s33.38-74.5,74.5-74.5h3.97c-8.61-16.96-13.47-36.15-13.47-56.47c0-68.99,56.01-125,125-125h24.67c.37,0,.75.01,1.13.01c20.64-40.655,62.86-68.54,111.54-68.54h8.95v399ZM3000,575h-334.5c-68.99,0-125-56.011-125-125c0-55.346,36.05-102.339,85.93-118.761-.11-2.067-.16-4.147-.16-6.239c0-60.402,42.94-110.855,99.93-122.479-.02-.839-.03-1.679-.03-2.521c0-68.989,56.01-125,125-125h143.83c1.68,0,3.34.033,5,.098v499.902ZM1239.8,2229.26c-.11-2.06-.16-4.14-.16-6.23c0-60.41,42.94-110.86,99.93-122.48-.02-.84-.03-1.68-.03-2.52c0-68.99,56.01-125,125-125h143.83c68.99,0,125,56.01,125,125h73.24c68.99,0,125,56,125,125h16.26c68.99,0,125,56,125,125c0,68.98-56.01,125-125,125h-669c-68.99,0-125-56.02-125-125c0-55.35,36.05-102.34,85.93-118.77Zm231.51-964.28c16.65,5.48,28.69,21.17,28.69,39.65c0,23.04-18.7,41.74-41.74,41.74h-223.38c-23.03,0-41.74-18.7-41.74-41.74c0-23.03,18.71-41.74,41.74-41.74h5.43c0-23.03,18.71-41.73,41.74-41.73h24.46c0-23.04,18.7-41.74,41.73-41.74h48.03c23.03,0,41.74,18.7,41.74,41.74c0,.28-.01.56-.01.84c19.03,3.88,33.36,20.73,33.36,40.89c0,.7-.02,1.4-.05,2.09ZM905.012,321.654c21.294,9.538,36.144,30.923,36.144,55.748c0,33.695-27.356,61.052-61.051,61.052h-215.86c-33.695,0-61.051-27.357-61.051-61.052c0-20.551,10.177-38.744,25.762-49.811.85-32.898,27.779-59.356,60.859-59.446c9.55-21.266,30.92-36.092,55.725-36.092h28.651c24.805,0,46.175,14.826,55.725,36.092h14.507c31.142,0,56.869,23.367,60.589,53.509ZM2122.56,2656.48c7.62-61.72,60.29-109.56,124.05-109.56h29.71c19.55-43.54,63.3-73.89,114.09-73.89h58.66c50.79,0,94.54,30.35,114.1,73.89c67.73.19,122.86,54.36,124.61,121.72c31.9,22.65,52.74,59.9,52.74,101.98c0,68.99-56.01,125-125,125h-441.97c-68.98,0-125-56.01-125-125c0-50.83,30.41-94.61,74.01-114.14Zm258.99-662.24c21.78,9.75,36.96,31.62,36.96,57.01c0,34.46-27.98,62.44-62.44,62.44h-220.76c-34.46,0-62.44-27.98-62.44-62.44c0-21.02,10.41-39.63,26.35-50.94.87-33.65,28.41-60.71,62.24-60.8c9.77-21.75,31.62-36.91,56.99-36.91h29.3c25.37,0,47.23,15.16,56.99,36.91h14.84c31.85,0,58.16,23.9,61.97,54.73Zm-617.68-666.58c21.62-37.35,62.02-62.5,108.25-62.5h24.55c5.58-63.85,59.24-114,124.52-114h143.83c65.28,0,118.94,50.15,124.52,114h24.55c46.23,0,86.63,25.15,108.25,62.5h26.76c63.78,0,116.46,47.86,124.06,109.59c52.26,14.97,90.55,63.14,90.55,120.18c0,68.99-56.01,125-125,125h-712c-63.77,0-116.45-47.86-124.06-109.59-52.26-14.97-90.55-63.14-90.55-120.18c0-68.99,56.02-125,125-125h26.77Zm-468.32,250.53h24.48c63.08,0,114.3,51.22,114.3,114.3c0,52.16-35.02,96.21-82.8,109.9-6.96,56.45-55.13,100.21-113.44,100.21h-651.067c-63.085,0-114.302-51.22-114.302-114.3c0-52.16,35.014-96.21,82.799-109.9c6.954-56.45,55.127-100.21,113.44-100.21h24.472c19.775-34.15,56.718-57.15,98.99-57.15h22.445c5.1-58.38,54.169-104.24,113.865-104.24h131.518c59.7,0,108.77,45.86,113.87,104.24h22.44c42.28,0,79.22,23,98.99,57.15ZM2420.47,290.568h10.33c26.65,0,48.29,21.636,48.29,48.286c0,22.034-14.79,40.641-34.98,46.425-2.93,23.845-23.28,42.332-47.92,42.332h-275.03c-26.65,0-48.29-21.636-48.29-48.286c0-22.034,14.79-40.641,34.98-46.425c2.94-23.845,23.29-42.332,47.92-42.332h10.34c8.35-14.428,23.96-24.142,41.82-24.142h9.48c2.15-24.663,22.88-44.037,48.1-44.037h55.56c25.21,0,45.94,19.374,48.1,44.037h9.48c17.86,0,33.46,9.714,41.82,24.142ZM789.344,2656.48c43.599,19.53,74.003,63.31,74.003,114.14c0,68.99-56.01,125-125,125h-441.965c-68.99,0-125-56.01-125-125c0-42.08,20.836-79.33,52.746-101.98c1.741-67.36,56.877-121.53,124.608-121.72c19.552-43.54,63.307-73.89,114.095-73.89h58.661c50.788,0,94.543,30.35,114.095,73.89h29.703c63.762,0,116.437,47.84,124.054,109.56Zm-78.39-423.2c3.72-30.14,29.448-53.51,60.589-53.51h14.508c9.549-21.27,30.919-36.09,55.724-36.09h28.651c24.805,0,46.175,14.82,55.725,36.09c33.08.09,60.009,26.55,60.86,59.44c15.589,11.07,25.759,29.26,25.759,49.82c0,33.69-27.354,61.05-61.049,61.05h-215.859c-33.695,0-61.052-27.36-61.052-61.05c0-24.83,14.85-46.21,36.144-55.75ZM667.918,820.708c-.159-2.454-.24-4.93-.24-7.424C667.678,750.761,718.439,700,780.962,700h54.301c0-68.989,56.01-125,125-125h211.657c48.82,0,91.14,28.042,111.71,68.882c65.24,4.155,116.95,58.459,116.95,124.744c0,5.521-.36,10.958-1.05,16.291c57.26,11.411,100.47,61.994,100.47,122.59c0,68.99-56.01,125.003-125,125.003h-675.991c-59.701,0-108.171-48.472-108.171-108.173c0-48.896,32.513-90.258,77.08-103.629ZM1815.05,776.975c-8.61-16.964-13.46-36.152-13.46-56.465c0-68.99,56.01-125,125-125h24.66c.38,0,.75.001,1.13.005c20.64-40.654,62.86-68.54,111.54-68.54h58.66c68.99,0,125,56.011,125,125c0,1.978-.05,3.946-.14,5.901c50.42,16.108,86.97,63.369,86.97,119.099h.25c41.12,0,74.5,33.383,74.5,74.5c0,41.118-33.38,74.5-74.5,74.5h-523.58c-41.12,0-74.5-33.382-74.5-74.5c0-41.117,33.38-74.5,74.5-74.5h3.97ZM-3000,1731.33h5.64c69.39,0,129.17,41.47,155.89,100.96h40.58c87.12,0,159.09,65.37,169.5,149.7c59.57,26.68,101.11,86.5,101.11,155.95c0,94.26-76.53,170.79-170.79,170.79h-301.93v-577.4ZM-2020.57,3000c15.43-51.53,63.24-89.13,119.77-89.13h26.76c21.63-37.36,62.03-62.5,108.25-62.5h24.55c5.58-63.85,59.24-114,124.52-114h143.83c65.28,0,118.95,50.15,124.52,114h24.55c46.23,0,86.63,25.14,108.25,62.5h26.77c56.52,0,104.34,37.6,119.77,89.13h-951.54ZM-3000,75.098c66.67,2.629,120,57.587,120,124.902h73.24c68.99,0,125,56.011,125,125h16.26c68.99,0,125,56.011,125,125s-56.01,125-125,125h-334.5v-499.902Zm0,876.562h49.71c68.99,0,125,56.01,125,125c0,1.98-.05,3.95-.14,5.9c50.42,16.11,86.97,63.37,86.97,119.1h.25c41.12,0,74.5,33.38,74.5,74.5s-33.38,74.5-74.5,74.5h-261.79v-399Zm1239.8,1277.6c-.11-2.06-.16-4.14-.16-6.23c0-60.41,42.94-110.86,99.93-122.48-.02-.84-.03-1.68-.03-2.52c0-68.99,56.01-125,125-125h143.83c68.99,0,125,56.01,125,125h73.24c68.99,0,125,56,125,125h16.26c68.991,0,125.001,56,125.001,125c0,68.98-56.01,125-125.001,125h-669c-68.99,0-125-56.02-125-125c0-55.35,36.05-102.34,85.93-118.77Zm231.51-964.28c16.65,5.48,28.69,21.17,28.69,39.65c0,23.04-18.7,41.74-41.74,41.74h-223.38c-23.03,0-41.74-18.7-41.74-41.74c0-23.03,18.71-41.74,41.74-41.74h5.43c0-23.03,18.7-41.73,41.74-41.73h24.45c0-23.04,18.71-41.74,41.74-41.74h48.03c23.03,0,41.73,18.7,41.73,41.74c0,.28,0,.56,0,.84c19.02,3.88,33.36,20.73,33.36,40.89c0,.7-.02,1.4-.05,2.09Zm-566.3-943.326c21.3,9.538,36.15,30.923,36.15,55.748c0,33.695-27.36,61.052-61.05,61.052h-215.87c-33.69,0-61.05-27.357-61.05-61.052c0-20.551,10.18-38.744,25.77-49.811.85-32.898,27.78-59.356,60.86-59.446c9.54-21.266,30.92-36.092,55.72-36.092h28.65c24.81,0,46.18,14.826,55.73,36.092h14.5c31.15,0,56.87,23.367,60.59,53.509ZM-877.442,2656.48c7.617-61.72,60.293-109.56,124.054-109.56h29.704c19.552-43.54,63.306-73.89,114.094-73.89h58.662c50.788,0,94.542,30.35,114.094,73.89c67.732.19,122.867,54.36,124.609,121.72c31.909,22.65,52.746,59.9,52.746,101.98c0,68.99-56.011,125-125,125h-441.966c-68.989,0-125-56.01-125-125c0-50.83,30.405-94.61,74.003-114.14Zm258.989-662.24c21.778,9.75,36.965,31.62,36.965,57.01c0,34.46-27.978,62.44-62.438,62.44h-220.764c-34.461,0-62.439-27.98-62.439-62.44c0-21.02,10.408-39.63,26.347-50.94.87-33.65,28.411-60.71,62.243-60.8c9.766-21.75,31.622-36.91,56.991-36.91h29.302c25.369,0,47.224,15.16,56.99,36.91h14.837c31.85,0,58.161,23.9,61.966,54.73Zm-617.677-666.58c21.62-37.35,62.02-62.5,108.25-62.5h24.55c5.57-63.85,59.24-114,124.519-114h143.83c65.283,0,118.945,50.15,124.522,114h24.546c46.228,0,86.629,25.15,108.255,62.5h26.762c63.771,0,116.453,47.86,124.057,109.59c52.258,14.97,90.549,63.14,90.549,120.18c0,68.99-56.011,125-125,125h-712c-63.77,0-116.45-47.86-124.06-109.59-52.26-14.97-90.55-63.14-90.55-120.18c0-68.99,56.02-125,125-125h26.77Zm-468.32,250.53h24.47c63.09,0,114.31,51.22,114.31,114.3c0,52.16-35.02,96.21-82.8,109.9-6.96,56.45-55.13,100.21-113.44,100.21h-651.07c-63.08,0-114.3-51.22-114.3-114.3c0-52.16,35.02-96.21,82.8-109.9c6.95-56.45,55.13-100.21,113.44-100.21h24.47c19.78-34.15,56.72-57.15,98.99-57.15h22.45c5.1-58.38,54.17-104.24,113.86-104.24h131.52c59.7,0,108.77,45.86,113.87,104.24h22.44c42.28,0,79.22,23,98.99,57.15ZM-579.533,290.568h10.338c26.649,0,48.285,21.636,48.285,48.286c0,22.034-14.791,40.641-34.977,46.425-2.938,23.845-23.288,42.332-47.922,42.332h-275.034c-26.65,0-48.286-21.636-48.286-48.286c0-22.034,14.791-40.641,34.978-46.425c2.937-23.845,23.287-42.332,47.921-42.332h10.338c8.354-14.428,23.96-24.142,41.817-24.142h9.482c2.154-24.663,22.883-44.037,48.101-44.037h55.559c25.218,0,45.946,19.374,48.101,44.037h9.482c17.857,0,33.463,9.714,41.817,24.142ZM-2210.66,2656.48c43.6,19.53,74.01,63.31,74.01,114.14c0,68.99-56.01,125-125,125h-441.97c-68.99,0-125-56.01-125-125c0-42.08,20.84-79.33,52.75-101.98c1.74-67.36,56.88-121.53,124.61-121.72c19.55-43.54,63.3-73.89,114.09-73.89h58.66c50.79,0,94.54,30.35,114.1,73.89h29.7c63.76,0,116.44,47.84,124.05,109.56Zm-78.39-423.2c3.72-30.14,29.45-53.51,60.59-53.51h14.51c9.55-21.27,30.92-36.09,55.73-36.09h28.65c24.8,0,46.17,14.82,55.72,36.09c33.08.09,60.01,26.55,60.86,59.44c15.59,11.07,25.76,29.26,25.76,49.82c0,33.69-27.35,61.05-61.05,61.05h-215.86c-33.69,0-61.05-27.36-61.05-61.05c0-24.83,14.85-46.21,36.14-55.75Zm-43.03-1412.572c-.16-2.454-.24-4.93-.24-7.424c0-62.523,50.76-113.284,113.28-113.284h54.3c0-68.989,56.01-125,125-125h211.66c48.82,0,91.14,28.042,111.71,68.882c65.24,4.155,116.95,58.459,116.95,124.744c0,5.521-.36,10.958-1.05,16.291c57.26,11.411,100.47,61.994,100.47,122.59c0,68.99-56.01,125.003-125,125.003h-675.99c-59.7,0-108.17-48.472-108.17-108.173c0-48.896,32.51-90.258,77.08-103.629Zm1147.13-43.733c-8.61-16.964-13.46-36.152-13.46-56.465c0-68.99,56.01-125,125-125h24.66c.38,0,.75.001,1.13.005c20.64-40.654,62.858-68.54,111.536-68.54h58.662c68.989,0,125,56.011,125,125c0,1.978-.046,3.946-.137,5.901c50.416,16.108,86.967,63.369,86.967,119.099h.254c41.117,0,74.5,33.383,74.5,74.5c0,41.118-33.383,74.5-74.5,74.5h-523.582c-41.12,0-74.5-33.382-74.5-74.5c0-41.117,33.38-74.5,74.5-74.5h3.97ZM301.932,-691.272h-603.864c-94.261,0-170.789-76.528-170.789-170.789c0-57.493,28.469-108.388,72.068-139.349c2.379-92.03,77.712-166.04,170.254-166.3c26.714-59.49,86.496-100.96,155.889-100.96h80.15c69.392,0,129.174,41.47,155.889,100.96h40.584c87.118,0,159.09,65.37,169.496,149.7c59.57,26.677,101.112,86.5,101.112,155.949c0,94.261-76.528,170.789-170.789,170.789ZM334.5,-2425h-669c-68.989,0-125-56.01-125-125c0-55.35,36.048-102.34,85.925-118.76-.102-2.07-.153-4.15-.153-6.24c0-60.4,42.934-110.86,99.923-122.48-.017-.84-.025-1.68-.025-2.52c0-68.99,56.01-125,125-125h143.83c1.675,0,3.341.03,5,.1c66.675,2.63,120,57.58,120,124.9h73.237c68.99,0,125,56.01,125,125h16.263c68.989,0,125,56.01,125,125s-56.011,125-125,125Zm-72.71,775.66h-523.58c-41.118,0-74.5-33.38-74.5-74.5s33.382-74.5,74.5-74.5h3.973c-8.613-16.96-13.469-36.15-13.469-56.47c0-68.99,56.01-125,125-125h24.661c.379,0,.758.01,1.136.01c20.639-40.66,62.856-68.54,111.534-68.54h58.661c68.99,0,125,56.01,125,125c0,1.98-.046,3.95-.137,5.9c50.417,16.11,86.968,63.37,86.968,119.1h.253c41.118,0,74.5,33.38,74.5,74.5s-33.382,74.5-74.5,74.5ZM3000,-691.272h-301.93c-94.26,0-170.79-76.528-170.79-170.789c0-57.493,28.47-108.388,72.07-139.349c2.38-92.03,77.71-166.04,170.25-166.3c26.72-59.49,86.5-100.96,155.89-100.96h74.51v577.398Zm0-958.068h-261.79c-41.12,0-74.5-33.38-74.5-74.5s33.38-74.5,74.5-74.5h3.97c-8.61-16.96-13.47-36.15-13.47-56.47c0-68.99,56.01-125,125-125h24.67c.37,0,.75.01,1.13.01c20.64-40.66,62.86-68.54,111.54-68.54h8.95v399Zm0-775.66h-334.5c-68.99,0-125-56.01-125-125c0-55.35,36.05-102.34,85.93-118.76-.11-2.07-.16-4.15-.16-6.24c0-60.4,42.94-110.86,99.93-122.48-.02-.84-.03-1.68-.03-2.52c0-68.99,56.01-125,125-125h143.83c1.68,0,3.34.03,5,.1v499.9Zm-1069.03-575c1.97,6.61,3.42,13.44,4.28,20.45c52.26,14.97,90.55,63.14,90.55,120.18c0,68.99-56.01,125-125,125h-712c-63.77,0-116.45-47.85-124.05-109.58-52.26-14.98-90.553-63.14-90.553-120.19c0-12.46,1.828-24.5,5.23-35.86h951.543ZM1239.8,-770.736c-.11-2.067-.16-4.147-.16-6.239c0-60.402,42.94-110.855,99.93-122.48-.02-.838-.03-1.678-.03-2.52c0-68.99,56.01-124.995,125-124.995h143.83c68.99,0,125,56.005,125,124.995h73.24c68.99,0,125,56.01,125,125h16.26c68.99,0,125,56.01,125,125c0,68.989-56.01,125-125,125h-669c-68.99,0-125-56.011-125-125c0-55.346,36.05-102.339,85.93-118.761Zm231.51-964.284c16.65,5.48,28.69,21.17,28.69,39.65c0,23.04-18.7,41.74-41.74,41.74h-223.38c-23.03,0-41.74-18.7-41.74-41.74c0-23.03,18.71-41.74,41.74-41.74h5.43c0-23.03,18.71-41.73,41.74-41.73h24.46c0-23.04,18.7-41.74,41.73-41.74h48.03c23.03,0,41.74,18.7,41.74,41.74c0,.28-.01.56-.01.84c19.03,3.88,33.36,20.73,33.36,40.89c0,.7-.02,1.4-.05,2.09Zm-566.298-943.33c21.294,9.54,36.144,30.93,36.144,55.75c0,33.7-27.356,61.05-61.051,61.05h-215.86c-33.695,0-61.051-27.35-61.051-61.05c0-20.55,10.177-38.74,25.762-49.81.85-32.9,27.779-59.35,60.859-59.45c9.55-21.26,30.92-36.09,55.725-36.09h28.651c24.805,0,46.175,14.83,55.725,36.09h14.507c31.142,0,56.869,23.37,60.589,53.51ZM2122.56,-343.519c7.62-61.716,60.29-109.56,124.05-109.56h29.71c19.55-43.542,63.3-73.896,114.09-73.896h58.66c50.79,0,94.54,30.355,114.1,73.896c67.73.186,122.86,54.357,124.61,121.715c31.9,22.658,52.74,59.908,52.74,101.987c0,68.989-56.01,125-125,125h-441.97c-68.98,0-125-56.011-125-125c0-50.83,30.41-94.614,74.01-114.142Zm258.99-662.241c21.78,9.75,36.96,31.621,36.96,57.01c0,34.461-27.98,62.438-62.44,62.438h-220.76c-34.46,0-62.44-27.977-62.44-62.438c0-21.018,10.41-39.625,26.35-50.943.87-33.647,28.41-60.707,62.24-60.797c9.77-21.75,31.62-36.91,56.99-36.91h29.3c25.37,0,47.23,15.16,56.99,36.91h14.84c31.85,0,58.16,23.9,61.97,54.73Zm-617.68-666.58c21.62-37.35,62.02-62.5,108.25-62.5h24.55c5.58-63.85,59.24-114,124.52-114h143.83c65.28,0,118.94,50.15,124.52,114h24.55c46.23,0,86.63,25.15,108.25,62.5h26.76c63.78,0,116.46,47.86,124.06,109.59c52.26,14.97,90.55,63.14,90.55,120.18c0,68.99-56.01,125-125,125h-712c-63.77,0-116.45-47.86-124.06-109.59-52.26-14.97-90.55-63.14-90.55-120.18c0-68.99,56.02-125,125-125h26.77Zm-468.32,250.53h24.48c63.08,0,114.3,51.22,114.3,114.3c0,52.16-35.02,96.21-82.8,109.9-6.96,56.45-55.13,100.21-113.44,100.21h-651.067c-63.085,0-114.302-51.22-114.302-114.3c0-52.16,35.014-96.21,82.799-109.9c6.954-56.45,55.127-100.21,113.44-100.21h24.472c19.775-34.15,56.718-57.15,98.99-57.15h22.445c5.1-58.38,54.169-104.24,113.865-104.24h131.518c59.7,0,108.77,45.86,113.87,104.24h22.44c42.28,0,79.22,23,98.99,57.15Zm1124.92-1287.62h10.33c26.65,0,48.29,21.63,48.29,48.28c0,22.04-14.79,40.64-34.98,46.43-2.93,23.84-23.28,42.33-47.92,42.33h-275.03c-26.65,0-48.29-21.64-48.29-48.29c0-22.03,14.79-40.64,34.98-46.42c2.94-23.85,23.29-42.33,47.92-42.33h10.34c8.35-14.43,23.96-24.14,41.82-24.14h9.48c2.15-24.67,22.88-44.04,48.1-44.04h55.56c25.21,0,45.94,19.37,48.1,44.04h9.48c17.86,0,33.46,9.71,41.82,24.14ZM789.344,-343.519c43.599,19.528,74.003,63.312,74.003,114.142c0,68.989-56.01,125-125,125h-441.965c-68.99,0-125-56.011-125-125c0-42.079,20.836-79.329,52.746-101.987c1.741-67.358,56.877-121.529,124.608-121.715c19.552-43.541,63.307-73.896,114.095-73.896h58.661c50.788,0,94.543,30.354,114.095,73.896h29.703c63.762,0,116.437,47.844,124.054,109.56Zm-78.39-423.204c3.72-30.142,29.448-53.51,60.589-53.51h14.508c9.549-21.266,30.919-36.091,55.724-36.091h28.651c24.805,0,46.175,14.826,55.725,36.092c33.08.09,60.009,26.548,60.86,59.446c15.589,11.066,25.759,29.26,25.759,49.811c0,33.695-27.354,61.051-61.049,61.051h-215.859c-33.695,0-61.052-27.356-61.052-61.051c0-24.825,14.85-46.21,36.144-55.748ZM667.918,-2179.29c-.159-2.46-.24-4.93-.24-7.43c0-62.52,50.761-113.28,113.284-113.28h54.301c0-68.99,56.01-125,125-125h211.657c48.82,0,91.14,28.04,111.71,68.88c65.24,4.16,116.95,58.46,116.95,124.75c0,5.52-.36,10.95-1.05,16.29c57.26,11.41,100.47,61.99,100.47,122.59c0,68.99-56.01,125-125,125h-675.991c-59.701,0-108.171-48.47-108.171-108.17c0-48.9,32.513-90.26,77.08-103.63Zm1147.132-43.74c-8.61-16.96-13.46-36.15-13.46-56.46c0-68.99,56.01-125,125-125h24.66c.38,0,.75,0,1.13,0c20.64-40.65,62.86-68.54,111.54-68.54h58.66c68.99,0,125,56.02,125,125c0,1.98-.05,3.95-.14,5.91c50.42,16.1,86.97,63.36,86.97,119.09h.25c41.12,0,74.5,33.39,74.5,74.5c0,41.12-33.38,74.5-74.5,74.5h-523.58c-41.12,0-74.5-33.38-74.5-74.5c0-41.11,33.38-74.5,74.5-74.5h3.97ZM-3000,-1268.67h5.64c69.39,0,129.17,41.47,155.89,100.96h40.58c87.12,0,159.09,65.37,169.5,149.7c59.57,26.677,101.11,86.5,101.11,155.949c0,94.261-76.53,170.789-170.79,170.789h-301.93v-577.398ZM-1069.03,-3000c1.97,6.61,3.42,13.44,4.28,20.45c52.26,14.97,90.553,63.14,90.553,120.18c0,68.99-56.013,125-125.003,125h-712c-63.77,0-116.45-47.85-124.05-109.58-52.26-14.98-90.55-63.14-90.55-120.19c0-12.46,1.82-24.5,5.23-35.86h951.54ZM-3000,-2924.9c66.67,2.63,120,57.58,120,124.9h73.24c68.99,0,125,56.01,125,125h16.26c68.99,0,125,56.01,125,125s-56.01,125-125,125h-334.5v-499.9Zm0,876.56h49.71c68.99,0,125,56.01,125,125c0,1.98-.05,3.95-.14,5.9c50.42,16.11,86.97,63.37,86.97,119.1h.25c41.12,0,74.5,33.38,74.5,74.5s-33.38,74.5-74.5,74.5h-261.79v-399Zm1239.8,1277.604c-.11-2.067-.16-4.147-.16-6.239c0-60.402,42.94-110.855,99.93-122.48-.02-.838-.03-1.678-.03-2.52c0-68.99,56.01-124.995,125-124.995h143.83c68.99,0,125,56.005,125,124.995h73.24c68.99,0,125,56.01,125,125h16.26c68.991,0,125.001,56.01,125.001,125c0,68.989-56.01,125-125.001,125h-669c-68.99,0-125-56.011-125-125c0-55.346,36.05-102.339,85.93-118.761Zm231.51-964.284c16.65,5.48,28.69,21.17,28.69,39.65c0,23.04-18.7,41.74-41.74,41.74h-223.38c-23.03,0-41.74-18.7-41.74-41.74c0-23.03,18.71-41.74,41.74-41.74h5.43c0-23.03,18.7-41.73,41.74-41.73h24.45c0-23.04,18.71-41.74,41.74-41.74h48.03c23.03,0,41.73,18.7,41.73,41.74c0,.28,0,.56,0,.84c19.02,3.88,33.36,20.73,33.36,40.89c0,.7-.02,1.4-.05,2.09Zm-566.3-943.33c21.3,9.54,36.15,30.93,36.15,55.75c0,33.7-27.36,61.05-61.05,61.05h-215.87c-33.69,0-61.05-27.35-61.05-61.05c0-20.55,10.18-38.74,25.77-49.81.85-32.9,27.78-59.35,60.86-59.45c9.54-21.26,30.92-36.09,55.72-36.09h28.65c24.81,0,46.18,14.83,55.73,36.09h14.5c31.15,0,56.87,23.37,60.59,53.51ZM-877.442,-343.519c7.617-61.716,60.293-109.56,124.054-109.56h29.704c19.552-43.542,63.306-73.896,114.094-73.896h58.662c50.788,0,94.542,30.355,114.094,73.896c67.732.186,122.867,54.357,124.609,121.715c31.909,22.658,52.746,59.908,52.746,101.987c0,68.989-56.011,125-125,125h-441.966c-68.989,0-125-56.011-125-125c0-50.83,30.405-94.614,74.003-114.142Zm258.989-662.241c21.778,9.75,36.965,31.621,36.965,57.01c0,34.461-27.978,62.438-62.438,62.438h-220.764c-34.461,0-62.439-27.977-62.439-62.438c0-21.018,10.408-39.625,26.347-50.943.87-33.647,28.411-60.707,62.243-60.797c9.766-21.75,31.622-36.91,56.991-36.91h29.302c25.369,0,47.224,15.16,56.99,36.91h14.837c31.85,0,58.161,23.9,61.966,54.73Zm-617.677-666.58c21.62-37.35,62.02-62.5,108.25-62.5h24.55c5.57-63.85,59.24-114,124.519-114h143.83c65.283,0,118.945,50.15,124.522,114h24.546c46.228,0,86.629,25.15,108.255,62.5h26.762c63.771,0,116.453,47.86,124.057,109.59c52.258,14.97,90.549,63.14,90.549,120.18c0,68.99-56.011,125-125,125h-712c-63.77,0-116.45-47.86-124.06-109.59-52.26-14.97-90.55-63.14-90.55-120.18c0-68.99,56.02-125,125-125h26.77Zm-468.32,250.53h24.47c63.09,0,114.31,51.22,114.31,114.3c0,52.16-35.02,96.21-82.8,109.9-6.96,56.45-55.13,100.21-113.44,100.21h-651.07c-63.08,0-114.3-51.22-114.3-114.3c0-52.16,35.02-96.21,82.8-109.9c6.95-56.45,55.13-100.21,113.44-100.21h24.47c19.78-34.15,56.72-57.15,98.99-57.15h22.45c5.1-58.38,54.17-104.24,113.86-104.24h131.52c59.7,0,108.77,45.86,113.87,104.24h22.44c42.28,0,79.22,23,98.99,57.15Zm1124.917-1287.62h10.338c26.649,0,48.285,21.63,48.285,48.28c0,22.04-14.791,40.64-34.977,46.43-2.938,23.84-23.288,42.33-47.922,42.33h-275.034c-26.65,0-48.286-21.64-48.286-48.29c0-22.03,14.791-40.64,34.978-46.42c2.937-23.85,23.287-42.33,47.921-42.33h10.338c8.354-14.43,23.96-24.14,41.817-24.14h9.482c2.154-24.67,22.883-44.04,48.101-44.04h55.559c25.218,0,45.946,19.37,48.101,44.04h9.482c17.857,0,33.463,9.71,41.817,24.14ZM-2210.66,-343.519c43.6,19.528,74.01,63.312,74.01,114.142c0,68.989-56.01,125-125,125h-441.97c-68.99,0-125-56.011-125-125c0-42.079,20.84-79.329,52.75-101.987c1.74-67.358,56.88-121.529,124.61-121.715c19.55-43.541,63.3-73.896,114.09-73.896h58.66c50.79,0,94.54,30.354,114.1,73.896h29.7c63.76,0,116.44,47.844,124.05,109.56Zm-78.39-423.204c3.72-30.142,29.45-53.51,60.59-53.51h14.51c9.55-21.266,30.92-36.091,55.73-36.091h28.65c24.8,0,46.17,14.826,55.72,36.092c33.08.09,60.01,26.548,60.86,59.446c15.59,11.066,25.76,29.26,25.76,49.811c0,33.695-27.35,61.051-61.05,61.051h-215.86c-33.69,0-61.05-27.356-61.05-61.051c0-24.825,14.85-46.21,36.14-55.748Zm-43.03-1412.567c-.16-2.46-.24-4.93-.24-7.43c0-62.52,50.76-113.28,113.28-113.28h54.3c0-68.99,56.01-125,125-125h211.66c48.82,0,91.14,28.04,111.71,68.88c65.24,4.16,116.95,58.46,116.95,124.75c0,5.52-.36,10.95-1.05,16.29c57.26,11.41,100.47,61.99,100.47,122.59c0,68.99-56.01,125-125,125h-675.99c-59.7,0-108.17-48.47-108.17-108.17c0-48.9,32.51-90.26,77.08-103.63Zm1147.13-43.74c-8.61-16.96-13.46-36.15-13.46-56.46c0-68.99,56.01-125,125-125h24.66c.38,0,.75,0,1.13,0c20.64-40.65,62.858-68.54,111.536-68.54h58.662c68.989,0,125,56.02,125,125c0,1.98-.046,3.95-.137,5.91c50.416,16.1,86.967,63.36,86.967,119.09h.254c41.117,0,74.5,33.39,74.5,74.5c0,41.12-33.383,74.5-74.5,74.5h-523.582c-41.12,0-74.5-33.38-74.5-74.5c0-41.11,33.38-74.5,74.5-74.5h3.97Z" clip-rule="evenodd" fill="#fff" fill-rule="evenodd" stroke-linejoin="round" stroke-miterlimit="2"/></g></g><g id="edLHyW0b9Ax11_to" transform="translate(42.621799,62.335988)"><g transform="scale(0.950104,1.02417) translate(0,0)" clip-rule="evenodd"><g transform="matrix(1.22681 0 0 1.22681 333.707001-70.661499)" clip-rule="evenodd"><g transform="matrix(2.91968 1.45984 0 10.4117-3537.090088-13885.5)" clip-rule="evenodd"><rect width="27" height="27.202" rx="0" ry="0" transform="translate(1544 1299.300049)" clip-rule="evenodd" fill="#f9a02b" fill-rule="evenodd" stroke-linejoin="round" stroke-miterlimit="2"/></g><g transform="matrix(5.83937-2.91968 0 10.4117-7966.25-7084.129883)" clip-rule="evenodd"><rect width="27" height="27.552999" rx="0" ry="0" transform="translate(1544 1298.949951)" clip-rule="evenodd" fill="#9c5b24" fill-rule="evenodd" stroke-linejoin="round" stroke-miterlimit="2"/></g><g transform="matrix(35.036201-17.518101 11.8991 5.94954-69224.5 20389.5)" clip-rule="evenodd"><rect width="27" height="26.5" rx="0" ry="0" transform="translate(1544 1300)" clip-rule="evenodd" fill="#ffec1d" fill-rule="evenodd" stroke-linejoin="round" stroke-miterlimit="2"/></g><g transform="matrix(17.518101-8.75905 1.48739 0.743693-28326 13554.299805)" clip-rule="evenodd"><rect width="27" height="26.5" rx="0" ry="0" transform="translate(1544 1300)" clip-rule="evenodd" fill="#f9a02b" fill-rule="evenodd" stroke-linejoin="round" stroke-miterlimit="2"/></g><g transform="matrix(17.518101-8.75905 1.48739 0.743693-28207.699219 13613.400391)" clip-rule="evenodd"><rect width="27" height="26.5" rx="0" ry="0" transform="translate(1544 1300)" clip-rule="evenodd" fill="#f9a02b" fill-rule="evenodd" stroke-linejoin="round" stroke-miterlimit="2"/></g><g transform="matrix(11.678701 5.83937 0 11.899101-17691.699219-23408.900391)" clip-rule="evenodd"><path d="M1550.75,1300h13.5v-6.62h6.75v33.12h-27v-33.12h6.75v6.62Z" clip-rule="evenodd" fill="#f9a02b" fill-rule="evenodd" stroke-linejoin="round" stroke-miterlimit="2"/></g><g transform="matrix(5.83937 2.91968 0 4.462161-8360.410156-8917.530273)" clip-rule="evenodd"><rect width="27" height="26.5" rx="0" ry="0" transform="translate(1544 1300)" clip-rule="evenodd" fill="#ed8907" fill-rule="evenodd" stroke-linejoin="round" stroke-miterlimit="2"/></g><g transform="matrix(4.37953 2.18976 0 11.899101-5830.5-17281.199219)" clip-rule="evenodd"><rect width="27" height="26.5" rx="0" ry="0" transform="translate(1544 1300)" clip-rule="evenodd" fill="#ed8907" fill-rule="evenodd" stroke-linejoin="round" stroke-miterlimit="2"/></g><g transform="matrix(2.91968 1.45984 0 5.94954-3655.340088-8498.589844)" clip-rule="evenodd"><rect width="27" height="26.5" rx="0" ry="0" transform="translate(1544 1300)" clip-rule="evenodd" fill="#ed8907" fill-rule="evenodd" stroke-linejoin="round" stroke-miterlimit="2"/></g><g transform="matrix(5.83937 2.91968 0 5.94954-8715.150391-10989.099609)" clip-rule="evenodd"><rect width="27" height="26.5" rx="0" ry="0" transform="translate(1544 1300)" clip-rule="evenodd" fill="#f9a02b" fill-rule="evenodd" stroke-linejoin="round" stroke-miterlimit="2"/></g><g transform="matrix(11.678701 5.83937 0 2.97477-16824.599609-12319.599609)" clip-rule="evenodd"><rect width="27" height="26.5" rx="0" ry="0" transform="translate(1544 1300)" clip-rule="evenodd" fill="#f9a02b" fill-rule="evenodd" stroke-linejoin="round" stroke-miterlimit="2"/></g><g transform="matrix(2.91968 1.45984 0 2.97477-4285.990234-4749.640137)" clip-rule="evenodd"><rect width="27" height="26.5" rx="0" ry="0" transform="translate(1544 1300)" clip-rule="evenodd" fill="#f9a02b" fill-rule="evenodd" stroke-linejoin="round" stroke-miterlimit="2"/></g><g transform="matrix(8.75905-4.37953 0 17.8486-12474.200195-14971.099609)" clip-rule="evenodd"><path d="M1571,1298.9v27.6h-27v-17.67h-13.5v-9.93h40.5Z" clip-rule="evenodd" fill="#ac6428" fill-rule="evenodd" stroke-linejoin="round" stroke-miterlimit="2"/></g><g transform="matrix(23.3575-11.678701 0 4.46216-35250.699219 13701.299805)" clip-rule="evenodd"><rect width="27" height="29.448" rx="0" ry="0" transform="translate(1544 1297.050049)" clip-rule="evenodd" fill="#ba6c2b" fill-rule="evenodd" stroke-linejoin="round" stroke-miterlimit="2"/></g><g transform="matrix(4.37953-2.18976 0 5.94954-6303.490234-3021.27002)" clip-rule="evenodd"><rect width="27" height="26.5" rx="0" ry="0" transform="translate(1544 1300)" clip-rule="evenodd" fill="#ce7830" fill-rule="evenodd" stroke-linejoin="round" stroke-miterlimit="2"/></g><g transform="matrix(2.91968-1.45984 0 2.97477-4088.909912-576.679993)" clip-rule="evenodd"><rect width="27" height="26.5" rx="0" ry="0" transform="translate(1544 1300)" clip-rule="evenodd" fill="#ce7830" fill-rule="evenodd" stroke-linejoin="round" stroke-miterlimit="2"/></g><g transform="matrix(4.37953-2.18976 0 2.97477-6461.160156 924.768005)" clip-rule="evenodd"><rect width="27" height="26.5" rx="0" ry="0" transform="translate(1544 1300)" clip-rule="evenodd" fill="#ce7830" fill-rule="evenodd" stroke-linejoin="round" stroke-miterlimit="2"/></g><g transform="matrix(4.37953-2.18976 5.94954 2.97477-14195.599609 767.10498)" clip-rule="evenodd"><rect width="27" height="26.5" rx="0" ry="0" transform="translate(1544 1300)" clip-rule="evenodd" fill="#fff36f" fill-rule="evenodd" stroke-linejoin="round" stroke-miterlimit="2"/></g><g transform="matrix(2.91968-1.45984 2.97477 1.48739-7798.450195 1435.75)" clip-rule="evenodd"><rect width="27" height="26.5" rx="0" ry="0" transform="translate(1544 1300)" clip-rule="evenodd" fill="#fff36f" fill-rule="evenodd" stroke-linejoin="round" stroke-miterlimit="2"/></g><g transform="matrix(4.37953-2.18976 11.899101 5.94954-21023.400391-3789.870117)" clip-rule="evenodd"><rect width="27" height="26.5" rx="0" ry="0" transform="translate(1544 1300)" clip-rule="evenodd" fill="#ffec1d" fill-rule="evenodd" stroke-linejoin="round" stroke-miterlimit="2"/></g><g transform="matrix(2.91968-1.45984 2.97477 1.48739-8034.950195 1317.51001)" clip-rule="evenodd"><rect width="27" height="26.5" rx="0" ry="0" transform="translate(1544 1300)" clip-rule="evenodd" fill="#fff36f" fill-rule="evenodd" stroke-linejoin="round" stroke-miterlimit="2"/></g><g transform="matrix(4.37953-2.18976 2.97477 1.48739-10407.200195 2818.949951)" clip-rule="evenodd"><rect width="27" height="26.5" rx="0" ry="0" transform="translate(1544 1300)" clip-rule="evenodd" fill="#fff36f" fill-rule="evenodd" stroke-linejoin="round" stroke-miterlimit="2"/></g><g transform="matrix(2.91968 1.45984 0 1.48739-3024.689941-3564.929932)" clip-rule="evenodd"><rect width="27" height="26.5" rx="0" ry="0" transform="translate(1544 1300)" clip-rule="evenodd" fill="#f9a02b" fill-rule="evenodd" stroke-linejoin="round" stroke-miterlimit="2"/></g><g transform="matrix(2.91968 1.45984 0 1.48739-3261.179932-3683.179932)" clip-rule="evenodd"><rect width="27" height="26.5" rx="0" ry="0" transform="translate(1544 1300)" clip-rule="evenodd" fill="#f9a02b" fill-rule="evenodd" stroke-linejoin="round" stroke-miterlimit="2"/></g><g transform="matrix(2.91968-1.45984 0 1.48739-3182.350098 864.224976)" clip-rule="evenodd"><rect width="27" height="26.5" rx="0" ry="0" transform="translate(1544 1300)" clip-rule="evenodd" fill="#ce7830" fill-rule="evenodd" stroke-linejoin="round" stroke-miterlimit="2"/></g><g transform="matrix(2.91968-1.45984 2.97477 1.48739-6891.890137 943.057007)" clip-rule="evenodd"><rect width="27" height="26.5" rx="0" ry="0" transform="translate(1544 1300)" clip-rule="evenodd" fill="#fff36f" fill-rule="evenodd" stroke-linejoin="round" stroke-miterlimit="2"/></g><g transform="matrix(2.91968-1.45984 2.97477 1.48739-7128.390137 824.809998)" clip-rule="evenodd"><rect width="27" height="26.5" rx="0" ry="0" transform="translate(1544 1300)" clip-rule="evenodd" fill="#fff36f" fill-rule="evenodd" stroke-linejoin="round" stroke-miterlimit="2"/></g><g transform="matrix(2.91968-1.45984 0 2.97477-3852.419922-458.433014)" clip-rule="evenodd"><path d="M1881.5,1286.75v53h-13.5v92.75h-324v-132.5h27v26.5h270v-26.5h13.5v-13.25h27Z" clip-rule="evenodd" fill="#ce7830" fill-rule="evenodd" stroke-linejoin="round" stroke-miterlimit="2"/></g><g transform="matrix(18.9779-9.48897 0 1.487391-28370.5 13891.900391)" clip-rule="evenodd"><path d="M1571,1300v26.5h-27v-26.5h27Zm0,79.5v26.5h-27v-26.5h27Z" clip-rule="evenodd" fill="#ac6428" fill-rule="evenodd" stroke-linejoin="round" stroke-miterlimit="2"/></g></g><g transform="matrix(.602954 0 0 0.631112-253.748001 1035.599976)" clip-rule="evenodd"><g transform="matrix(.701611 0 0 0.701611-3.03852-177.473999)" clip-rule="evenodd"><path d="M1829.5,1389.55l57.09-29.37c31.44-20,82.25-10.26,130.34,29.41c2.6,2.15,5.18,4.37,7.71,6.65-.32,3.46-.49,7.05-.49,10.76c0,12.14,1.8,25.12,5.35,38.51l25.39,95.99-71.37-85.57c-9.96-11.94-20.89-22.85-32.44-32.38-43.85-36.17-89.96-47.46-121.58-34Zm230.91-51.56l62.07-31.92c1.91-1.12,3.9-2.15,5.95-3.06c22.04-9.86,51.78-7.79,84.5,8.57c67.84,33.92,122.92,116.54,122.92,184.38c0,12.15-1.8,23.32-5.35,33.17l-25.39,70.6l71.37-14.2c9.96-1.99,20.89-1.96,32.44.06c64.52,11.29,133.93,81.36,154.89,156.36c15.16,54.24.86,96.31-32.62,111.17l-61.96,32.07c30.68-16.32,43.29-57.18,28.73-109.28-20.96-75-90.37-145.07-154.89-156.36-11.55-2.02-22.48-2.05-32.44-.06l-71.37,14.2l25.4-70.6c3.54-9.85,5.34-21.02,5.34-33.17c0-67.84-55.08-150.46-122.93-184.38-33.8-16.9-64.43-18.55-86.66-7.55Zm372.81,554.85c9.02,11.57,17.02,23.85,23.76,36.49c35.28,66.2,29.81,129.28-9.93,151.55-1.22.69-2.46,1.33-3.75,1.93l-61.54,31.71c39.23-22.55,44.48-85.35,9.37-151.23-7.14-13.4-15.7-26.39-25.39-38.55l-69.5-87.21l87.06,41.94c12.14,5.85,24.19,9.85,35.74,11.87c4.9.86,9.63,1.35,14.18,1.5Zm-268.39,38.79c-2.23,1.72-4.57,3.27-7,4.64-1.39.79-2.82,1.51-4.26,2.19l-59.38,30.45c2.71-1.68,5.28-3.59,7.72-5.73c7.14-6.25,12.79-14.26,16.75-23.76l28.41-68.1l17.76,60.31Zm-247.29-221.75l61.07-31.52l19.3,10-69.5,17.71c-3.8.97-7.44,2.25-10.87,3.81Z" clip-rule="evenodd" fill="#672661" fill-rule="evenodd" stroke-linejoin="round" stroke-miterlimit="2"/></g><g transform="matrix(.47236 0.23618 0 0.47236 431.114014-331.196014)" clip-rule="evenodd"><path d="M2095.36,1424.82c-5.26-17.26-7.94-35.2-7.94-53.24c0-100.77,81.81-182.58,182.58-182.58s182.58,81.81,182.58,182.58c0,18.04-2.67,35.98-7.94,53.24l-37.71,123.71l106-74.1c14.79-10.33,31.03-18.42,48.19-23.99c95.83-31.14,198.92,21.38,230.06,117.22s-21.39,198.92-117.22,230.06c-17.16,5.58-35.05,8.58-53.09,8.91l-129.31,2.36l103.23,77.92c14.4,10.87,27.1,23.81,37.71,38.41c59.23,81.52,41.13,195.79-40.39,255.02-81.53,59.23-195.8,41.13-255.03-40.39-10.6-14.6-18.99-30.68-24.87-47.73L2270,1969.96l-42.21,122.26c-5.88,17.05-14.27,33.13-24.87,47.73-59.23,81.52-173.5,99.62-255.03,40.39-81.52-59.23-99.62-173.5-40.39-255.02c10.61-14.6,23.31-27.54,37.71-38.41l103.23-77.92-129.31-2.36c-18.04-.33-35.93-3.33-53.09-8.91-95.83-31.14-148.36-134.22-117.22-230.06s134.23-148.36,230.06-117.22c17.16,5.57,33.4,13.66,48.19,23.99l106,74.1-37.71-123.71Z" clip-rule="evenodd" fill="#ee1f75" fill-rule="evenodd" stroke-linejoin="round" stroke-miterlimit="2"/></g><g transform="matrix(.518845 0.259423 0 0.518845 379.990997-450.10199)" clip-rule="evenodd"><circle r="121.156998" transform="translate(2165.159912 1764.160034)" clip-rule="evenodd" fill="#fff" fill-rule="evenodd" stroke-linejoin="round" stroke-miterlimit="2"/></g></g></g></g></g><mask id="edLHyW0b9Ax78" mask-type="luminance" x="-150%" y="-150%" height="400%" width="400%"><rect width="3000" height="3000" rx="0" ry="0" clip-rule="evenodd" fill="#fff" fill-rule="evenodd" stroke-linejoin="round" stroke-miterlimit="2"/></mask></g></svg>
