<svg id="emyLD69B1HU1" xmlns="http://www.w3.org/2000/svg" xmlns:xlink="http://www.w3.org/1999/xlink" viewBox="0 0 720 720" shape-rendering="geometricPrecision" text-rendering="geometricPrecision">
<style><![CDATA[
#emyLD69B1HU6_to {animation: emyLD69B1HU6_to__to 10000ms linear infinite normal forwards}@keyframes emyLD69B1HU6_to__to { 0% {transform: translate(-7.998474px,360px)} 100% {transform: translate(712px,360px)}} #emyLD69B1HU9_to {animation: emyLD69B1HU9_to__to 10000ms linear infinite normal forwards}@keyframes emyLD69B1HU9_to__to { 0% {transform: translate(339.599968px,390.646081px);animation-timing-function: cubic-bezier(0.445,0.05,0.55,0.95)} 25% {transform: translate(339.599968px,331.542952px);animation-timing-function: cubic-bezier(0.445,0.05,0.55,0.95)} 50% {transform: translate(339.599968px,390.646081px);animation-timing-function: cubic-bezier(0.445,0.05,0.55,0.95)} 75% {transform: translate(339.599968px,331.542952px);animation-timing-function: cubic-bezier(0.445,0.05,0.55,0.95)} 100% {transform: translate(339.599968px,390.646081px)}}
]]></style>
<rect width="720" height="720" rx="0" ry="0" clip-rule="evenodd" fill="none" fill-rule="evenodd" stroke-linejoin="round" stroke-miterlimit="2"/><g clip-path="url(#emyLD69B1HU44)" clip-rule="evenodd"><g><rect width="720" height="720" rx="0" ry="0" clip-rule="evenodd" fill="#24afdb" fill-rule="evenodd" stroke-linejoin="round" stroke-miterlimit="2"/><g id="emyLD69B1HU6_to" transform="translate(-7.998474,360)"><g transform="translate(7.998474,-360)"><path d="M72.464,554.095h-144.928c-22.622,0-40.989-18.367-40.989-40.99c0-13.798,6.833-26.013,17.296-33.443.571-22.087,18.651-39.851,40.861-39.912c6.412-14.278,20.759-24.232,37.414-24.232h19.236c16.654,0,31.001,9.954,37.413,24.232h9.74c20.909,0,38.182,15.689,40.679,35.926c14.297,6.404,24.267,20.762,24.267,37.429c0,22.623-18.367,40.99-40.989,40.99ZM80.28,138h-160.56c-16.557,0-30-13.443-30-30c0-13.283,8.651-24.561,20.622-28.503-.024-.496-.037-.995-.037-1.497c0-14.496,10.304-26.605,23.982-29.395-.004-.201-.006-.403-.006-.605c0-16.557,13.442-30,30-30h34.519c.402,0,.802.008,1.2.024c16.002.63,28.8,13.82,28.8,29.976h17.577c16.557,0,30,13.443,30,30h3.903c16.557,0,30,13.443,30,30s-13.443,30-30,30ZM62.83,324.158h-125.66c-9.868,0-17.88-8.011-17.88-17.88c0-9.868,8.012-17.88,17.88-17.88h.954c-2.067-4.071-3.233-8.676-3.233-13.551c0-16.558,13.443-30,30-30h5.919c.091,0,.182,0,.273.001c4.953-9.757,15.085-16.45,26.768-16.45h14.078c16.558,0,30,13.443,30,30c0,.475-.011.947-.032,1.417c12.1,3.865,20.872,15.208,20.872,28.583h.061c9.868,0,17.88,8.012,17.88,17.88c0,9.869-8.012,17.88-17.88,17.88ZM235.063,720c3.703-12.368,15.178-21.392,28.744-21.392h6.423c5.19-8.965,14.887-15,25.981-15h5.891c1.339-15.324,14.218-27.36,29.886-27.36h34.519c15.668,0,28.547,12.036,29.885,27.36h5.891c11.095,0,20.791,6.035,25.981,15h6.423c13.567,0,25.042,9.024,28.745,21.392h-228.369ZM720,554.095h-72.464c-22.622,0-40.989-18.367-40.989-40.99c0-13.798,6.833-26.013,17.296-33.443.571-22.087,18.651-39.851,40.861-39.912c6.412-14.278,20.759-24.232,37.414-24.232h17.882v138.577Zm0-229.937h-62.83c-9.868,0-17.88-8.011-17.88-17.88c0-9.868,8.012-17.88,17.88-17.88h.954c-2.067-4.071-3.233-8.676-3.233-13.551c0-16.558,13.443-30,30-30h5.919c.091,0,.182,0,.273.001c4.953-9.757,15.085-16.45,26.768-16.45h2.149v95.76ZM720,138h-80.28c-16.557,0-30-13.443-30-30c0-13.283,8.651-24.561,20.622-28.503-.024-.496-.037-.995-.037-1.497c0-14.496,10.304-26.605,23.982-29.395-.004-.201-.006-.403-.006-.605c0-16.557,13.442-30,30-30h34.519c.402,0,.802.008,1.2.024L720,138ZM463.432,0c.475,1.585.822,3.225,1.029,4.908c12.542,3.594,21.732,15.154,21.732,28.844c0,16.558-13.443,30-30,30h-170.88c-15.305,0-27.949-11.485-29.774-26.3-12.542-3.594-21.732-15.154-21.732-28.844c0-2.992.439-5.881,1.256-8.608h228.369ZM297.551,535.023c-.024-.496-.037-.995-.037-1.497c0-14.496,10.305-26.605,23.982-29.395-.004-.201-.006-.403-.006-.605c0-16.558,13.442-30,30-30h34.519c16.558,0,30,13.442,30,30h17.577c16.558,0,30,13.442,30,30h3.903c16.558,0,30,13.442,30,30c0,16.557-13.442,30-30,30h-160.56c-16.557,0-30-13.443-30-30c0-13.283,8.652-24.561,20.622-28.503Zm55.563-231.428c3.997,1.316,6.886,5.081,6.886,9.517c0,5.528-4.488,10.017-10.017,10.017h-53.611c-5.529,0-10.017-4.489-10.017-10.017c0-5.529,4.488-10.017,10.017-10.017h1.303c0-5.529,4.489-10.017,10.017-10.017h5.869c0-5.529,4.489-10.017,10.017-10.017h11.526c5.529,0,10.017,4.488,10.017,10.017c0,.067-.001.134-.002.202c4.567.931,8.008,4.974,8.008,9.815c0,.167-.005.334-.013.5ZM217.203,77.197c5.11,2.289,8.674,7.421,8.674,13.38c0,8.086-6.565,14.652-14.652,14.652h-51.806c-8.087,0-14.652-6.566-14.652-14.652c0-4.933,2.442-9.299,6.182-11.955.204-7.896,6.667-14.246,14.607-14.267c2.292-5.104,7.42-8.662,13.374-8.662h6.876c5.953,0,11.082,3.558,13.374,8.662h3.482c7.474,0,13.648,5.608,14.541,12.842ZM509.414,637.555c1.828-14.811,14.47-26.294,29.773-26.294h7.129c4.692-10.45,15.193-17.735,27.382-17.735h14.079c12.189,0,22.69,7.285,27.383,17.735c16.255.045,29.488,13.046,29.906,29.212c7.658,5.438,12.659,14.378,12.659,24.476c0,16.558-13.443,30-30,30h-106.072c-16.557,0-30-13.442-30-30c0-12.199,7.297-22.707,17.761-27.394Zm62.157-158.938c5.227,2.341,8.872,7.59,8.872,13.683c0,8.271-6.715,14.985-14.985,14.985h-52.984c-8.27,0-14.985-6.714-14.985-14.985c0-5.044,2.498-9.51,6.323-12.226.209-8.075,6.819-14.569,14.939-14.592c2.344-5.219,7.589-8.858,13.677-8.858h7.033c6.088,0,11.334,3.639,13.678,8.858h3.561c7.643,0,13.958,5.736,14.871,13.135ZM423.328,318.638c5.19-8.964,14.886-15,25.981-15h5.891c1.339-15.323,14.217-27.36,29.885-27.36h34.52c15.668,0,28.546,12.037,29.885,27.36h5.891c11.095,0,20.791,6.036,25.981,15h6.423c15.305,0,27.949,11.486,29.774,26.301c12.542,3.594,21.731,15.154,21.731,28.844c0,16.558-13.442,30-30,30h-170.88c-15.305,0-27.948-11.486-29.773-26.3-12.542-3.594-21.732-15.155-21.732-28.845c0-16.557,13.443-30,30-30h6.423ZM310.933,378.766h5.873c15.14,0,27.432,12.292,27.432,27.432c0,12.518-8.403,23.09-19.871,26.376-1.669,13.547-13.231,24.05-27.226,24.05h-156.255c-15.141,0-27.433-12.292-27.433-27.433c0-12.518,8.403-23.089,19.872-26.375c1.669-13.547,13.23-24.05,27.225-24.05h5.874c4.746-8.197,13.612-13.717,23.757-13.717h5.387c1.224-14.011,13.001-25.018,27.328-25.018h31.565c14.327,0,26.103,11.007,27.327,25.018h5.387c10.145,0,19.012,5.52,23.758,13.717ZM189.443,637.555c10.463,4.687,17.76,15.195,17.76,27.394c0,16.558-13.442,30-30,30h-106.071c-16.558,0-30-13.442-30-30c0-10.098,5-19.038,12.659-24.476.418-16.166,13.65-29.167,29.906-29.212c4.692-10.45,15.193-17.735,27.382-17.735h14.079c12.189,0,22.69,7.285,27.383,17.735h7.129c15.302,0,27.945,11.483,29.773,26.294ZM170.629,535.987c.893-7.235,7.067-12.843,14.541-12.843h3.482c2.292-5.104,7.421-8.662,13.374-8.662h6.876c5.954,0,11.082,3.558,13.374,8.662c7.94.022,14.402,6.372,14.607,14.267c3.74,2.656,6.182,7.023,6.182,11.955c0,8.087-6.565,14.652-14.652,14.652h-51.806c-8.087,0-14.652-6.565-14.652-14.652c0-5.958,3.563-11.09,8.674-13.379ZM160.3,196.97c-.038-.589-.057-1.183-.057-1.782c0-15.005,12.182-27.188,27.188-27.188h13.032c0-16.557,13.443-30,30-30h50.799c11.715,0,21.871,6.73,26.809,16.532c15.659.997,28.068,14.03,28.068,29.938c0,1.325-.086,2.63-.253,3.91C349.629,191.119,360,203.259,360,217.802c0,16.557-13.443,30-30,30h-162.238c-14.328,0-25.961-11.633-25.961-25.961c0-11.735,7.803-21.662,18.499-24.871Zm275.313-10.496c-2.067-4.071-3.233-8.677-3.233-13.552c0-16.557,13.443-30,30-30h5.919c.091,0,.182.001.273.002c4.953-9.757,15.085-16.45,26.768-16.45h14.079c16.557,0,30,13.443,30,30c0,.475-.011.947-.033,1.416c12.1,3.866,20.872,15.209,20.872,28.584h.061c9.868,0,17.88,8.012,17.88,17.88s-8.012,17.88-17.88,17.88h-125.659c-9.869,0-17.88-8.012-17.88-17.88s8.011-17.88,17.88-17.88h.953ZM-719.997,415.518h1.354c16.654,0,31.001,9.954,37.413,24.232h9.74c20.909,0,38.182,15.689,40.679,35.926c14.297,6.404,24.267,20.762,24.267,37.429c0,22.623-18.367,40.99-40.989,40.99h-72.464v-138.577ZM-484.934,720c3.703-12.368,15.178-21.392,28.744-21.392h6.423c5.19-8.965,14.887-15,25.981-15h5.891c1.339-15.324,14.218-27.36,29.886-27.36h34.519c15.668,0,28.547,12.036,29.885,27.36h5.891c11.095,0,20.791,6.035,25.981,15h6.423c13.567,0,25.042,9.024,28.745,21.392h-228.369ZM-256.565,0c.475,1.585.822,3.225,1.029,4.908c12.542,3.594,21.732,15.154,21.732,28.844c0,16.558-13.443,30-30,30h-170.88c-15.305,0-27.949-11.485-29.774-26.3C-477,33.858,-486.19,22.298,-486.19,8.608c0-2.992.439-5.881,1.256-8.608h228.369ZM-719.997,18.024c16.002.63,28.8,13.82,28.8,29.976h17.577c16.557,0,30,13.443,30,30h3.903c16.557,0,30,13.443,30,30s-13.443,30-30,30h-80.28v-119.976Zm0,210.374h11.929c16.558,0,30,13.443,30,30c0,.475-.011.947-.032,1.417c12.1,3.865,20.872,15.208,20.872,28.583h.061c9.868,0,17.88,8.012,17.88,17.88c0,9.869-8.012,17.88-17.88,17.88h-62.83v-95.76Zm297.551,306.625c-.024-.496-.037-.995-.037-1.497c0-14.496,10.305-26.605,23.982-29.395-.004-.201-.006-.403-.006-.605c0-16.558,13.442-30,30-30h34.519c16.558,0,30,13.442,30,30h17.577c16.558,0,30,13.442,30,30h3.903c16.558,0,30,13.442,30,30c0,16.557-13.442,30-30,30h-160.56c-16.557,0-30-13.443-30-30c0-13.283,8.652-24.561,20.622-28.503Zm55.563-231.428c3.997,1.316,6.886,5.081,6.886,9.517c0,5.528-4.488,10.017-10.017,10.017h-53.611c-5.529,0-10.017-4.489-10.017-10.017c0-5.529,4.488-10.017,10.017-10.017h1.303c0-5.529,4.489-10.017,10.017-10.017h5.869c0-5.529,4.489-10.017,10.017-10.017h11.526c5.529,0,10.017,4.488,10.017,10.017c0,.067-.001.134-.002.202c4.567.931,8.008,4.974,8.008,9.815c0,.167-.005.334-.013.5ZM-502.794,77.197c5.11,2.289,8.674,7.421,8.674,13.38c0,8.086-6.565,14.652-14.652,14.652h-51.806c-8.087,0-14.652-6.566-14.652-14.652c0-4.933,2.442-9.299,6.182-11.955.204-7.896,6.667-14.246,14.607-14.267c2.292-5.104,7.42-8.662,13.374-8.662h6.876c5.953,0,11.082,3.558,13.374,8.662h3.482c7.474,0,13.648,5.608,14.541,12.842Zm292.211,560.358c1.828-14.811,14.47-26.294,29.773-26.294h7.129c4.692-10.45,15.193-17.735,27.382-17.735h14.079c12.189,0,22.69,7.285,27.383,17.735c16.255.045,29.488,13.046,29.906,29.212c7.658,5.438,12.659,14.378,12.659,24.476c0,16.558-13.443,30-30,30h-106.072c-16.557,0-30-13.442-30-30c0-12.199,7.297-22.707,17.761-27.394Zm62.157-158.938c5.227,2.341,8.872,7.59,8.872,13.683c0,8.271-6.715,14.985-14.985,14.985h-52.984c-8.27,0-14.985-6.714-14.985-14.985c0-5.044,2.498-9.51,6.323-12.226.209-8.075,6.819-14.569,14.939-14.592c2.344-5.219,7.589-8.858,13.677-8.858h7.033c6.088,0,11.334,3.639,13.678,8.858h3.561c7.643,0,13.958,5.736,14.871,13.135ZM-296.669,318.638c5.19-8.964,14.886-15,25.981-15h5.891c1.339-15.323,14.217-27.36,29.885-27.36h34.52c15.668,0,28.546,12.037,29.885,27.36h5.891c11.095,0,20.791,6.036,25.981,15h6.423c15.305,0,27.949,11.486,29.774,26.301c12.542,3.594,21.731,15.154,21.731,28.844c0,16.558-13.442,30-30,30h-170.88c-15.305,0-27.948-11.486-29.773-26.3-12.542-3.594-21.732-15.155-21.732-28.845c0-16.557,13.443-30,30-30h6.423Zm-112.395,60.128h5.873c15.14,0,27.432,12.292,27.432,27.432c0,12.518-8.403,23.09-19.871,26.376-1.669,13.547-13.231,24.05-27.226,24.05h-156.255c-15.141,0-27.433-12.292-27.433-27.433c0-12.518,8.403-23.089,19.872-26.375c1.669-13.547,13.23-24.05,27.225-24.05h5.874c4.746-8.197,13.612-13.717,23.757-13.717h5.387c1.224-14.011,13.001-25.018,27.328-25.018h31.565c14.327,0,26.103,11.007,27.327,25.018h5.387c10.145,0,19.012,5.52,23.758,13.717Zm-121.49,258.789c10.463,4.687,17.76,15.195,17.76,27.394c0,16.558-13.442,30-30,30h-106.071c-16.558,0-30-13.442-30-30c0-10.098,5-19.038,12.659-24.476.418-16.166,13.65-29.167,29.906-29.212c4.692-10.45,15.193-17.735,27.382-17.735h14.079c12.189,0,22.69,7.285,27.383,17.735h7.129c15.302,0,27.945,11.483,29.773,26.294Zm-18.814-101.568c.893-7.235,7.067-12.843,14.541-12.843h3.482c2.292-5.104,7.421-8.662,13.374-8.662h6.876c5.954,0,11.082,3.558,13.374,8.662c7.94.022,14.402,6.372,14.607,14.267c3.74,2.656,6.182,7.023,6.182,11.955c0,8.087-6.565,14.652-14.652,14.652h-51.806c-8.087,0-14.652-6.565-14.652-14.652c0-5.958,3.563-11.09,8.674-13.379ZM-559.697,196.97c-.038-.589-.057-1.183-.057-1.782c0-15.005,12.182-27.188,27.188-27.188h13.032c0-16.557,13.443-30,30-30h50.799c11.715,0,21.871,6.73,26.809,16.532c15.659.997,28.068,14.03,28.068,29.938c0,1.325-.086,2.63-.253,3.91c13.743,2.739,24.114,14.879,24.114,29.422c0,16.557-13.443,30-30,30h-162.238c-14.328,0-25.961-11.633-25.961-25.961c0-11.735,7.803-21.662,18.499-24.871Zm275.313-10.496c-2.067-4.071-3.233-8.677-3.233-13.552c0-16.557,13.443-30,30-30h5.919c.091,0,.182.001.273.002c4.953-9.757,15.085-16.45,26.768-16.45h14.079c16.557,0,30,13.443,30,30c0,.475-.011.947-.033,1.416c12.1,3.866,20.872,15.209,20.872,28.584h.061c9.868,0,17.88,8.012,17.88,17.88s-8.012,17.88-17.88,17.88h-125.659c-9.869,0-17.88-8.012-17.88-17.88s8.011-17.88,17.88-17.88h.953Z" transform="translate(-16 0)" opacity="0.68" clip-rule="evenodd" fill="#f6edf5" fill-rule="evenodd" stroke-linejoin="round" stroke-miterlimit="2"/><path d="M72.464,554.095h-144.928c-22.622,0-40.989-18.367-40.989-40.99c0-13.798,6.833-26.013,17.296-33.443.571-22.087,18.651-39.851,40.861-39.912c6.412-14.278,20.759-24.232,37.414-24.232h19.236c16.654,0,31.001,9.954,37.413,24.232h9.74c20.909,0,38.182,15.689,40.679,35.926c14.297,6.404,24.267,20.762,24.267,37.429c0,22.623-18.367,40.99-40.989,40.99ZM80.28,138h-160.56c-16.557,0-30-13.443-30-30c0-13.283,8.651-24.561,20.622-28.503-.024-.496-.037-.995-.037-1.497c0-14.496,10.304-26.605,23.982-29.395-.004-.201-.006-.403-.006-.605c0-16.557,13.442-30,30-30h34.519c.402,0,.802.008,1.2.024c16.002.63,28.8,13.82,28.8,29.976h17.577c16.557,0,30,13.443,30,30h3.903c16.557,0,30,13.443,30,30s-13.443,30-30,30ZM62.83,324.158h-125.66c-9.868,0-17.88-8.011-17.88-17.88c0-9.868,8.012-17.88,17.88-17.88h.954c-2.067-4.071-3.233-8.676-3.233-13.551c0-16.558,13.443-30,30-30h5.919c.091,0,.182,0,.273.001c4.953-9.757,15.085-16.45,26.768-16.45h14.078c16.558,0,30,13.443,30,30c0,.475-.011.947-.032,1.417c12.1,3.865,20.872,15.208,20.872,28.583h.061c9.868,0,17.88,8.012,17.88,17.88c0,9.869-8.012,17.88-17.88,17.88ZM235.063,720c3.703-12.368,15.178-21.392,28.744-21.392h6.423c5.19-8.965,14.887-15,25.981-15h5.891c1.339-15.324,14.218-27.36,29.886-27.36h34.519c15.668,0,28.547,12.036,29.885,27.36h5.891c11.095,0,20.791,6.035,25.981,15h6.423c13.567,0,25.042,9.024,28.745,21.392h-228.369ZM720,554.095h-72.464c-22.622,0-40.989-18.367-40.989-40.99c0-13.798,6.833-26.013,17.296-33.443.571-22.087,18.651-39.851,40.861-39.912c6.412-14.278,20.759-24.232,37.414-24.232h17.882v138.577Zm0-229.937h-62.83c-9.868,0-17.88-8.011-17.88-17.88c0-9.868,8.012-17.88,17.88-17.88h.954c-2.067-4.071-3.233-8.676-3.233-13.551c0-16.558,13.443-30,30-30h5.919c.091,0,.182,0,.273.001c4.953-9.757,15.085-16.45,26.768-16.45h2.149v95.76ZM720,138h-80.28c-16.557,0-30-13.443-30-30c0-13.283,8.651-24.561,20.622-28.503-.024-.496-.037-.995-.037-1.497c0-14.496,10.304-26.605,23.982-29.395-.004-.201-.006-.403-.006-.605c0-16.557,13.442-30,30-30h34.519c.402,0,.802.008,1.2.024L720,138ZM463.432,0c.475,1.585.822,3.225,1.029,4.908c12.542,3.594,21.732,15.154,21.732,28.844c0,16.558-13.443,30-30,30h-170.88c-15.305,0-27.949-11.485-29.774-26.3-12.542-3.594-21.732-15.154-21.732-28.844c0-2.992.439-5.881,1.256-8.608h228.369ZM297.551,535.023c-.024-.496-.037-.995-.037-1.497c0-14.496,10.305-26.605,23.982-29.395-.004-.201-.006-.403-.006-.605c0-16.558,13.442-30,30-30h34.519c16.558,0,30,13.442,30,30h17.577c16.558,0,30,13.442,30,30h3.903c16.558,0,30,13.442,30,30c0,16.557-13.442,30-30,30h-160.56c-16.557,0-30-13.443-30-30c0-13.283,8.652-24.561,20.622-28.503Zm55.563-231.428c3.997,1.316,6.886,5.081,6.886,9.517c0,5.528-4.488,10.017-10.017,10.017h-53.611c-5.529,0-10.017-4.489-10.017-10.017c0-5.529,4.488-10.017,10.017-10.017h1.303c0-5.529,4.489-10.017,10.017-10.017h5.869c0-5.529,4.489-10.017,10.017-10.017h11.526c5.529,0,10.017,4.488,10.017,10.017c0,.067-.001.134-.002.202c4.567.931,8.008,4.974,8.008,9.815c0,.167-.005.334-.013.5ZM217.203,77.197c5.11,2.289,8.674,7.421,8.674,13.38c0,8.086-6.565,14.652-14.652,14.652h-51.806c-8.087,0-14.652-6.566-14.652-14.652c0-4.933,2.442-9.299,6.182-11.955.204-7.896,6.667-14.246,14.607-14.267c2.292-5.104,7.42-8.662,13.374-8.662h6.876c5.953,0,11.082,3.558,13.374,8.662h3.482c7.474,0,13.648,5.608,14.541,12.842ZM509.414,637.555c1.828-14.811,14.47-26.294,29.773-26.294h7.129c4.692-10.45,15.193-17.735,27.382-17.735h14.079c12.189,0,22.69,7.285,27.383,17.735c16.255.045,29.488,13.046,29.906,29.212c7.658,5.438,12.659,14.378,12.659,24.476c0,16.558-13.443,30-30,30h-106.072c-16.557,0-30-13.442-30-30c0-12.199,7.297-22.707,17.761-27.394Zm62.157-158.938c5.227,2.341,8.872,7.59,8.872,13.683c0,8.271-6.715,14.985-14.985,14.985h-52.984c-8.27,0-14.985-6.714-14.985-14.985c0-5.044,2.498-9.51,6.323-12.226.209-8.075,6.819-14.569,14.939-14.592c2.344-5.219,7.589-8.858,13.677-8.858h7.033c6.088,0,11.334,3.639,13.678,8.858h3.561c7.643,0,13.958,5.736,14.871,13.135ZM423.328,318.638c5.19-8.964,14.886-15,25.981-15h5.891c1.339-15.323,14.217-27.36,29.885-27.36h34.52c15.668,0,28.546,12.037,29.885,27.36h5.891c11.095,0,20.791,6.036,25.981,15h6.423c15.305,0,27.949,11.486,29.774,26.301c12.542,3.594,21.731,15.154,21.731,28.844c0,16.558-13.442,30-30,30h-170.88c-15.305,0-27.948-11.486-29.773-26.3-12.542-3.594-21.732-15.155-21.732-28.845c0-16.557,13.443-30,30-30h6.423ZM310.933,378.766h5.873c15.14,0,27.432,12.292,27.432,27.432c0,12.518-8.403,23.09-19.871,26.376-1.669,13.547-13.231,24.05-27.226,24.05h-156.255c-15.141,0-27.433-12.292-27.433-27.433c0-12.518,8.403-23.089,19.872-26.375c1.669-13.547,13.23-24.05,27.225-24.05h5.874c4.746-8.197,13.612-13.717,23.757-13.717h5.387c1.224-14.011,13.001-25.018,27.328-25.018h31.565c14.327,0,26.103,11.007,27.327,25.018h5.387c10.145,0,19.012,5.52,23.758,13.717ZM189.443,637.555c10.463,4.687,17.76,15.195,17.76,27.394c0,16.558-13.442,30-30,30h-106.071c-16.558,0-30-13.442-30-30c0-10.098,5-19.038,12.659-24.476.418-16.166,13.65-29.167,29.906-29.212c4.692-10.45,15.193-17.735,27.382-17.735h14.079c12.189,0,22.69,7.285,27.383,17.735h7.129c15.302,0,27.945,11.483,29.773,26.294ZM170.629,535.987c.893-7.235,7.067-12.843,14.541-12.843h3.482c2.292-5.104,7.421-8.662,13.374-8.662h6.876c5.954,0,11.082,3.558,13.374,8.662c7.94.022,14.402,6.372,14.607,14.267c3.74,2.656,6.182,7.023,6.182,11.955c0,8.087-6.565,14.652-14.652,14.652h-51.806c-8.087,0-14.652-6.565-14.652-14.652c0-5.958,3.563-11.09,8.674-13.379ZM160.3,196.97c-.038-.589-.057-1.183-.057-1.782c0-15.005,12.182-27.188,27.188-27.188h13.032c0-16.557,13.443-30,30-30h50.799c11.715,0,21.871,6.73,26.809,16.532c15.659.997,28.068,14.03,28.068,29.938c0,1.325-.086,2.63-.253,3.91C349.629,191.119,360,203.259,360,217.802c0,16.557-13.443,30-30,30h-162.238c-14.328,0-25.961-11.633-25.961-25.961c0-11.735,7.803-21.662,18.499-24.871Zm275.313-10.496c-2.067-4.071-3.233-8.677-3.233-13.552c0-16.557,13.443-30,30-30h5.919c.091,0,.182.001.273.002c4.953-9.757,15.085-16.45,26.768-16.45h14.079c16.557,0,30,13.443,30,30c0,.475-.011.947-.033,1.416c12.1,3.866,20.872,15.209,20.872,28.584h.061c9.868,0,17.88,8.012,17.88,17.88s-8.012,17.88-17.88,17.88h-125.659c-9.869,0-17.88-8.012-17.88-17.88s8.011-17.88,17.88-17.88h.953ZM-719.997,415.518h1.354c16.654,0,31.001,9.954,37.413,24.232h9.74c20.909,0,38.182,15.689,40.679,35.926c14.297,6.404,24.267,20.762,24.267,37.429c0,22.623-18.367,40.99-40.989,40.99h-72.464v-138.577ZM-484.934,720c3.703-12.368,15.178-21.392,28.744-21.392h6.423c5.19-8.965,14.887-15,25.981-15h5.891c1.339-15.324,14.218-27.36,29.886-27.36h34.519c15.668,0,28.547,12.036,29.885,27.36h5.891c11.095,0,20.791,6.035,25.981,15h6.423c13.567,0,25.042,9.024,28.745,21.392h-228.369ZM-256.565,0c.475,1.585.822,3.225,1.029,4.908c12.542,3.594,21.732,15.154,21.732,28.844c0,16.558-13.443,30-30,30h-170.88c-15.305,0-27.949-11.485-29.774-26.3C-477,33.858,-486.19,22.298,-486.19,8.608c0-2.992.439-5.881,1.256-8.608h228.369ZM-719.997,18.024c16.002.63,28.8,13.82,28.8,29.976h17.577c16.557,0,30,13.443,30,30h3.903c16.557,0,30,13.443,30,30s-13.443,30-30,30h-80.28v-119.976Zm0,210.374h11.929c16.558,0,30,13.443,30,30c0,.475-.011.947-.032,1.417c12.1,3.865,20.872,15.208,20.872,28.583h.061c9.868,0,17.88,8.012,17.88,17.88c0,9.869-8.012,17.88-17.88,17.88h-62.83v-95.76Zm297.551,306.625c-.024-.496-.037-.995-.037-1.497c0-14.496,10.305-26.605,23.982-29.395-.004-.201-.006-.403-.006-.605c0-16.558,13.442-30,30-30h34.519c16.558,0,30,13.442,30,30h17.577c16.558,0,30,13.442,30,30h3.903c16.558,0,30,13.442,30,30c0,16.557-13.442,30-30,30h-160.56c-16.557,0-30-13.443-30-30c0-13.283,8.652-24.561,20.622-28.503Zm55.563-231.428c3.997,1.316,6.886,5.081,6.886,9.517c0,5.528-4.488,10.017-10.017,10.017h-53.611c-5.529,0-10.017-4.489-10.017-10.017c0-5.529,4.488-10.017,10.017-10.017h1.303c0-5.529,4.489-10.017,10.017-10.017h5.869c0-5.529,4.489-10.017,10.017-10.017h11.526c5.529,0,10.017,4.488,10.017,10.017c0,.067-.001.134-.002.202c4.567.931,8.008,4.974,8.008,9.815c0,.167-.005.334-.013.5ZM-502.794,77.197c5.11,2.289,8.674,7.421,8.674,13.38c0,8.086-6.565,14.652-14.652,14.652h-51.806c-8.087,0-14.652-6.566-14.652-14.652c0-4.933,2.442-9.299,6.182-11.955.204-7.896,6.667-14.246,14.607-14.267c2.292-5.104,7.42-8.662,13.374-8.662h6.876c5.953,0,11.082,3.558,13.374,8.662h3.482c7.474,0,13.648,5.608,14.541,12.842Zm292.211,560.358c1.828-14.811,14.47-26.294,29.773-26.294h7.129c4.692-10.45,15.193-17.735,27.382-17.735h14.079c12.189,0,22.69,7.285,27.383,17.735c16.255.045,29.488,13.046,29.906,29.212c7.658,5.438,12.659,14.378,12.659,24.476c0,16.558-13.443,30-30,30h-106.072c-16.557,0-30-13.442-30-30c0-12.199,7.297-22.707,17.761-27.394Zm62.157-158.938c5.227,2.341,8.872,7.59,8.872,13.683c0,8.271-6.715,14.985-14.985,14.985h-52.984c-8.27,0-14.985-6.714-14.985-14.985c0-5.044,2.498-9.51,6.323-12.226.209-8.075,6.819-14.569,14.939-14.592c2.344-5.219,7.589-8.858,13.677-8.858h7.033c6.088,0,11.334,3.639,13.678,8.858h3.561c7.643,0,13.958,5.736,14.871,13.135ZM-296.669,318.638c5.19-8.964,14.886-15,25.981-15h5.891c1.339-15.323,14.217-27.36,29.885-27.36h34.52c15.668,0,28.546,12.037,29.885,27.36h5.891c11.095,0,20.791,6.036,25.981,15h6.423c15.305,0,27.949,11.486,29.774,26.301c12.542,3.594,21.731,15.154,21.731,28.844c0,16.558-13.442,30-30,30h-170.88c-15.305,0-27.948-11.486-29.773-26.3-12.542-3.594-21.732-15.155-21.732-28.845c0-16.557,13.443-30,30-30h6.423Zm-112.395,60.128h5.873c15.14,0,27.432,12.292,27.432,27.432c0,12.518-8.403,23.09-19.871,26.376-1.669,13.547-13.231,24.05-27.226,24.05h-156.255c-15.141,0-27.433-12.292-27.433-27.433c0-12.518,8.403-23.089,19.872-26.375c1.669-13.547,13.23-24.05,27.225-24.05h5.874c4.746-8.197,13.612-13.717,23.757-13.717h5.387c1.224-14.011,13.001-25.018,27.328-25.018h31.565c14.327,0,26.103,11.007,27.327,25.018h5.387c10.145,0,19.012,5.52,23.758,13.717Zm-121.49,258.789c10.463,4.687,17.76,15.195,17.76,27.394c0,16.558-13.442,30-30,30h-106.071c-16.558,0-30-13.442-30-30c0-10.098,5-19.038,12.659-24.476.418-16.166,13.65-29.167,29.906-29.212c4.692-10.45,15.193-17.735,27.382-17.735h14.079c12.189,0,22.69,7.285,27.383,17.735h7.129c15.302,0,27.945,11.483,29.773,26.294Zm-18.814-101.568c.893-7.235,7.067-12.843,14.541-12.843h3.482c2.292-5.104,7.421-8.662,13.374-8.662h6.876c5.954,0,11.082,3.558,13.374,8.662c7.94.022,14.402,6.372,14.607,14.267c3.74,2.656,6.182,7.023,6.182,11.955c0,8.087-6.565,14.652-14.652,14.652h-51.806c-8.087,0-14.652-6.565-14.652-14.652c0-5.958,3.563-11.09,8.674-13.379ZM-559.697,196.97c-.038-.589-.057-1.183-.057-1.782c0-15.005,12.182-27.188,27.188-27.188h13.032c0-16.557,13.443-30,30-30h50.799c11.715,0,21.871,6.73,26.809,16.532c15.659.997,28.068,14.03,28.068,29.938c0,1.325-.086,2.63-.253,3.91c13.743,2.739,24.114,14.879,24.114,29.422c0,16.557-13.443,30-30,30h-162.238c-14.328,0-25.961-11.633-25.961-25.961c0-11.735,7.803-21.662,18.499-24.871Zm275.313-10.496c-2.067-4.071-3.233-8.677-3.233-13.552c0-16.557,13.443-30,30-30h5.919c.091,0,.182.001.273.002c4.953-9.757,15.085-16.45,26.768-16.45h14.079c16.557,0,30,13.443,30,30c0,.475-.011.947-.033,1.416c12.1,3.866,20.872,15.209,20.872,28.584h.061c9.868,0,17.88,8.012,17.88,17.88s-8.012,17.88-17.88,17.88h-125.659c-9.869,0-17.88-8.012-17.88-17.88s8.011-17.88,17.88-17.88h.953Z" clip-rule="evenodd" fill="#f6edf5" fill-rule="evenodd" stroke-linejoin="round" stroke-miterlimit="2"/></g></g><g id="emyLD69B1HU9_to" transform="translate(339.599968,390.646081)"><g transform="translate(-339.599968,-360.000008)" clip-rule="evenodd"><g clip-rule="evenodd"><path d="M388.08,539.054l-23.771-11.886v85.404l23.771,11.886v-85.404Z" clip-rule="evenodd" fill="#f9a02b" fill-rule="evenodd" stroke-linejoin="round" stroke-miterlimit="2"/><path d="M435.623,514.18L388.08,537.952v86.506l47.543-23.771v-86.507Z" clip-rule="evenodd" fill="#9c5b24" fill-rule="evenodd" stroke-linejoin="round" stroke-miterlimit="2"/><path d="M459.395,137.142L174.136,279.771l95.086,47.543L554.481,184.685l-95.086-47.543Z" clip-rule="evenodd" fill="#ffec1d" fill-rule="evenodd" stroke-linejoin="round" stroke-miterlimit="2"/><path d="M411.852,184.685L269.222,256l11.886,5.943l142.629-71.315-11.885-5.943Z" clip-rule="evenodd" fill="#f9a02b" fill-rule="evenodd" stroke-linejoin="round" stroke-miterlimit="2"/><path d="M447.509,202.514L304.88,273.828l11.885,5.943l142.63-71.314-11.886-5.943Z" clip-rule="evenodd" fill="#f9a02b" fill-rule="evenodd" stroke-linejoin="round" stroke-miterlimit="2"/><path d="M197.908,291.657l47.543,23.771v-23.771l23.771,11.886v118.857l-95.086-47.543v-118.857l23.772,11.885v23.772Z" clip-rule="evenodd" fill="#f9a02b" fill-rule="evenodd" stroke-linejoin="round" stroke-miterlimit="2"/><path d="M316.765,398.629l-47.543-23.772v35.657l47.543,23.772v-35.657Z" clip-rule="evenodd" fill="#ed8907" fill-rule="evenodd" stroke-linejoin="round" stroke-miterlimit="2"/><path d="M388.08,446.172l-35.657-17.829v95.086l35.657,17.829v-95.086Z" clip-rule="evenodd" fill="#ed8907" fill-rule="evenodd" stroke-linejoin="round" stroke-miterlimit="2"/><path d="M352.423,416.457l-23.772-11.885v47.543L352.423,464v-47.543Z" clip-rule="evenodd" fill="#ed8907" fill-rule="evenodd" stroke-linejoin="round" stroke-miterlimit="2"/><path d="M209.794,357.029l-47.543-23.772v47.543l47.543,23.772v-47.543Z" clip-rule="evenodd" fill="#f9a02b" fill-rule="evenodd" stroke-linejoin="round" stroke-miterlimit="2"/><path d="M530.709,172.799l-95.086-47.543v23.772l95.086,47.543v-23.772Z" clip-rule="evenodd" fill="#f9a02b" fill-rule="evenodd" stroke-linejoin="round" stroke-miterlimit="2"/><path d="M162.251,380.8l-23.772-11.886v23.772l23.772,11.886v-23.772Z" clip-rule="evenodd" fill="#f9a02b" fill-rule="evenodd" stroke-linejoin="round" stroke-miterlimit="2"/><path d="M459.395,357.029v148.571L388.08,541.258v-95.086L352.423,464v-53.486l106.972-53.485Z" clip-rule="evenodd" fill="#ac6428" fill-rule="evenodd" stroke-linejoin="round" stroke-miterlimit="2"/><path d="M506.938,299.575L316.765,394.662v39.624L506.938,339.2v-39.625Z" clip-rule="evenodd" fill="#ba6c2b" fill-rule="evenodd" stroke-linejoin="round" stroke-miterlimit="2"/><path d="M245.451,339.2l-35.657,17.829v47.543l35.657-17.829v-47.543Z" clip-rule="evenodd" fill="#ce7830" fill-rule="evenodd" stroke-linejoin="round" stroke-miterlimit="2"/><path d="M221.679,256l-23.771,11.885v23.772l23.771-11.886v-23.771Z" clip-rule="evenodd" fill="#ce7830" fill-rule="evenodd" stroke-linejoin="round" stroke-miterlimit="2"/><path d="M197.908,362.971L162.251,380.8v23.772l35.657-17.829v-23.772Z" clip-rule="evenodd" fill="#ce7830" fill-rule="evenodd" stroke-linejoin="round" stroke-miterlimit="2"/><path d="M197.908,315.428l-35.657,17.829l47.543,23.772L245.451,339.2l-47.543-23.772Z" clip-rule="evenodd" fill="#fff36f" fill-rule="evenodd" stroke-linejoin="round" stroke-miterlimit="2"/><path d="M269.222,279.771l-23.771,11.886l23.771,11.886l23.772-11.886-23.772-11.886Z" clip-rule="evenodd" fill="#fff36f" fill-rule="evenodd" stroke-linejoin="round" stroke-miterlimit="2"/><path d="M471.28,107.428l-35.657,17.828l95.086,47.543l35.657-17.828-95.086-47.543Z" clip-rule="evenodd" fill="#ffec1d" fill-rule="evenodd" stroke-linejoin="round" stroke-miterlimit="2"/><path d="M197.908,244.114L174.136,256l23.772,11.885L221.679,256l-23.771-11.886Z" clip-rule="evenodd" fill="#fff36f" fill-rule="evenodd" stroke-linejoin="round" stroke-miterlimit="2"/><path d="M174.136,351.086l-35.657,17.828L162.251,380.8l35.657-17.829-23.772-11.885Z" clip-rule="evenodd" fill="#fff36f" fill-rule="evenodd" stroke-linejoin="round" stroke-miterlimit="2"/><path d="M542.595,154.971l-23.772-11.886v11.886l23.772,11.886v-11.886Z" clip-rule="evenodd" fill="#f9a02b" fill-rule="evenodd" stroke-linejoin="round" stroke-miterlimit="2"/><path d="M471.28,119.313l-23.771-11.885v11.885l23.771,11.886v-11.886Z" clip-rule="evenodd" fill="#f9a02b" fill-rule="evenodd" stroke-linejoin="round" stroke-miterlimit="2"/><path d="M495.052,107.428L471.28,119.313v11.886l23.772-11.886v-11.885Z" clip-rule="evenodd" fill="#ce7830" fill-rule="evenodd" stroke-linejoin="round" stroke-miterlimit="2"/><path d="M542.595,131.199l-23.772,11.886l23.772,11.886l23.771-11.886-23.771-11.886Z" clip-rule="evenodd" fill="#fff36f" fill-rule="evenodd" stroke-linejoin="round" stroke-miterlimit="2"/><path d="M471.28,95.542l-23.771,11.886l23.771,11.885l23.772-11.885L471.28,95.542Z" clip-rule="evenodd" fill="#fff36f" fill-rule="evenodd" stroke-linejoin="round" stroke-miterlimit="2"/><path d="M566.366,143.085v47.543l-11.885,5.943v83.2L269.222,422.4v-118.857l23.772-11.886v23.771L530.709,196.571v-23.772l11.886-5.942v-11.886l23.771-11.886Z" clip-rule="evenodd" fill="#ce7830" fill-rule="evenodd" stroke-linejoin="round" stroke-miterlimit="2"/><path d="M506.938,232.228v11.886L352.423,321.371v-11.885l154.515-77.258Zm0,35.657v11.886L352.423,357.029v-11.886l154.515-77.258Z" clip-rule="evenodd" fill="#ac6428" fill-rule="evenodd" stroke-linejoin="round" stroke-miterlimit="2"/></g><g clip-rule="evenodd"><path d="M116.925,350.947l5.937-3.196c3.269-2.177,8.552-1.117,13.553,3.201.27.233.538.475.802.723-.034.377-.051.768-.051,1.171c0,1.322.187,2.735.555,4.192l2.641,10.447-7.421-9.313c-1.036-1.299-2.172-2.487-3.373-3.524-4.56-3.937-9.355-5.165-12.643-3.701Zm24.011-5.612l6.454-3.474c.199-.122.406-.233.619-.333c2.291-1.072,5.384-.847,8.786.933c7.054,3.692,12.782,12.684,12.782,20.068c0,1.322-.188,2.538-.556,3.61l-2.64,7.684l7.421-1.546c1.035-.216,2.172-.213,3.373.007c6.709,1.229,13.926,8.855,16.106,17.018c1.576,5.904.09,10.482-3.392,12.1l-6.443,3.49c3.19-1.777,4.502-6.224,2.988-11.894-2.18-8.163-9.397-15.789-16.106-17.018-1.201-.22-2.338-.223-3.373-.007l-7.421,1.546l2.64-7.684c.368-1.072.555-2.288.555-3.61c0-7.384-5.727-16.376-12.781-20.068-3.515-1.84-6.7-2.018-9.012-.822Zm38.766,60.39c.938,1.259,1.77,2.595,2.47,3.971c3.669,7.205,3.1,14.071-1.032,16.495-.127.074-.256.144-.39.21l-6.399,3.451c4.079-2.454,4.625-9.289.974-16.46-.742-1.458-1.632-2.872-2.64-4.196l-7.227-9.491l9.053,4.564c1.263.637,2.515,1.073,3.716,1.293.51.093,1.001.147,1.475.163Zm-27.908,4.222c-.232.187-.476.355-.728.505-.145.085-.293.164-.443.238l-6.174,3.315c.281-.184.549-.391.803-.624.742-.681,1.329-1.553,1.741-2.587l2.955-7.411l1.846,6.564Zm-25.715-24.135l6.351-3.431l2.007,1.089-7.226,1.927c-.396.106-.774.244-1.132.415Z" clip-rule="evenodd" fill="#672661" fill-rule="evenodd" stroke-linejoin="round" stroke-miterlimit="2"/><path d="M137.721,357.038c-.368-1.457-.555-2.87-.555-4.192c0-7.384,5.727-10.381,12.782-6.689c7.054,3.692,12.781,12.684,12.781,20.068c0,1.322-.187,2.538-.555,3.61l-2.64,7.684l7.421-1.546c1.035-.216,2.172-.213,3.373.007c6.709,1.229,13.926,8.855,16.106,17.018c2.18,8.164-1.498,13.793-8.207,12.564-1.201-.22-2.453-.656-3.716-1.293l-9.053-4.564l7.227,9.491c1.008,1.324,1.898,2.738,2.64,4.196c4.147,8.144,2.879,15.854-2.828,17.208-5.707,1.353-13.707-4.16-17.853-12.304-.743-1.458-1.329-2.944-1.742-4.409l-2.954-10.504-2.955,7.411c-.412,1.034-.999,1.906-1.741,2.587-4.147,3.804-12.147.943-17.854-6.384s-6.974-16.364-2.828-20.167c.743-.681,1.632-1.164,2.641-1.433l7.226-1.927-9.053-4.911c-1.262-.685-2.515-1.56-3.716-2.598-6.709-5.793-10.386-15.271-8.206-21.152c2.18-5.882,9.396-5.954,16.106-.161c1.201,1.037,2.337,2.225,3.373,3.524l7.421,9.313-2.641-10.447Z" clip-rule="evenodd" fill="#ee1f75" fill-rule="evenodd" stroke-linejoin="round" stroke-miterlimit="2"/><path d="M149.948,376.792c5.142,2.691,9.316,9.245,9.316,14.627s-4.174,7.567-9.316,4.876-9.317-9.245-9.317-14.627s4.175-7.567,9.317-4.876Z" clip-rule="evenodd" fill="#f0dfee" fill-rule="evenodd" stroke-linejoin="round" stroke-miterlimit="2"/></g></g></g></g><clipPath id="emyLD69B1HU44"><rect width="720" height="720" rx="0" ry="0" clip-rule="evenodd" fill-rule="evenodd" stroke-linejoin="round" stroke-miterlimit="2"/></clipPath></g></svg>
