<svg id="e2ZupWxnBsw1" xmlns="http://www.w3.org/2000/svg" xmlns:xlink="http://www.w3.org/1999/xlink" viewBox="0 0 720 720" shape-rendering="geometricPrecision" text-rendering="geometricPrecision">
<style><![CDATA[
#e2ZupWxnBsw6_tr {animation: e2ZupWxnBsw6_tr__tr 2777.777777777778ms linear infinite normal forwards}@keyframes e2ZupWxnBsw6_tr__tr { 0% {transform: translate(360.000367px,360.001343px) rotate(0deg);animation-timing-function: cubic-bezier(0.42,0,0.58,1)} 48% {transform: translate(360.000367px,360.001343px) rotate(13.95747deg);animation-timing-function: cubic-bezier(0.42,0,0.58,1)} 100% {transform: translate(360.000367px,360.001343px) rotate(0deg)}} #e2ZupWxnBsw7_to {animation: e2ZupWxnBsw7_to__to 2777.777777777778ms linear infinite normal forwards}@keyframes e2ZupWxnBsw7_to__to { 0% {transform: translate(335.332105px,385.970278px);animation-timing-function: cubic-bezier(0.445,0.05,0.55,0.95)} 48% {transform: translate(386.782287px,334.520098px);animation-timing-function: cubic-bezier(0.445,0.05,0.55,0.95)} 100% {transform: translate(335.332105px,385.970278px)}} #e2ZupWxnBsw7_tr {animation: e2ZupWxnBsw7_tr__tr 2777.777777777778ms linear infinite normal forwards}@keyframes e2ZupWxnBsw7_tr__tr { 0% {transform: rotate(0deg);animation-timing-function: cubic-bezier(0.445,0.05,0.55,0.95)} 48% {transform: rotate(5deg);animation-timing-function: cubic-bezier(0.445,0.05,0.55,0.95)} 100% {transform: rotate(0deg)}}
]]></style>
<rect width="720" height="720" rx="0" ry="0" clip-rule="evenodd" fill="none" fill-rule="evenodd" stroke-linejoin="round" stroke-miterlimit="2"/><g clip-path="url(#e2ZupWxnBsw10)" clip-rule="evenodd"><g><rect width="720" height="720" rx="0" ry="0" clip-rule="evenodd" fill-rule="evenodd" stroke-linejoin="round" stroke-miterlimit="2"/><g id="e2ZupWxnBsw6_tr" transform="translate(360.000367,360.001343) rotate(0)"><path d="M299.869,-200.42c-.201-2.003-.301-4.015-.301-6.028c0-33.353,27.079-60.432,60.432-60.432s60.432,27.079,60.432,60.432c0,2.013-.1,4.025-.301,6.028L366.656,332.994l200.541-497.165c.753-1.867,1.599-3.695,2.534-5.478c15.5-29.533,52.062-40.926,81.595-25.426s40.926,52.062,25.425,81.595c-.935,1.782-1.959,3.517-3.068,5.197L378.444,339.181L787.058,-7.841c1.535-1.304,3.133-2.529,4.79-3.673c27.449-18.947,65.117-12.044,84.064,15.406c18.947,27.449,12.044,65.117-15.405,84.064-1.657,1.143-3.37,2.203-5.132,3.176L386.006,350.137l523.08-117.381c1.964-.44,3.949-.783,5.947-1.025c33.111-4.021,63.256,19.597,67.276,52.707c4.021,33.11-19.597,63.256-52.707,67.276-1.998.243-4.008.385-6.02.427L387.611,363.353L905.324,502.504c1.944.523,3.861,1.142,5.743,1.856c31.186,11.827,46.903,46.749,35.076,77.935s-46.749,46.903-77.935,35.075c-1.882-.714-3.727-1.521-5.529-2.419L382.89,375.8L776.636,739.606c1.478,1.366,2.888,2.805,4.223,4.312c22.117,24.966,19.805,63.191-5.161,85.308-24.965,22.118-63.19,19.806-85.308-5.16-1.335-1.507-2.594-3.079-3.772-4.712L372.926,384.628L552.501,889.745c.674,1.896,1.253,3.826,1.735,5.78c7.982,32.385-11.83,65.157-44.214,73.139s-65.156-11.83-73.138-44.214c-.482-1.954-.866-3.932-1.15-5.925L360,387.814L284.266,918.525c-.284,1.993-.668,3.971-1.15,5.925-7.982,32.384-40.754,52.196-73.138,44.214s-52.196-40.754-44.214-73.139c.482-1.954,1.061-3.884,1.735-5.78L347.074,384.628L33.382,819.354c-1.178,1.633-2.437,3.205-3.772,4.712-22.118,24.966-60.343,27.278-85.308,5.16-24.966-22.117-27.278-60.342-5.161-85.308c1.335-1.507,2.745-2.946,4.223-4.312L337.11,375.8L-142.679,614.951c-1.802.898-3.647,1.705-5.529,2.419-31.186,11.828-66.108-3.889-77.935-35.075s3.89-66.108,35.076-77.935c1.882-.714,3.799-1.333,5.743-1.856L332.389,363.353l-535.971-11.212c-2.012-.042-4.022-.184-6.02-.427-33.11-4.02-56.728-34.166-52.707-67.276c4.02-33.11,34.165-56.728,67.276-52.707c1.998.242,3.983.585,5.947,1.025l523.08,117.381L-135.375,91.132c-1.762-.973-3.475-2.033-5.132-3.176-27.449-18.947-34.352-56.615-15.405-84.064c18.947-27.45,56.615-34.353,84.064-15.406c1.657,1.144,3.255,2.369,4.79,3.673L341.556,339.181L46.317,-108.283c-1.109-1.68-2.133-3.415-3.068-5.197-15.501-29.533-4.108-66.095,25.425-81.595s66.095-4.107,81.595,25.426c.935,1.783,1.781,3.611,2.534,5.478L353.344,332.994L299.869,-200.42Z" transform="translate(-360.000214,-351.775635)" clip-rule="evenodd" fill="#ffc200" fill-rule="evenodd" stroke-linejoin="round" stroke-miterlimit="2"/></g><g id="e2ZupWxnBsw7_to" transform="translate(335.332105,385.970278)"><g id="e2ZupWxnBsw7_tr" transform="rotate(0)"><g transform="translate(-359.779449,-361.302383)" clip-rule="evenodd"><path d="M618.658,240.33c11.52,4.298,19.586,12.368,22.769,24.098c2.66,9.8.582,19.232-6.824,27.893-5.646,6.603-15.995,13.23-29.865,18.673-24.637,9.67-62.425,17.157-93.681,23.205c4.453,5.509,7.804,12.107,9.442,19.962c3.012,14.442-.106,23.619-4.061,29.361-1.776,2.578-3.869,4.737-6.248,6.491c1.206,6.659,1.225,14.944-.901,25.538-2.13,10.609-6.338,20.395-15.925,28.057-10.618,8.488-30.855,15.343-72.586,10.765-2.413-.265-4.134-.524-5.452.126-1.404.692-2.147,2.058-3.173,3.321-2.693,3.317-5.429,7.029-8.917,10.79-12.548,13.533-33.841,29.454-95.415,28.141-9.314-.199-18.285,3.896-27.159,9.48-11.293,7.107-22.192,16.813-32.696,26.674-14.211,13.342-27.734,27-40.255,36.59-10.829,8.293-21.351,13.733-30.99,15.553-10.946,2.068-23.947-1.664-36.583-12.338-18.761-15.851-39.046-49.097-51.215-79.88-8.71-22.034-13.016-42.914-11.649-55.81c1.221-11.527,6.379-19.31,12.978-23.776c13.933-9.43,42.943-17.14,71.278-27.114c12.01-4.227,23.869-8.968,33.802-14.9c7.579-4.525,14.078-9.518,17.464-16.152c45.299-88.778,48.94-70.384,72.982-107.726c21.652-33.631,22.805-55.363,24.981-70.514c1.488-10.36,3.747-18.645,8.439-25.852c5.251-8.064,11.946-11.942,18.588-13.369c9.007-1.934,19.702.564,29.121,10.245c6.013,6.18,11.992,16.074,15.974,29.08c4.679,15.283,6.837,35.371,3.359,57.999c5.908-1.65,12.498-3.067,20.287-4.49c25.501-4.657,65.739-9.545,144.617-26.398c19.277-4.119,34.751-2.94,44.819.634c12.184,4.326,18.923,12.325,21.512,20.835c1.654,5.438,1.926,10.325,1.183,14.808Z" clip-rule="evenodd" fill="#080000" fill-rule="evenodd" stroke-linejoin="round" stroke-miterlimit="2"/><path d="M573.873,255.08l-74.765,20.386L582.223,256.8c17.836-2.225,36.894-1.119,40.636,12.667c8.29,30.55-129.093,45.651-163.243,56.173-12.913,3.979,35.822,2.596,42.048,32.449c8.218,39.408-47.984,2.019-39.593,8.46c15.392,11.817,35.097,11.622,28.354,45.215-3.153,15.709-11.765,29.604-67.549,23.484-40.912-4.488-10.867,44.479-114.645,42.267-51.558-1.099-99.241,81.858-135.081,88.627-34.875,6.587-94.244-121.987-72.114-136.964c26.078-17.65,109.308-26.962,128.898-65.355c44.63-87.467,48.334-69.265,72.021-106.056c34.321-53.309,22.489-79.576,33.367-96.282c15.745-24.182,54.811,39.2,18.246,112.964c40.021-31.92,43.223-17.742,201.596-51.581c24.63-5.263,41.17-.732,43.904,8.253c3.384,11.125-5.225,16.418-25.195,23.959Z" transform="translate(-.022293 0)" clip-rule="evenodd" fill="#ffc200" fill-rule="evenodd" stroke-linejoin="round" stroke-miterlimit="2"/></g></g></g></g><clipPath id="e2ZupWxnBsw10"><rect width="720" height="720" rx="0" ry="0" clip-rule="evenodd" fill-rule="evenodd" stroke-linejoin="round" stroke-miterlimit="2"/></clipPath></g></svg>
