<svg id="elvcWsCdVwm1" xmlns="http://www.w3.org/2000/svg" xmlns:xlink="http://www.w3.org/1999/xlink" viewBox="0 0 720 720" shape-rendering="geometricPrecision" text-rendering="geometricPrecision">
<style><![CDATA[
#elvcWsCdVwm3_to {animation: elvcWsCdVwm3_to__to 3500ms linear infinite normal forwards}@keyframes elvcWsCdVwm3_to__to { 0% {transform: translate(360.00013px,426.27443px)} 42.857143% {transform: translate(360.00013px,426.27443px);animation-timing-function: cubic-bezier(0.445,0.05,0.55,0.95)} 57.142857% {transform: translate(360.00013px,360px)} 100% {transform: translate(360.00013px,360px)}} #elvcWsCdVwm4 {animation: elvcWsCdVwm4_c_o 3500ms linear infinite normal forwards}@keyframes elvcWsCdVwm4_c_o { 0% {opacity: 0} 42.857143% {opacity: 0} 57.142857% {opacity: 1} 100% {opacity: 1}} #elvcWsCdVwm5_ts {animation: elvcWsCdVwm5_ts__ts 3500ms linear infinite normal forwards}@keyframes elvcWsCdVwm5_ts__ts { 0% {transform: translate(360.000015px,359.999985px) scale(0.6,0.6)} 28.571429% {transform: translate(360.000015px,359.999985px) scale(0.6,0.6);animation-timing-function: cubic-bezier(0.175,0.885,0.32,1.275)} 42.857143% {transform: translate(360.000015px,359.999985px) scale(1,1)} 100% {transform: translate(360.000015px,359.999985px) scale(1,1)}} #elvcWsCdVwm6_tr {animation: elvcWsCdVwm6_tr__tr 3500ms linear infinite normal forwards}@keyframes elvcWsCdVwm6_tr__tr { 0% {transform: translate(360.000024px,360.000047px) rotate(0deg)} 28.571429% {transform: translate(360.000024px,360.000047px) rotate(360deg)} 100% {transform: translate(360.000024px,360.000047px) rotate(360deg)}} #elvcWsCdVwm6_ts {animation: elvcWsCdVwm6_ts__ts 3500ms linear infinite normal forwards}@keyframes elvcWsCdVwm6_ts__ts { 0% {transform: scale(3.237699,3.237699)} 28.571429% {transform: scale(0.6,0.6);animation-timing-function: cubic-bezier(0.175,0.885,0.32,1.275)} 42.857143% {transform: scale(1,1)} 100% {transform: scale(1,1)}}
]]></style>
<rect width="720" height="720" rx="0" ry="0" clip-rule="evenodd" fill="#fc0" fill-rule="evenodd" stroke="#fff" stroke-width="0.24" stroke-linecap="round" stroke-linejoin="round" stroke-miterlimit="1.5"/><g id="elvcWsCdVwm3_to" transform="translate(360.00013,426.27443)"><g transform="translate(-360.00013,-426.274429)"><path id="elvcWsCdVwm4" d="M333.74,562.972c-2.114-2.07-3.107-4.648-2.961-7.741.001-.032.003-.065.005-.097.095-1.404.44-2.719,1.029-3.947.61-1.272,1.448-2.354,2.516-3.241l18.701-16.038c.762-.653,1.71-1.009,2.688-1.009h16.404c1.816,0,3.435,1.218,4.039,3.04.604,1.821.062,3.85-1.352,5.062c0,0-20.35,17.435-20.35,17.435l20.636,21.159c1.257,1.289,1.652,3.261.999,4.983-.654,1.723-2.225,2.851-3.972,2.851h-14.787c-1.11,0-2.176-.458-2.975-1.278c0,0-16.717-17.17-20.06-20.603-.309-.318-.503-.518-.56-.576Zm254.42,0c-2.113-2.07-3.106-4.648-2.961-7.741.002-.032.004-.065.006-.097.094-1.404.439-2.719,1.029-3.947.61-1.272,1.447-2.354,2.515-3.241l18.702-16.038c.761-.653,1.71-1.009,2.688-1.009h16.404c1.816,0,3.434,1.218,4.038,3.04.604,1.821.063,3.85-1.352,5.062c0,0-20.35,17.435-20.35,17.435l20.636,21.159c1.257,1.289,1.653,3.261.999,4.983-.653,1.723-2.225,2.851-3.971,2.851h-14.787c-1.11,0-2.177-.458-2.975-1.278c0,0-16.718-17.17-20.06-20.603-.309-.318-.504-.518-.561-.576Zm-457.534-26.78v44.682c0,2.516-1.917,4.555-4.283,4.555h-10.252c-2.365,0-4.283-2.039-4.283-4.555c0,0,0-44.682,0-44.682h-18.351c-2.365,0-4.282-2.039-4.282-4.555v-10.904c0-2.516,1.917-4.555,4.282-4.555h55.481c2.365,0,4.283,2.039,4.283,4.555v10.904c0,2.516-1.918,4.555-4.283,4.555h-18.312Zm69.155,14.805h-13.739c-2.366,0-4.283-2.04-4.283-4.555v-10.905c0-2.515,1.917-4.555,4.283-4.555h13.92c1.248,0,2.563.147,3.945.452c1.37.302,2.731.77,4.084,1.409c1.369.647,2.68,1.48,3.93,2.504c1.316,1.078,2.476,2.38,3.472,3.912.963,1.48,1.746,3.183,2.33,5.12.571,1.893.875,4.032.875,6.424v30.071c0,2.516-1.917,4.555-4.283,4.555h-10.252c-2.365,0-4.282-2.039-4.282-4.555v-29.877Zm70.691,0v14.418h27.618c2.365,0,4.282,2.039,4.282,4.555v10.904c0,2.516-1.917,4.555-4.282,4.555h-27.8c-1.79,0-3.749-.315-5.872-.985-2.204-.696-4.248-1.835-6.125-3.428-1.873-1.59-3.454-3.641-4.708-6.181-1.246-2.523-1.931-5.603-1.931-9.269v-14.763c0-1.326.138-2.725.425-4.196.284-1.456.723-2.904,1.325-4.343.608-1.456,1.391-2.85,2.354-4.18c1.014-1.4,2.237-2.634,3.678-3.693c1.392-1.023,2.993-1.857,4.814-2.478c1.78-.607,3.791-.931,6.04-.931h27.8c2.365,0,4.282,2.04,4.282,4.555v10.905c0,2.515-1.917,4.555-4.282,4.555h-27.618Zm254.42,0v14.418h27.618c2.365,0,4.283,2.039,4.283,4.555v10.904c0,2.516-1.918,4.555-4.283,4.555h-27.799c-1.791,0-3.75-.315-5.872-.985-2.204-.696-4.248-1.835-6.126-3.428-1.873-1.59-3.453-3.641-4.708-6.181-1.245-2.523-1.93-5.603-1.93-9.269v-14.763c0-1.326.138-2.725.424-4.196.284-1.456.724-2.904,1.325-4.343.608-1.456,1.391-2.85,2.354-4.18c1.014-1.4,2.238-2.634,3.678-3.693c1.392-1.023,2.994-1.857,4.815-2.478c1.779-.607,3.79-.931,6.04-.931h27.799c2.365,0,4.283,2.04,4.283,4.555v10.905c0,2.515-1.918,4.555-4.283,4.555h-27.618ZM174.457,585.429h-10.253c-2.365,0-4.282-2.039-4.282-4.555v-64.503c0-2.516,1.917-4.555,4.282-4.555h10.253c2.365,0,4.282,2.039,4.282,4.555v64.503c0,2.516-1.917,4.555-4.282,4.555Zm66.091-57.345h-10.252c-2.365,0-4.283-2.039-4.283-4.555v-9.856c0-2.515,1.918-4.555,4.283-4.555h10.252c2.365,0,4.283,2.04,4.283,4.555v9.856c0,2.516-1.918,4.555-4.283,4.555Zm0,57.345h-10.252c-2.365,0-4.283-2.039-4.283-4.555v-45.337c0-2.515,1.918-4.555,4.283-4.555h10.252c2.365,0,4.283,2.04,4.283,4.555v45.337c0,2.516-1.918,4.555-4.283,4.555Zm82.867,0h-10.252c-2.365,0-4.282-2.039-4.282-4.555v-64.503c0-2.516,1.917-4.555,4.282-4.555h10.252c2.366,0,4.283,2.039,4.283,4.555v64.503c0,2.516-1.917,4.555-4.283,4.555Zm146.885,0h-14.55c-1.137,0-2.228-.481-3.031-1.337l-21.813-23.24h-5.44c-2.365,0-4.282-2.039-4.282-4.555v-10.988c0-2.515,1.917-4.555,4.282-4.555h5.44l21.813-23.239c.803-.856,1.894-1.337,3.031-1.337h14.55c1.743,0,3.312,1.123,3.968,2.841.656,1.717.268,3.686-.981,4.979c0,0-18.381,19.018-25.906,26.805l25.906,26.806c1.249,1.293,1.637,3.262.981,4.979-.656,1.718-2.225,2.841-3.968,2.841Zm-57.015,0h-10.253c-2.365,0-4.282-2.039-4.282-4.555v-60.141c0-2.516,1.917-4.555,4.282-4.555h10.253c2.365,0,4.282,2.039,4.282,4.555v60.141c0,2.516-1.917,4.555-4.282,4.555Zm81.684-57.345h-10.253c-2.365,0-4.282-2.039-4.282-4.555v-9.856c0-2.515,1.917-4.555,4.282-4.555h10.253c2.365,0,4.282,2.04,4.282,4.555v9.856c0,2.516-1.917,4.555-4.282,4.555Zm0,57.345h-10.253c-2.365,0-4.282-2.039-4.282-4.555v-45.337c0-2.515,1.917-4.555,4.282-4.555h10.253c2.365,0,4.282,2.04,4.282,4.555v45.337c0,2.516-1.917,4.555-4.282,4.555Zm82.867,0h-10.252c-2.366,0-4.283-2.039-4.283-4.555v-64.503c0-2.516,1.917-4.555,4.283-4.555h10.252c2.365,0,4.283,2.039,4.283,4.555v64.503c0,2.516-1.918,4.555-4.283,4.555Z" transform="translate(-.000158 65.935379)" opacity="0" clip-rule="evenodd" fill-rule="evenodd" stroke-linecap="round" stroke-linejoin="round" stroke-miterlimit="1.5"/><g id="elvcWsCdVwm5_ts" transform="translate(360.000015,359.999985) scale(0.6,0.6)"><path d="M360,140.801c84.214,0,152.585,68.371,152.585,152.586c0,84.214-68.371,152.585-152.585,152.585s-152.585-68.371-152.585-152.585c0-84.215,68.371-152.586,152.585-152.586Zm0,22.072c-72.033,0-130.514,58.481-130.514,130.514C229.486,365.419,287.967,423.9,360,423.9s130.514-58.481,130.514-130.513c0-72.033-58.481-130.514-130.514-130.514Zm91.244,62.444c14.196,18.992,22.606,42.556,22.606,68.07c0,25.513-8.41,49.077-22.606,68.07-1.223,1.636-3.097,2.66-5.135,2.807-2.037.146-4.038-.599-5.483-2.044L417.96,339.554c-2.36-2.36-2.739-6.051-.908-8.841c7.037-10.726,11.129-23.552,11.129-37.326c0-13.775-4.092-26.601-11.129-37.327-1.831-2.789-1.452-6.481.908-8.84l22.666-22.667c1.445-1.444,3.446-2.19,5.483-2.044c2.038.147,3.912,1.171,5.135,2.808ZM291.93,202.143c18.993-14.196,42.557-22.607,68.07-22.607s49.077,8.411,68.07,22.607c1.636,1.223,2.661,3.097,2.807,5.134.147,2.038-.599,4.039-2.044,5.484l-22.666,22.666c-2.359,2.359-6.051,2.739-8.841.908-10.725-7.037-23.551-11.13-37.326-11.13s-26.601,4.093-37.326,11.13c-2.79,1.831-6.482,1.451-8.841-.908l-22.666-22.666c-1.445-1.445-2.191-3.446-2.044-5.484.146-2.037,1.171-3.911,2.807-5.134Zm81.792,158.041c8.56-1.752,16.538-5.11,23.604-9.746c2.79-1.83,6.482-1.451,8.841.908l22.666,22.667c1.445,1.444,2.191,3.445,2.044,5.483-.146,2.038-1.171,3.911-2.807,5.134-18.993,14.196-42.557,22.607-68.07,22.607s-49.077-8.411-68.07-22.607c-1.636-1.223-2.661-3.096-2.807-5.134-.147-2.038.599-4.039,2.044-5.483l22.666-22.667c2.359-2.359,6.051-2.738,8.841-.908c7.066,4.636,15.044,7.994,23.604,9.746v-31.672c0-.59-.234-1.155-.651-1.572s-.983-.651-1.573-.651h-1.256c-8.324,0-15.241-7.22-15.241-16.292v-25.485c0-9.072,6.917-16.291,15.241-16.291h34.404c8.324,0,15.241,7.219,15.241,16.291v25.485c0,9.072-6.917,16.292-15.241,16.292h-1.256c-.59,0-1.156.234-1.573.651s-.651.982-.651,1.572v31.672Zm-104.966,1.273c-14.196-18.993-22.606-42.557-22.606-68.07c0-25.514,8.41-49.078,22.606-68.07c1.223-1.637,3.097-2.661,5.135-2.808c2.037-.146,4.038.6,5.483,2.044L302.04,247.22c2.36,2.359,2.739,6.051.908,8.84-7.037,10.726-11.129,23.552-11.129,37.327c0,13.774,4.092,26.6,11.129,37.326c1.831,2.79,1.452,6.481-.908,8.841L279.374,362.22c-1.445,1.445-3.446,2.19-5.483,2.044-2.038-.147-3.912-1.171-5.135-2.807Z" transform="translate(-360.000015,-293.386475)" clip-rule="evenodd" fill-rule="evenodd" stroke-linecap="round" stroke-linejoin="round" stroke-miterlimit="1.5"/></g><g id="elvcWsCdVwm6_tr" transform="translate(360.000024,360.000047) rotate(0)"><g id="elvcWsCdVwm6_ts" transform="scale(3.237699,3.237699)"><path d="M211.279,451.808l37.017-12.339c2.521-.84,4.428-2.926,5.038-5.513.611-2.587-.161-5.305-2.041-7.185l-24.678-24.678c-1.879-1.879-4.598-2.651-7.184-2.041-2.587.611-4.673,2.517-5.514,5.039l-12.339,37.017c-.918,2.756-.201,5.794,1.853,7.848s5.092,2.771,7.848,1.852Zm297.442,0c2.756.919,5.794.202,7.848-1.852s2.771-5.092,1.853-7.848l-12.339-37.017c-.841-2.522-2.927-4.428-5.514-5.039-2.586-.61-5.305.162-7.184,2.041l-24.678,24.678c-1.88,1.88-2.652,4.598-2.041,7.185.61,2.587,2.517,4.673,5.038,5.513l37.017,12.339ZM211.279,134.965c-2.756-.919-5.794-.202-7.848,1.852s-2.771,5.093-1.853,7.848l12.339,37.017c.841,2.522,2.927,4.428,5.514,5.039c2.586.61,5.305-.162,7.184-2.041l24.678-24.678c1.88-1.88,2.652-4.598,2.041-7.185-.61-2.587-2.517-4.673-5.038-5.513l-37.017-12.339Zm297.442,0l-37.017,12.339c-2.521.84-4.428,2.926-5.038,5.513-.611,2.587.161,5.305,2.041,7.185l24.678,24.678c1.879,1.879,4.598,2.651,7.184,2.041c2.587-.611,4.673-2.517,5.514-5.039l12.339-37.017c.918-2.755.201-5.794-1.853-7.848s-5.092-2.771-7.848-1.852Z" transform="translate(-360.000031,-293.38652)" clip-rule="evenodd" fill-rule="evenodd" stroke-linecap="round" stroke-linejoin="round" stroke-miterlimit="1.5"/></g></g></g></g></svg>
