<svg id="eBVSJt2DRGl1" xmlns="http://www.w3.org/2000/svg" xmlns:xlink="http://www.w3.org/1999/xlink" viewBox="0 0 3000 3000" shape-rendering="geometricPrecision" text-rendering="geometricPrecision">
<style><![CDATA[
#eBVSJt2DRGl6_to {animation: eBVSJt2DRGl6_to__to 4000ms linear infinite normal forwards}@keyframes eBVSJt2DRGl6_to__to { 0% {transform: translate(1500px,-327.864149px)} 17.5% {transform: translate(1500px,3327.864149px);animation-timing-function: step-end} 50% {transform: translate(1500px,-327.864149px)} 67.5% {transform: translate(1500px,3327.864149px)} 100% {transform: translate(1500px,3327.864149px)}} #eBVSJt2DRGl9_to {animation: eBVSJt2DRGl9_to__to 4000ms linear infinite normal forwards}@keyframes eBVSJt2DRGl9_to__to { 0% {transform: translate(1500.000427px,1544.050937px);animation-timing-function: cubic-bezier(0.445,0.05,0.55,0.95)} 50% {transform: translate(1500.000427px,1447.137669px);animation-timing-function: cubic-bezier(0.445,0.05,0.55,0.95)} 100% {transform: translate(1500.000427px,1544.050937px)}} #eBVSJt2DRGl9_tk {animation: eBVSJt2DRGl9_tk__tk 4000ms linear infinite normal forwards}@keyframes eBVSJt2DRGl9_tk__tk { 0% {transform: skewX(0deg) skewY(0deg)} 25% {transform: skewX(0deg) skewY(0deg)} 27% {transform: skewX(20deg) skewY(0deg)} 28.75% {transform: skewX(-80deg) skewY(0deg)} 32.25% {transform: skewX(0deg) skewY(0deg)} 100% {transform: skewX(0deg) skewY(0deg)}} #eBVSJt2DRGl10_to {animation: eBVSJt2DRGl10_to__to 4000ms linear infinite normal forwards}@keyframes eBVSJt2DRGl10_to__to { 0% {offset-distance: 0%} 25% {offset-distance: 25%} 50% {offset-distance: 50%} 75% {offset-distance: 75%} 100% {offset-distance: 100%}} #eBVSJt2DRGl10 {animation: eBVSJt2DRGl10_c_o 4000ms linear infinite normal forwards}@keyframes eBVSJt2DRGl10_c_o { 0% {opacity: 0} 25% {opacity: 1} 50% {opacity: 0} 75% {opacity: 1} 100% {opacity: 0}} #eBVSJt2DRGl11_to {animation: eBVSJt2DRGl11_to__to 4000ms linear infinite normal forwards}@keyframes eBVSJt2DRGl11_to__to { 0% {offset-distance: 0%} 25% {offset-distance: 25%} 50% {offset-distance: 50%} 75% {offset-distance: 75%} 100% {offset-distance: 100%}} #eBVSJt2DRGl11 {animation: eBVSJt2DRGl11_c_o 4000ms linear infinite normal forwards}@keyframes eBVSJt2DRGl11_c_o { 0% {opacity: 1} 25% {opacity: 0} 50% {opacity: 1} 75% {opacity: 0} 100% {opacity: 1}}
]]></style>
<defs><linearGradient id="eBVSJt2DRGl6-fill" x1="1433.819946" y1="435.11499" x2="1433.819946" y2="0" spreadMethod="pad" gradientUnits="userSpaceOnUse" gradientTransform="translate(0 0)"><stop id="eBVSJt2DRGl6-fill-0" offset="0%" stop-color="#fff"/><stop id="eBVSJt2DRGl6-fill-1" offset="100%" stop-color="rgba(255,255,255,0)"/></linearGradient></defs><rect width="3000" height="3000" rx="0" ry="0" clip-rule="evenodd" fill="none" fill-rule="evenodd" stroke-linejoin="round" stroke-miterlimit="2"/><g clip-path="url(#eBVSJt2DRGl13)" clip-rule="evenodd"><rect width="3000" height="3000" rx="0" ry="0" clip-rule="evenodd" fill-rule="evenodd" stroke-linejoin="round" stroke-miterlimit="2"/><g mask="url(#eBVSJt2DRGl7)"><g id="eBVSJt2DRGl6_to" transform="translate(1500,-327.864149)"><rect width="3000" height="435.11499" rx="0" ry="0" transform="scale(1,1.507023) translate(-1500,-217.557495)" clip-rule="evenodd" fill="url(#eBVSJt2DRGl6-fill)" fill-rule="evenodd" stroke-linejoin="round" stroke-miterlimit="2"/></g><mask id="eBVSJt2DRGl7" mask-type="luminance" x="-150%" y="-150%" height="400%" width="400%"><path d="M3000,39.292v39.292h-3000v-39.292h3000Zm0,117.877v78.584h-3000v-78.584h3000Zm0,157.169v78.584h-3000v-78.584h3000Zm0,157.169v78.584h-3000v-78.584h3000Zm0,157.169v78.584h-3000v-78.584h3000Zm0,157.169v78.584h-3000v-78.584h3000Zm0,157.168v78.587h-3000v-78.587h3000Zm0,157.167v78.59h-3000v-78.59h3000Zm0,157.17v78.59h-3000v-78.59h3000Zm0,157.17v78.59h-3000v-78.59h3000Zm0,157.17v78.58h-3000v-78.58h3000Zm0,157.17v78.58h-3000v-78.58h3000Zm0,157.17v78.58h-3000v-78.58h3000Zm0,157.17v78.58h-3000v-78.58h3000Zm0,157.17v78.58h-3000v-78.58h3000Zm0,157.16v78.59h-3000v-78.59h3000Zm0,157.17v78.59h-3000v-78.59h3000Zm0,157.17v78.59h-3000v-78.59h3000Zm0,157.17v78.58h-3000v-78.58h3000Zm0,157.17v78.58h-3000v-78.58h3000Zm0,157.17v78.58h-3000v-78.58h3000Zm0,157.17v78.58h-3000v-78.58h3000Zm0,157.17v78.58h-3000v-78.58h3000Zm0,157.17v78.58h-3000v-78.58h3000Zm0,157.16v78.59h-3000v-78.59h3000Zm0,157.17v39.29h-3000v-39.29h3000Z" transform="matrix(1 0 0 0.763511 0-30.000454)" clip-rule="evenodd" fill="#fff" fill-rule="evenodd" stroke-linejoin="round" stroke-miterlimit="2"/></mask></g><g id="eBVSJt2DRGl9_to" transform="translate(1500.000427,1544.050937)"><g id="eBVSJt2DRGl9_tk" transform="skewX(0) skewY(0)"><g transform="translate(-1500.000427,-1499.999451)" clip-rule="evenodd"><g id="eBVSJt2DRGl10_to" style="offset-path:path('M1473.813102,1500C1473.813102,1514.462624,1485.537376,1526.186898,1500,1526.186898C1514.462624,1526.186898,1526.186898,1514.462624,1526.186898,1500C1526.186898,1485.537376,1514.462624,1473.813102,1500,1473.813102C1485.537376,1473.813102,1473.813102,1485.537376,1473.813102,1500');offset-rotate:0deg"><path id="eBVSJt2DRGl10" d="M2499.28,679.188v1552.002h-2043.274v-1552.002h2043.274ZM1952.23,1775.06c-4.05,0-7.33,3.23-7.33,7.2v322.74c0,3.98,3.28,7.2,7.33,7.2h78.8c28.08,0,49.01-7.76,63.05-22.58c13.9-14.66,21.2-36.05,21.2-64.38v-163.21c0-28.34-7.3-49.72-21.2-64.39-14.04-14.81-34.97-22.58-63.05-22.58h-78.8Zm77.86,276.63h-18.94c0,0,0-216.12,0-216.12h18.94c6.04,0,10.79,1.49,14.03,5.01c3.6,3.9,4.91,10.37,4.91,19.14v167.82c0,8.78-1.31,15.24-4.91,19.14-3.24,3.52-7.99,5.01-14.03,5.01ZM708.333,1939.81c16.871-12.08,25.75-33.09,25.75-63.49v-19.83c0-27.54-7.08-47.81-20.405-61.08-13.32-13.26-34.343-20.35-63.373-20.35h-76.451c-4.047,0-7.327,3.23-7.327,7.2v322.74c0,3.98,3.28,7.2,7.327,7.2h51.593c4.046,0,7.327-3.22,7.327-7.2v-131.11h10.496c9.096,0,15.704,1.64,19.415,6.11c4.113,4.95,5.62,13.81,5.62,26.34v59.01c0,12.45.353,21.06,1.002,25.85.687,5.06,2.047,10.46,4.106,16.2c1.034,2.88,3.803,4.8,6.91,4.8h52.531c2.48,0,4.792-1.23,6.143-3.27c1.352-2.05,1.56-4.63.552-6.86-2.182-4.82-3.555-9.71-4.101-14.67-.604-5.49-.896-12.69-.896-21.59v-56.71c0-20.29-2.88-36.47-8.374-48.58-4.038-8.9-9.981-15.81-17.845-20.71Zm-64.125-26.43h-11.434c0,0,0-77.81,0-77.81h16.124c6.386,0,11.223,1.44,14.195,5.12c3.459,4.28,4.743,11.31,4.743,20.88v24.89c0,9.88-1.524,17.07-5.669,21.27-3.964,4.01-10.033,5.65-17.959,5.65Zm129.975-246.96c67.153,0,118.476-18.95,154.125-56.44c35.551-37.38,53.531-90.14,53.531-158.41v-438.54c0-68.271-17.98-121.031-53.531-158.416-35.649-37.488-86.972-56.439-154.125-56.439s-118.476,18.951-154.126,56.439c-35.551,37.385-53.53,90.145-53.53,158.416v438.54c0,68.27,17.979,121.03,53.53,158.41c35.65,37.49,86.973,56.44,154.126,56.44Zm1.15-164.11c-15.289,0-27.566-3.49-36.74-10.76-14.01-11.12-20.569-30.72-20.569-58.51v-411.8c0-27.787,6.559-47.391,20.569-58.505c9.174-7.277,21.451-10.767,36.74-10.767c15.29,0,27.567,3.49,36.74,10.767c14.011,11.114,20.569,30.718,20.569,58.505v411.8c0,27.79-6.558,47.39-20.569,58.51-9.173,7.27-21.45,10.76-36.74,10.76Zm1028.447,437.5c16.87-12.08,25.75-33.09,25.75-63.49v-19.83c0-27.54-7.08-47.81-20.4-61.08-13.32-13.26-34.35-20.35-63.38-20.35h-76.45c-4.04,0-7.32,3.23-7.32,7.2v322.74c0,3.98,3.28,7.2,7.32,7.2h51.59c4.05,0,7.33-3.22,7.33-7.2v-131.11h10.5c9.1,0,15.7,1.64,19.41,6.11c4.12,4.95,5.62,13.81,5.62,26.34v59.01c0,12.45.36,21.06,1.01,25.85.68,5.06,2.04,10.46,4.1,16.2c1.04,2.88,3.8,4.8,6.91,4.8h52.53c2.48,0,4.8-1.23,6.15-3.27c1.35-2.05,1.56-4.63.55-6.86-2.18-4.82-3.56-9.71-4.1-14.67-.61-5.49-.9-12.69-.9-21.59v-56.71c0-20.29-2.88-36.47-8.37-48.58-4.04-8.9-9.98-15.81-17.85-20.71Zm-64.12-26.43h-11.44c0,0,0-77.81,0-77.81h16.13c6.38,0,11.22,1.44,14.19,5.12c3.46,4.28,4.75,11.31,4.75,20.88v24.89c0,9.88-1.53,17.07-5.67,21.27-3.97,4.01-10.04,5.65-17.96,5.65Zm-270.43,198.81c27,0,47.56-7.83,61.89-22.9c14.2-14.93,21.58-35.93,21.58-63.19v-164.94c0-27.26-7.38-48.26-21.58-63.18-14.33-15.08-34.89-22.91-61.89-22.91s-47.56,7.83-61.89,22.91c-14.2,14.92-21.59,35.92-21.59,63.18v164.94c0,27.26,7.39,48.26,21.59,63.19c14.33,15.07,34.89,22.9,61.89,22.9Zm0-59.22c-4.99,0-9.04-.98-12.04-3.36-4.84-3.84-6.62-10.77-6.62-20.37v-171.22c0-9.6,1.78-16.53,6.62-20.37c3-2.37,7.05-3.35,12.04-3.35c4.98,0,9.04.98,12.03,3.35c4.84,3.84,6.63,10.77,6.63,20.37v171.22c0,9.6-1.79,16.53-6.63,20.37-2.99,2.38-7.05,3.36-12.03,3.36Zm836.51,59.23c27.03,0,47.52-7.84,61.7-22.93c14.01-14.9,21.32-36.19,21.32-64.05c0-21.02-4.29-39.32-12.71-54.92-8.22-15.24-23.16-32.26-44.98-50.92-15.69-13.42-26.59-24.79-32.55-34.22-5.49-8.68-8.25-18.02-8.25-28.02c0-9.25,1.69-15.94,6.32-19.63c2.84-2.27,6.7-3.2,11.43-3.2c5.71,0,10.15,1.43,13.11,4.85c3.39,3.94,4.64,10.3,4.64,18.88v16.13c0,3.98,3.28,7.2,7.33,7.2h47.42c4.05,0,7.33-3.22,7.33-7.2v-13c0-27.52-6.98-48.55-20.32-63.28-13.58-14.99-33.48-22.8-59.96-22.8-26.72,0-46.98,7.77-61.01,22.71-13.87,14.77-21.1,35.53-21.1,62.48c0,19.53,4.44,37.05,13.24,52.58c8.52,15.04,23.42,31.92,44.87,50.53.01.01.02.02.04.03c15.65,13.39,26.46,24.79,32.26,34.34c5.43,8.94,8.08,19.3,8.08,31.04c0,8.81-1.28,15.3-4.79,19.23-3.13,3.5-7.83,4.95-13.87,4.95-6.11,0-10.82-1.47-13.88-5.05-3.44-4.03-4.79-10.17-4.79-18.23v-21.51c0-3.98-3.27-7.21-7.32-7.21h-47.42c-4.05,0-7.33,3.23-7.33,7.21v17.93c0,27.53,7.07,48.57,20.58,63.31c13.72,14.97,33.84,22.77,60.61,22.77Zm-1110.45-.01c26.41,0,46.45-7.7,60.33-22.49c13.71-14.62,20.86-35.16,20.86-61.8v-44.38c0-3.97-3.28-7.2-7.33-7.2h-47.42c-4.05,0-7.33,3.23-7.33,7.2v47.96c0,7.43-1.25,13.11-4.5,16.82-2.91,3.34-7.41,4.67-13.25,4.67-5.83,0-10.33-1.33-13.25-4.67-3.25-3.71-4.5-9.39-4.5-16.82v-175.25c0-7.6,1.27-13.4,4.54-17.2c2.91-3.38,7.4-4.73,13.21-4.73c5.82,0,10.31,1.35,13.22,4.73c3.27,3.8,4.53,9.6,4.53,17.2v36.31c0,3.97,3.28,7.2,7.33,7.2h47.42c4.05,0,7.33-3.23,7.33-7.2v-33.17c0-26.65-7.15-47.19-20.86-61.81-13.88-14.79-33.92-22.49-60.33-22.49-26.42,0-46.46,7.7-60.33,22.49-13.72,14.62-20.87,35.16-20.87,61.81v168.53c0,26.64,7.15,47.18,20.87,61.8c13.87,14.79,33.91,22.49,60.33,22.49ZM856.783,1775.06c-4.047,0-7.327,3.23-7.327,7.2v322.74c0,3.98,3.28,7.2,7.327,7.2h140.708c4.049,0,7.329-3.22,7.329-7.2v-46.11c0-3.97-3.28-7.2-7.329-7.2h-81.788c0,0,0-84.72,0-84.72s63.496,0,63.496,0c4.046,0,7.327-3.22,7.327-7.2v-46.11c0-3.97-3.281-7.2-7.327-7.2h-63.496c0,0,0-70.89,0-70.89h81.788c4.049,0,7.329-3.22,7.329-7.2v-46.11c0-3.97-3.28-7.2-7.329-7.2h-140.708ZM2020.7,798.179c-2.87,0-5.2,2.289-5.2,5.112v858.019c0,2.82,2.33,5.11,5.2,5.11h137.17c2.87,0,5.2-2.29,5.2-5.11v-368.74h171.86c2.87,0,5.2-2.29,5.2-5.11v-122.58c0-2.82-2.33-5.11-5.2-5.11h-171.86c0,0,0-228.793,0-228.793h220.49c2.87,0,5.2-2.288,5.2-5.112v-122.574c0-2.823-2.33-5.112-5.2-5.112h-362.86Zm-988.76,0c-2.87,0-5.2,2.289-5.2,5.112v858.019c0,2.82,2.33,5.11,5.2,5.11h137.17c2.87,0,5.2-2.29,5.2-5.11v-272.15l48.46-96.35l112.18,369.96c.66,2.16,2.68,3.65,4.98,3.65h143.4c1.65,0,3.19-.77,4.18-2.06.98-1.3,1.28-2.98.8-4.52L1323.07,1118.8c13.31-25.67,162.4-313.187,162.4-313.187.82-1.585.75-3.476-.2-4.992-.94-1.517-2.62-2.442-4.43-2.442h-137.16c-2.01,0-3.84,1.137-4.7,2.921l-164.67,341.09v-338.899c0-2.823-2.33-5.112-5.2-5.112h-137.17Zm800.34,487.611L1706.61,802.027c-.59-2.264-2.67-3.848-5.04-3.848h-172.08c-2.87,0-5.2,2.289-5.2,5.112v858.019c0,2.82,2.33,5.11,5.2,5.11h122.2c2.87,0,5.2-2.29,5.2-5.11v-595.61l156.85,596.89c.6,2.25,2.67,3.83,5.04,3.83h140.9c2.87,0,5.2-2.29,5.2-5.11v-858.019c0-2.823-2.33-5.112-5.2-5.112h-122.2c-2.87,0-5.2,2.289-5.2,5.112v482.499Z" transform="translate(-1477.643036,-1455.188965)" opacity="0" clip-rule="evenodd" fill="#f00" fill-rule="evenodd" stroke-linejoin="round" stroke-miterlimit="2"/></g><g id="eBVSJt2DRGl11_to" style="offset-path:path('M1473.813102,1500C1473.813102,1485.537376,1485.537376,1473.813102,1500,1473.813102C1514.462624,1473.813102,1526.186898,1485.537376,1526.186898,1500C1526.186898,1514.462624,1514.462624,1526.186898,1500,1526.186898C1485.537376,1526.186898,1473.813102,1514.462624,1473.813102,1500');offset-rotate:0deg"><path id="eBVSJt2DRGl11" d="M2499.28,679.188v1552.002h-2043.274v-1552.002h2043.274ZM1952.23,1775.06c-4.05,0-7.33,3.23-7.33,7.2v322.74c0,3.98,3.28,7.2,7.33,7.2h78.8c28.08,0,49.01-7.76,63.05-22.58c13.9-14.66,21.2-36.05,21.2-64.38v-163.21c0-28.34-7.3-49.72-21.2-64.39-14.04-14.81-34.97-22.58-63.05-22.58h-78.8Zm77.86,276.63h-18.94c0,0,0-216.12,0-216.12h18.94c6.04,0,10.79,1.49,14.03,5.01c3.6,3.9,4.91,10.37,4.91,19.14v167.82c0,8.78-1.31,15.24-4.91,19.14-3.24,3.52-7.99,5.01-14.03,5.01ZM708.333,1939.81c16.871-12.08,25.75-33.09,25.75-63.49v-19.83c0-27.54-7.08-47.81-20.405-61.08-13.32-13.26-34.343-20.35-63.373-20.35h-76.451c-4.047,0-7.327,3.23-7.327,7.2v322.74c0,3.98,3.28,7.2,7.327,7.2h51.593c4.046,0,7.327-3.22,7.327-7.2v-131.11h10.496c9.096,0,15.704,1.64,19.415,6.11c4.113,4.95,5.62,13.81,5.62,26.34v59.01c0,12.45.353,21.06,1.002,25.85.687,5.06,2.047,10.46,4.106,16.2c1.034,2.88,3.803,4.8,6.91,4.8h52.531c2.48,0,4.792-1.23,6.143-3.27c1.352-2.05,1.56-4.63.552-6.86-2.182-4.82-3.555-9.71-4.101-14.67-.604-5.49-.896-12.69-.896-21.59v-56.71c0-20.29-2.88-36.47-8.374-48.58-4.038-8.9-9.981-15.81-17.845-20.71Zm-64.125-26.43h-11.434c0,0,0-77.81,0-77.81h16.124c6.386,0,11.223,1.44,14.195,5.12c3.459,4.28,4.743,11.31,4.743,20.88v24.89c0,9.88-1.524,17.07-5.669,21.27-3.964,4.01-10.033,5.65-17.959,5.65Zm129.975-246.96c67.153,0,118.476-18.95,154.125-56.44c35.551-37.38,53.531-90.14,53.531-158.41v-438.54c0-68.271-17.98-121.031-53.531-158.416-35.649-37.488-86.972-56.439-154.125-56.439s-118.476,18.951-154.126,56.439c-35.551,37.385-53.53,90.145-53.53,158.416v438.54c0,68.27,17.979,121.03,53.53,158.41c35.65,37.49,86.973,56.44,154.126,56.44Zm1.15-164.11c-15.289,0-27.566-3.49-36.74-10.76-14.01-11.12-20.569-30.72-20.569-58.51v-411.8c0-27.787,6.559-47.391,20.569-58.505c9.174-7.277,21.451-10.767,36.74-10.767c15.29,0,27.567,3.49,36.74,10.767c14.011,11.114,20.569,30.718,20.569,58.505v411.8c0,27.79-6.558,47.39-20.569,58.51-9.173,7.27-21.45,10.76-36.74,10.76Zm1028.447,437.5c16.87-12.08,25.75-33.09,25.75-63.49v-19.83c0-27.54-7.08-47.81-20.4-61.08-13.32-13.26-34.35-20.35-63.38-20.35h-76.45c-4.04,0-7.32,3.23-7.32,7.2v322.74c0,3.98,3.28,7.2,7.32,7.2h51.59c4.05,0,7.33-3.22,7.33-7.2v-131.11h10.5c9.1,0,15.7,1.64,19.41,6.11c4.12,4.95,5.62,13.81,5.62,26.34v59.01c0,12.45.36,21.06,1.01,25.85.68,5.06,2.04,10.46,4.1,16.2c1.04,2.88,3.8,4.8,6.91,4.8h52.53c2.48,0,4.8-1.23,6.15-3.27c1.35-2.05,1.56-4.63.55-6.86-2.18-4.82-3.56-9.71-4.1-14.67-.61-5.49-.9-12.69-.9-21.59v-56.71c0-20.29-2.88-36.47-8.37-48.58-4.04-8.9-9.98-15.81-17.85-20.71Zm-64.12-26.43h-11.44c0,0,0-77.81,0-77.81h16.13c6.38,0,11.22,1.44,14.19,5.12c3.46,4.28,4.75,11.31,4.75,20.88v24.89c0,9.88-1.53,17.07-5.67,21.27-3.97,4.01-10.04,5.65-17.96,5.65Zm-270.43,198.81c27,0,47.56-7.83,61.89-22.9c14.2-14.93,21.58-35.93,21.58-63.19v-164.94c0-27.26-7.38-48.26-21.58-63.18-14.33-15.08-34.89-22.91-61.89-22.91s-47.56,7.83-61.89,22.91c-14.2,14.92-21.59,35.92-21.59,63.18v164.94c0,27.26,7.39,48.26,21.59,63.19c14.33,15.07,34.89,22.9,61.89,22.9Zm0-59.22c-4.99,0-9.04-.98-12.04-3.36-4.84-3.84-6.62-10.77-6.62-20.37v-171.22c0-9.6,1.78-16.53,6.62-20.37c3-2.37,7.05-3.35,12.04-3.35c4.98,0,9.04.98,12.03,3.35c4.84,3.84,6.63,10.77,6.63,20.37v171.22c0,9.6-1.79,16.53-6.63,20.37-2.99,2.38-7.05,3.36-12.03,3.36Zm836.51,59.23c27.03,0,47.52-7.84,61.7-22.93c14.01-14.9,21.32-36.19,21.32-64.05c0-21.02-4.29-39.32-12.71-54.92-8.22-15.24-23.16-32.26-44.98-50.92-15.69-13.42-26.59-24.79-32.55-34.22-5.49-8.68-8.25-18.02-8.25-28.02c0-9.25,1.69-15.94,6.32-19.63c2.84-2.27,6.7-3.2,11.43-3.2c5.71,0,10.15,1.43,13.11,4.85c3.39,3.94,4.64,10.3,4.64,18.88v16.13c0,3.98,3.28,7.2,7.33,7.2h47.42c4.05,0,7.33-3.22,7.33-7.2v-13c0-27.52-6.98-48.55-20.32-63.28-13.58-14.99-33.48-22.8-59.96-22.8-26.72,0-46.98,7.77-61.01,22.71-13.87,14.77-21.1,35.53-21.1,62.48c0,19.53,4.44,37.05,13.24,52.58c8.52,15.04,23.42,31.92,44.87,50.53.01.01.02.02.04.03c15.65,13.39,26.46,24.79,32.26,34.34c5.43,8.94,8.08,19.3,8.08,31.04c0,8.81-1.28,15.3-4.79,19.23-3.13,3.5-7.83,4.95-13.87,4.95-6.11,0-10.82-1.47-13.88-5.05-3.44-4.03-4.79-10.17-4.79-18.23v-21.51c0-3.98-3.27-7.21-7.32-7.21h-47.42c-4.05,0-7.33,3.23-7.33,7.21v17.93c0,27.53,7.07,48.57,20.58,63.31c13.72,14.97,33.84,22.77,60.61,22.77Zm-1110.45-.01c26.41,0,46.45-7.7,60.33-22.49c13.71-14.62,20.86-35.16,20.86-61.8v-44.38c0-3.97-3.28-7.2-7.33-7.2h-47.42c-4.05,0-7.33,3.23-7.33,7.2v47.96c0,7.43-1.25,13.11-4.5,16.82-2.91,3.34-7.41,4.67-13.25,4.67-5.83,0-10.33-1.33-13.25-4.67-3.25-3.71-4.5-9.39-4.5-16.82v-175.25c0-7.6,1.27-13.4,4.54-17.2c2.91-3.38,7.4-4.73,13.21-4.73c5.82,0,10.31,1.35,13.22,4.73c3.27,3.8,4.53,9.6,4.53,17.2v36.31c0,3.97,3.28,7.2,7.33,7.2h47.42c4.05,0,7.33-3.23,7.33-7.2v-33.17c0-26.65-7.15-47.19-20.86-61.81-13.88-14.79-33.92-22.49-60.33-22.49-26.42,0-46.46,7.7-60.33,22.49-13.72,14.62-20.87,35.16-20.87,61.81v168.53c0,26.64,7.15,47.18,20.87,61.8c13.87,14.79,33.91,22.49,60.33,22.49ZM856.783,1775.06c-4.047,0-7.327,3.23-7.327,7.2v322.74c0,3.98,3.28,7.2,7.327,7.2h140.708c4.049,0,7.329-3.22,7.329-7.2v-46.11c0-3.97-3.28-7.2-7.329-7.2h-81.788c0,0,0-84.72,0-84.72s63.496,0,63.496,0c4.046,0,7.327-3.22,7.327-7.2v-46.11c0-3.97-3.281-7.2-7.327-7.2h-63.496c0,0,0-70.89,0-70.89h81.788c4.049,0,7.329-3.22,7.329-7.2v-46.11c0-3.97-3.28-7.2-7.329-7.2h-140.708ZM2020.7,798.179c-2.87,0-5.2,2.289-5.2,5.112v858.019c0,2.82,2.33,5.11,5.2,5.11h137.17c2.87,0,5.2-2.29,5.2-5.11v-368.74h171.86c2.87,0,5.2-2.29,5.2-5.11v-122.58c0-2.82-2.33-5.11-5.2-5.11h-171.86c0,0,0-228.793,0-228.793h220.49c2.87,0,5.2-2.288,5.2-5.112v-122.574c0-2.823-2.33-5.112-5.2-5.112h-362.86Zm-988.76,0c-2.87,0-5.2,2.289-5.2,5.112v858.019c0,2.82,2.33,5.11,5.2,5.11h137.17c2.87,0,5.2-2.29,5.2-5.11v-272.15l48.46-96.35l112.18,369.96c.66,2.16,2.68,3.65,4.98,3.65h143.4c1.65,0,3.19-.77,4.18-2.06.98-1.3,1.28-2.98.8-4.52L1323.07,1118.8c13.31-25.67,162.4-313.187,162.4-313.187.82-1.585.75-3.476-.2-4.992-.94-1.517-2.62-2.442-4.43-2.442h-137.16c-2.01,0-3.84,1.137-4.7,2.921l-164.67,341.09v-338.899c0-2.823-2.33-5.112-5.2-5.112h-137.17Zm800.34,487.611L1706.61,802.027c-.59-2.264-2.67-3.848-5.04-3.848h-172.08c-2.87,0-5.2,2.289-5.2,5.112v858.019c0,2.82,2.33,5.11,5.2,5.11h122.2c2.87,0,5.2-2.29,5.2-5.11v-595.61l156.85,596.89c.6,2.25,2.67,3.83,5.04,3.83h140.9c2.87,0,5.2-2.29,5.2-5.11v-858.019c0-2.823-2.33-5.112-5.2-5.112h-122.2c-2.87,0-5.2,2.289-5.2,5.112v482.499Z" transform="translate(-1477.643036,-1455.188965)" clip-rule="evenodd" fill="#00b9ff" fill-rule="evenodd" stroke-linejoin="round" stroke-miterlimit="2"/></g><path d="M2499.28,679.188v1552.002h-2043.274v-1552.002h2043.274ZM1952.23,1775.06c-4.05,0-7.33,3.23-7.33,7.2v322.74c0,3.98,3.28,7.2,7.33,7.2h78.8c28.08,0,49.01-7.76,63.05-22.58c13.9-14.66,21.2-36.05,21.2-64.38v-163.21c0-28.34-7.3-49.72-21.2-64.39-14.04-14.81-34.97-22.58-63.05-22.58h-78.8Zm77.86,276.63h-18.94c0,0,0-216.12,0-216.12h18.94c6.04,0,10.79,1.49,14.03,5.01c3.6,3.9,4.91,10.37,4.91,19.14v167.82c0,8.78-1.31,15.24-4.91,19.14-3.24,3.52-7.99,5.01-14.03,5.01ZM708.333,1939.81c16.871-12.08,25.75-33.09,25.75-63.49v-19.83c0-27.54-7.08-47.81-20.405-61.08-13.32-13.26-34.343-20.35-63.373-20.35h-76.451c-4.047,0-7.327,3.23-7.327,7.2v322.74c0,3.98,3.28,7.2,7.327,7.2h51.593c4.046,0,7.327-3.22,7.327-7.2v-131.11h10.496c9.096,0,15.704,1.64,19.415,6.11c4.113,4.95,5.62,13.81,5.62,26.34v59.01c0,12.45.353,21.06,1.002,25.85.687,5.06,2.047,10.46,4.106,16.2c1.034,2.88,3.803,4.8,6.91,4.8h52.531c2.48,0,4.792-1.23,6.143-3.27c1.352-2.05,1.56-4.63.552-6.86-2.182-4.82-3.555-9.71-4.101-14.67-.604-5.49-.896-12.69-.896-21.59v-56.71c0-20.29-2.88-36.47-8.374-48.58-4.038-8.9-9.981-15.81-17.845-20.71Zm-64.125-26.43h-11.434c0,0,0-77.81,0-77.81h16.124c6.386,0,11.223,1.44,14.195,5.12c3.459,4.28,4.743,11.31,4.743,20.88v24.89c0,9.88-1.524,17.07-5.669,21.27-3.964,4.01-10.033,5.65-17.959,5.65Zm129.975-246.96c67.153,0,118.476-18.95,154.125-56.44c35.551-37.38,53.531-90.14,53.531-158.41v-438.54c0-68.271-17.98-121.031-53.531-158.416-35.649-37.488-86.972-56.439-154.125-56.439s-118.476,18.951-154.126,56.439c-35.551,37.385-53.53,90.145-53.53,158.416v438.54c0,68.27,17.979,121.03,53.53,158.41c35.65,37.49,86.973,56.44,154.126,56.44Zm1.15-164.11c-15.289,0-27.566-3.49-36.74-10.76-14.01-11.12-20.569-30.72-20.569-58.51v-411.8c0-27.787,6.559-47.391,20.569-58.505c9.174-7.277,21.451-10.767,36.74-10.767c15.29,0,27.567,3.49,36.74,10.767c14.011,11.114,20.569,30.718,20.569,58.505v411.8c0,27.79-6.558,47.39-20.569,58.51-9.173,7.27-21.45,10.76-36.74,10.76Zm1028.447,437.5c16.87-12.08,25.75-33.09,25.75-63.49v-19.83c0-27.54-7.08-47.81-20.4-61.08-13.32-13.26-34.35-20.35-63.38-20.35h-76.45c-4.04,0-7.32,3.23-7.32,7.2v322.74c0,3.98,3.28,7.2,7.32,7.2h51.59c4.05,0,7.33-3.22,7.33-7.2v-131.11h10.5c9.1,0,15.7,1.64,19.41,6.11c4.12,4.95,5.62,13.81,5.62,26.34v59.01c0,12.45.36,21.06,1.01,25.85.68,5.06,2.04,10.46,4.1,16.2c1.04,2.88,3.8,4.8,6.91,4.8h52.53c2.48,0,4.8-1.23,6.15-3.27c1.35-2.05,1.56-4.63.55-6.86-2.18-4.82-3.56-9.71-4.1-14.67-.61-5.49-.9-12.69-.9-21.59v-56.71c0-20.29-2.88-36.47-8.37-48.58-4.04-8.9-9.98-15.81-17.85-20.71Zm-64.12-26.43h-11.44c0,0,0-77.81,0-77.81h16.13c6.38,0,11.22,1.44,14.19,5.12c3.46,4.28,4.75,11.31,4.75,20.88v24.89c0,9.88-1.53,17.07-5.67,21.27-3.97,4.01-10.04,5.65-17.96,5.65Zm-270.43,198.81c27,0,47.56-7.83,61.89-22.9c14.2-14.93,21.58-35.93,21.58-63.19v-164.94c0-27.26-7.38-48.26-21.58-63.18-14.33-15.08-34.89-22.91-61.89-22.91s-47.56,7.83-61.89,22.91c-14.2,14.92-21.59,35.92-21.59,63.18v164.94c0,27.26,7.39,48.26,21.59,63.19c14.33,15.07,34.89,22.9,61.89,22.9Zm0-59.22c-4.99,0-9.04-.98-12.04-3.36-4.84-3.84-6.62-10.77-6.62-20.37v-171.22c0-9.6,1.78-16.53,6.62-20.37c3-2.37,7.05-3.35,12.04-3.35c4.98,0,9.04.98,12.03,3.35c4.84,3.84,6.63,10.77,6.63,20.37v171.22c0,9.6-1.79,16.53-6.63,20.37-2.99,2.38-7.05,3.36-12.03,3.36Zm836.51,59.23c27.03,0,47.52-7.84,61.7-22.93c14.01-14.9,21.32-36.19,21.32-64.05c0-21.02-4.29-39.32-12.71-54.92-8.22-15.24-23.16-32.26-44.98-50.92-15.69-13.42-26.59-24.79-32.55-34.22-5.49-8.68-8.25-18.02-8.25-28.02c0-9.25,1.69-15.94,6.32-19.63c2.84-2.27,6.7-3.2,11.43-3.2c5.71,0,10.15,1.43,13.11,4.85c3.39,3.94,4.64,10.3,4.64,18.88v16.13c0,3.98,3.28,7.2,7.33,7.2h47.42c4.05,0,7.33-3.22,7.33-7.2v-13c0-27.52-6.98-48.55-20.32-63.28-13.58-14.99-33.48-22.8-59.96-22.8-26.72,0-46.98,7.77-61.01,22.71-13.87,14.77-21.1,35.53-21.1,62.48c0,19.53,4.44,37.05,13.24,52.58c8.52,15.04,23.42,31.92,44.87,50.53.01.01.02.02.04.03c15.65,13.39,26.46,24.79,32.26,34.34c5.43,8.94,8.08,19.3,8.08,31.04c0,8.81-1.28,15.3-4.79,19.23-3.13,3.5-7.83,4.95-13.87,4.95-6.11,0-10.82-1.47-13.88-5.05-3.44-4.03-4.79-10.17-4.79-18.23v-21.51c0-3.98-3.27-7.21-7.32-7.21h-47.42c-4.05,0-7.33,3.23-7.33,7.21v17.93c0,27.53,7.07,48.57,20.58,63.31c13.72,14.97,33.84,22.77,60.61,22.77Zm-1110.45-.01c26.41,0,46.45-7.7,60.33-22.49c13.71-14.62,20.86-35.16,20.86-61.8v-44.38c0-3.97-3.28-7.2-7.33-7.2h-47.42c-4.05,0-7.33,3.23-7.33,7.2v47.96c0,7.43-1.25,13.11-4.5,16.82-2.91,3.34-7.41,4.67-13.25,4.67-5.83,0-10.33-1.33-13.25-4.67-3.25-3.71-4.5-9.39-4.5-16.82v-175.25c0-7.6,1.27-13.4,4.54-17.2c2.91-3.38,7.4-4.73,13.21-4.73c5.82,0,10.31,1.35,13.22,4.73c3.27,3.8,4.53,9.6,4.53,17.2v36.31c0,3.97,3.28,7.2,7.33,7.2h47.42c4.05,0,7.33-3.23,7.33-7.2v-33.17c0-26.65-7.15-47.19-20.86-61.81-13.88-14.79-33.92-22.49-60.33-22.49-26.42,0-46.46,7.7-60.33,22.49-13.72,14.62-20.87,35.16-20.87,61.81v168.53c0,26.64,7.15,47.18,20.87,61.8c13.87,14.79,33.91,22.49,60.33,22.49ZM856.783,1775.06c-4.047,0-7.327,3.23-7.327,7.2v322.74c0,3.98,3.28,7.2,7.327,7.2h140.708c4.049,0,7.329-3.22,7.329-7.2v-46.11c0-3.97-3.28-7.2-7.329-7.2h-81.788c0,0,0-84.72,0-84.72s63.496,0,63.496,0c4.046,0,7.327-3.22,7.327-7.2v-46.11c0-3.97-3.281-7.2-7.327-7.2h-63.496c0,0,0-70.89,0-70.89h81.788c4.049,0,7.329-3.22,7.329-7.2v-46.11c0-3.97-3.28-7.2-7.329-7.2h-140.708ZM2020.7,798.179c-2.87,0-5.2,2.289-5.2,5.112v858.019c0,2.82,2.33,5.11,5.2,5.11h137.17c2.87,0,5.2-2.29,5.2-5.11v-368.74h171.86c2.87,0,5.2-2.29,5.2-5.11v-122.58c0-2.82-2.33-5.11-5.2-5.11h-171.86c0,0,0-228.793,0-228.793h220.49c2.87,0,5.2-2.288,5.2-5.112v-122.574c0-2.823-2.33-5.112-5.2-5.112h-362.86Zm-988.76,0c-2.87,0-5.2,2.289-5.2,5.112v858.019c0,2.82,2.33,5.11,5.2,5.11h137.17c2.87,0,5.2-2.29,5.2-5.11v-272.15l48.46-96.35l112.18,369.96c.66,2.16,2.68,3.65,4.98,3.65h143.4c1.65,0,3.19-.77,4.18-2.06.98-1.3,1.28-2.98.8-4.52L1323.07,1118.8c13.31-25.67,162.4-313.187,162.4-313.187.82-1.585.75-3.476-.2-4.992-.94-1.517-2.62-2.442-4.43-2.442h-137.16c-2.01,0-3.84,1.137-4.7,2.921l-164.67,341.09v-338.899c0-2.823-2.33-5.112-5.2-5.112h-137.17Zm800.34,487.611L1706.61,802.027c-.59-2.264-2.67-3.848-5.04-3.848h-172.08c-2.87,0-5.2,2.289-5.2,5.112v858.019c0,2.82,2.33,5.11,5.2,5.11h122.2c2.87,0,5.2-2.29,5.2-5.11v-595.61l156.85,596.89c.6,2.25,2.67,3.83,5.04,3.83h140.9c2.87,0,5.2-2.29,5.2-5.11v-858.019c0-2.823-2.33-5.112-5.2-5.112h-122.2c-2.87,0-5.2,2.289-5.2,5.112v482.499Z" transform="translate(22.357 44.811)" clip-rule="evenodd" fill="#fff" fill-rule="evenodd" stroke-linejoin="round" stroke-miterlimit="2"/></g></g></g><clipPath id="eBVSJt2DRGl13"><rect width="3000" height="3000" rx="0" ry="0" clip-rule="evenodd" fill-rule="evenodd" stroke-linejoin="round" stroke-miterlimit="2"/></clipPath></g></svg>
