<?xml version="1.0" encoding="UTF-8" standalone="no"?><!DOCTYPE svg PUBLIC "-//W3C//DTD SVG 1.1//EN" "http://www.w3.org/Graphics/SVG/1.1/DTD/svg11.dtd"><svg width="100%" height="100%" viewBox="0 0 720 720" version="1.1" xmlns="http://www.w3.org/2000/svg" xmlns:xlink="http://www.w3.org/1999/xlink" xml:space="preserve" xmlns:serif="http://www.serif.com/" style="fill-rule:evenodd;clip-rule:evenodd;stroke-linejoin:round;stroke-miterlimit:2;"><rect id="Artboard1" x="0" y="0" width="720" height="720" style="fill:none;"/><g id="Artboard11" serif:id="Artboard1"><rect x="0" y="0" width="720" height="720" style="fill:#1f1f1f;"/><path d="M653.546,270.662l-25.526,0l-0,-25.525l25.526,0l-0,25.525Zm-51.052,127.626l51.052,-0l-0,-25.525l-25.526,-0l-0,-51.051l-25.526,0l0,-25.525l51.052,0l-0,-25.525l25.525,0l0,51.05l-25.525,0l-0,25.525l25.525,0l0,76.576l-25.525,-0l-0,25.525l-25.526,-0l-0,-25.525l-25.526,-0l0,-25.525Zm0,-0l-25.526,-0l0,-51.051l25.526,0l0,51.051Zm76.577,76.575l0,102.1l-25.525,-0l-0,-51.05l-25.526,-0l-0,-51.05l51.051,-0Zm-25.525,153.15l-0,25.525l25.525,-0l0,25.525l-51.051,-0l-0,-51.05l25.526,-0Zm-0,-0l-0,-25.525l25.525,-0l0,25.525l-25.525,-0Zm-357.36,25.525l-0,25.525l-51.052,-0l0,-25.525l51.052,-0Zm-229.732,-382.876l-25.525,0l-0,-25.525l25.525,0l0,25.525Zm0,178.676l0,25.525l-25.525,-0l-0,-25.525l25.525,-0Zm0,-25.525l51.052,-0l-0,51.05l-25.526,-0l0,-25.525l-25.526,-0l0,-25.525Zm0,-25.525l0,25.525l-25.525,-0l-0,-25.525l25.525,-0Zm280.783,255.25l0,25.525l-25.526,-0l0,-25.525l25.526,-0Zm127.629,-25.525l-0,-25.525l25.525,-0l0,25.525l-25.525,-0Zm-76.577,-127.625l-0,25.525l-25.526,-0l-0,-25.525l25.526,-0Zm153.154,153.15l-0,25.525l-51.052,-0l0,-25.525l51.052,-0Zm-204.206,-561.551l-51.051,0l-0,-51.05l25.525,0l0,25.525l25.526,0l0,25.525Zm-76.577,127.625l-25.526,0l0,-25.525l25.526,0l0,25.525Zm-51.051,51.05l-25.526,0l-0,-25.525l25.526,0l-0,25.525Zm-76.577,0l-0,-25.525l25.525,0l0,25.525l-25.525,0Zm-76.578,0l25.526,0l0,25.525l25.526,0l-0,-25.525l25.526,0l-0,76.575l-25.526,0l-0,25.526l51.051,-0l0,51.05l25.526,-0l-0,25.525l51.051,-0l0,25.525l-76.577,-0l0,-25.525l-25.525,-0l-0,-51.05l-76.578,-0l0,-127.626Zm178.68,204.201l25.526,-0l0,25.525l-25.526,-0l0,-25.525Zm25.526,-0l0,-25.525l-25.526,-0l0,-25.525l25.526,-0l0,-25.525l-25.526,-0l0,-51.051l25.526,0l0,25.526l25.526,-0l-0,51.05l25.525,-0l0,25.525l-25.525,-0l-0,25.525l-25.526,-0Zm25.526,-0l25.525,-0l0,-25.525l25.526,-0l0,51.05l-25.526,-0l0,25.525l25.526,-0l0,25.525l-25.526,-0l0,25.525l-25.525,-0l-0,25.525l25.525,-0l0,-25.525l25.526,-0l0,-25.525l25.526,-0l-0,25.525l25.526,-0l-0,25.525l-25.526,-0l-0,25.525l25.526,-0l-0,-25.525l25.525,-0l0,25.525l51.052,-0l-0,51.05l-76.577,-0l-0,-25.525l-51.052,-0l0,-25.525l-102.103,-0l0,-25.525l25.526,-0l0,-25.525l-25.526,-0l0,-25.525l25.526,-0l0,-25.525l25.526,-0l-0,-51.05Zm51.051,-25.525l0,-25.525l-25.526,-0l0,-102.101l25.526,0l0,25.525l25.526,0l-0,25.526l25.526,-0l-0,25.525l-25.526,-0l-0,25.525l25.526,-0l-0,-25.525l25.525,-0l0,25.525l25.526,-0l-0,25.525l-25.526,-0l0,51.05l-25.525,-0l-0,-51.05l-51.052,-0Zm76.577,51.05l25.526,-0l-0,-51.05l51.051,-0l0,-51.05l-51.051,-0l-0,-25.525l25.526,-0l-0,-25.526l76.577,0l-0,25.526l-25.526,-0l0,25.525l25.526,-0l-0,25.525l-25.526,-0l0,25.525l25.526,-0l-0,-25.525l25.525,-0l0,25.525l25.526,-0l0,127.625l25.526,-0l-0,25.525l-51.052,-0l0,25.525l25.526,-0l0,25.525l-51.051,-0l-0,-51.05l-25.526,-0l0,-25.525l-76.577,-0l-0,-51.05l-25.526,-0l0,-25.525Zm51.052,-153.151l-51.052,0l0,-25.525l51.052,0l-0,25.525Zm-0,-25.525l-0,-25.525l-25.526,0l-0,-51.05l-25.526,0l0,25.525l-25.525,0l-0,-25.525l-25.526,0l-0,51.05l25.526,0l-0,25.525l-51.052,0l0,-51.05l-25.526,0l0,-25.525l-25.525,0l-0,51.05l25.525,0l0,25.525l-25.525,0l-0,25.525l-25.526,0l0,-51.05l-51.051,0l-0,-25.525l51.051,0l0,-51.05l25.526,0l-0,-51.05l25.525,0l0,51.05l25.526,0l0,-25.525l25.526,0l-0,25.525l25.526,0l-0,-25.525l25.525,0l0,25.525l25.526,0l-0,-25.525l-25.526,0l0,-25.525l-76.577,0l0,-25.525l-25.526,0l0,-25.525l25.526,0l0,-25.525l25.526,0l-0,51.05l25.526,0l-0,-25.525l25.525,0l0,25.525l51.052,0l-0,127.625l51.051,0l0,51.05l-51.051,0Zm-51.052,-204.2l0,-25.525l-51.051,0l-0,-25.525l51.051,0l0,-25.525l25.526,0l-0,76.575l-25.526,0Zm-204.205,178.675l-0,25.525l-25.526,0l-0,25.525l25.526,0l-0,25.526l-51.052,-0l0,-76.576l51.052,0Zm-102.103,-25.525l-25.526,0l0,-25.525l25.526,0l-0,25.525Zm357.36,280.776l76.577,-0l-0,-76.575l-76.577,-0l-0,76.575Zm-280.783,-127.625l-0,-25.525l25.526,-0l-0,25.525l-25.526,-0Zm76.577,-357.351l0,25.525l-25.526,0l0,-25.525l25.526,0Zm0,76.575l0,25.525l-25.526,0l0,-25.525l25.526,0Zm306.308,102.1l0,25.525l-25.525,0l-0,-25.525l25.525,0Zm-536.039,-204.2l178.68,0l-0,178.675l-178.68,0l-0,-178.675Zm151.878,151.874l-0,-125.073l-125.076,0l-0,125.073l125.076,0Zm307.584,-151.874l178.68,0l0,178.675l-178.68,0l0,-178.675Zm151.878,151.874l0,-125.073l-125.076,0l0,125.073l125.076,0Zm-611.34,307.577l178.68,-0l-0,178.675l-178.68,-0l-0,-178.675Zm151.878,151.874l-0,-125.073l-125.076,-0l-0,125.073l125.076,-0Z" style="fill:#fff4dd;"/><rect x="91.98" y="91.987" width="76.577" height="76.575" style="fill:#ffc610;"/><rect x="551.423" y="91.987" width="76.577" height="76.575" style="fill:#ff1f1f;"/><rect x="91.98" y="551.418" width="76.577" height="76.575" style="fill:#00a7e1;"/><rect x="500.313" y="499.653" width="26.306" height="26.306" style="fill:#3d9b00;"/></g></svg>