<svg id="eF8kciVNUHa1" xmlns="http://www.w3.org/2000/svg" xmlns:xlink="http://www.w3.org/1999/xlink" viewBox="0 0 720 720" shape-rendering="geometricPrecision" text-rendering="geometricPrecision">
<style><![CDATA[
#eF8kciVNUHa6_ts {animation: eF8kciVNUHa6_ts__ts 6666.666666666666ms linear infinite normal forwards}@keyframes eF8kciVNUHa6_ts__ts { 0% {transform: translate(360px,360px) scale(0,0)} 8.333333% {transform: translate(360px,360px) scale(2.48,2.48);animation-timing-function: step-end} 33.333333% {transform: translate(360px,360px) scale(0,0)} 41.666667% {transform: translate(360px,360px) scale(2.48,2.48);animation-timing-function: step-end} 63.333333% {transform: translate(360px,360px) scale(0,0)} 71.666667% {transform: translate(360px,360px) scale(2.48,2.48)} 100% {transform: translate(360px,360px) scale(2.48,2.48)}} #eF8kciVNUHa7_to {animation: eF8kciVNUHa7_to__to 6666.666666666666ms linear infinite normal forwards}@keyframes eF8kciVNUHa7_to__to { 0% {transform: translate(365.21616px,365.930286px)} 25% {transform: translate(362.108403px,350.048px)} 50% {transform: translate(355.386091px,365.178px)} 75% {transform: translate(362.106599px,350.043057px)} 100% {transform: translate(365.216599px,365.928px)}} #eF8kciVNUHa10_to {animation: eF8kciVNUHa10_to__to 6666.666666666666ms linear infinite normal forwards}@keyframes eF8kciVNUHa10_to__to { 0% {transform: translate(45.481045px,350.141953px)} 25% {transform: translate(45.481045px,350.141953px)} 30% {transform: translate(632.641461px,353.175041px)} 100% {transform: translate(632.641461px,353.175041px)}} #eF8kciVNUHa11_to {animation: eF8kciVNUHa11_to__to 6666.666666666666ms linear infinite normal forwards}@keyframes eF8kciVNUHa11_to__to { 0% {transform: translate(45.481045px,350.141953px)} 75% {transform: translate(45.481045px,350.141953px)} 80% {transform: translate(632.641461px,353.175041px)} 100% {transform: translate(632.641461px,353.175041px)}}
]]></style>
<rect width="720" height="720" rx="0" ry="0" clip-rule="evenodd" fill-rule="evenodd" stroke-linejoin="round" stroke-miterlimit="2"/><g mask="url(#eF8kciVNUHa5)"><path d="M0,268.19L270,270L0,271.81v-3.62ZM270,270L0,255.937v-6.435L270,270Zm0,0L0,236.294v-3.683L270,270Zm0,0L0,220.048v-6.658L270,270Zm0,0L0,199.59v-3.88L270,270Zm0,0L0,182.367v-7.139L270,270Zm0,0L0,160.277v-4.241L270,270Zm0,0L0,141.323v-7.955L270,270Zm0,0L0,116.52v-4.828L270,270Zm0,0L0,94.783v-9.251L270,270Zm0,0L0,65.683v-5.752L270,270Zm0,0L0,39.548v-11.307L270,270Zm0,0L0,3.596L0,0h3.596L270,270Zm0,0L26.734,0h11.369L270,270Zm0,0L59.931,0h5.752L270,270Zm0,0L84.307,0h9.289L270,270Zm0,0L111.692,0h4.828L270,270Zm0,0L132.319,0h7.979L270,270Zm0,0L156.036,0h4.241L270,270Zm0,0L174.291,0h7.154L270,270Zm0,0L195.71,0h3.88L270,270Zm0,0L212.519,0h6.666L270,270Zm0,0L232.611,0h3.683L270,270Zm0,0L248.663,0h6.437L270,270Zm0,0L268.19,0h3.62L270,270Zm0,0L284.063,0h6.435L270,270Zm0,0L303.706,0h3.683L270,270Zm0,0L319.952,0h6.658L270,270Zm0,0L340.41,0h3.88L270,270Zm0,0L357.633,0h7.139L270,270Zm0,0L379.723,0h4.241L270,270Zm0,0L398.677,0h7.955L270,270Zm0,0L423.48,0h4.828L270,270Zm0,0L445.217,0h9.251L270,270Zm0,0L474.317,0h5.752L270,270Zm0,0L500.452,0h11.307L270,270Zm0,0L536.404,0L540,0v3.596L270,270Zm0,0L540,26.734v11.369L270,270Zm0,0L540,59.931v5.752L270,270Zm0,0L540,84.307v9.289L270,270Zm0,0L540,111.692v4.828L270,270Zm0,0L540,132.319v7.979L270,270Zm0,0L540,156.036v4.241L270,270Zm0,0l270-95.709v7.154L270,270Zm0,0l270-74.29v3.88L270,270Zm0,0l270-57.481v6.666L270,270Zm0,0l270-37.389v3.683L270,270Zm0,0l270-21.337v6.437L270,270Zm0,0l270-1.81v3.62L270,270Zm0,0l270,14.063v6.435L270,270Zm0,0l270,33.706v3.683L270,270Zm0,0l270,49.952v6.658L270,270Zm0,0l270,70.41v3.88L270,270Zm0,0l270,87.633v7.139L270,270Zm0,0L540,379.723v4.241L270,270Zm0,0L540,398.677v7.955L270,270Zm0,0L540,423.48v4.828L270,270Zm0,0L540,445.217v9.251L270,270Zm0,0L540,474.317v5.752L270,270Zm0,0L540,500.452v11.307L270,270Zm0,0L540,536.404v3.596h-3.596L270,270Zm0,0L513.266,540h-11.369L270,270Zm0,0L480.069,540h-5.752L270,270Zm0,0L455.693,540h-9.289L270,270Zm0,0L428.308,540h-4.828L270,270Zm0,0L407.681,540h-7.979L270,270Zm0,0L383.964,540h-4.241L270,270Zm0,0l95.709,270h-7.154L270,270Zm0,0l74.29,270h-3.88L270,270Zm0,0l57.481,270h-6.666L270,270Zm0,0l37.389,270h-3.683L270,270Zm0,0l21.337,270h-6.437L270,270Zm0,0l1.81,270h-3.62L270,270Zm0,0L255.937,540h-6.435L270,270Zm0,0L236.294,540h-3.683L270,270Zm0,0L220.048,540h-6.658L270,270Zm0,0L199.59,540h-3.88L270,270Zm0,0L182.367,540h-7.139L270,270Zm0,0L160.277,540h-4.241L270,270Zm0,0L141.323,540h-7.955L270,270Zm0,0L116.52,540h-4.828L270,270Zm0,0L94.783,540h-9.251L270,270Zm0,0L65.683,540h-5.752L270,270Zm0,0L39.548,540h-11.307L270,270Zm0,0L3.596,540L0,540v-3.596L270,270Zm0,0L0,513.266v-11.369L270,270Zm0,0L0,480.069v-5.752L270,270Zm0,0L0,455.693v-9.289L270,270Zm0,0L0,428.308v-4.828L270,270Zm0,0L0,407.681v-7.979L270,270Zm0,0L0,383.964v-4.241L270,270Zm0,0L0,365.709v-7.154L270,270Zm0,0L0,344.29v-3.88L270,270Zm0,0L0,327.481v-6.666L270,270Zm0,0L0,307.389v-3.683L270,270Zm0,0L0,291.337v-6.437L270,270Z" transform="matrix(1.333333 0 0 1.333333 0.00009 0.00009)" clip-rule="evenodd" fill="rgba(155,247,255,0.41)" fill-rule="evenodd" stroke-linejoin="round" stroke-miterlimit="2"/><mask id="eF8kciVNUHa5" mask-type="luminance" x="-150%" y="-150%" height="400%" width="400%"><g id="eF8kciVNUHa6_ts" transform="translate(360,360) scale(0,0)"><path d="M36.24969,360C36.24969,181.19764,181.19764,36.24969,360,36.24969s323.75031,144.94795,323.75031,323.75031-144.94795,323.75031-323.75031,323.75031-323.75031-144.94795-323.75031-323.75031ZM360,570.97592c116.51878,0,210.97592-94.45713,210.97592-210.97592s-94.45713-210.97592-210.97592-210.97592-210.97592,94.45713-210.97592,210.97592s94.45713,210.97592,210.97592,210.97592Z" transform="translate(-360,-360)" fill="#fff" stroke-width="0"/></g></mask></g><g id="eF8kciVNUHa7_to" transform="translate(365.21616,365.930286)"><path d="M521.474,488.288c1.94,0,3.816-1.719,4.19-3.838l11.205-63.549c.374-2.119-.896-3.837-2.836-3.837h-12.475c-1.94,0-3.816,1.718-4.189,3.837L506.163,484.45c-.373,2.119.897,3.838,2.837,3.838h12.474ZM205.06,451.401l-22.033-33.048c-.542-.813-1.438-1.277-2.465-1.277h-12.827c-1.995,0-3.915,1.718-4.288,3.837l-11.204,63.538c-.373,2.119.941,3.837,2.936,3.837h12.826c1.995,0,3.915-1.718,4.289-3.837l5.376-30.489c0,0,22.033,33.048,22.033,33.048.542.813,1.438,1.278,2.466,1.278h12.826c1.995,0,3.915-1.718,4.289-3.837l11.203-63.538c.374-2.119-.941-3.837-2.936-3.837h-12.826c-1.995,0-3.915,1.718-4.289,3.837l-5.376,30.488Zm281.807,8.573l-1.66,9.413c0,0-43.377,0-43.377,0-1.995,0-3.915,1.718-4.289,3.837l-1.979,11.227c-.374,2.119.94,3.837,2.935,3.837h59.816c1.995,0,3.915-1.718,4.289-3.837l6.211-35.224c.373-2.119-.941-3.837-2.936-3.837h-43.377c0,0,1.66-9.414,1.66-9.414s43.377,0,43.377,0c1.995,0,3.915-1.718,4.289-3.837l1.979-11.226c.374-2.119-.94-3.837-2.935-3.837h-59.816c-1.995,0-3.915,1.718-4.289,3.837l-6.211,35.224c-.374,2.119.941,3.837,2.936,3.837h43.377Zm93.666,0l-1.66,9.413c0,0-43.377,0-43.377,0-1.995,0-3.915,1.718-4.289,3.837l-1.979,11.227c-.374,2.119.94,3.837,2.935,3.837h59.816c1.995,0,3.915-1.718,4.289-3.837l6.211-35.224c.374-2.119-.941-3.837-2.936-3.837h-43.377c0,0,1.66-9.414,1.66-9.414s43.377,0,43.377,0c1.995,0,3.915-1.718,4.289-3.837l1.979-11.226c.374-2.119-.94-3.837-2.935-3.837h-59.816c-1.995,0-3.915,1.718-4.289,3.837l-6.211,35.224c-.373,2.119.941,3.837,2.936,3.837h43.377ZM427.709,488.288c1.995,0,3.915-1.718,4.288-3.837l11.204-63.538c.373-2.119-.941-3.837-2.936-3.837h-12.826c-1.995,0-3.915,1.718-4.289,3.837l-3.724,21.12c0,0-26.939,0-26.939,0s3.724-21.12,3.724-21.12c.374-2.119-.941-3.837-2.936-3.837h-12.826c-1.995,0-3.915,1.718-4.289,3.837l-6.464,36.662c-.374,2.12.941,3.837,2.936,3.837h43.377c0,0-1.322,7.496-1.322,7.496s-43.377,0-43.377,0c-1.995,0-3.915,1.718-4.289,3.837l-2.064,11.706c-.374,2.119.941,3.837,2.936,3.837h59.816Zm-279.933-3.837l11.203-63.538c.374-2.119-.94-3.837-2.935-3.837h-59.816c-1.995,0-3.915,1.718-4.289,3.837L80.736,484.451c-.374,2.119.94,3.837,2.935,3.837h12.826c1.995,0,3.916-1.718,4.289-3.837l3.724-21.12c0,0,26.939,0,26.939,0s-3.724,21.12-3.724,21.12c-.373,2.119.941,3.837,2.936,3.837h12.826c1.995,0,3.915-1.718,4.289-3.837Zm143.015,0l11.203-63.538c.374-2.119-.94-3.837-2.935-3.837h-59.816c-1.995,0-3.915,1.718-4.289,3.837l-11.203,63.538c-.374,2.119.94,3.837,2.935,3.837h12.827c1.995,0,3.915-1.718,4.288-3.837l3.724-21.12c0,0,26.939,0,26.939,0s-3.724,21.12-3.724,21.12c-.373,2.119.941,3.837,2.936,3.837h12.826c1.995,0,3.915-1.718,4.289-3.837Zm27.145-17.462l8.125-46.076c.373-2.119-.941-3.837-2.936-3.837h-12.826c-1.995,0-3.915,1.718-4.289,3.837l-11.203,63.538c-.374,2.119.94,3.837,2.935,3.837h59.816c1.995,0,3.915-1.718,4.289-3.837l2.402-13.625c.374-2.119-.94-3.837-2.935-3.837h-43.378ZM134.595,445.493l1.695-9.617h-26.939l-1.695,9.617h26.939Zm143.015,0l1.695-9.617h-26.939l-1.695,9.617h26.939ZM622.195,337.412c.355-2.015-.058-3.948-1.148-5.373-2.235-2.921-5.876-7.68-5.876-7.68-2.221-2.903-1.39-7.618,1.856-10.521c0,0,5.319-4.759,8.583-7.679c1.593-1.426,2.688-3.358,3.043-5.374c2.243-12.721,10.519-59.656,10.519-59.656.917-5.2-2.309-9.417-7.205-9.417h-146.804c-4.896,0-9.609,4.217-10.526,9.417L447.141,397.068c-.917,5.201,2.309,9.417,7.205,9.417h146.804c4.896,0,9.609-4.216,10.526-9.417c0,0,8.276-46.935,10.519-59.656Zm-400.134-.417l-4.074,23.104c0,0-106.459,0-106.459,0-4.897,0-9.609,4.216-10.526,9.417l-4.858,27.552c-.918,5.201,2.308,9.417,7.204,9.417h146.805c4.896,0,9.608-4.216,10.525-9.417l15.244-86.448c.917-5.201-2.309-9.417-7.205-9.417h-106.46c0,0,4.074-23.105,4.074-23.105s106.46,0,106.46,0c4.896,0,9.608-4.216,10.525-9.417l4.859-27.552c.917-5.2-2.309-9.417-7.205-9.417h-146.804c-4.897,0-9.609,4.217-10.526,9.417l-15.243,86.449c-.917,5.2,2.308,9.417,7.204,9.417h106.46Zm192.403-95.866c.917-5.2,5.629-9.417,10.526-9.417h31.478c4.897,0,8.122,4.217,7.205,9.417L436.177,397.068c-.917,5.201-5.629,9.417-10.526,9.417h-146.804c-4.896,0-8.122-4.216-7.205-9.417l27.496-155.939c.917-5.2,5.63-9.417,10.526-9.417h31.479c4.896,0,8.122,4.217,7.205,9.417c0,0-19.94,113.084-19.94,113.084h66.116l19.94-113.084ZM568.719,361.606l4.162-23.602h-66.116l-4.161,23.602h66.115Zm10.805-61.277l4.161-23.601h-66.115l-4.162,23.601h66.116Z" transform="translate(-360.000069,-360)" clip-rule="evenodd" fill="#ffa2a2" fill-rule="evenodd" stroke-linejoin="round" stroke-miterlimit="2"/></g><path d="M521.474,488.288c1.94,0,3.816-1.719,4.19-3.838l11.205-63.549c.374-2.119-.896-3.837-2.836-3.837h-12.475c-1.94,0-3.816,1.718-4.189,3.837L506.163,484.45c-.373,2.119.897,3.838,2.837,3.838h12.474ZM205.06,451.401l-22.033-33.048c-.542-.813-1.438-1.277-2.465-1.277h-12.827c-1.995,0-3.915,1.718-4.288,3.837l-11.204,63.538c-.373,2.119.941,3.837,2.936,3.837h12.826c1.995,0,3.915-1.718,4.289-3.837l5.376-30.489c0,0,22.033,33.048,22.033,33.048.542.813,1.438,1.278,2.466,1.278h12.826c1.995,0,3.915-1.718,4.289-3.837l11.203-63.538c.374-2.119-.941-3.837-2.936-3.837h-12.826c-1.995,0-3.915,1.718-4.289,3.837l-5.376,30.488Zm281.807,8.573l-1.66,9.413c0,0-43.377,0-43.377,0-1.995,0-3.915,1.718-4.289,3.837l-1.979,11.227c-.374,2.119.94,3.837,2.935,3.837h59.816c1.995,0,3.915-1.718,4.289-3.837l6.211-35.224c.373-2.119-.941-3.837-2.936-3.837h-43.377c0,0,1.66-9.414,1.66-9.414s43.377,0,43.377,0c1.995,0,3.915-1.718,4.289-3.837l1.979-11.226c.374-2.119-.94-3.837-2.935-3.837h-59.816c-1.995,0-3.915,1.718-4.289,3.837l-6.211,35.224c-.374,2.119.941,3.837,2.936,3.837h43.377Zm93.666,0l-1.66,9.413c0,0-43.377,0-43.377,0-1.995,0-3.915,1.718-4.289,3.837l-1.979,11.227c-.374,2.119.94,3.837,2.935,3.837h59.816c1.995,0,3.915-1.718,4.289-3.837l6.211-35.224c.374-2.119-.941-3.837-2.936-3.837h-43.377c0,0,1.66-9.414,1.66-9.414s43.377,0,43.377,0c1.995,0,3.915-1.718,4.289-3.837l1.979-11.226c.374-2.119-.94-3.837-2.935-3.837h-59.816c-1.995,0-3.915,1.718-4.289,3.837l-6.211,35.224c-.373,2.119.941,3.837,2.936,3.837h43.377ZM427.709,488.288c1.995,0,3.915-1.718,4.288-3.837l11.204-63.538c.373-2.119-.941-3.837-2.936-3.837h-12.826c-1.995,0-3.915,1.718-4.289,3.837l-3.724,21.12c0,0-26.939,0-26.939,0s3.724-21.12,3.724-21.12c.374-2.119-.941-3.837-2.936-3.837h-12.826c-1.995,0-3.915,1.718-4.289,3.837l-6.464,36.662c-.374,2.12.941,3.837,2.936,3.837h43.377c0,0-1.322,7.496-1.322,7.496s-43.377,0-43.377,0c-1.995,0-3.915,1.718-4.289,3.837l-2.064,11.706c-.374,2.119.941,3.837,2.936,3.837h59.816Zm-279.933-3.837l11.203-63.538c.374-2.119-.94-3.837-2.935-3.837h-59.816c-1.995,0-3.915,1.718-4.289,3.837L80.736,484.451c-.374,2.119.94,3.837,2.935,3.837h12.826c1.995,0,3.916-1.718,4.289-3.837l3.724-21.12c0,0,26.939,0,26.939,0s-3.724,21.12-3.724,21.12c-.373,2.119.941,3.837,2.936,3.837h12.826c1.995,0,3.915-1.718,4.289-3.837Zm143.015,0l11.203-63.538c.374-2.119-.94-3.837-2.935-3.837h-59.816c-1.995,0-3.915,1.718-4.289,3.837l-11.203,63.538c-.374,2.119.94,3.837,2.935,3.837h12.827c1.995,0,3.915-1.718,4.288-3.837l3.724-21.12c0,0,26.939,0,26.939,0s-3.724,21.12-3.724,21.12c-.373,2.119.941,3.837,2.936,3.837h12.826c1.995,0,3.915-1.718,4.289-3.837Zm27.145-17.462l8.125-46.076c.373-2.119-.941-3.837-2.936-3.837h-12.826c-1.995,0-3.915,1.718-4.289,3.837l-11.203,63.538c-.374,2.119.94,3.837,2.935,3.837h59.816c1.995,0,3.915-1.718,4.289-3.837l2.402-13.625c.374-2.119-.94-3.837-2.935-3.837h-43.378ZM134.595,445.493l1.695-9.617h-26.939l-1.695,9.617h26.939Zm143.015,0l1.695-9.617h-26.939l-1.695,9.617h26.939ZM622.195,337.412c.355-2.015-.058-3.948-1.148-5.373-2.235-2.921-5.876-7.68-5.876-7.68-2.221-2.903-1.39-7.618,1.856-10.521c0,0,5.319-4.759,8.583-7.679c1.593-1.426,2.688-3.358,3.043-5.374c2.243-12.721,10.519-59.656,10.519-59.656.917-5.2-2.309-9.417-7.205-9.417h-146.804c-4.896,0-9.609,4.217-10.526,9.417L447.141,397.068c-.917,5.201,2.309,9.417,7.205,9.417h146.804c4.896,0,9.609-4.216,10.526-9.417c0,0,8.276-46.935,10.519-59.656Zm-400.134-.417l-4.074,23.104c0,0-106.459,0-106.459,0-4.897,0-9.609,4.216-10.526,9.417l-4.858,27.552c-.918,5.201,2.308,9.417,7.204,9.417h146.805c4.896,0,9.608-4.216,10.525-9.417l15.244-86.448c.917-5.201-2.309-9.417-7.205-9.417h-106.46c0,0,4.074-23.105,4.074-23.105s106.46,0,106.46,0c4.896,0,9.608-4.216,10.525-9.417l4.859-27.552c.917-5.2-2.309-9.417-7.205-9.417h-146.804c-4.897,0-9.609,4.217-10.526,9.417l-15.243,86.449c-.917,5.2,2.308,9.417,7.204,9.417h106.46Zm192.403-95.866c.917-5.2,5.629-9.417,10.526-9.417h31.478c4.897,0,8.122,4.217,7.205,9.417L436.177,397.068c-.917,5.201-5.629,9.417-10.526,9.417h-146.804c-4.896,0-8.122-4.216-7.205-9.417l27.496-155.939c.917-5.2,5.63-9.417,10.526-9.417h31.479c4.896,0,8.122,4.217,7.205,9.417c0,0-19.94,113.084-19.94,113.084h66.116l19.94-113.084ZM568.719,361.606l4.162-23.602h-66.116l-4.161,23.602h66.115Zm10.805-61.277l4.161-23.601h-66.115l-4.162,23.601h66.116Z" clip-rule="evenodd" fill="#ff144b" fill-rule="evenodd" stroke-linejoin="round" stroke-miterlimit="2"/><g mask="url(#eF8kciVNUHa12)"><g id="eF8kciVNUHa10_to" transform="translate(45.481045,350.141953)"><rect width="50" height="345.886251" rx="0" ry="0" transform="rotate(10) translate(-2.650469,-172.943125)" fill="#57ebf7" stroke-width="0"/></g><g id="eF8kciVNUHa11_to" transform="translate(45.481045,350.141953)"><rect width="50" height="345.886251" rx="0" ry="0" transform="rotate(10) translate(-2.650469,-172.943125)" fill="#57ebf7" stroke-width="0"/></g><mask id="eF8kciVNUHa12" mask-type="luminance" x="-150%" y="-150%" height="400%" width="400%"><path d="M521.474,488.288c1.94,0,3.816-1.719,4.19-3.838l11.205-63.549c.374-2.119-.896-3.837-2.836-3.837h-12.475c-1.94,0-3.816,1.718-4.189,3.837L506.163,484.45c-.373,2.119.897,3.838,2.837,3.838h12.474ZM205.06,451.401l-22.033-33.048c-.542-.813-1.438-1.277-2.465-1.277h-12.827c-1.995,0-3.915,1.718-4.288,3.837l-11.204,63.538c-.373,2.119.941,3.837,2.936,3.837h12.826c1.995,0,3.915-1.718,4.289-3.837l5.376-30.489c0,0,22.033,33.048,22.033,33.048.542.813,1.438,1.278,2.466,1.278h12.826c1.995,0,3.915-1.718,4.289-3.837l11.203-63.538c.374-2.119-.941-3.837-2.936-3.837h-12.826c-1.995,0-3.915,1.718-4.289,3.837l-5.376,30.488Zm281.807,8.573l-1.66,9.413c0,0-43.377,0-43.377,0-1.995,0-3.915,1.718-4.289,3.837l-1.979,11.227c-.374,2.119.94,3.837,2.935,3.837h59.816c1.995,0,3.915-1.718,4.289-3.837l6.211-35.224c.373-2.119-.941-3.837-2.936-3.837h-43.377c0,0,1.66-9.414,1.66-9.414s43.377,0,43.377,0c1.995,0,3.915-1.718,4.289-3.837l1.979-11.226c.374-2.119-.94-3.837-2.935-3.837h-59.816c-1.995,0-3.915,1.718-4.289,3.837l-6.211,35.224c-.374,2.119.941,3.837,2.936,3.837h43.377Zm93.666,0l-1.66,9.413c0,0-43.377,0-43.377,0-1.995,0-3.915,1.718-4.289,3.837l-1.979,11.227c-.374,2.119.94,3.837,2.935,3.837h59.816c1.995,0,3.915-1.718,4.289-3.837l6.211-35.224c.374-2.119-.941-3.837-2.936-3.837h-43.377c0,0,1.66-9.414,1.66-9.414s43.377,0,43.377,0c1.995,0,3.915-1.718,4.289-3.837l1.979-11.226c.374-2.119-.94-3.837-2.935-3.837h-59.816c-1.995,0-3.915,1.718-4.289,3.837l-6.211,35.224c-.373,2.119.941,3.837,2.936,3.837h43.377ZM427.709,488.288c1.995,0,3.915-1.718,4.288-3.837l11.204-63.538c.373-2.119-.941-3.837-2.936-3.837h-12.826c-1.995,0-3.915,1.718-4.289,3.837l-3.724,21.12c0,0-26.939,0-26.939,0s3.724-21.12,3.724-21.12c.374-2.119-.941-3.837-2.936-3.837h-12.826c-1.995,0-3.915,1.718-4.289,3.837l-6.464,36.662c-.374,2.12.941,3.837,2.936,3.837h43.377c0,0-1.322,7.496-1.322,7.496s-43.377,0-43.377,0c-1.995,0-3.915,1.718-4.289,3.837l-2.064,11.706c-.374,2.119.941,3.837,2.936,3.837h59.816Zm-279.933-3.837l11.203-63.538c.374-2.119-.94-3.837-2.935-3.837h-59.816c-1.995,0-3.915,1.718-4.289,3.837L80.736,484.451c-.374,2.119.94,3.837,2.935,3.837h12.826c1.995,0,3.916-1.718,4.289-3.837l3.724-21.12c0,0,26.939,0,26.939,0s-3.724,21.12-3.724,21.12c-.373,2.119.941,3.837,2.936,3.837h12.826c1.995,0,3.915-1.718,4.289-3.837Zm143.015,0l11.203-63.538c.374-2.119-.94-3.837-2.935-3.837h-59.816c-1.995,0-3.915,1.718-4.289,3.837l-11.203,63.538c-.374,2.119.94,3.837,2.935,3.837h12.827c1.995,0,3.915-1.718,4.288-3.837l3.724-21.12c0,0,26.939,0,26.939,0s-3.724,21.12-3.724,21.12c-.373,2.119.941,3.837,2.936,3.837h12.826c1.995,0,3.915-1.718,4.289-3.837Zm27.145-17.462l8.125-46.076c.373-2.119-.941-3.837-2.936-3.837h-12.826c-1.995,0-3.915,1.718-4.289,3.837l-11.203,63.538c-.374,2.119.94,3.837,2.935,3.837h59.816c1.995,0,3.915-1.718,4.289-3.837l2.402-13.625c.374-2.119-.94-3.837-2.935-3.837h-43.378ZM134.595,445.493l1.695-9.617h-26.939l-1.695,9.617h26.939Zm143.015,0l1.695-9.617h-26.939l-1.695,9.617h26.939ZM622.195,337.412c.355-2.015-.058-3.948-1.148-5.373-2.235-2.921-5.876-7.68-5.876-7.68-2.221-2.903-1.39-7.618,1.856-10.521c0,0,5.319-4.759,8.583-7.679c1.593-1.426,2.688-3.358,3.043-5.374c2.243-12.721,10.519-59.656,10.519-59.656.917-5.2-2.309-9.417-7.205-9.417h-146.804c-4.896,0-9.609,4.217-10.526,9.417L447.141,397.068c-.917,5.201,2.309,9.417,7.205,9.417h146.804c4.896,0,9.609-4.216,10.526-9.417c0,0,8.276-46.935,10.519-59.656Zm-400.134-.417l-4.074,23.104c0,0-106.459,0-106.459,0-4.897,0-9.609,4.216-10.526,9.417l-4.858,27.552c-.918,5.201,2.308,9.417,7.204,9.417h146.805c4.896,0,9.608-4.216,10.525-9.417l15.244-86.448c.917-5.201-2.309-9.417-7.205-9.417h-106.46c0,0,4.074-23.105,4.074-23.105s106.46,0,106.46,0c4.896,0,9.608-4.216,10.525-9.417l4.859-27.552c.917-5.2-2.309-9.417-7.205-9.417h-146.804c-4.897,0-9.609,4.217-10.526,9.417l-15.243,86.449c-.917,5.2,2.308,9.417,7.204,9.417h106.46Zm192.403-95.866c.917-5.2,5.629-9.417,10.526-9.417h31.478c4.897,0,8.122,4.217,7.205,9.417L436.177,397.068c-.917,5.201-5.629,9.417-10.526,9.417h-146.804c-4.896,0-8.122-4.216-7.205-9.417l27.496-155.939c.917-5.2,5.63-9.417,10.526-9.417h31.479c4.896,0,8.122,4.217,7.205,9.417c0,0-19.94,113.084-19.94,113.084h66.116l19.94-113.084ZM568.719,361.606l4.162-23.602h-66.116l-4.161,23.602h66.115Zm10.805-61.277l4.161-23.601h-66.115l-4.162,23.601h66.116Z" clip-rule="evenodd" fill="#fff" fill-rule="evenodd" stroke-linejoin="round" stroke-miterlimit="2"/></mask></g></svg>
