<svg id="eOjSuqEsml61" xmlns="http://www.w3.org/2000/svg" xmlns:xlink="http://www.w3.org/1999/xlink" viewBox="0 0 3000 3000" shape-rendering="geometricPrecision" text-rendering="geometricPrecision">
<style><![CDATA[
#eOjSuqEsml65_tr {animation: eOjSuqEsml65_tr__tr 5000ms linear infinite normal forwards}@keyframes eOjSuqEsml65_tr__tr { 0% {transform: translate(129.600006px,230.399994px) rotate(-20deg);animation-timing-function: cubic-bezier(0.445,0.05,0.55,0.95)} 50% {transform: translate(129.600006px,230.399994px) rotate(20deg);animation-timing-function: cubic-bezier(0.445,0.05,0.55,0.95)} 100% {transform: translate(129.600006px,230.399994px) rotate(-20deg)}} #eOjSuqEsml67_tr {animation: eOjSuqEsml67_tr__tr 5000ms linear infinite normal forwards}@keyframes eOjSuqEsml67_tr__tr { 0% {transform: translate(129.600006px,230.399994px) rotate(0deg);animation-timing-function: cubic-bezier(0.445,0.05,0.55,0.95)} 100% {transform: translate(129.600006px,230.399994px) rotate(360deg)}}
]]></style>
<defs><linearGradient id="eOjSuqEsml65-fill" x1="-222.720009" y1="0" x2="222.719994" y2="0" spreadMethod="pad" gradientUnits="userSpaceOnUse" gradientTransform="translate(0 0)"><stop id="eOjSuqEsml65-fill-0" offset="0%" stop-color="#151414"/><stop id="eOjSuqEsml65-fill-1" offset="30%" stop-color="#1a1919"/><stop id="eOjSuqEsml65-fill-2" offset="50%" stop-color="#312e2e"/><stop id="eOjSuqEsml65-fill-3" offset="70%" stop-color="#161515"/><stop id="eOjSuqEsml65-fill-4" offset="100%" stop-color="#101010"/></linearGradient><linearGradient id="eOjSuqEsml623-fill" x1="94.065903" y1="227.867004" x2="165.134201" y2="227.867004" spreadMethod="pad" gradientUnits="userSpaceOnUse" gradientTransform="translate(0 0)"><stop id="eOjSuqEsml623-fill-0" offset="0%" stop-color="rgba(204,204,204,0)"/><stop id="eOjSuqEsml623-fill-1" offset="100%" stop-color="#ccc"/></linearGradient><linearGradient id="eOjSuqEsml624-fill" x1="105.426003" y1="242.169998" x2="151.859703" y2="215.320297" spreadMethod="pad" gradientUnits="userSpaceOnUse" gradientTransform="translate(0 0)"><stop id="eOjSuqEsml624-fill-0" offset="0%" stop-color="rgba(225,225,225,0)"/><stop id="eOjSuqEsml624-fill-1" offset="100%" stop-color="#e1e1e1"/></linearGradient></defs><g transform="matrix(7.452713 0 0 7.452713 534.12835-217.104829)" clip-path="url(#eOjSuqEsml625)" clip-rule="evenodd"><g transform="matrix(1.3 0 0 1.3-38.880002-69.119998)"><rect width="259.200012" height="460.799988" rx="0" ry="0" transform="matrix(1.553001 0 0 0.873563-71.668933 29.131084)" clip-rule="evenodd" fill-rule="evenodd" stroke="#323232" stroke-width="0.4" stroke-linecap="round" stroke-linejoin="round" stroke-miterlimit="1.5"/><g id="eOjSuqEsml65_tr" transform="translate(129.600006,230.399994) rotate(-20)"><circle r="222.720001" transform="translate(0,0)" clip-rule="evenodd" fill="url(#eOjSuqEsml65-fill)" fill-rule="evenodd" stroke-linecap="round" stroke-linejoin="round" stroke-miterlimit="1.5"/></g><path d="M129.6,35.52c107.557,0,194.88,87.323,194.88,194.88s-87.323,194.88-194.88,194.88-194.88-87.323-194.88-194.88s87.323-194.88,194.88-194.88Zm0,.405c-107.334,0-194.475,87.141-194.475,194.475s87.141,194.475,194.475,194.475s194.475-87.141,194.475-194.475-87.141-194.475-194.475-194.475Zm0,16.675c98.13,0,177.8,79.67,177.8,177.8s-79.67,177.8-177.8,177.8-177.8-79.67-177.8-177.8s79.67-177.8,177.8-177.8Zm0,.405c-97.907,0-177.395,79.488-177.395,177.395s79.488,177.395,177.395,177.395s177.395-79.488,177.395-177.395-79.488-177.395-177.395-177.395Zm0,16.005c89.074,0,161.39,72.316,161.39,161.39s-72.316,161.39-161.39,161.39-161.39-72.316-161.39-161.39s72.316-161.39,161.39-161.39Zm0,.405c-88.85,0-160.985,72.135-160.985,160.985s72.135,160.985,160.985,160.985s160.985-72.135,160.985-160.985-72.135-160.985-160.985-160.985Zm0,14.714c80.729,0,146.271,65.542,146.271,146.271s-65.542,146.271-146.271,146.271-146.271-65.542-146.271-146.271s65.542-146.271,146.271-146.271Zm0,.405c-80.506,0-145.866,65.36-145.866,145.866s65.36,145.866,145.866,145.866s145.866-65.36,145.866-145.866-65.36-145.866-145.866-145.866Z" clip-rule="evenodd" fill="#232323" fill-rule="evenodd" stroke-linecap="round" stroke-linejoin="round" stroke-miterlimit="1.5"/><g id="eOjSuqEsml67_tr" transform="translate(129.600006,230.399994) rotate(0)"><g transform="translate(-129.600006,-230.399994)" clip-rule="evenodd"><path d="M129.6,121.68c60.004,0,108.72,48.716,108.72,108.72s-48.716,108.72-108.72,108.72-108.72-48.716-108.72-108.72s48.716-108.72,108.72-108.72Zm0,100.285c-4.655,0-8.435,3.78-8.435,8.435s3.78,8.435,8.435,8.435s8.435-3.78,8.435-8.435-3.78-8.435-8.435-8.435Z" clip-rule="evenodd" fill="#f7f7f7" fill-rule="evenodd" stroke-linecap="round" stroke-linejoin="round" stroke-miterlimit="1.5"/><g clip-rule="evenodd"><path d="M36.409,227.344h4.855l.205.215-1.69,3.825-7.853-.01h-.019l-.186-.195v-.01l.879-1.971h5.431l.176-.4-.206-.205h-4.854l-.195-.215l1.69-3.825h7.852l.206.215-.87,1.971h-5.43l-.186.41.195.195Zm5.822-.546l.996-2.264h7.833l.225.224-.996,2.264h-2.706l-1.914,4.342h-2.393v-.01l-.225-.214l1.719-3.894v-.009l-.224-.215h-2.091l-.224-.224Zm6.7,4.351l2.92-6.615h6.496l.205.215-.723,1.649h-4.073l-.322.712.205.195h2.188l.205.215-.469,1.073h-2.784l-.302.703h-.01l.205.204h3.467l.215.215-.732,1.649h-6.486l-.205-.205v-.01Zm10.09-6.615h7.823l.215.224-1.719,3.884h-1.152l.576,1.307v.02l-.625,1.395h-2.403l-.215-.215.459-1.034h-2.686l-.557,1.249h-2.402l-.225-.224l2.911-6.606Zm1.465,2.869v.009l.215.215h2.363l.166-.39h.01l-.225-.215h-2.363l-.166.381Zm4.18,3.746l2.921-6.615h6.495l.205.215-.723,1.649h-4.073l-.322.712.205.195h2.188l.205.215-.469,1.073h-2.784l-.302.703h-.01l.205.204h3.467l.215.215-.732,1.649h-6.486l-.205-.205v-.01Zm18.118-6.391l-2.92,6.606h-7.804l-.215-.224l2.911-6.606h7.814l.214.224Zm-3.819,2.488l-.214-.214h-2.374l-.713,1.61.215.224h2.373l.713-1.62Zm-40.492,7.526h2.355l.1.104-.82,1.855-3.809-.004h-.01l-.09-.095v-.005l.426-.956h2.635l.085-.194-.099-.099h-2.355l-.095-.105.82-1.855h3.809l.1.104-.422.956h-2.634l-.09.199.094.095Zm3.294-1.364h3.79l.109.109-1.416,3.205h-1.166l-.104-.104.222-.502h-1.303l-.27.606h-1.165l-.109-.109l1.412-3.205Zm.71,1.392v.005l.105.104h1.146l.081-.189h.005l-.109-.105h-1.147l-.081.185Zm3.422-1.392h4.42l.095.1-1.412,3.214h-1.175l-.099-.104.838-1.903-.095-.1h-.165l-.83,1.884h-1.175l-.099-.099.744-1.685-.1-.1h-.161l-.929,2.107h-1.17l-.1-.104l1.413-3.21Zm8.666.109l-1.151,2.599h-2.63l-.27.606h-1.171l-.109-.109l1.422-3.205h3.8l.109.109Zm-1.862,1.203l-.104-.105h-1.152l-.08.19.099.104h1.156l.081-.189Zm4.075.899l-.483,1.103h-2.806l-.094-.099l1.421-3.215h1.175l.1.1-.886,2.007h1.473l.1.104Zm-.261.999l1.417-3.21h3.151l.1.105-.351.8h-1.976l-.156.345.099.095h1.062l.099.104-.227.521h-1.351l-.147.34h-.004l.099.1h1.682l.104.104-.355.8h-3.146l-.1-.099v-.005Zm4.952-.005l1.412-3.205h3.791l.104.109-.488,1.103h-2.62l-.346.781.104.109h2.469l-.536,1.212h-3.786l-.104-.109Zm9.439-3.096l-1.417,3.205h-3.786l-.104-.109l1.412-3.205h3.791l.104.109Zm-1.853,1.207l-.104-.104h-1.152l-.345.781.104.109h1.151l.346-.786Zm5.994-1.207l-1.151,2.599h-2.63l-.27.606h-1.171l-.108-.109l1.421-3.205h3.8l.109.109Zm-1.862,1.203l-.104-.105h-1.152l-.08.19.099.104h1.156l.081-.189Zm2.104-1.312h1.175l.1.105-.38.856.095.095h1.175l.465-1.056h1.175l.099.105-.952,2.153h-1.204l-.469,1.056h-1.18l-.094-.099.421-.957h-1.279l-.1-.099.953-2.159Zm-37.628,5.207h.981l.569,1.279.564-1.279h1.312l.1.105-1.308,2.953-.109.256h-.981l-.569-1.278-.564,1.278h-1.312l-.1-.104l1.417-3.21Zm7.648.109l-1.417,3.205h-3.786l-.104-.109l1.412-3.205h3.791l.104.109Zm-1.853,1.207l-.104-.104h-1.151l-.346.781.104.109h1.151l.346-.786Zm1.607-.217l.483-1.099h3.8l.109.109-.483,1.099h-1.313l-.929,2.106h-1.16v-.005l-.109-.104.834-1.889v-.004l-.109-.104h-1.014l-.109-.109Zm4.719,2.106l1.417-3.205h3.217l.1.1-.488,1.108h-2.038l-.085.189.104.104h.483l.1.104-.337.762h-.777l-.421.947h-1.166l-.109-.109Zm8.856-3.096l-1.417,3.205h-3.786l-.104-.109l1.412-3.205h3.791l.104.109Zm-1.853,1.207l-.104-.104h-1.151l-.346.781.104.109h1.151l.346-.786Zm2.076-1.316h3.795l.105.109-.834,1.884h-.56l.28.635v.009l-.303.677h-1.166l-.104-.104.223-.502h-1.304l-.27.606h-1.165l-.109-.109l1.412-3.205Zm.711,1.392v.005l.104.104h1.147l.08-.189h.005l-.109-.104h-1.147l-.08.184Zm5.771-.028h2.355l.099.104-.819,1.855-3.81-.004h-.009l-.09-.095v-.005l.426-.956h2.635l.085-.194-.1-.099h-2.355l-.094-.105.819-1.855h3.81l.099.104-.421.956h-2.635l-.09.199.095.095Zm3.293-1.364h3.791l.109.109-1.417,3.205h-1.166l-.104-.104.223-.502h-1.303l-.27.606h-1.166l-.109-.109l1.412-3.205Zm.711,1.392v.005l.104.104h1.147l.08-.189h.005l-.109-.104h-1.147l-.08.184Zm5.392.819l-.483,1.103h-2.805l-.095-.099l1.422-3.215h1.175l.099.1-.886,2.007h1.474l.099.104Zm-.26.999l1.416-3.21h3.151l.1.105-.351.8h-1.976l-.156.345.1.095h1.061l.099.104-.227.521h-1.35l-.147.34h-.005l.099.1h1.683l.104.104-.356.8h-3.146l-.099-.099v-.005Z" clip-rule="evenodd" fill="#272623" fill-rule="evenodd" stroke-linecap="round" stroke-linejoin="round" stroke-miterlimit="1.5"/><g opacity="0.6" clip-rule="evenodd"><path d="M45.482,218.862h-8.457l-1.875,4.111h8.457l1.875-4.111Z" clip-rule="evenodd" fill="#ff0001" fill-rule="evenodd" stroke-linecap="round" stroke-linejoin="round" stroke-miterlimit="1.5"/><path d="M53.939,218.862h-8.457l-1.875,4.111h8.457l1.875-4.111Z" clip-rule="evenodd" fill="#ffcd00" fill-rule="evenodd" stroke-linecap="round" stroke-linejoin="round" stroke-miterlimit="1.5"/><path d="M62.396,218.862h-8.457l-1.875,4.111h8.456l1.876-4.111Z" clip-rule="evenodd" fill="#0053ff" fill-rule="evenodd" stroke-linecap="round" stroke-linejoin="round" stroke-miterlimit="1.5"/></g></g><g clip-rule="evenodd"><path d="M185.788,226.09l-2.632,5.962h-2.202l-.177-.185l2.645-6h2.193l.142.148-.062-.148h2.609l.602,1.44l1.68-1.44h2.229l.168.185-3.387,2.907l1.3,3.093h-2.618l-.602-1.44-1.68,1.44h-2.238l-.16-.185h.009l3.379-2.908-1.198-2.869Zm-11.212-.223h8.253l.177.185-2.636,6h-2.194l-.185-.194l1.565-3.552-.177-.186h-.309l-1.548,3.517h-2.194l-.186-.186l1.389-3.145-.186-.186h-.3l-1.734,3.932h-2.185l-.186-.194l2.636-5.991Zm23.396,2.545h4.396l.186.194-1.53,3.464-7.112-.009h-.018l-.168-.177v-.009l.796-1.785h4.918l.16-.362-.186-.185h-4.396l-.177-.195l1.53-3.464h7.112l.186.195-.788,1.785h-4.918l-.168.371.177.177Zm3.512,3.446l2.644-5.991h5.883l.185.194-.654,1.493h-3.689l-.292.645.186.177h1.982l.185.195-.424.972h-2.521l-.274.636h-.009l.185.185h3.141l.194.195-.663,1.493h-5.874l-.185-.185v-.009Zm9.137-5.991h7.085l.195.203-1.557,3.517h-1.044l.522,1.184v.018l-.566,1.263h-2.176l-.195-.194.416-.937h-2.432l-.505,1.131h-2.176l-.203-.203l2.636-5.982Zm1.327,2.598v.008l.194.195h2.141l.15-.354h.009l-.203-.194h-2.141l-.15.345Zm8.597-2.598l.186.194-2.645,5.991h-2.202l-.177-.185l2.645-6h2.193Zm-2.016,5.991l2.644-5.991h5.883l.185.194-.654,1.493h-3.689l-.292.645.186.177h1.981l.186.195-.424.972h-2.521l-.274.636h-.009l.185.185h3.141l.194.195-.663,1.493h-5.874l-.185-.185v-.009Zm10.747-3.446h4.396l.186.194-1.531,3.464-7.111-.009h-.018l-.168-.177v-.009l.796-1.785h4.918l.159-.362-.185-.185h-4.397l-.176-.195l1.53-3.464h7.111l.186.195-.787,1.785h-4.918l-.168.371.177.177Z" clip-rule="evenodd" fill="#272623" fill-rule="evenodd" stroke-linecap="round" stroke-linejoin="round" stroke-miterlimit="1.5"/><path d="M232.06,232.87h-60.12l-.937,2.063h60.12l.937-2.063Z" clip-rule="evenodd" fill="#f96061" fill-rule="evenodd" stroke-linecap="round" stroke-linejoin="round" stroke-miterlimit="1.5"/></g><path d="M188.642,210.937c-.085,0-.128-.041-.128-.122l.128-1.068c.014-.075.058-.116.133-.123.532-.054.883-.138,1.053-.252.171-.114.256-.342.256-.682c0-.341-.087-.784-.261-1.331s-.286-.91-.337-1.09c-.164-.579-.246-1.054-.246-1.423c0-.37.06-.685.179-.948.12-.262.29-.471.512-.628.429-.3,1.007-.449,1.733-.449.092,0,.138.042.138.127l-.138,1.058c-.014.085-.056.131-.128.138-.661.044-.992.24-.992.587c0,.32.141.949.422,1.887.281.939.422,1.61.422,2.015c0,1.536-.915,2.304-2.746,2.304Zm4.438-7.881c.007-.041.019-.07.036-.087s.189-.041.517-.072c.327-.03.776-.046,1.347-.046s1.01.165,1.317.493c.306.329.46.779.46,1.351c0,1.08-.121,2.323-.363,3.729-.13.746-.339,1.301-.629,1.665-.266.334-.682.554-1.248.659-.255.044-.567.073-.935.087l-1.274.046c-.075-.003-.112-.036-.112-.097l.884-7.728Zm1.171.985l-.623,5.563c.507-.044.859-.143,1.055-.296.196-.154.334-.445.412-.874s.156-1.015.233-1.757c.076-.742.115-1.35.115-1.823c0-.28-.068-.487-.205-.624-.136-.136-.321-.204-.555-.204-.233,0-.377.005-.432.015Zm9.23.302c0,.347-.102.734-.304,1.162-.203.427-.489.789-.857,1.085.651.555.977,1.162.977,1.819c0,.793-.184,1.413-.552,1.859-.369.446-.939.669-1.713.669-.893,0-1.451-.403-1.672-1.21-.062-.225-.092-.47-.092-.736c0-1.137.453-1.999,1.36-2.585-.249-.252-.437-.51-.565-.776s-.192-.553-.192-.863.036-.581.107-.812c.072-.232.168-.427.289-.585.121-.159.264-.292.427-.401.317-.208.679-.312,1.084-.312.573,0,1,.153,1.281.46.281.306.422.715.422,1.226Zm-3.027,4.464c0,.651.252.976.757.976.535,0,.802-.404.802-1.211c0-.347-.065-.644-.196-.891-.132-.247-.31-.474-.535-.682-.269.218-.474.491-.616.82-.141.328-.212.658-.212.988Zm.603-3.877c0,.245.044.454.131.626s.224.336.411.493c.184-.17.337-.387.458-.651s.181-.533.181-.807c0-.275-.048-.485-.145-.631-.097-.147-.224-.22-.381-.22-.437,0-.655.397-.655,1.19Zm5.502-.225c0-.507-.203-.761-.608-.761-.123,0-.331.023-.624.069s-.46.069-.501.069c-.075,0-.113-.046-.113-.138l.123-.96c.003-.044.014-.075.031-.092s.082-.04.194-.069c.113-.029.299-.059.56-.089.261-.031.478-.046.652-.046.484,0,.871.16,1.16.48.29.32.435.727.435,1.221s-.102.968-.307,1.422c-.204.455-.478.93-.82,1.425-.343.496-.609.912-.798,1.249s-.323.673-.401,1.007l1.835-.077c.082.003.123.049.123.138l-.123,1.078c-.007.081-.053.127-.138.138l-2.97.112c-.086-.007-.128-.053-.128-.138v-.266c0-.63.141-1.26.424-1.889.256-.569.586-1.165.992-1.788s.674-1.074.805-1.351c.132-.278.197-.526.197-.744Zm3.692-1.93l1.606-.057c.064,0,.097.045.097.133l-.762,6.717.854-.036c.081.004.122.046.122.128l-.122.981c-.011.088-.053.134-.128.138l-2.945.102c-.085-.003-.128-.044-.128-.123l.118-.985c.01-.086.054-.128.132-.128l.803-.031.624-5.501-.793.025c-.085-.003-.127-.042-.127-.117c0-.044.066-.221.199-.531s.222-.505.266-.585.106-.124.184-.13Zm6.888,1.22l-.926-.091c-.3,0-.522.074-.667.222s-.253.408-.325.781c-.071.373-.128.74-.169,1.101.328-.198.628-.296.9-.296.542,0,.929.185,1.161.557.232.371.348.899.348,1.583c0,2.057-.716,3.085-2.148,3.085-.617,0-1.057-.199-1.322-.597-.264-.399-.396-.99-.396-1.773c0-.535.044-1.171.131-1.91.086-.739.167-1.269.24-1.589s.129-.543.166-.669c.038-.126.089-.268.153-.427.065-.158.136-.294.213-.408.076-.114.174-.23.294-.348.119-.117.25-.211.393-.283.328-.163.677-.245,1.048-.245.372,0,.642.014.811.043s.264.053.286.072c.022.018.033.053.033.104l-.117.976c-.01.075-.046.112-.107.112Zm-1.688,2.774c-.163,0-.327.029-.491.087-.058.661-.087,1.154-.087,1.481s.006.55.018.669c.012.12.037.251.074.394.082.303.268.454.558.454.303,0,.504-.214.603-.643.082-.351.123-.794.123-1.328c0-.743-.266-1.114-.798-1.114Z" clip-rule="evenodd" fill="#c7c7c7" fill-rule="evenodd" stroke-linecap="round" stroke-linejoin="round" stroke-miterlimit="1.5"/><path d="M112.604,327.253h.486c-.167.369-.287.711-.361,1.024-.063.266-.094.55-.094.852c0,.582.152,1.18.455,1.795h-.486c-.247-.35-.42-.667-.52-.95-.101-.284-.151-.58-.151-.891c0-.322.053-.628.158-.919.105-.29.276-.594.513-.911Zm.696,1.922l.824-.052c.018.134.054.235.109.306.089.113.217.169.383.169.123,0,.219-.028.285-.086.067-.058.101-.126.101-.202c0-.072-.032-.137-.096-.195-.064-.057-.211-.111-.443-.162-.38-.085-.651-.199-.813-.34-.163-.141-.244-.321-.244-.54c0-.144.041-.28.125-.408.083-.128.209-.229.376-.302.168-.073.398-.11.69-.11.358,0,.631.067.819.2s.299.345.335.635l-.816.048c-.022-.126-.067-.218-.137-.275-.069-.058-.165-.086-.288-.086-.1,0-.176.021-.227.064-.051.042-.076.094-.076.155c0,.045.021.085.063.121.04.037.137.071.29.103.379.081.65.164.814.247.163.083.283.187.357.31.075.124.112.262.112.415c0,.179-.05.345-.149.496-.1.152-.239.267-.417.345s-.403.118-.675.118c-.476,0-.806-.092-.99-.276-.184-.183-.287-.416-.312-.698Zm2.704-1.874h2.632v.691h-.883v2.109h-.866v-2.109h-.883v-.691Zm2.479,1.478h1.132v.602h-1.132v-.602Zm3.151.86h-.987l-.135.462h-.886l1.054-2.8h.944l1.053,2.8h-.906l-.137-.462Zm-.182-.606l-.31-1.006-.307,1.006h.617Zm1.224-.254h1.131v.602h-1.131v-.602Zm3.554-.848l-.775.096c-.02-.108-.054-.185-.102-.229-.048-.045-.107-.067-.177-.067-.126,0-.224.063-.294.191-.051.091-.089.287-.113.588.093-.094.189-.164.287-.209s.211-.068.34-.068c.25,0,.461.089.634.267.172.179.259.405.259.678c0,.185-.044.354-.131.506-.087.153-.209.269-.363.347-.155.078-.349.118-.582.118-.281,0-.506-.048-.675-.144-.17-.095-.305-.248-.407-.457-.101-.21-.152-.487-.152-.832c0-.505.107-.875.32-1.11s.508-.353.885-.353c.223,0,.399.026.528.078.13.051.237.127.323.226.085.099.15.224.195.374Zm-1.434,1.247c0,.152.038.271.114.357.077.085.171.128.282.128.101,0,.187-.038.256-.116s.103-.194.103-.348c0-.158-.036-.278-.107-.361-.072-.082-.16-.124-.266-.124-.108,0-.199.04-.272.121-.074.08-.11.194-.11.343Zm2.181-.582c-.122-.065-.211-.138-.268-.218-.076-.109-.114-.235-.114-.378c0-.234.11-.426.33-.575.173-.114.4-.172.683-.172.375,0,.652.072.831.214.179.143.268.322.268.539c0,.126-.035.244-.107.353-.053.082-.137.16-.252.237.151.072.265.169.339.288.075.12.112.252.112.397c0,.141-.032.271-.097.393-.064.122-.143.215-.237.282-.093.066-.21.115-.349.146-.14.031-.289.047-.447.047-.297,0-.524-.036-.68-.106-.157-.07-.276-.173-.358-.309-.081-.136-.122-.288-.122-.456c0-.165.038-.304.114-.418.077-.114.195-.202.354-.264Zm.35-.55c0,.097.03.175.091.234.06.059.141.089.242.089.089,0,.162-.03.219-.088.058-.059.086-.135.086-.228c0-.096-.029-.175-.089-.235-.06-.061-.137-.091-.23-.091-.094,0-.171.029-.23.089-.059.059-.089.136-.089.23Zm-.042,1.205c0,.123.037.224.113.303.075.078.161.117.258.117.093,0,.176-.04.25-.119.074-.08.111-.181.111-.303c0-.124-.037-.225-.112-.304-.074-.079-.161-.118-.259-.118-.097,0-.181.038-.253.115-.072.076-.108.179-.108.309Zm3.521-1.998v2.848h-.787v-1.866c-.128.097-.251.175-.37.235s-.269.117-.449.172v-.638c.266-.085.471-.188.618-.308.147-.119.261-.267.344-.443h.644Zm2.107,2.324h-1.418v-.639l1.418-1.685h.679v1.721h.351v.603h-.351v.524h-.679v-.524Zm0-.603v-.88l-.749.88h.749Zm3.449-1.043l-.774.096c-.021-.108-.055-.185-.103-.229-.047-.045-.106-.067-.176-.067-.127,0-.225.063-.295.191-.051.091-.088.287-.113.588.093-.094.189-.164.287-.209s.212-.068.34-.068c.25,0,.461.089.634.267.173.179.259.405.259.678c0,.185-.044.354-.131.506-.087.153-.208.269-.363.347s-.349.118-.582.118c-.281,0-.505-.048-.675-.144-.169-.095-.305-.248-.406-.457-.102-.21-.152-.487-.152-.832c0-.505.106-.875.319-1.11s.508-.353.885-.353c.223,0,.399.026.529.078.129.051.236.127.322.226.085.099.15.224.195.374Zm-1.434,1.247c0,.152.038.271.115.357.076.085.17.128.281.128.102,0,.187-.038.256-.116s.103-.194.103-.348c0-.158-.035-.278-.107-.361-.071-.082-.16-.124-.266-.124-.108,0-.199.04-.272.121-.073.08-.11.194-.11.343Zm3.478-1.925v2.848h-.788v-1.866c-.128.097-.251.175-.37.235s-.269.117-.448.172v-.638c.265-.085.471-.188.617-.308.147-.119.261-.267.344-.443h.645Zm2.118.048h1.439c.314,0,.549.074.705.223s.234.361.234.636c0,.283-.085.504-.255.663s-.43.239-.779.239h-.474v1.039h-.87v-2.8Zm.87,1.194h.212c.167,0,.284-.029.352-.087.067-.058.101-.132.101-.223c0-.088-.029-.162-.088-.223s-.169-.092-.331-.092h-.246v.625Zm1.894,1.606v-2.8h1.444c.267,0,.472.023.613.069.142.046.256.131.342.255.087.124.13.275.13.453c0,.156-.033.29-.099.402-.066.113-.157.204-.273.274-.074.045-.176.082-.304.111.103.035.178.069.225.103.032.023.078.072.139.147.06.075.101.133.121.174l.419.812h-.979l-.463-.856c-.058-.111-.11-.183-.156-.216-.063-.043-.133-.065-.212-.065h-.077v1.137h-.87Zm.87-1.666h.365c.04,0,.116-.012.23-.038.057-.011.104-.041.14-.088s.055-.101.055-.162c0-.09-.029-.16-.086-.208-.058-.049-.165-.073-.324-.073h-.38v.569Zm2.438-1.182c.237.317.408.621.513.911.105.291.158.597.158.919c0,.311-.05.607-.151.891-.1.283-.273.6-.52.95h-.486c.303-.615.455-1.213.455-1.795c0-.302-.031-.586-.094-.852-.074-.313-.194-.655-.361-1.024h.486Z" clip-rule="evenodd" fill="#272623" fill-rule="evenodd" stroke-linecap="round" stroke-linejoin="round" stroke-miterlimit="1.5"/><path d="M67.46,172.911c.92-4.475,3.265-8.614,5.961-12.252c2.581-3.474,5.642-6.787,9.406-8.998c2.238-1.313,5.259-1.88,6.627.838.181.357.354.718.543,1.072.055.102.118.203.181.301.024-.017.099-.051.124-.084.35-.437.698-.876,1.05-1.311c2.556-3.169,6.179-5.871,10.44-5.498c2.291.188,4.316,1.285,5.935,2.882.251.248.519.481.819.668.471.291.745.075.966-.382.175-.363.32-.743.543-1.081c1.274-1.91,2.879-3.618,4.83-4.845c1.684-1.056,3.66-1.652,5.53-.693.682.346,1.45.473,2.21.457c1.169-.028,2.369-.012,3.479.402c1.763.658,3.531,1.31,5.259,2.059.821.351,1.6.795,2.344,1.289.632.421,1.108.539,1.579-.137.376-.54.664-1.133.972-1.713.561-1.03,1.346-1.937,2.393-2.492c1.55-.827,3.223-.063,4.25,1.209.554.687.905,1.502,1.067,2.366.097.526.213,1.05.402,1.551.247.67.828.989,1.448.547.245-.173.458-.39.639-.629c1.03-1.367,2.703-1.543,4.277-1.195c1.229.273,2.414.712,3.597,1.135.395.143.876.229,1.227-.063.363-.301.722-.61,1.029-.968.826-.972,2.055-1.106,3.231-.785c2.402.651,4.406,2.323,6.002,4.173.594.691,1.098,1.386,1.623.342.337-.681.908-1.159,1.681-1.234c1.979-.203,3.757,1.367,5.022,2.689c1.286,1.35,2.335,2.907,3.243,4.531.175.31.412.579.617.869.141-.148.321-.265.415-.452.361-.723.599-1.497.889-2.248.348-.904,1.185-1.779,2.15-2.006.715-.169,1.441.593,1.867,1.049c1.37,1.468,2.734,3.005,3.535,4.87.799,1.868,1.252,3.864,1.22,5.9-.037,3.174-1.477,5.855-4.13,7.605-.257.172-.496.371-.716.588-.417.404-.431.947-.136,1.429.277.446.57.882.851,1.325.615.987,1.26,1.963,1.765,3.013.752,1.567,1.122,3.32.041,4.833-.888,1.244-1.694,2.25-3.188,2.732-2.297.74-5.314,1.319-7.716,1.108-.509-.051-1.012-.113-1.498-.28-.453-.155-.87-.399-1.272-.656-1.461-.986-2.179-2.537-2.518-4.221-.204-1.011-.685-.732-1.563-.431-1.959.661-4.168,1.019-6.142.217-.402-.161-.726-.454-1.093-.676-.519-.307-1.097-.308-1.645-.067-1.213.532-2.505.671-3.739.132-.885-.385-1.609-1.032-2.137-1.834-.536-.803-1.479-.987-2.391-.883-.902.104-1.813.153-2.721.113-2.528-.108-4.424-1.449-5.568-3.676-.019-.038-.031-.071-.042-.111-.161.129-.331.248-.511.35l-.004.009c-.377.669-.7,1.374-1.155,1.996-.948,1.275-2.69,2.271-4.201,1.294-.613-.389-1.171-.862-1.691-1.367-1.167-1.127-2.039-2.52-2.894-3.885-.03-.035-.055-.077-.081-.115-.047.048-.095.101-.143.147-.101.106-.207.209-.315.308-.325,1.097-.725,2.207-1.502,3.073-.935,1.041-2.142,1.878-3.601,1.782-1.18-.076-2.255-.625-3.192-1.316-.381-.285-.77-.562-1.182-.8-.639-.373-1.351-.324-1.907.172-.251.224-.493.458-.734.692-.791.766-1.84,1.08-2.926,1.114-1.518.051-2.915-.636-4.116-1.51-.857-.628-1.193-.682-1.572.36-.347.966-.933,1.831-1.751,2.459-2.114,1.624-4.715,1.932-7.299,1.631-2.368-.279-4.672-1.003-6.772-2.133-.73-.4-1.142-.41-1.02.423.127.806-.024,1.638-.78,2.062-.725.404-1.489.742-2.288.97-1.281.362-2.518.958-3.49,1.88-1.726,1.652-3.952,2.429-6.295,2.692-3.645.401-7.509-.039-10.7-1.951-.896-.565-1.72-.958-2.273-1.916-.588-1.016-1.064-2.142-1.313-3.291-.548-2.504-.147-5.116.644-7.523Zm14.016.781c-.048.024-.097.047-.145.07-.286-.311-.631-.582-.844-.955-.858-1.496-1.194-3.211-1.053-4.924.091-1.156.409-2.286.946-3.314.1-.197.288-.43.505-.504.141-.046.287.254.349.33.051.062.045.155.07.229.165.463.304.942.546,1.374.32.581.933.729,1.549.583c1.103-.264,1.952-1.042,2.601-1.943c1.844-2.608,2.919-7.129,1.098-9.999-.957-1.428-2.586-1.152-3.935-.468-1.771.892-3.283,2.243-4.667,3.643-3.901,3.956-7.237,8.819-8.684,14.234-.76,2.884-.823,6.056,1.247,8.424c1.194,1.372,2.976,1.998,4.749,2.143c1.737.14,3.494-.007,5.167-.503c1.679-.493,3.227-1.388,3.994-3.026.049-.1.114-.191.164-.291.461-.871,1.368-1.227,2.319-1.234.541-.006,1.087-.016,1.62-.115c1.472-.274,2.59-1.334,2.028-2.901-.145-.416-.377-.801-.642-1.15-1.272-1.69-2.922-3.051-4.764-4.081-.774-.431-1.652-.608-2.529-.448-.735.135-1.302.577-1.508,1.308-.121.426-.151.871-.165,1.311-.019.567.027,1.133.052,1.7.005.171-.044.339-.068.507Zm22.315,2.165c2.179-.439,4.1-1.311,5.501-3.079.903-1.131,1.18-2.516.7-3.892-.525-1.525-.528-3.149-.297-4.729.075-.528-.013-1.066-.104-1.586-.068-.396-.222-.774-.404-1.131-.953-1.886-1.363-3.991-1.358-6.095-.002-1.01-.291-2.009-1.087-2.678-1.092-.909-2.273-1.728-3.587-2.281-1.233-.521-2.572-.7-3.895-.479-3.257.547-5.806,2.853-7.462,5.608-.637,1.068-1.107,2.275-1.153,3.529-.023.73.34.858.985.638.615-.213,1.22-.454,1.843-.646.47-.144.682.047.508.519-.213.572-.466,1.134-.795,1.65-.886,1.4-1.552,2.94-1.913,4.559-.327,1.463-.267,3,.461,4.333c2.126,3.775,7.723,6.645,12.057,5.76Zm-.822-6.655c-.571-1.047-1.116-2.116-1.509-3.244-.601-1.706-1.053-3.462-1.363-5.243-.102-.585.033-1.191.156-1.761.047-.221.269-.566.512-.622.242-.055.537.103.686.282.699.84.978,1.927,1.266,2.956.592,2.122.729,4.334,1.117,6.495.099.551.214,1.098.308,1.65.033.192.006.387.002.581-.057.03-.114.059-.17.089-.338-.389-.753-.727-1.005-1.183Zm72.531,5.366c.073.226.187.458.208.698.059.52.061,1.044.077,1.566.081,2.662.967,5.01,3.319,6.448.696.419,1.492.634,2.299.686.639.042,1.391-.094,1.748-.687.244-.4.508-.88.473-1.368-.062-.895-.216-1.802-.646-2.6-1.032-1.896-2.334-3.633-3.614-5.365-.164-.215-.336-.428-.471-.664-.234-.406-.201-.792.206-1.06.306-.201.634-.377.987-.482c1.053-.305,1.98-.898,2.778-1.641c1.585-1.468,2.404-3.496,2.699-5.603.23-1.593.073-3.19-.436-4.716-.212-.629-.508-1.233-.858-1.796-.284-.454-1.149-1.637-1.858-1.136-.227.16-.409.382-.51.641-.226.603-.436,1.212-.643,1.822-.749,2.137-1.632,4.226-2.354,6.373-.392,1.147-1.011,2.196-1.646,3.222-.095.145-.253.234-.382.343-.038-.02-.076-.04-.114-.06-.01-.333-.073-.667-.037-1.001.153-1.262.267-2.531.242-3.803-.055-2.646-.864-5.225-2.102-7.55-.467-.88-1.037-1.707-1.671-2.476-.693-.832-1.736-1.669-2.888-1.306-.584.184-.993.643-1.253,1.181-.414.862-.541,1.838-.574,2.783-.088,2.257.404,4.496,1.174,6.607.689,1.893,1.545,3.728,2.642,5.42.385.59.754,1.19,1.093,1.807.459.851.133,1.208-.775,1.317-.479.061-.962.085-1.444.117-.801.053-1.607.049-2.401.177-.809.129-1.617.304-2.383.599-.961.369-1.655,1.233-1.354,2.292.36,1.238,1.243,2.14,2.458,2.563c1.678.585,3.485.172,4.954-.756.716-.458,1.331-1.048,1.974-1.598.371-.32.724-.661,1.083-.994Zm-57.181-22.601c-.076-.01-.152-.019-.228-.029.005-.62-.065-1.246.043-1.861.188-1.051.509-2.072.742-3.113.101-.445.232-1.023-.2-1.343-.429-.314-.962,0-1.367.195-2.005.98-3.783,2.424-4.995,4.311-1.827,2.825-2.334,6.159-1.206,9.349.597,1.72,1.769,3.153,2.889,4.559.482.604.868,1.275,1.283,1.924.093.148.111.338.161.502-.227-.027-.467-.024-.688-.092-.568-.174-1.136-.349-1.694-.553-.622-.228-.866-.098-1.015.548-.2.859-.048,1.75.272,2.559.854,2.141,3.244,4.02,5.641,3.644c1.385-.218,2.435-1.326,2.551-2.727.041-.537-.033-1.074-.054-1.611-.028-.624-.058-1.247-.078-1.871.669.353,1.185.871,1.671,1.443.71.825,1.374,1.688,2.092,2.506.733.838,1.522,1.684,2.574,2.114c1.981.819,3.887-.345,4.476-2.321.223-.776.25-1.597.081-2.386-.513-2.335-2.242-3.9-4.492-4.566-1.115-.336-2.24-.637-3.365-.938-.21-.062-.406-.165-.608-.246.217-.141.432-.286.656-.416c1.058-.626,2.146-1.202,3.203-1.832.717-.428.656-.766-.093-1.124-.59-.281-1.207-.521-1.752-.887-1.278-.857-2.209-2.111-2.811-3.518-1.042-2.405-1.128-4.965.493-7.142.086-.111.125-.252.189-.377-.515-.125-1.007.054-1.356.442-.446.497-.85,1.033-1.189,1.609-.511.864-.93,1.778-1.399,2.664-.113.214-.285.39-.427.584Zm-.45,8.183c-.107-.417-.312-.825-.303-1.264.018-.971.142-1.934.261-2.896.019-.148.147-.307.281-.368.109-.053.3.114.362.187.834.984.649,3.187-.186,4.119-.065.082-.157.137-.235.206-.06.005-.12.011-.18.016Zm23.63-5.903c-.021-.255-.091-.521-.066-.779.138-1.38.267-2.763.348-4.148.052-.888-.089-1.778-.452-2.592-.387-.859-.883-1.171-1.644-.52-1.107.952-1.936,2.188-2.206,3.637-.124.666-.258,1.329-.38,1.995-.199,1.137-.772,1.134-1.639.524-1.768-1.252-3.56-2.471-5.407-3.603-.712-.438-1.487-.786-2.296-.999-1.746-.461-3.344.419-3.646,2.243-.131.809-.102,1.654.224,2.416c1.401,3.252,4.388,5.121,7.735,5.933c1.125.272,2.29.293,3.428.482.671.115.923.359.666,1.027-.243.629-.54,1.236-.864,1.828-.481.869-.634,1.867-.487,2.846.401,2.616,1.513,5.072,3.17,7.132.619.766,1.409,1.383,2.335,1.732.782.301,1.29-.032,1.626-.77.024-.055.043-.112.063-.169.578-1.614.891-3.332.779-5.049-.139-2.125-.502-4.227-.883-6.32-.062-.329-.142-.657-.149-.994-.019-.607.353-.767.904-.66.428.08.864.102,1.295.151.231.025.477-.013.696.076c1.108.443,2.306.539,3.487.591.832.035,1.674-.033,2.487-.22.962-.225,1.661-.917,1.82-1.902.483-3.246-3.344-6.186-6.359-5.929-1.186.099-2.196.732-3.211,1.298-.455.252-.917.493-1.374.743Zm16.039,14.173c.079-.198.137-.414.249-.597.316-.536.885-.786,1.483-.858.659-.077,1.324-.092,1.985-.152.868-.073,1.588-.527,1.862-1.378.458-1.396-.233-2.817-1.371-3.65-.824-.598-1.739-1.052-2.605-1.584-.425-.262-.84-.547-1.201-.893-.2-.197-.6-.805-.273-1.062.328-.257.73-.001,1.036.158.056.032.114.071.166.108c1.306.954,2.859,1.401,4.471,1.359.526-.016,1.052-.05,1.579-.072.825-.046,1.066-.257,1.001-1.099-.086-1.091-.119-2.197.04-3.283.118-.787-.196-1.543-.683-2.148-1.122-1.404-2.443-2.69-4.019-3.575-1.4-.787-3.081-.7-3.335,1.163-.094.702-.059,1.413-.108,2.119-.039.613-.039,1.226-.379,1.763-.491-.534-1.001-1.05-1.481-1.593-.516-.576-.959-1.217-1.518-1.755-1.191-1.138-2.749-1.956-4.436-1.646-.288.055-.538.214-.807.322.973.664,1.992,1.274,2.891,2.04c2.196,1.884,3.636,4.595,2.725,7.503-.384,1.23-1.261,2.184-2.395,2.766-1.669.855-3.218,1.972-4.4,3.439-1.038,1.288-1.406,2.916-.918,4.508.53,1.753,1.962,2.737,3.68,3.165c1.289.324,2.64.23,3.935-.002c1.601-.286,3.224.112,3.93,1.702.203.456.53.845.872,1.203.501.524,1.269.623,1.959.606.459-.011.811-.24.878-.712.053-.38.053-.765.066-1.147.046-1.829,1.206-3.43,2.844-4.197.351-.158.685-.352,1.009-.557.254-.158.355-.442.15-.687-.33-.384-.657-.784-1.08-1.072-1.091-.744-2.426-.832-3.703-.653-.852.12-1.699.275-2.553.386-.512.064-1.031.041-1.546.062Z" clip-rule="evenodd" fill="#272523" fill-rule="evenodd" stroke-linecap="round" stroke-linejoin="round" stroke-miterlimit="1.5"/><path d="M74.969,271.323c.54.501,1.308.696,1.893,1.143.607.464.769,1.259,1.392,1.71.522.378,1.168.56,1.724.888.829.49.905,1.525,1.658,2.08.896.66,2.207.594,3.009,1.392.786.782,1.473,1.645,2.287,2.404.412.385,1.041.041,1.563.149.979.201,1.739.921,2.526,1.438c1.1.722,1.911,1.755,3.041,2.441c1.123.683,2.568.11,3.709.749c1.043.583,2.052,1.216,3.068,1.838.292.179.455.537.813.624.297.071.508-.218.792-.234c1.302-.073,2.298.133,3.427.726.721.378.828,1.133,1.4,1.634.536.47.797.121,1.336-.101c1.105-.456,2.219-.542,3.401-.313c1.687.326,3.284.921,4.749,1.757.481.275.694.862,1.219,1.082.844.353,1.607-.778,2.367-1.022c1.094-.352,2.12.496,3.159.634.713.094,1.368-.332,2.08-.271c1.313.112,2.463.638,3.804.517c1.383-.126,2.706-.541,4.069-.77c1.598-.268,3.139.474,4.735.372c1.217-.077,2.365-.502,3.567-.66c1.04-.138,1.839.007,2.871.156.267.038.578.173.843.048.871-.41,1.525-1.103,2.335-1.596.888-.541,2.042.015,3.002-.128.536-.079.818-.624,1.309-.791.485-.166.997-.251,1.507-.321.267-.037.54.11.801.014.898-.33,1.452-1.138,2.321-1.511c1.12-.482,2.507-.768,3.728-.93.564-.075,1.146.088,1.699-.079.743-.224,1.181-1.08,1.772-1.5c1.048-.746,2.257-.654,3.475-1.004c1.354-.39,1.963-1.757,3.084-2.455c1.194-.743,2.713-1.135,4.106-1.417.602-.121,1.237-.034,1.824-.229.367-.122-.017-.698.066-.948.361-1.09.99-2.155,2.013-2.833.708-.47,1.59-.644,2.306-1.103.708-.453.991-1.276,1.673-1.755.718-.505,1.754-.582,2.384-1.208.238-.236.168-.598.354-.859.242-.342.528-.658.828-.959.23-.23.47-.452.721-.664.817-.69,3.064-2.378,3.93-.795c1.107,2.023,1.478,4.249,2.372,6.346.802,1.882,3.632,3.981,3.14,6.39-.136.67.15,8.165-.879,8.278-1.461.162-2.209-4.551-3.489-3.899-2.823,1.439-.781,9.178-2.01,9.359-1.987.294-.226-6.746-2.779-5.893-2.208.739-.97,6.718-2.732,6.718-2.056,0-.226-4.239-2.936-2.585-5.286,3.227-1.458,8.588-3.313,8.801-2.56.293-.498-5.849-3.441-4.694-8.222,3.227-5.43,9.417-7.341,9.736-1.762.293,0-5.042-4.163-3.866-3.667,1.036-1.741,12.928-3.472,13.142-2.366.294.294-11.972-4.698-11.092-5.277.931-2.036,8.214-4.301,8.214-2.159,0-.699-5.675-2.821-6.398-1.393-.475-3.742-.642-5.504,1.118-2.056,2.053-1.553,10.654-2.643,10.798-1.932.256,1.175-11.678-9.111-10.838-8.528.696-4.437,10.307-7.333,10.014-1.919-.195,1.175-9.387-6.753-9.681-8.241-.305-5.279,6.454-7.635,6.454-1.939,0-.827-6.907-3.23-7.865-3.817-1.522-2.38,1.938-4.404,1.649-2.056-.293-.432-5.083-3.818-6.398-5.285-2.053-2.338,4.815-4.751,4.749-2.002-.055.363-7.576-5.232-7.976-4.111-.293-1.468,7.921-4.338,7.976-2.416.046.284-11.936-3.127-13.172-4.281-1.551-2.231,4.187-3.987,3.968-2.349-.294.294-5.812-3.23-8.339-5.706-4.091-3.524,4.874-5.464,4.874-1.769,0-3.159-13.003-3.928-14.626-.832-1.757-.399-3.289.666-4.853c1.17-1.72,2.457-3.371,3.802-4.978.868-1.037,2.008-2.209,3.59-1.916c1.743.324,2.424,2.099,3.553,3.145Zm47.765,30.58c-.006-.26-.005-.52-.004-.78.004-.98.042-1.961.039-2.942-.003-1.294.041-2.697-.267-3.972-.037-.153-.168-.272-.304-.357-.245-.154-.545-.239-.835-.279-.24-.033-.497-.039-.732.026-.212.058-.399.188-.438.397-.493,2.664-.21,5.499-.043,8.179.028.457-.001.92.093,1.372.071.34.227.662.498.906.369.334.881.498,1.379.588.748.136,1.49-.043,1.958-.629.518-.648.618-1.503.726-2.275.044-.317.036-.638.072-.956.098-.854.214-1.706.326-2.558.028-.208.055-.415.086-.623.155.432.186.886.156,1.337-.041.623-.173,1.238-.184,1.863-.018,1.109.083,2.462.541,3.497.142.32.535.483.874.567.547.136,1.215.157,1.753-.025.529-.178.889-.555,1.05-1.046.22-.669.122-1.383.263-2.063.168-.814.295-1.635.381-2.459.177-1.696.361-3.394.394-5.099.004-.198-.156-.337-.343-.412-.208-.084-.445-.107-.669-.103-.27.005-.558.047-.798.166-.135.067-.266.17-.3.314-.305,1.288-.537,2.591-.68,3.903-.079.714.013,1.427.017,2.142.003.544-.069,1.086-.317,1.584-.019-.264-.031-.529-.049-.793-.118-1.757-.195-3.516-.327-5.272-.033-.444-.029-.907-.204-1.329-.227-.548-.743-.82-1.365-.854-.619-.033-1.165.182-1.455.701-.224.401-.275.863-.344,1.303-.172,1.089-.125,2.191-.203,3.286-.067.935-.258,1.862-.745,2.695Zm30.723-5.458c-.611-1.094-1.207-2.203-1.96-3.223-.322-.437-.693-.846-1.126-1.194-.18-.144-.434-.203-.664-.234-.427-.056-.882-.024-1.293.098-.414.122-.861.382-.879.824-.086,2.035.556,4.2,1.035,6.172.313,1.286.611,2.583,1.108,3.822.066.165.293.223.462.245.27.035.587.021.845-.067c1.177-.404,1.514-1.312,1.187-2.379-.485-1.576-1.169-3.093-1.711-4.652-.042-.12-.08-.24-.116-.361.999,1.613,2.02,3.215,3.078,4.795.243.363.422.762.756,1.066.28.256.643.404,1.04.397.466-.008.972-.109,1.396-.291.284-.121.634-.342.57-.673-.646-3.348-1.706-6.571-2.958-9.765-.041-.105-.153-.166-.263-.198-.147-.042-.31-.047-.462-.037-.338.024-.682.109-.945.314-.334.259-.457.662-.468,1.05-.025.916.428,1.73.719,2.581.197.576.431,1.141.649,1.71Zm-58.364-9.464c-.604.667-1.034,1.484-1.433,2.264-1.186,2.32-2.193,4.529-2.846,7.03-.071.271.149.499.368.65.32.221.705.349,1.074.481c1.026.366,2.077.733,3.173.874.955.123,2.01.053,2.746-.585.625-.542.769-1.252.622-2.006-.146-.752-.46-1.468-.555-2.23-.004-.033-.005-.072.017-.101.021-.028.06-.04.094-.047.071-.014.147-.014.219-.013.283.005.616.056.886-.055.519-.213.869-.643,1.038-1.133.264-.766.16-1.649-.172-2.383-.142-.313-.441-.548-.734-.739-.431-.28-.915-.478-1.356-.743-.54-.325-1.043-.699-1.582-1.026-.28-.17-.587-.341-.921-.401-.233-.041-.479-.013-.638.163Zm1.662,2.354c.268.107.483.266.722.417.125.079.259.147.383.23.089.06.193.132.23.233.064.176.048.371.004.55-.078.325-.165.661-.353.95-.114.174-.274.333-.494.388-.131.033-.273.013-.403-.014-.166-.035-.326-.088-.489-.131-.142-.038-.29-.051-.433-.084-.061-.014-.122-.031-.178-.057-.027-.013-.056-.029-.073-.054-.034-.051-.022-.113-.006-.167.033-.119.108-.22.153-.334.197-.495.362-.992.615-1.466.084-.157.183-.308.29-.452l.032-.009Zm-1.762,7.02c-.194-.057-.397-.081-.594-.126-.156-.035-.332-.076-.452-.181-.093-.083-.09-.194-.064-.302.031-.126.1-.238.146-.359.201-.521.392-1.044.658-1.541.125-.235.244-.475.414-.686.004-.005.011-.008.018-.007.121.033.23.099.333.164.123.078.241.164.366.239.239.146.525.252.73.443.189.177.253.416.234.66-.031.378-.223.716-.363,1.065-.08.198-.17.405-.335.558-.175.163-.417.213-.658.187-.149-.016-.291-.072-.433-.114Zm93.596-20.515c-.105.046-.221.055-.334.031-.152-.03-.288-.109-.408-.196-.361-.264-.559-.678-.912-.937-1.313-.966-2.814-.781-3.947.336-.112.11-.177.258-.16.411.012.103.061.21.148.278.886.698,1.78,1.076,2.866,1.468c1.028.37,2.11.621,3.021,1.217.628.41.979,1.072,1.336,1.676.371.629.797,1.285,1.531,1.598.471.201,1.097-.284,1.4-.559.337-.304.848-.863.701-1.341-.223-.727-.814-1.23-1.435-1.686-.586-.431-1.202-.862-1.522-1.506-.493-.992-.625-2.107-.837-3.168-.21-1.048-.48-2.151-1.211-3.008-.271-.318-.728.003-.952.203-.292.26-.538.579-.715.914-.087.165-.189.378-.153.567.131.686.359,1.351.614,2.005.177.452.446.865.687,1.288.066.117.171.213.244.326.014.023.028.057.038.083ZM90.106,289.806c.04-.004.087-.007.127-.006.238.008.473.043.711.047.145.003.315.001.447-.063c1.289-.619,1.594-2.227,1.193-3.407-.111-.328-.388-.593-.662-.813-.405-.324-.87-.573-1.286-.883-.509-.381-.977-.807-1.485-1.19-.263-.199-.554-.402-.883-.497-.226-.066-.477-.066-.655.094-.671.601-1.182,1.372-1.657,2.106-1.419,2.193-2.641,4.287-3.539,6.711-.098.266.104.516.305.687.299.255.672.423,1.03.594.99.473,2.006.949,3.093,1.206.933.22,2,.268,2.807-.297c1.579-1.106,1.624-2.896.454-4.289Zm-3.509,2.621c-.188-.077-.39-.123-.583-.188-.153-.052-.325-.111-.435-.229-.084-.091-.072-.201-.034-.308.043-.122.122-.227.181-.342.252-.499.494-.999.809-1.467.149-.221.291-.448.482-.641.005-.004.012-.007.018-.004.119.045.221.122.318.198.116.091.225.188.343.277.226.17.502.306.688.518.171.195.214.439.17.683-.068.372-.293.689-.468,1.023-.099.189-.209.386-.389.522-.193.145-.441.167-.677.117-.149-.032-.286-.103-.423-.159Zm2.451-6.815c.257.135.458.316.682.492.118.092.246.174.361.269.084.069.18.152.208.257.047.181.012.374-.049.549-.11.315-.23.641-.447.909-.132.163-.308.304-.533.336-.136.019-.275-.016-.402-.057-.163-.052-.318-.121-.477-.181-.138-.053-.286-.082-.426-.13-.059-.02-.119-.043-.172-.076-.026-.015-.054-.034-.068-.06-.029-.054-.011-.115.01-.168.044-.115.13-.208.186-.317.246-.472.459-.951.759-1.397.1-.148.213-.288.335-.42l.033-.006ZM68.491,278.41c.154-.21.313-.416.472-.622.603-.775,1.234-1.531,1.83-2.31.79-1.033,1.693-2.142,2.204-3.329.066-.154.023-.335-.035-.485-.111-.286-.307-.548-.525-.773-.176-.183-.383-.357-.625-.465-.194-.086-.437-.124-.607.025-2.061,1.809-3.55,4.258-5.03,6.471-.256.381-.566.737-.76,1.151-.156.333-.212.694-.139,1.05.105.516.429.977.788,1.375.496.552,1.204.955,2.011.782.821-.176,1.436-.794,1.992-1.332.232-.224.419-.483.644-.712.602-.613,1.219-1.214,1.833-1.818.15-.147.299-.294.452-.438-.132.432-.381.816-.687,1.162-.414.467-.903.873-1.291,1.359-.702.88-1.444,2.048-1.688,3.125-.081.361.155.737.378,1.015.364.453.89.899,1.468,1.108.518.188,1.053.143,1.507-.157.596-.394.943-1.017,1.478-1.469.638-.539,1.244-1.109,1.817-1.706c1.185-1.235,2.376-2.468,3.441-3.793.133-.166.068-.381-.032-.546-.12-.198-.3-.367-.491-.509-.22-.165-.48-.317-.76-.379-.145-.032-.32-.039-.441.057-1.041.828-2.03,1.713-2.947,2.658-.506.521-.861,1.141-1.294,1.71-.327.429-.717.815-1.231,1.053.146-.222.298-.44.444-.661.975-1.469,1.988-2.917,2.95-4.393.247-.378.533-.75.643-1.186.153-.607-.134-1.148-.611-1.562-.451-.391-1.033-.632-1.635-.392-.432.172-.759.507-1.083.809-.813.758-1.44,1.657-2.175,2.475-.622.694-1.348,1.308-2.265,1.652Zm34.368,11.666c-1.401,2.362-2.262,4.975-3.107,7.538-.169.514-.369,1.028-.368,1.572c0,.44.154.873.515,1.174.627.523,1.43.838,2.242,1.032c1.169.28,2.388.323,3.589.318.417-.002.765-.264.856-.637.091-.368-.077-.763-.419-.974-.386-.238-.86-.337-1.313-.398-.632-.084-1.284-.066-1.909-.191-.1-.02-.19-.086-.262-.149-.052-.046-.139-.122-.128-.198.424-2.894,2.358-5.408,2.6-8.344.014-.169-.077-.326-.196-.448-.205-.212-.496-.354-.783-.448-.28-.091-.6-.151-.896-.098-.17.03-.335.107-.421.251Zm6.895,1.991c-.5.529-.832,1.248-1.058,1.908-.887,2.59-1.998,5.292-1.438,8.051.047.231.249.431.433.581.212.173.466.324.74.397c1.167.313,2.364.601,3.584.654.746.032,1.604-.007,2.24-.412.421-.267.421-.678.101-1.017-.315-.334-.806-.561-1.278-.628-.589-.082-1.187-.086-1.775-.168-.322-.045-.669-.111-.931-.301-.274-.198-.369-.508-.376-.818-.012-.529.061-1.107.317-1.588.176-.329.463-.599.88-.622.226-.013.479.094.685.161.506.165,1.014.366,1.547.447.239.037.524.056.741-.064.228-.126.266-.375.235-.599-.034-.25-.142-.488-.341-.666-.217-.194-.508-.298-.797-.363-.3-.067-.608-.097-.914-.133-.239-.029-.479-.059-.711-.12-.177-.048-.356-.116-.488-.238-.213-.195-.237-.485-.204-.746.054-.424.188-.837.372-1.228.071-.151.194-.282.352-.36.297-.147.662-.083.969-.006.43.109.84.276,1.259.414.437.145.994.323,1.46.174.322-.103.508-.366.594-.659.075-.255-.025-.508-.196-.712-.263-.313-.659-.537-1.045-.692-.966-.389-1.944-.805-2.986-.992-.65-.117-1.491-.162-1.971.345Zm22.109,2.439c-.34.638-.471,1.416-.515,2.117-.168,2.705-.541,5.597.737,8.143.105.209.353.351.569.448.251.112.536.191.816.19c1.209-.002,2.438-.037,3.619-.302.735-.164,1.547-.428,2.048-.979.325-.356.241-.755-.171-1.008-.395-.242-.931-.331-1.397-.273-.589.073-1.163.225-1.752.299-.319.04-.67.068-.975-.049-.318-.121-.489-.398-.577-.692-.152-.512-.232-1.088-.113-1.615.082-.361.286-.697.682-.829.212-.07.485-.033.702-.022.531.028,1.074.089,1.606.029.243-.027.522-.084.697-.255.183-.177.159-.425.068-.638-.098-.231-.264-.434-.503-.554-.262-.132-.571-.156-.864-.144-.307.014-.611.065-.914.109-.237.035-.476.069-.716.069-.181.001-.372-.018-.532-.102-.259-.135-.355-.411-.392-.667-.061-.426-.04-.859.034-1.282.028-.165.113-.323.244-.439.243-.216.609-.252.93-.257.441-.008.881.047,1.32.072.466.026,1.048.049,1.452-.212.282-.182.393-.483.399-.79.005-.263-.155-.482-.377-.637-.336-.234-.779-.347-1.189-.396-1.034-.124-2.088-.271-3.133-.181-.671.058-1.48.24-1.803.847Zm7.461-.475c-.171.874-.116,1.796-.052,2.675.185,2.574.465,4.986,1.189,7.485.074.254.366.342.621.363.379.032.77-.042,1.134-.132c1.024-.252,2.068-.478,3.033-.891.883-.377,1.735-.95,2.044-1.837.708-2.034-.302-4.238-.931-6.162-.22-.672-.529-1.34-1.177-1.754-.487-.311-1.132-.385-1.709-.416-.903-.049-1.803.037-2.704.068-.272.01-.549.017-.814.081-.292.071-.577.226-.634.52Zm4.562,8.119c-.258.069-.521.127-.789.158-.138.015-.287.015-.418-.034-.16-.06-.259-.19-.313-.336-.163-.437-.009-.893-.013-1.337-.006-.594.014-1.19-.075-1.78-.113-.747-.567-1.394-.762-2.12-.075-.279-.145-.57-.11-.859.038-.302.219-.541.531-.652.394-.141.849-.128,1.241.011.337.12.668.357.737.702.342,1.732.593,3.478.856,5.222.079.531-.374.888-.885,1.025Zm12.102-11.714c-.142.702-.046,1.486.117,2.176.616,2.614,1.081,5.498,3.072,7.586.163.17.446.234.679.263.277.035.576.027.844-.054c1.173-.355,2.351-.749,3.41-1.344.668-.375,1.373-.862,1.7-1.538.204-.423.028-.791-.458-.916-.461-.118-1.005-.04-1.431.148-.55.244-1.06.556-1.609.799-.294.13-.623.261-.957.238-.34-.023-.587-.237-.758-.495-.298-.45-.54-.982-.577-1.514-.027-.377.078-.754.418-.992.184-.128.457-.173.672-.226.524-.129,1.069-.23,1.563-.442.229-.098.48-.234.6-.448.123-.218.036-.449-.118-.632-.163-.193-.384-.338-.649-.383-.296-.05-.6.019-.877.116-.294.103-.572.24-.853.371-.218.102-.439.204-.672.275-.173.053-.362.091-.544.057-.288-.053-.463-.29-.572-.525-.183-.393-.288-.814-.339-1.237-.021-.169.017-.344.108-.492.172-.276.513-.418.825-.517.423-.136.866-.212,1.298-.317.466-.112,1.031-.262,1.344-.628.216-.253.243-.571.158-.874-.071-.252-.29-.416-.55-.499-.399-.128-.86-.103-1.266-.031-1.04.184-2.104.353-3.083.741-.634.251-1.359.657-1.495,1.334Zm14.392,5.927c1.299-.611,2.365-1.766,2.524-3.132.13-1.111-.461-2.182-1.643-2.557-1.425-.453-2.917-.514-4.355-.908-.409-.112-.927-.453-1.045-.85-.093-.317-.029-.685.14-.971.082-.14.197-.266.345-.349.168-.094.365-.126.559-.115.179.011.338.087.466.201.131.116.227.259.318.402.147.234.516.385.79.447.314.07.643.03.914-.134.056-.034.103-.082.145-.13.126-.142.227-.305.312-.471.105-.204.259-.535.13-.762-.173-.303-.444-.546-.715-.775-1.04-.874-2.494-.769-3.676-.206-2.096.998-3.367,4.061-.861,5.386c1.397.739,3.087.728,4.603,1.136.197.053.375.216.513.347.128.12.31.29.342.467.105.569-.129,1.198-.72,1.462-.519.232-1.061.017-1.281-.463-.311-.676-.887-.883-1.61-.566-.482.211-.854.597-.927,1.093-.017.121-.043.347.048.454.226.267.401.572.664.813c1.092,1.004,2.764.772,4.02.181Zm-.269-11.977c.167.866.567,1.706.961,2.501c1.144,2.31,2.308,4.426,3.948,6.479.17.213.486.17.723.095.375-.12.713-.342,1.022-.566.875-.637,1.778-1.259,2.533-2.02.683-.688,1.285-1.549,1.243-2.517-.094-2.121-1.861-3.79-3.205-5.352-.463-.539-1.012-1.035-1.776-1.161-.593-.097-1.229.097-1.775.291-.877.312-1.692.745-2.532,1.127-.255.116-.514.232-.739.393-.244.176-.461.427-.403.73Zm7.376,5.745c-.218.165-.444.323-.687.456-.123.068-.262.128-.408.134-.171.006-.315-.074-.423-.19-.324-.347-.345-.826-.516-1.235-.229-.547-.435-1.107-.743-1.622-.386-.646-1.062-1.072-1.52-1.668-.178-.231-.353-.476-.428-.755-.081-.305.01-.593.256-.812.313-.28.743-.452,1.178-.478.354-.021.764.063.962.361.979,1.475,1.874,2.995,2.779,4.509.288.481-.039.987-.45,1.3Zm1.236-11.173c.111.729.366,1.429.618,2.125.479,1.324.99,2.638,1.543,3.937.531,1.248,1.115,2.477,1.721,3.696.086.174.32.154.487.105.262-.076.532-.23.725-.411.34-.322.669-.662.922-1.049.14-.213.193-.458.052-.685-.111-.176-.297-.306-.468-.43-.15-.108-.322-.219-.422-.374-.081-.125-.064-.258.022-.377.128-.181.302-.329.478-.469.204-.162.417-.314.612-.484.158-.139.304-.293.484-.408.111-.071.244-.153.383-.159.145-.006.228.101.29.206.1.171.157.365.281.524.241.307.595.505,1.014.495.538-.013,1.041-.296,1.456-.587.23-.161.454-.345.605-.575.09-.136.222-.414.079-.561-.944-.97-2.018-1.824-3.061-2.702-1.607-1.352-3.336-2.735-5.213-3.762-.538-.294-1.278.147-1.681.456-.439.336-1.014.913-.927,1.489Zm2.526.698c.107.088.211.179.313.272.474.431.923.884,1.4,1.313.614.552,1.453.994,1.809,1.748.088.187-.104.397-.23.52-.195.192-.435.352-.69.469-.117.053-.25.11-.383.113-.241.006-.389-.173-.488-.355-.442-.818-.777-1.68-1.133-2.532-.213-.511-.406-1.03-.598-1.548ZM77.273,289.178c1.153.779,2.62,1.236,3.929.499.951-.535,1.573-1.454,2.159-2.296.741-1.065,1.529-2.158,1.827-3.413.377-1.594-.347-2.978-1.698-3.98-1.685-1.25-3.483-.864-4.953.513-.375.351-.678.759-1.004,1.148-.839.999-1.737,2.021-2.126,3.255-.544,1.724.352,3.252,1.866,4.274Zm.974-1.442c-.247-.167-.418-.409-.476-.686-.049-.238-.022-.494.088-.715.828-1.665,1.988-3.319,3.27-4.719.158-.172.379-.3.618-.348.27-.055.541.008.761.157.231.156.382.386.429.647.043.234.011.484-.093.702-.803,1.678-1.893,3.376-3.155,4.797-.158.177-.385.304-.629.349-.291.052-.579-.026-.813-.184Z" clip-rule="evenodd" fill="#272523" fill-rule="evenodd" stroke-linecap="round" stroke-linejoin="round" stroke-miterlimit="1.5"/></g></g><g clip-rule="evenodd"><path d="M129.6,194.866c19.612,0,35.534,15.922,35.534,35.534s-15.922,35.534-35.534,35.534-35.534-15.922-35.534-35.534s15.922-35.534,35.534-35.534Zm0,.466c19.355,0,35.068,15.713,35.068,35.068s-15.713,35.068-35.068,35.068-35.068-15.713-35.068-35.068s15.713-35.068,35.068-35.068Z" clip-rule="evenodd" fill="url(#eOjSuqEsml623-fill)" fill-rule="evenodd" stroke-linecap="round" stroke-linejoin="round" stroke-miterlimit="1.5"/><path d="M116.175,207.183c12.814-7.409,29.232-3.022,36.642,9.792c7.409,12.814,3.022,29.232-9.792,36.642-12.814,7.409-29.232,3.022-36.642-9.792-7.409-12.814-3.022-29.232,9.792-36.642Zm.176.304c12.646-7.312,28.849-2.982,36.162,9.664c7.312,12.646,2.982,28.849-9.664,36.162-12.646,7.312-28.849,2.982-36.162-9.664-7.312-12.646-2.982-28.849,9.664-36.162Z" clip-rule="evenodd" fill="url(#eOjSuqEsml624-fill)" fill-rule="evenodd" stroke-linecap="round" stroke-linejoin="round" stroke-miterlimit="1.5"/></g></g><clipPath id="eOjSuqEsml625"><rect width="259.200012" height="460.799988" rx="0" ry="0" transform="matrix(1.553001 0 0 0.873563-71.668933 29.131084)" clip-rule="evenodd" fill-rule="evenodd" stroke-linecap="round" stroke-linejoin="round" stroke-miterlimit="1.5"/></clipPath></g></svg>
