<?xml version="1.0" encoding="UTF-8" standalone="no"?><!DOCTYPE svg PUBLIC "-//W3C//DTD SVG 1.1//EN" "http://www.w3.org/Graphics/SVG/1.1/DTD/svg11.dtd"><svg width="100%" height="100%" viewBox="0 0 38 41" version="1.1" xmlns="http://www.w3.org/2000/svg" xmlns:xlink="http://www.w3.org/1999/xlink" xml:space="preserve" xmlns:serif="http://www.serif.com/" style="fill-rule:evenodd;clip-rule:evenodd;stroke-linejoin:round;stroke-miterlimit:2;"><g id="Logs"><path d="M18.937,21.487l-12.954,-7.479c-0.634,-0.367 -1.511,-0.314 -2.478,0.244c-1.934,1.117 -3.505,3.837 -3.505,6.071c0,1.117 0.393,1.902 1.027,2.269l7.999,4.618l-7.999,4.617l4.956,8.584l12.954,-7.479l12.955,7.479l4.956,-8.584l-7.999,-4.617l7.999,-4.618c0.634,-0.367 1.027,-1.152 1.027,-2.269c-0,-2.234 -1.571,-4.954 -3.505,-6.071c-0.967,-0.558 -1.844,-0.611 -2.478,-0.244l-12.955,7.479Z" style="fill:#583100;"/><path d="M3.505,32.072c-1.934,-1.117 -3.505,-0.21 -3.505,2.024c0,2.234 1.571,4.954 3.505,6.071c1.935,1.117 3.505,0.21 3.505,-2.024c0,-2.234 -1.57,-4.954 -3.505,-6.071Zm30.865,0c-1.935,1.117 -3.505,3.837 -3.505,6.071c-0,2.234 1.57,3.141 3.505,2.024c1.934,-1.117 3.505,-3.837 3.505,-6.071c-0,-2.234 -1.571,-3.141 -3.505,-2.024Z" style="fill:#6d4214;"/></g><g id="Fire"><path d="M9.731,12.367c-1.951,1.968 -1.931,5.034 -1.94,6.671c-0.022,4.318 3.56,10.396 10.505,10.541c6.944,0.146 11.592,-6.359 11.774,-10.725c0.193,-4.639 -1.653,-6.277 -1.653,-6.277c-0,0 -0.725,2.463 -1.878,2.052c-1.736,-0.618 0.326,-4.681 -2.293,-9.09c-2.877,-4.842 -6.477,-5.539 -6.477,-5.539c0,0 1.094,2.345 -0.007,6.02c-1.107,3.697 -2.398,0.724 -2.398,0.724c-0,0 -0.83,0.18 -1.649,4.057c-0.51,2.413 0.414,5.123 -1.78,5.486c-2.163,0.357 -2.204,-3.92 -2.204,-3.92Z" style="fill:#ec521b;"/><path d="M15.808,9.433c0.156,0.051 0.315,0.084 0.475,0.099c0.773,0.073 2.235,-0.226 3.076,-3.033c0.397,-1.324 0.547,-2.503 0.564,-3.506c0.903,0.717 1.937,1.794 2.889,3.398c1.663,2.799 1.161,5.46 1.301,6.988c0.14,1.528 0.765,2.429 1.867,2.821c0.791,0.282 1.53,0.163 2.174,-0.264c0.178,0.752 0.297,1.702 0.25,2.848c-0.156,3.727 -4.146,9.252 -10.073,9.128c-5.853,-0.122 -8.891,-5.226 -8.872,-8.866c0.002,-0.529 -0.019,-1.246 0.052,-2.02c0.664,0.721 1.551,1.095 2.696,0.906c1.691,-0.28 2.449,-1.255 2.778,-2.656c0.259,-1.1 0.052,-2.669 0.361,-4.13c0.141,-0.666 0.306,-1.243 0.462,-1.713Z" style="fill:#f67c2c;"/><path d="M13.119,21.439c0.309,0.029 0.638,0.017 0.989,-0.041c1.869,-0.309 2.716,-1.375 3.081,-2.924c0.195,-0.828 0.043,-2.009 0.275,-3.109c0.017,-0.082 0.035,-0.163 0.054,-0.241c0.395,-0.059 0.842,-0.212 1.293,-0.543c0.571,-0.419 1.199,-1.171 1.622,-2.584c0.021,-0.069 0.041,-0.138 0.06,-0.207c0.085,0.128 0.17,0.263 0.255,0.405c1.113,1.875 0.707,3.67 0.801,4.692c0.16,1.745 0.956,2.716 2.215,3.164c0.337,0.12 0.667,0.182 0.987,0.19c0.004,0.164 0.003,0.335 -0.005,0.514c-0.096,2.304 -2.583,5.695 -6.246,5.619c-3.327,-0.07 -5.17,-2.777 -5.381,-4.935Z" style="fill:#f6d02d;"/></g></svg>