<?xml version="1.0" encoding="UTF-8" standalone="no"?><!DOCTYPE svg PUBLIC "-//W3C//DTD SVG 1.1//EN" "http://www.w3.org/Graphics/SVG/1.1/DTD/svg11.dtd"><svg width="100%" height="100%" viewBox="0 0 70 70" version="1.1" xmlns="http://www.w3.org/2000/svg" xmlns:xlink="http://www.w3.org/1999/xlink" xml:space="preserve" xmlns:serif="http://www.serif.com/" style="fill-rule:evenodd;clip-rule:evenodd;stroke-linejoin:round;stroke-miterlimit:2;"><path d="M52.5,27.983l0,14.034c0,5.786 -4.697,10.483 -10.483,10.483l-14.034,0c-5.786,0 -10.483,-4.697 -10.483,-10.483l0,-14.034c0,-5.786 4.697,-10.483 10.483,-10.483l14.034,0c5.786,0 10.483,4.697 10.483,10.483Zm-3.719,1.491c0,-4.556 -3.699,-8.255 -8.255,-8.255l-11.052,0c-4.556,0 -8.255,3.699 -8.255,8.255l0,11.052c0,4.556 3.699,8.255 8.255,8.255l11.052,0c4.556,0 8.255,-3.699 8.255,-8.255l0,-11.052Zm-5.281,-4.974c1.104,0 2,0.896 2,2c0,1.104 -0.896,2 -2,2c-1.104,0 -2,-0.896 -2,-2c0,-1.104 0.896,-2 2,-2Zm-8.5,3c4.139,0 7.5,3.361 7.5,7.5c0,4.139 -3.361,7.5 -7.5,7.5c-4.139,0 -7.5,-3.361 -7.5,-7.5c0,-4.139 3.361,-7.5 7.5,-7.5Zm0,2.985c-2.492,0 -4.515,2.023 -4.515,4.515c0,2.492 2.023,4.515 4.515,4.515c2.492,0 4.515,-2.023 4.515,-4.515c0,-2.492 -2.023,-4.515 -4.515,-4.515Z" style="fill:#fff4dd;"/></svg>