<svg id="e2rsgN65dYK1" xmlns="http://www.w3.org/2000/svg" xmlns:xlink="http://www.w3.org/1999/xlink" viewBox="0 0 1228 292" shape-rendering="geometricPrecision" text-rendering="geometricPrecision">
<style><![CDATA[
#e2rsgN65dYK5_to {animation: e2rsgN65dYK5_to__to 14500ms linear infinite normal forwards}@keyframes e2rsgN65dYK5_to__to { 0% {transform: translate(1144.454224px,259.081612px)} 77.931034% {transform: translate(1144.454224px,259.081612px);animation-timing-function: cubic-bezier(0.445,0.05,0.55,0.95)} 79.310345% {transform: translate(1144.454227px,22.317903px);animation-timing-function: cubic-bezier(0.445,0.05,0.55,0.95)} 96.551724% {transform: translate(1144.454227px,22.317903px);animation-timing-function: cubic-bezier(0.445,0.05,0.55,0.95)} 97.931034% {transform: translate(1144.454227px,259.08px)} 100% {transform: translate(1144.454227px,259.08px)}} #e2rsgN65dYK10_to {animation: e2rsgN65dYK10_to__to 14500ms linear infinite normal forwards}@keyframes e2rsgN65dYK10_to__to { 0% {transform: translate(664.567383px,264.788636px)} 46.206897% {transform: translate(664.567383px,264.788636px);animation-timing-function: cubic-bezier(0.445,0.05,0.55,0.95)} 47.586207% {transform: translate(664.567383px,-32.231636px);animation-timing-function: cubic-bezier(0.445,0.05,0.55,0.95)} 64.137931% {transform: translate(664.567383px,-32.231636px);animation-timing-function: cubic-bezier(0.445,0.05,0.55,0.95)} 65.517241% {transform: translate(664.567383px,264.79px)} 100% {transform: translate(664.567383px,264.79px)}} #e2rsgN65dYK27_to {animation: e2rsgN65dYK27_to__to 14500ms linear infinite normal forwards}@keyframes e2rsgN65dYK27_to__to { 0% {transform: translate(258.326996px,259.084587px)} 15.172414% {transform: translate(258.326996px,259.084587px);animation-timing-function: cubic-bezier(0.445,0.05,0.55,0.95)} 16.551724% {transform: translate(258.326996px,22.179826px);animation-timing-function: cubic-bezier(0.445,0.05,0.55,0.95)} 33.103448% {transform: translate(258.326996px,22.18px);animation-timing-function: cubic-bezier(0.445,0.05,0.55,0.95)} 34.482759% {transform: translate(258.326996px,259.08px)} 100% {transform: translate(258.326996px,259.08px)}}
]]></style>
<rect width="1227.579956" height="291.381012" rx="0" ry="0" clip-rule="evenodd" fill="none" fill-rule="evenodd" stroke-linejoin="round" stroke-miterlimit="2"/><g clip-path="url(#e2rsgN65dYK31)" clip-rule="evenodd"><g><g id="e2rsgN65dYK5_to" transform="translate(1144.454224,259.081612)"><g transform="translate(-1144.454223,-259.081612)"><path d="M61.162,127.695C27.844,127.695,0,99.851,0,66.532C0,58.3,1.616,50.317,4.81,42.734c3.047-7.236,7.563-13.893,13.113-19.442c5.549-5.549,12.205-10.065,19.442-13.113C44.948,6.986,52.93,5.37,61.162,5.37c33.319,0,61.163,27.843,61.163,61.162c0,8.233-1.616,16.215-4.81,23.798-3.047,7.237-7.563,13.893-13.113,19.442-5.549,5.549-12.205,10.066-19.442,13.113-7.583,3.193-15.565,4.81-23.798,4.81Zm28.182-11.077c25.131-14.181,36.012-45.743,24.768-72.446-7.251-17.219-23.044-30.235-41.374-33.94-7.28-1.471-15.055-1.994-22.037.946-17.293,7.282-21.799,30.529-8.547,43.781c3.695,3.695,8.465,6.296,13.593,7.332c6.438,1.301,12.501.61,18.752,3.242c19.75,8.317,27.001,33.563,14.845,51.085ZM61.162,26.354c5.353,0,9.698,4.345,9.698,9.697s-4.345,9.697-9.698,9.697c-5.352,0-9.697-4.345-9.697-9.697s4.345-9.697,9.697-9.697Zm0,61.217c-5.352,0-9.697,4.346-9.697,9.698s4.345,9.697,9.697,9.697c5.353,0,9.698-4.345,9.698-9.697s-4.345-9.698-9.698-9.698Z" transform="matrix(1.37393 0 0 1.37393 1058.860457 296.270251)" clip-rule="evenodd" fill="#fff4dd" fill-rule="evenodd" stroke-linejoin="round" stroke-miterlimit="2"/><path d="M1116.31,165.177c.225,8.542,2.712,15.517,7.677,20.851c5.019,5.393,11.13,8.106,18.349,8.106c12.424,0,21.969-6.643,28.92-19.502c1.056-1.954,3.237-3.02,5.428-2.654l38.596,6.458c1.614.27,3.006,1.285,3.758,2.738.751,1.454.774,3.176.062,4.649-7.983,16.497-18.702,28.827-32.059,37.075-13.378,8.261-28.376,12.414-45.006,12.414-22.955,0-41.584-7.357-55.957-21.892-14.338-14.498-21.626-33.633-21.626-57.493c0-22.958,6.393-43.381,19.135-61.284.004-.005.007-.01.011-.015c17.516-24.416,42.474-36.709,74.957-36.709c21.121,0,37.859,6.654,50.315,19.705c12.344,12.934,18.708,30.982,18.708,54.274c0,10.864-1.059,20.63-3.148,29.301-.563,2.333-2.651,3.978-5.051,3.978h-103.069Zm61.675-36.672c-.109-9.822-2.153-17.294-6.624-22.271-4.335-4.825-10.183-7.137-17.461-7.137-7.59,0-14.364,2.919-20.375,8.633-5.223,4.963-8.969,11.913-11.397,20.775h55.857Z" clip-rule="evenodd" fill="#fff4dd" fill-rule="evenodd" stroke-linejoin="round" stroke-miterlimit="2"/></g></g><path d="M911.06,61.674h43.102c1.564,0,3.044.704,4.031,1.917s1.374,2.806,1.055,4.337l-19.673,94.465c-.002.006-.003.013-.005.02-2.281,10.743-3.491,17.434-3.491,20.096c0,3.162,1.192,5.868,3.53,8.136c2.453,2.381,5.623,3.489,9.447,3.489c3.165,0,6.287-.612,9.368-1.819c3.306-1.296,6.691-3.279,10.175-5.915c3.574-2.703,6.781-5.796,9.622-9.278c2.842-3.484,5.475-8.082,7.962-13.786c1.817-4.424,3.746-11.611,5.848-21.546l15.918-75.986c.504-2.407,2.626-4.13,5.085-4.13h43.102c1.564,0,3.045.704,4.032,1.919.986,1.214,1.373,2.808,1.053,4.339l-33.34,159.493c-.504,2.408-2.626,4.132-5.086,4.132h-40.248c-1.564,0-3.045-.704-4.031-1.917-.987-1.214-1.374-2.807-1.055-4.337l1.435-6.891c-15.413,11.306-31.885,16.9-49.364,16.9-14.698,0-26.195-4.37-34.611-12.785-8.435-8.436-12.785-19.689-12.785-33.861c0-5.681,1.702-17.002,5.214-33.944l.003-.011l18.622-88.907c.504-2.407,2.626-4.13,5.085-4.13Z" clip-rule="evenodd" fill="#fff4dd" fill-rule="evenodd" stroke-linejoin="round" stroke-miterlimit="2"/><path d="M840.345,61.674h39.648c1.564,0,3.044.704,4.031,1.918.986,1.213,1.374,2.807,1.054,4.338L844.181,264l-32.465,28.381L791.701,258l6.885-33.088c-4.052,2.546-7.97,4.562-11.748,6.056-7.271,2.876-15.514,4.344-24.738,4.344-18.54,0-33.367-6.289-44.556-18.685-10.947-12.128-16.657-29.709-16.657-52.891c0-17.817,3.588-35.167,10.778-52.046c7.319-17.185,17.525-30.381,30.52-39.662c13.191-9.423,27.494-14.109,42.893-14.109c20.409,0,36.219,6.961,47.474,20.803l2.708-12.919c.504-2.406,2.626-4.129,5.085-4.129ZM752.878,162.985c0,9.215,2.342,16.587,7.337,22.012c4.756,5.166,10.479,7.785,17.203,7.785c6.262,0,12.285-2.192,18.118-6.439c6.122-4.456,10.959-11.906,14.785-22.169c4.021-10.786,6.056-21.141,6.056-31.075c0-10.408-2.486-18.622-7.821-24.526-5.011-5.544-10.749-8.425-17.321-8.425-5.598,0-11.248,2.342-17.058,6.752-6.206,4.711-11.139,12.57-15.08,23.396-4.131,11.349-6.219,22.242-6.219,32.689Z" clip-rule="evenodd" fill="#fff4dd" fill-rule="evenodd" stroke-linejoin="round" stroke-miterlimit="2"/><g id="e2rsgN65dYK10_to" transform="translate(664.567383,264.788636)"><g transform="translate(-664.567383,-264.788635)"><g transform="matrix(1.338548 0 0 1.338548 614.648242 297.118241)" clip-rule="evenodd"><g clip-rule="evenodd"><path d="M27.876,134.676c2.296.454,6.993.529,9.417.529c2.463-.001,7.191-.077,9.526-.533l11.444,34.944c-1.324,2.136-8.199,2.695-9.191,2.786-7.489.688-15.958.688-23.447,0-.992-.091-7.867-.65-9.191-2.786l11.442-34.94Z" clip-rule="evenodd" fill="#c9c9c9" fill-rule="evenodd" stroke-linejoin="round" stroke-miterlimit="2"/><path d="M22.114,171.892l9.312-36.837c2.32.135,4.813.15,5.867.15.084,0,.176,0,.276-.001l5.028,37.614c-1.736.066-3.492.1-5.249.1-3.989,0-7.978-.172-11.723-.516-.814-.087-1.557-.182-2.234-.283-.427-.068-.853-.144-1.277-.227Z" clip-rule="evenodd" fill="#dcdcdc" fill-rule="evenodd" stroke-linejoin="round" stroke-miterlimit="2"/><path d="M16.838,96.962c1.117.319,5.243.888,20.455.889c15.766-.001,19.624-.612,20.566-.922L47.184,132.115c-3.098.632-7.199.616-9.891.616-2.635,0-6.731.022-9.791-.616L16.838,96.962Z" clip-rule="evenodd" fill="#c9c9c9" fill-rule="evenodd" stroke-linejoin="round" stroke-miterlimit="2"/><path d="M22.815,97.582c3.091.154,7.677.269,14.478.269c2.232,0,4.225-.013,6.005-.035c0,0-5.319,32.461-5.717,34.915-.097,0-.193,0-.288,0-1.603,0-3.749.008-5.872-.129-.571-2.319-8.606-35.02-8.606-35.02Z" clip-rule="evenodd" fill="#dcdcdc" fill-rule="evenodd" stroke-linejoin="round" stroke-miterlimit="2"/><path d="M43.664,0.821c0,0-1.477-.821-6.321-.821-4.843,0-6.32.821-6.32.821l-4.319,24.95c0,0,3.773-.75,10.639-.75s10.64.75,10.64.75L43.664,0.821Z" clip-rule="evenodd" fill="#c9c9c9" fill-rule="evenodd" stroke-linejoin="round" stroke-miterlimit="2"/><path d="M34.32,0.128C35.138,0.051,36.136,0,37.343,0c.012,0,.024,0,.035,0l2.677,25.061c-.841-.025-1.746-.04-2.712-.04-2.752,0-5.007.12-6.722.265L34.32,0.128Z" clip-rule="evenodd" fill="#dcdcdc" fill-rule="evenodd" stroke-linejoin="round" stroke-miterlimit="2"/></g><path d="M37.293,95.265c-21.148-.001-20.869-1.099-20.869-1.099s-.81-.812,2.171-19.478C21.726,55.084,26.991,28,26.991,28c.998-.166,4.565-.683,10.302-.686c5.737.003,9.305.52,10.302.686c0,0,5.266,27.084,8.397,46.688c2.981,18.666,2.171,19.478,2.171,19.478s.278,1.098-20.87,1.099Z" clip-rule="evenodd" fill="#199bd3" fill-rule="evenodd" stroke-linejoin="round" stroke-miterlimit="2"/><g clip-rule="evenodd"><path d="M23.346,95.022c1.527-2.073,3.349-3.912,4.992-5.895.89-1.073,2.212-2.51,2.267-4.051.103-2.923-2.177-6.367-3.05-8.718-.775-2.088-.939-3.525-.62-5.735.682-4.721,6.626-8.022,10.992-6.403c2.206.818,3.973,2.889,4.883,5.007c1.307,3.041,1.657,6.453-.797,9.062-1.57,1.668-5.654,3.797-5.58,6.728.086,3.428,3.942,5.455,5.882,7.6.698.772,1.235,1.685,1.725,2.604-6.231.089-15.177.054-20.694-.199Z" clip-rule="evenodd" fill="#25e85d" fill-rule="evenodd" stroke-linejoin="round" stroke-miterlimit="2"/><path d="M45.868,49.259c3.111.602,5.633,3.169,4.941,7.357-.778,4.701-4.728,6.119-8.019,5.156-2.399-.702-4.764-2.322-6.203-4.686-.688-1.128-1.223-2.647-.714-4.144.456-1.345,1.58-2.198,2.642-2.734c2.317-1.169,5.011-1.402,7.353-.949Z" clip-rule="evenodd" fill="#25e85d" fill-rule="evenodd" stroke-linejoin="round" stroke-miterlimit="2"/><path d="M45.932,27.769c-1.512,6.118-3.889,13.856-9.41,17.677-1.537,1.063-6.315,3.503-7.746.857-.441-.816-.442-2.131-.399-2.906.165-2.968.778-6.235.711-9.272-.026-1.196-.151-2.389-.3-3.575-.085-.678-.595-2.004-.434-2.744c1.719-.214,4.751-.49,8.939-.492c3.954.002,6.877.248,8.639.455Z" clip-rule="evenodd" fill="#25e85d" fill-rule="evenodd" stroke-linejoin="round" stroke-miterlimit="2"/></g></g><path d="M665.994,1h43.103c1.563,0,3.043.704,4.029,1.916.987,1.213,1.375,2.805,1.057,4.336l-8.11,39.047c-.5,2.411-2.624,4.139-5.086,4.139h-43.102c-1.564,0-3.044-.704-4.03-1.917-.987-1.212-1.375-2.804-1.057-4.335l8.11-39.047c.5-2.411,2.624-4.139,5.086-4.139ZM653.379,61.674h43.102c1.565,0,3.046.704,4.032,1.919.987,1.214,1.374,2.808,1.054,4.339L668.226,227.425c-.503,2.408-2.626,4.132-5.085,4.132h-43.102c-1.565,0-3.046-.705-4.032-1.919-.987-1.214-1.374-2.808-1.054-4.339L648.294,65.806c.503-2.408,2.625-4.132,5.085-4.132Z" clip-rule="evenodd" fill="#fff4dd" fill-rule="evenodd" stroke-linejoin="round" stroke-miterlimit="2"/></g></g><path d="M521.534,97.807l6.608-31.989c.498-2.413,2.624-4.144,5.088-4.144h16.791l4.402-21.384c.293-1.421,1.166-2.655,2.41-3.403L606.243,7.15c1.77-1.065,4.003-.98,5.687.216c1.684,1.197,2.5,3.278,2.077,5.3L603.752,61.674h19.887c1.563,0,3.042.703,4.028,1.914.987,1.211,1.376,2.802,1.06,4.332l-6.608,31.989c-.498,2.413-2.624,4.144-5.088,4.144h-22.21l-13.102,62.692c-2.377,11.506-3.646,18.052-3.646,19.669c0,1.614.366,2.931,1.393,3.836c1.452,1.279,4.175,1.481,7.979,1.481c1.839,0,6.436-.352,13.791-1.029c1.643-.152,3.261.487,4.358,1.719c1.097,1.233,1.543,2.914,1.202,4.528l-6.758,31.989c-.429,2.027-2.021,3.606-4.051,4.018-7.744,1.569-15.698,2.356-23.86,2.356-16.799,0-28.924-3.553-36.55-10.018-8.046-6.822-12.198-16.241-12.198-28.368c0-5.057,1.847-16.731,5.666-35.001l12.062-57.872h-14.485c-1.562,0-3.042-.703-4.028-1.914-.987-1.212-1.376-2.803-1.06-4.332Z" clip-rule="evenodd" fill="#fff4dd" fill-rule="evenodd" stroke-linejoin="round" stroke-miterlimit="2"/><path d="M456.418,161.16l41.901,6.759c1.535.247,2.878,1.169,3.661,2.512s.924,2.966.383,4.423c-7.308,19.701-18.178,34.64-32.477,44.914-14.391,10.34-31.063,15.544-50.038,15.544-21.904,0-39.223-6.669-52.063-19.725-12.797-13.011-19.363-30.856-19.363-53.653c0-18.097,3.771-35.2,11.302-51.31c7.651-16.365,19.181-29.249,34.59-38.653c15.341-9.363,32.161-14.052,50.464-14.052c20.273,0,36.398,5.435,48.476,16.003c12.221,10.694,19.149,24.745,20.677,42.204.247,2.821-1.811,5.32-4.627,5.619l-40.999,4.356c-2.841.301-5.393-1.747-5.712-4.587-.834-7.42-2.878-12.974-6.588-16.475-3.537-3.338-8.208-4.891-13.93-4.891-7.112,0-13.719,2.74-19.888,8.053-6.574,5.661-11.511,14.192-15.026,25.468-3.683,11.816-5.546,22.888-5.546,33.221c0,7.879,1.715,14.022,5.571,18.297c3.576,3.965,8.048,5.943,13.413,5.943c5.814,0,11.383-2.195,16.776-6.407c5.726-4.474,10.107-11.246,13.328-20.193.847-2.352,3.248-3.768,5.715-3.37Z" clip-rule="evenodd" fill="#fff4dd" fill-rule="evenodd" stroke-linejoin="round" stroke-miterlimit="2"/><g id="e2rsgN65dYK27_to" transform="translate(258.326996,259.084587)"><g transform="translate(-258.326996,-259.084587)"><path d="M228.622,165.177c.225,8.542,2.712,15.517,7.677,20.851c5.019,5.393,11.131,8.106,18.349,8.106c12.424,0,21.969-6.643,28.92-19.502c1.056-1.954,3.237-3.02,5.428-2.654l38.596,6.458c1.614.27,3.006,1.285,3.758,2.738.751,1.454.774,3.176.062,4.649-7.983,16.497-18.702,28.827-32.059,37.075-13.378,8.261-28.376,12.414-45.006,12.414-22.955,0-41.584-7.357-55.957-21.892-14.338-14.498-21.626-33.633-21.626-57.493c0-22.958,6.393-43.381,19.135-61.284.004-.005.007-.01.011-.015c17.516-24.416,42.474-36.709,74.957-36.709c21.121,0,37.859,6.654,50.315,19.705c12.344,12.934,18.708,30.982,18.708,54.274c0,10.864-1.059,20.63-3.148,29.301-.563,2.333-2.651,3.978-5.051,3.978h-103.069Zm61.675-36.672c-.109-9.822-2.153-17.294-6.624-22.271-4.335-4.825-10.183-7.137-17.461-7.137-7.59,0-14.364,2.919-20.375,8.633-5.223,4.963-8.969,11.913-11.397,20.775h55.857Z" clip-rule="evenodd" fill="#fff4dd" fill-rule="evenodd" stroke-linejoin="round" stroke-miterlimit="2"/><path d="M61.172,5.35c33.762,0,61.172,27.41,61.172,61.172s-27.41,61.173-61.172,61.173-61.172-27.411-61.172-61.173s27.41-61.172,61.172-61.172ZM47.001,32.579c-3.846,0-6.969,6.78-6.969,15.131c0,8.352,3.123,15.132,6.969,15.132c3.847,0,6.969-6.78,6.969-15.132c0-8.351-3.122-15.131-6.969-15.131ZM23.128,80.751c4.761,16.576,19.96,30.146,37.953,30.146c18.002,0,33.207-13.582,37.96-30.168c3.602.493,6.933-1.381,7.791-4.427.154-.547-.164-1.115-.711-1.269l-1.068-.301c-.506-.143-1.038.119-1.234.607-.687,1.714-2.893,2.5-5.052,1.892-2.159-.609-3.629-2.431-3.32-4.252.088-.518-.229-1.02-.735-1.162l-1.069-.301c-.546-.154-1.114.164-1.268.71-.838,2.97.911,6.217,4.085,7.732-5.09,14.638-19.016,25.156-35.379,25.156-16.335,0-30.242-10.483-35.353-25.083c3.273-1.482,5.093-4.786,4.242-7.805-.154-.546-.722-.864-1.269-.71l-1.068.301c-.506.142-.823.644-.735,1.162.309,1.821-1.162,3.643-3.321,4.252-2.159.608-4.364-.178-5.052-1.892-.196-.488-.727-.75-1.233-.607l-1.069.301c-.547.154-.865.722-.711,1.269.845,2.996,4.082,4.858,7.616,4.449ZM75.162,32.579c-3.847,0-6.969,6.78-6.969,15.131c0,8.352,3.122,15.132,6.969,15.132c3.846,0,6.969-6.78,6.969-15.132c0-8.351-3.123-15.131-6.969-15.131Z" transform="matrix(1.333339 0 0 1.333339 176.763974 289.989464)" clip-rule="evenodd" fill="#ffc900" fill-rule="evenodd" stroke-linejoin="round" stroke-miterlimit="2"/></g></g><path d="M37.33,214.74L0.082,7.113c-.272-1.515.141-3.071,1.129-4.251C2.198,1.682,3.657,1,5.195,1L50.4,1c2.538,0,4.704,1.833,5.124,4.336L78.02,139.47L37.33,214.74ZM122.628,81L164.937,3.701C165.849,2.036,167.596,1,169.494,1h44.905c1.838,0,3.538.971,4.473,2.553s.964,3.541.077,5.15L97.602,228.87c-.914,1.658-2.657,2.687-4.55,2.687h-48.359c-1.089,0-2.111-.338-2.955-.922L122.628,81Z" clip-rule="evenodd" fill="#fff4dd" fill-rule="evenodd" stroke-linejoin="round" stroke-miterlimit="2"/></g><clipPath id="e2rsgN65dYK31"><rect width="1227.579956" height="291.381012" rx="0" ry="0" clip-rule="evenodd" fill-rule="evenodd" stroke-linejoin="round" stroke-miterlimit="2"/></clipPath></g></svg>
