<?xml version="1.0" encoding="UTF-8" standalone="no"?><!DOCTYPE svg PUBLIC "-//W3C//DTD SVG 1.1//EN" "http://www.w3.org/Graphics/SVG/1.1/DTD/svg11.dtd"><svg width="100%" height="100%" viewBox="0 0 70 70" version="1.1" xmlns="http://www.w3.org/2000/svg" xmlns:xlink="http://www.w3.org/1999/xlink" xml:space="preserve" xmlns:serif="http://www.serif.com/" style="fill-rule:evenodd;clip-rule:evenodd;stroke-linejoin:round;stroke-miterlimit:2;"><path d="M9,25c0,-2.761 2.239,-5 5,-5l42,0c2.761,0 5,2.239 5,5l0,20c0,2.761 -2.239,5 -5,5l-42,0c-2.761,0 -5,-2.239 -5,-5l0,-20Zm43.184,-1.25l-34.368,0l17.184,13.94l17.184,-13.94Zm5.102,22.06l0,-21.388l-11.029,8.946l11.029,12.442Zm-40.101,0.44l35.63,0l-9.457,-10.53c0,0 -2.839,2.303 -5.208,4.225c-1.836,1.489 -4.464,1.489 -6.3,0c-2.438,-1.978 -5.402,-4.382 -5.402,-4.382l-9.263,10.687Zm-4.471,-21.828l0,21.292l10.836,-12.502l-10.836,-8.79Z" style="fill:#fff4dd;"/></svg>