<?xml version="1.0" encoding="UTF-8" standalone="no"?><!DOCTYPE svg PUBLIC "-//W3C//DTD SVG 1.1//EN" "http://www.w3.org/Graphics/SVG/1.1/DTD/svg11.dtd"><svg width="100%" height="100%" viewBox="0 0 937 35" version="1.1" xmlns="http://www.w3.org/2000/svg" xmlns:xlink="http://www.w3.org/1999/xlink" xml:space="preserve" xmlns:serif="http://www.serif.com/" style="fill-rule:evenodd;clip-rule:evenodd;stroke-linejoin:round;stroke-miterlimit:2;"><rect x="0" y="0" width="937" height="35" style="fill:#fff4dd;"/><path d="M38.008,25.268c0.113,-0.276 0.44,-1.841 0.44,-1.841c-0.988,0.714 -2.007,1.068 -3.052,1.068c-1.189,-0 -2.163,-0.421 -2.925,-1.259c-0.751,-0.827 -1.136,-2.034 -1.136,-3.628c-0,-1.383 0.252,-2.65 0.754,-3.803c0.509,-1.168 1.226,-2.05 2.147,-2.649c0.925,-0.602 1.87,-0.901 2.833,-0.901c0.805,0 1.542,0.214 2.211,0.639c0.525,0.334 0.959,0.774 1.302,1.32l0.326,-1.533c0.019,-0.09 0.098,-0.154 0.19,-0.154l2.922,0c0.059,0 0.114,0.026 0.151,0.072c0.037,0.045 0.051,0.105 0.04,0.162l-1.999,9.613c-0.328,1.553 -0.606,2.661 -0.832,3.325c-0.232,0.681 -0.499,1.224 -0.799,1.628c-0.304,0.411 -0.689,0.756 -1.153,1.034c-0.46,0.275 -1.002,0.474 -1.627,0.594c-0.613,0.118 -1.277,0.178 -1.992,0.178c-1.678,-0 -2.944,-0.295 -3.802,-0.87c-0.882,-0.591 -1.335,-1.568 -1.335,-2.942c-0,-0.145 0.011,-0.305 0.034,-0.481c0.007,-0.052 0.034,-0.099 0.076,-0.13c0.041,-0.032 0.094,-0.045 0.145,-0.038l3.291,0.478c0.096,0.014 0.167,0.096 0.167,0.193c-0,0.286 0.039,0.504 0.132,0.65c0.092,0.144 0.243,0.264 0.449,0.365c0.221,0.109 0.524,0.159 0.908,0.159c0.613,-0 1.106,-0.116 1.477,-0.358c0.27,-0.185 0.486,-0.483 0.657,-0.891Zm-3.243,-5.975c-0,0.82 0.176,1.447 0.545,1.877c0.355,0.414 0.8,0.622 1.335,0.622c0.502,0 0.987,-0.195 1.458,-0.576c0.485,-0.392 0.854,-0.951 1.112,-1.674c0.264,-0.737 0.396,-1.45 0.396,-2.139c0,-0.764 -0.201,-1.381 -0.614,-1.848c-0.4,-0.453 -0.86,-0.684 -1.385,-0.684c-0.51,0 -0.977,0.206 -1.404,0.61c-0.448,0.423 -0.813,1.079 -1.105,1.961c-0.225,0.687 -0.338,1.304 -0.338,1.851Zm255.036,-0.514c0.017,0.015 -0.003,-0.001 -0.003,-0.001c-0.269,-0.234 -1.009,-0.608 -2.215,-1.131c-1.247,-0.542 -2.157,-0.994 -2.731,-1.356c-0.596,-0.376 -1.065,-0.864 -1.407,-1.464c-0.341,-0.599 -0.514,-1.301 -0.514,-2.105c-0,-1.398 0.507,-2.557 1.519,-3.479c1.001,-0.911 2.448,-1.376 4.345,-1.376c1.924,0 3.411,0.459 4.466,1.361c1.064,0.91 1.651,2.12 1.757,3.632c0.003,0.052 -0.014,0.104 -0.049,0.143c-0.035,0.039 -0.084,0.063 -0.137,0.065l-3.139,0.141c-0.103,0.005 -0.191,-0.072 -0.202,-0.174c-0.074,-0.704 -0.323,-1.246 -0.759,-1.622c-0.441,-0.38 -1.096,-0.561 -1.958,-0.561c-0.846,0 -1.454,0.136 -1.816,0.434c-0.339,0.279 -0.51,0.63 -0.51,1.055c0,0.396 0.156,0.724 0.464,0.982c0.347,0.297 1.118,0.702 2.308,1.219c1.865,0.803 3.048,1.461 3.556,1.961c0.783,0.761 1.178,1.737 1.178,2.931c-0,1.461 -0.576,2.71 -1.732,3.746c-1.143,1.024 -2.733,1.543 -4.774,1.543c-1.399,-0 -2.612,-0.237 -3.638,-0.708c-1.048,-0.48 -1.785,-1.151 -2.216,-2.006c-0.426,-0.845 -0.626,-1.817 -0.596,-2.917c0.002,-0.101 0.083,-0.184 0.184,-0.189l3.117,-0.163c0.052,-0.003 0.103,0.016 0.141,0.05c0.039,0.035 0.062,0.084 0.064,0.136c0.041,0.932 0.185,1.565 0.464,1.892c0.45,0.532 1.288,0.779 2.502,0.779c1.014,-0 1.751,-0.17 2.203,-0.533c0.426,-0.343 0.644,-0.754 0.644,-1.239c-0,-0.412 -0.174,-0.761 -0.516,-1.046Zm424.325,0c0.017,0.015 -0.003,-0.001 -0.003,-0.001c-0.269,-0.234 -1.009,-0.608 -2.215,-1.131c-1.247,-0.542 -2.157,-0.994 -2.731,-1.356c-0.596,-0.376 -1.065,-0.864 -1.407,-1.464c-0.341,-0.599 -0.514,-1.301 -0.514,-2.105c0,-1.398 0.507,-2.557 1.519,-3.479c1.001,-0.911 2.448,-1.376 4.345,-1.376c1.924,0 3.411,0.459 4.466,1.361c1.064,0.91 1.652,2.12 1.757,3.632c0.003,0.052 -0.014,0.104 -0.049,0.143c-0.035,0.039 -0.084,0.063 -0.137,0.065l-3.139,0.141c-0.102,0.005 -0.191,-0.072 -0.202,-0.174c-0.074,-0.704 -0.323,-1.246 -0.759,-1.622c-0.441,-0.38 -1.096,-0.561 -1.958,-0.561c-0.846,0 -1.453,0.136 -1.815,0.434c-0.34,0.279 -0.511,0.63 -0.511,1.055c0,0.396 0.156,0.724 0.464,0.982c0.347,0.297 1.118,0.702 2.309,1.219c1.864,0.803 3.048,1.461 3.555,1.961c0.783,0.761 1.178,1.737 1.178,2.931c-0,1.461 -0.576,2.71 -1.732,3.746c-1.143,1.024 -2.733,1.543 -4.773,1.543c-1.4,-0 -2.613,-0.237 -3.639,-0.708c-1.048,-0.48 -1.784,-1.151 -2.216,-2.006c-0.426,-0.845 -0.626,-1.817 -0.596,-2.917c0.003,-0.101 0.083,-0.184 0.184,-0.189l3.117,-0.163c0.052,-0.003 0.103,0.016 0.141,0.05c0.039,0.035 0.062,0.084 0.064,0.136c0.041,0.932 0.185,1.565 0.464,1.892c0.45,0.532 1.289,0.779 2.502,0.779c1.015,-0 1.751,-0.17 2.203,-0.533c0.426,-0.343 0.644,-0.754 0.644,-1.239c0,-0.412 -0.174,-0.761 -0.516,-1.046Zm-706.058,2.622l7.864,0c0.058,0 0.114,0.026 0.151,0.072c0.036,0.045 0.051,0.105 0.039,0.162l-0.554,2.661c-0.019,0.091 -0.098,0.155 -0.19,0.155l-11.383,0c-0.059,0 -0.115,-0.026 -0.151,-0.072c-0.037,-0.045 -0.052,-0.105 -0.04,-0.162l3.335,-15.923c0.019,-0.091 0.098,-0.155 0.19,-0.155l3.269,-0c0.059,-0 0.115,0.026 0.151,0.072c0.037,0.045 0.052,0.105 0.04,0.162l-2.669,12.78l-0.052,0.248Zm213.258,-1.751c-0.001,0.034 -0.002,0.063 -0.002,0.088c0,0.712 0.199,1.288 0.605,1.725c0.399,0.429 0.886,0.644 1.46,0.644c0.964,0 1.711,-0.507 2.251,-1.505c0.039,-0.074 0.121,-0.114 0.203,-0.1l2.792,0.467c0.06,0.01 0.112,0.048 0.14,0.103c0.028,0.054 0.029,0.119 0.003,0.174c-0.561,1.159 -1.313,2.027 -2.251,2.606c-0.939,0.58 -1.992,0.871 -3.16,0.871c-1.607,-0 -2.912,-0.512 -3.918,-1.53c-1.005,-1.016 -1.512,-2.358 -1.512,-4.03c0,-1.621 0.451,-3.064 1.351,-4.328c1.232,-1.717 2.989,-2.58 5.274,-2.58c1.472,0 2.64,0.46 3.508,1.37c0.864,0.905 1.303,2.17 1.303,3.8c-0,0.77 -0.075,1.462 -0.223,2.076c-0.021,0.088 -0.099,0.149 -0.189,0.149c-0,0 -6.262,0 -7.515,0l-0.12,0Zm-0.1,0c0.001,0 0.003,0 0.004,0c-0,0 -0.002,-0.002 -0.004,-0.006c-0,0.002 -0,0.004 -0,0.006Zm4.92,-2.29c0.002,-0.047 0.003,-0.087 0.003,-0.12c-0,-0.795 -0.169,-1.395 -0.526,-1.792c-0.348,-0.387 -0.814,-0.577 -1.398,-0.577c-0.595,0 -1.127,0.227 -1.598,0.674c-0.443,0.421 -0.751,1.028 -0.932,1.815l4.451,0Zm180.978,-4.833l1.661,0c0.059,0 0.114,0.026 0.151,0.072c0.037,0.045 0.051,0.105 0.04,0.162l-0.478,2.313c-0.019,0.091 -0.099,0.156 -0.191,0.156l-1.753,-0l-0.978,4.678c-0.176,0.853 -0.268,1.34 -0.268,1.46c0,0.175 0.051,0.314 0.163,0.413c0.127,0.112 0.362,0.152 0.696,0.152c0.136,0 0.474,-0.025 1.014,-0.075c0.062,-0.006 0.123,0.018 0.164,0.064c0.041,0.047 0.057,0.11 0.045,0.17l-0.489,2.314c-0.016,0.075 -0.076,0.135 -0.152,0.15c-0.548,0.111 -1.111,0.167 -1.689,0.167c-1.16,-0 -2,-0.235 -2.527,-0.682c-0.542,-0.459 -0.818,-1.096 -0.818,-1.913c0,-0.361 0.134,-1.192 0.406,-2.495l0.918,-4.403l-1.271,-0c-0.058,-0 -0.113,-0.027 -0.15,-0.072c-0.037,-0.045 -0.052,-0.105 -0.04,-0.162l0.478,-2.314c0.018,-0.09 0.098,-0.155 0.19,-0.155l1.362,0l0.349,-1.691c0.011,-0.053 0.043,-0.1 0.09,-0.128l3.573,-2.15c0.067,-0.04 0.15,-0.037 0.213,0.008c0.063,0.045 0.094,0.123 0.078,0.198l-0.787,3.763Zm-0.668,2.682l0.016,0.021c0,-0 -0.006,-0.01 -0.015,-0.026l-0.001,0.005Zm70.555,3.171l-1.238,5.917c-0.019,0.09 -0.098,0.154 -0.19,0.154l-3.281,0c-0.058,0 -0.114,-0.026 -0.151,-0.072c-0.037,-0.045 -0.051,-0.105 -0.039,-0.162l3.335,-15.923c0.018,-0.091 0.098,-0.155 0.19,-0.155l6.474,-0c1.182,-0 2.117,0.143 2.804,0.421c0.709,0.288 1.27,0.762 1.684,1.425c0.409,0.655 0.616,1.436 0.616,2.346c-0,0.829 -0.161,1.635 -0.482,2.419c-0.322,0.787 -0.719,1.416 -1.188,1.888c-0.47,0.475 -0.977,0.833 -1.519,1.078c-0.534,0.241 -1.254,0.427 -2.16,0.553c-0.519,0.073 -1.491,0.111 -2.916,0.111l-1.939,-0Zm-0.101,-0.003c0.006,0.002 0.013,0.003 0.02,0.003c0,-0 -0.006,-0.011 -0.015,-0.026l-0.005,0.023Zm0.726,-3.026l0.771,0c1.696,0 2.829,-0.1 3.396,-0.313c0.541,-0.203 0.967,-0.526 1.278,-0.972c0.309,-0.444 0.464,-0.932 0.464,-1.464c0,-0.338 -0.07,-0.617 -0.22,-0.834c-0.148,-0.214 -0.357,-0.368 -0.624,-0.466c-0.298,-0.108 -0.962,-0.156 -1.992,-0.156l-2.188,-0l-0.885,4.205Zm41.59,-2.824l1.661,0c0.058,0 0.114,0.026 0.151,0.072c0.037,0.045 0.051,0.105 0.04,0.162l-0.478,2.313c-0.019,0.091 -0.099,0.156 -0.191,0.156l-1.753,-0l-0.978,4.678c-0.177,0.853 -0.268,1.34 -0.268,1.46c0,0.175 0.051,0.314 0.162,0.413c0.128,0.112 0.363,0.152 0.697,0.152c0.136,0 0.474,-0.025 1.014,-0.075c0.062,-0.006 0.122,0.018 0.164,0.064c0.041,0.047 0.057,0.11 0.045,0.17l-0.489,2.314c-0.016,0.075 -0.076,0.135 -0.152,0.15c-0.548,0.111 -1.112,0.167 -1.69,0.167c-1.159,-0 -1.999,-0.235 -2.526,-0.682c-0.542,-0.459 -0.818,-1.096 -0.818,-1.913c-0,-0.361 0.134,-1.192 0.406,-2.495l0.918,-4.403l-1.271,-0c-0.058,-0 -0.114,-0.027 -0.151,-0.072c-0.036,-0.045 -0.051,-0.105 -0.039,-0.162l0.478,-2.314c0.018,-0.09 0.098,-0.155 0.19,-0.155l1.362,0l0.348,-1.691c0.011,-0.053 0.044,-0.1 0.091,-0.128l3.573,-2.15c0.067,-0.04 0.15,-0.037 0.213,0.008c0.063,0.045 0.094,0.123 0.078,0.198l-0.787,3.763Zm-0.668,2.682l0.016,0.021c0,-0 -0.006,-0.01 -0.015,-0.026l-0.001,0.005Zm5.534,4.441c-0.001,0.034 -0.002,0.063 -0.002,0.088c0,0.712 0.199,1.288 0.605,1.725c0.399,0.429 0.886,0.644 1.46,0.644c0.965,0 1.711,-0.507 2.251,-1.505c0.04,-0.074 0.121,-0.114 0.203,-0.1l2.792,0.467c0.06,0.01 0.112,0.048 0.14,0.103c0.029,0.054 0.029,0.119 0.003,0.174c-0.561,1.159 -1.313,2.027 -2.251,2.606c-0.939,0.58 -1.992,0.871 -3.16,0.871c-1.607,-0 -2.912,-0.512 -3.918,-1.53c-1.005,-1.016 -1.512,-2.358 -1.512,-4.03c0,-1.621 0.451,-3.064 1.351,-4.328c1.232,-1.717 2.989,-2.58 5.274,-2.58c1.472,0 2.64,0.46 3.508,1.37c0.864,0.905 1.303,2.17 1.303,3.8c-0,0.77 -0.075,1.462 -0.223,2.076c-0.021,0.088 -0.099,0.149 -0.189,0.149c0,0 -6.262,0 -7.514,0l-0.121,0Zm-0.1,0c0.001,0 0.003,0 0.004,0c0,0 -0.001,-0.002 -0.004,-0.006c0,0.002 -0,0.004 -0,0.006Zm4.92,-2.29c0.002,-0.047 0.003,-0.087 0.003,-0.12c-0,-0.795 -0.169,-1.395 -0.526,-1.792c-0.347,-0.387 -0.814,-0.577 -1.398,-0.577c-0.595,0 -1.127,0.227 -1.598,0.674c-0.443,0.421 -0.751,1.028 -0.932,1.815l4.451,0Zm116.739,2.29c-0.001,0.034 -0.002,0.063 -0.002,0.088c0,0.712 0.199,1.288 0.605,1.725c0.399,0.429 0.886,0.644 1.46,0.644c0.965,0 1.711,-0.507 2.251,-1.505c0.04,-0.074 0.121,-0.114 0.203,-0.1l2.792,0.467c0.06,0.01 0.112,0.048 0.14,0.103c0.029,0.054 0.029,0.119 0.003,0.174c-0.561,1.159 -1.313,2.027 -2.251,2.606c-0.939,0.58 -1.992,0.871 -3.16,0.871c-1.607,-0 -2.912,-0.512 -3.918,-1.53c-1.005,-1.016 -1.512,-2.358 -1.512,-4.03c0,-1.621 0.451,-3.064 1.351,-4.328c1.232,-1.717 2.989,-2.58 5.274,-2.58c1.472,0 2.64,0.46 3.508,1.37c0.864,0.905 1.303,2.17 1.303,3.8c-0,0.77 -0.075,1.462 -0.223,2.076c-0.021,0.088 -0.099,0.149 -0.189,0.149c0,0 -6.262,0 -7.514,0l-0.121,0Zm-0.1,0c0.001,0 0.003,0 0.004,0c0,0 -0.001,-0.002 -0.004,-0.006c0,0.002 -0,0.004 -0,0.006Zm4.92,-2.29c0.002,-0.047 0.003,-0.087 0.003,-0.12c-0,-0.795 -0.169,-1.395 -0.526,-1.792c-0.347,-0.387 -0.814,-0.577 -1.398,-0.577c-0.595,0 -1.127,0.227 -1.598,0.674c-0.443,0.421 -0.751,1.028 -0.932,1.815l4.451,0Zm75.499,-4.833l1.662,0c0.058,0 0.114,0.026 0.151,0.072c0.037,0.045 0.051,0.105 0.039,0.162l-0.478,2.313c-0.018,0.091 -0.098,0.156 -0.19,0.156l-1.754,-0l-0.977,4.678c-0.177,0.853 -0.268,1.34 -0.268,1.46c0,0.175 0.05,0.314 0.162,0.413c0.128,0.112 0.363,0.152 0.697,0.152c0.135,0 0.473,-0.025 1.014,-0.075c0.062,-0.006 0.122,0.018 0.163,0.064c0.041,0.047 0.058,0.11 0.045,0.17l-0.488,2.314c-0.017,0.075 -0.076,0.135 -0.152,0.15c-0.549,0.111 -1.112,0.167 -1.69,0.167c-1.16,-0 -2,-0.235 -2.526,-0.682c-0.542,-0.459 -0.818,-1.096 -0.818,-1.913c-0,-0.361 0.134,-1.192 0.406,-2.495l0.918,-4.403l-1.271,-0c-0.058,-0 -0.114,-0.027 -0.151,-0.072c-0.037,-0.045 -0.051,-0.105 -0.039,-0.162l0.477,-2.314c0.019,-0.09 0.099,-0.155 0.191,-0.155l1.362,0l0.348,-1.691c0.011,-0.053 0.044,-0.1 0.09,-0.128l3.574,-2.15c0.066,-0.04 0.15,-0.037 0.213,0.008c0.063,0.045 0.094,0.123 0.078,0.198l-0.788,3.763Zm-0.668,2.682l0.017,0.021c-0,-0 -0.007,-0.01 -0.016,-0.026l-0.001,0.005Zm26.289,4.063l-1.83,1.623l-0.715,3.402c-0.019,0.09 -0.098,0.154 -0.19,0.154l-3.118,0c-0.058,0 -0.114,-0.026 -0.151,-0.072c-0.037,-0.045 -0.051,-0.105 -0.039,-0.162l3.334,-15.923c0.019,-0.091 0.099,-0.155 0.191,-0.155l3.117,-0c0.059,-0 0.114,0.026 0.151,0.072c0.037,0.045 0.052,0.105 0.04,0.162l-1.609,7.671l3.608,-3.463c0.036,-0.035 0.084,-0.054 0.135,-0.054l4.051,0c0.081,0 0.153,0.05 0.182,0.125c0.029,0.075 0.008,0.16 -0.051,0.214l-4.544,4.107l2.425,7.222c0.02,0.059 0.01,0.124 -0.026,0.175c-0.037,0.051 -0.096,0.081 -0.158,0.081l-3.118,0c-0.086,0 -0.162,-0.056 -0.186,-0.139l-1.499,-5.04Zm10.169,0.378c-0.001,0.034 -0.002,0.063 -0.002,0.088c0,0.712 0.199,1.288 0.605,1.725c0.4,0.429 0.886,0.644 1.46,0.644c0.965,0 1.712,-0.507 2.251,-1.505c0.04,-0.074 0.121,-0.114 0.203,-0.1l2.792,0.467c0.06,0.01 0.112,0.048 0.141,0.103c0.028,0.054 0.029,0.119 0.002,0.174c-0.561,1.159 -1.312,2.027 -2.251,2.606c-0.939,0.58 -1.992,0.871 -3.16,0.871c-1.606,-0 -2.912,-0.512 -3.918,-1.53c-1.005,-1.016 -1.511,-2.358 -1.511,-4.03c-0,-1.621 0.45,-3.064 1.35,-4.328c1.232,-1.717 2.989,-2.58 5.274,-2.58c1.472,0 2.64,0.46 3.508,1.37c0.864,0.905 1.303,2.17 1.303,3.8c-0,0.77 -0.075,1.462 -0.223,2.076c-0.021,0.088 -0.099,0.149 -0.189,0.149c0,0 -6.262,0 -7.514,0l-0.121,0Zm-0.1,0c0.001,0 0.003,0 0.004,0c0,0 -0.001,-0.002 -0.004,-0.006c0,0.002 0,0.004 0,0.006Zm4.921,-2.29c0.001,-0.047 0.002,-0.087 0.002,-0.12c-0,-0.795 -0.169,-1.395 -0.526,-1.792c-0.347,-0.387 -0.814,-0.577 -1.398,-0.577c-0.594,0 -1.127,0.227 -1.598,0.674c-0.443,0.421 -0.751,1.028 -0.932,1.815l4.452,0Zm122.564,2.29c-0.002,0.034 -0.002,0.063 -0.002,0.088c-0,0.712 0.198,1.288 0.605,1.725c0.399,0.429 0.885,0.644 1.46,0.644c0.964,0 1.711,-0.507 2.251,-1.505c0.039,-0.074 0.121,-0.114 0.203,-0.1l2.791,0.467c0.061,0.01 0.113,0.048 0.141,0.103c0.028,0.054 0.029,0.119 0.002,0.174c-0.561,1.159 -1.312,2.027 -2.25,2.606c-0.94,0.58 -1.993,0.871 -3.16,0.871c-1.607,-0 -2.912,-0.512 -3.918,-1.53c-1.005,-1.016 -1.512,-2.358 -1.512,-4.03c-0,-1.621 0.451,-3.064 1.35,-4.328c1.232,-1.717 2.99,-2.58 5.275,-2.58c1.471,0 2.639,0.46 3.507,1.37c0.864,0.905 1.303,2.17 1.303,3.8c0,0.77 -0.074,1.462 -0.222,2.076c-0.021,0.088 -0.1,0.149 -0.189,0.149c-0,0 -6.262,0 -7.515,0l-0.12,0Zm-0.101,0c0.002,0 0.003,0 0.005,0c-0,0 -0.002,-0.002 -0.004,-0.006c-0,0.002 -0,0.004 -0.001,0.006Zm4.921,-2.29c0.002,-0.047 0.002,-0.087 0.002,-0.12c0,-0.795 -0.168,-1.395 -0.525,-1.792c-0.348,-0.387 -0.815,-0.577 -1.398,-0.577c-0.595,0 -1.127,0.227 -1.599,0.674c-0.442,0.421 -0.75,1.028 -0.931,1.815l4.451,0Zm-765.855,-4.155c0.436,-0.295 0.85,-0.515 1.241,-0.66c0.516,-0.193 1.08,-0.29 1.691,-0.29c1.278,0 2.299,0.432 3.067,1.287c0.758,0.845 1.147,2.072 1.147,3.687c-0,1.072 -0.176,2.113 -0.527,3.122c-0.354,1.017 -0.829,1.843 -1.421,2.48c-0.594,0.639 -1.219,1.112 -1.873,1.422c-0.66,0.313 -1.352,0.47 -2.076,0.47c-1.555,-0 -2.738,-0.614 -3.552,-1.841l-0.299,1.415c-0.019,0.09 -0.098,0.154 -0.19,0.154l-2.835,0c-0.058,0 -0.114,-0.026 -0.151,-0.072c-0.037,-0.045 -0.051,-0.105 -0.039,-0.162l3.323,-15.923c0.019,-0.091 0.099,-0.155 0.191,-0.155l3.128,-0c0.059,-0 0.114,0.026 0.151,0.072c0.037,0.045 0.051,0.105 0.039,0.162c0,0 -0.801,3.815 -1.015,4.832Zm-1.229,6.349c0,0.72 0.2,1.308 0.607,1.759c0.398,0.441 0.865,0.664 1.404,0.664c0.479,-0 0.936,-0.177 1.372,-0.523c0.452,-0.359 0.823,-0.934 1.123,-1.72c0.307,-0.803 0.46,-1.612 0.46,-2.429c-0,-0.762 -0.191,-1.362 -0.585,-1.797c-0.384,-0.424 -0.848,-0.637 -1.393,-0.637c-0.724,0 -1.344,0.341 -1.867,1.012c-0.75,0.96 -1.121,2.184 -1.121,3.671Zm16.851,3.679c-1.191,0.995 -2.475,1.49 -3.848,1.49c-1.008,-0 -1.798,-0.295 -2.375,-0.872c-0.578,-0.578 -0.872,-1.35 -0.872,-2.321c-0,-0.404 0.123,-1.211 0.373,-2.418l1.347,-6.43c0.019,-0.09 0.099,-0.155 0.191,-0.155l3.117,0c0.059,0 0.114,0.026 0.151,0.072c0.037,0.045 0.051,0.105 0.039,0.162l-1.423,6.833c-0.169,0.797 -0.256,1.294 -0.256,1.491c-0,0.279 0.104,0.518 0.31,0.719c0.211,0.204 0.481,0.303 0.81,0.303c0.251,0 0.499,-0.048 0.743,-0.144c0.253,-0.099 0.513,-0.25 0.779,-0.452c0.27,-0.204 0.513,-0.438 0.727,-0.701c0.215,-0.263 0.415,-0.61 0.602,-1.039c0.134,-0.326 0.278,-0.858 0.434,-1.594l1.151,-5.495c0.019,-0.09 0.099,-0.155 0.191,-0.155l3.117,0c0.059,0 0.114,0.026 0.151,0.072c0.037,0.045 0.052,0.105 0.04,0.162l-2.412,11.536c-0.019,0.09 -0.098,0.154 -0.19,0.154l-2.911,0c-0.059,0 -0.114,-0.026 -0.151,-0.072c-0.037,-0.045 -0.052,-0.105 -0.04,-0.162c0,0 0.127,-0.608 0.205,-0.984Zm11.28,-9.657c1.052,-0.883 2.151,-1.321 3.293,-1.321c0.921,0 1.629,0.2 2.128,0.584c0.406,0.312 0.696,0.719 0.868,1.222c0.393,-0.465 0.906,-0.864 1.541,-1.197c0.775,-0.406 1.58,-0.609 2.415,-0.609c0.978,0 1.738,0.269 2.285,0.793c0.551,0.528 0.831,1.226 0.831,2.096c0,0.406 -0.102,1.107 -0.308,2.103l-1.477,7.05c-0.019,0.09 -0.099,0.154 -0.191,0.154l-3.117,0c-0.059,0 -0.114,-0.026 -0.151,-0.072c-0.037,-0.045 -0.052,-0.105 -0.04,-0.162l1.478,-7.049c0.176,-0.86 0.267,-1.347 0.267,-1.459c0,-0.259 -0.072,-0.465 -0.228,-0.615c-0.161,-0.155 -0.406,-0.223 -0.729,-0.223c-0.719,0 -1.354,0.39 -1.919,1.15c-0.43,0.571 -0.791,1.586 -1.095,3.04l-1.097,5.236c-0.018,0.09 -0.098,0.154 -0.19,0.154l-3.117,0c-0.059,0 -0.114,-0.026 -0.151,-0.072c-0.037,-0.045 -0.052,-0.105 -0.04,-0.162l1.456,-6.973c0.162,-0.784 0.245,-1.292 0.245,-1.525c0,-0.246 -0.081,-0.449 -0.248,-0.608c-0.174,-0.164 -0.415,-0.24 -0.719,-0.24c-0.31,0 -0.629,0.095 -0.959,0.28c-0.339,0.19 -0.636,0.452 -0.891,0.784c-0.26,0.341 -0.483,0.779 -0.671,1.314c-0.086,0.258 -0.224,0.84 -0.417,1.747l-1.108,5.301c-0.019,0.09 -0.098,0.154 -0.19,0.154l-3.118,0c-0.058,0 -0.114,-0.026 -0.151,-0.072c-0.037,-0.045 -0.051,-0.105 -0.039,-0.162l2.411,-11.535c0.019,-0.09 0.099,-0.155 0.191,-0.155l2.932,0c0.059,0 0.114,0.026 0.151,0.072c0.037,0.045 0.052,0.105 0.04,0.162c-0,0 -0.102,0.487 -0.171,0.815Zm80.15,0.52c0.982,-1.235 2.037,-1.841 3.151,-1.841c0.473,0 0.981,0.117 1.522,0.353c0.048,0.021 0.086,0.061 0.104,0.11c0.019,0.049 0.017,0.104 -0.005,0.151l-1.195,2.553c-0.043,0.091 -0.148,0.134 -0.242,0.1c-0.262,-0.094 -0.54,-0.14 -0.836,-0.14c-0.499,-0 -1.004,0.193 -1.52,0.57c-0.528,0.387 -0.939,0.903 -1.236,1.549c-0.307,0.668 -0.609,1.728 -0.909,3.178l-0.761,3.618c-0.019,0.09 -0.098,0.154 -0.19,0.154l-3.117,0c-0.059,0 -0.114,-0.026 -0.151,-0.072c-0.037,-0.045 -0.052,-0.105 -0.04,-0.162l2.411,-11.535c0.019,-0.09 0.099,-0.155 0.191,-0.155l2.911,0c0.058,0 0.114,0.026 0.151,0.072c0.037,0.045 0.051,0.105 0.039,0.162c0,0 -0.169,0.811 -0.278,1.335Zm119.31,-0.375c0.597,-0.471 1.162,-0.818 1.693,-1.043c0.665,-0.282 1.366,-0.423 2.102,-0.423c1.008,0 1.799,0.295 2.38,0.872c0.582,0.578 0.878,1.343 0.878,2.299c-0,0.413 -0.12,1.194 -0.363,2.343l-1.358,6.527c-0.018,0.091 -0.098,0.155 -0.19,0.155l-3.117,0c-0.059,0 -0.114,-0.026 -0.151,-0.072c-0.037,-0.045 -0.052,-0.105 -0.04,-0.162l1.369,-6.549c0.198,-0.956 0.3,-1.526 0.3,-1.71c-0,-0.338 -0.094,-0.606 -0.294,-0.8c-0.202,-0.196 -0.487,-0.287 -0.848,-0.287c-0.424,0 -0.892,0.185 -1.41,0.542c-0.531,0.365 -0.948,0.849 -1.251,1.448c-0.228,0.441 -0.481,1.342 -0.765,2.7l-0.989,4.735c-0.018,0.091 -0.098,0.155 -0.19,0.155l-3.117,0c-0.059,0 -0.114,-0.026 -0.151,-0.072c-0.037,-0.045 -0.052,-0.105 -0.04,-0.162l2.412,-11.535c0.018,-0.09 0.098,-0.155 0.19,-0.155l2.954,0c0.059,0 0.114,0.026 0.151,0.071c0.037,0.046 0.052,0.105 0.04,0.162c-0,0 -0.121,0.598 -0.195,0.961Zm19.63,-0.145c1.051,-0.883 2.15,-1.321 3.293,-1.321c0.921,0 1.629,0.2 2.128,0.584c0.406,0.312 0.696,0.719 0.868,1.222c0.393,-0.465 0.906,-0.864 1.54,-1.197c0.775,-0.406 1.58,-0.609 2.415,-0.609c0.978,0 1.738,0.269 2.285,0.793c0.552,0.528 0.832,1.226 0.832,2.096c-0,0.406 -0.102,1.107 -0.309,2.103l-1.477,7.05c-0.019,0.09 -0.098,0.154 -0.19,0.154l-3.118,0c-0.058,0 -0.114,-0.026 -0.151,-0.072c-0.037,-0.045 -0.051,-0.105 -0.039,-0.162l1.477,-7.049c0.176,-0.86 0.268,-1.347 0.268,-1.459c-0,-0.259 -0.073,-0.465 -0.229,-0.615c-0.161,-0.155 -0.406,-0.223 -0.728,-0.223c-0.719,0 -1.355,0.39 -1.919,1.15c-0.431,0.571 -0.792,1.586 -1.095,3.04l-1.097,5.236c-0.019,0.09 -0.098,0.154 -0.191,0.154l-3.117,0c-0.058,0 -0.114,-0.026 -0.151,-0.072c-0.037,-0.045 -0.051,-0.105 -0.039,-0.162l1.455,-6.973c0.163,-0.784 0.246,-1.292 0.246,-1.525c-0,-0.246 -0.082,-0.449 -0.249,-0.608c-0.173,-0.164 -0.414,-0.24 -0.719,-0.24c-0.31,0 -0.629,0.095 -0.958,0.28c-0.34,0.19 -0.637,0.452 -0.891,0.784c-0.261,0.341 -0.484,0.779 -0.671,1.314c-0.086,0.258 -0.225,0.84 -0.418,1.747l-1.107,5.301c-0.019,0.09 -0.099,0.154 -0.191,0.154l-3.117,0c-0.059,0 -0.114,-0.026 -0.151,-0.072c-0.037,-0.045 -0.052,-0.105 -0.04,-0.162l2.412,-11.535c0.019,-0.09 0.098,-0.155 0.19,-0.155l2.933,0c0.058,0 0.114,0.026 0.151,0.072c0.037,0.045 0.051,0.105 0.039,0.162c0,0 -0.102,0.487 -0.17,0.815Zm59.466,0.145c0.597,-0.471 1.161,-0.818 1.693,-1.043c0.665,-0.282 1.365,-0.423 2.101,-0.423c1.008,0 1.8,0.295 2.38,0.872c0.582,0.578 0.878,1.343 0.878,2.299c-0,0.413 -0.12,1.194 -0.363,2.343l-1.357,6.527c-0.019,0.091 -0.099,0.155 -0.191,0.155l-3.117,0c-0.059,0 -0.114,-0.026 -0.151,-0.072c-0.037,-0.045 -0.052,-0.105 -0.04,-0.162l1.369,-6.549c0.198,-0.956 0.3,-1.526 0.3,-1.71c0,-0.338 -0.094,-0.606 -0.294,-0.8c-0.202,-0.196 -0.486,-0.287 -0.847,-0.287c-0.424,0 -0.893,0.185 -1.411,0.542c-0.531,0.365 -0.948,0.849 -1.251,1.448c-0.228,0.441 -0.481,1.342 -0.765,2.7l-0.988,4.735c-0.019,0.091 -0.099,0.155 -0.191,0.155l-3.117,0c-0.059,0 -0.114,-0.026 -0.151,-0.072c-0.037,-0.045 -0.051,-0.105 -0.04,-0.162l2.412,-11.535c0.019,-0.09 0.098,-0.155 0.19,-0.155l2.955,0c0.058,0 0.113,0.026 0.15,0.071c0.037,0.046 0.052,0.105 0.04,0.162c0,0 -0.121,0.598 -0.194,0.961Zm104.36,0.375c0.982,-1.235 2.037,-1.841 3.151,-1.841c0.473,0 0.981,0.117 1.522,0.353c0.049,0.021 0.086,0.061 0.105,0.11c0.018,0.049 0.016,0.104 -0.006,0.151l-1.195,2.553c-0.043,0.091 -0.147,0.134 -0.242,0.1c-0.262,-0.094 -0.54,-0.14 -0.836,-0.14c-0.498,-0 -1.004,0.193 -1.519,0.57c-0.528,0.387 -0.94,0.903 -1.237,1.549c-0.307,0.668 -0.609,1.728 -0.909,3.178l-0.761,3.618c-0.019,0.09 -0.098,0.154 -0.19,0.154l-3.117,0c-0.059,0 -0.114,-0.026 -0.151,-0.072c-0.037,-0.045 -0.052,-0.105 -0.04,-0.162l2.412,-11.535c0.018,-0.09 0.098,-0.155 0.19,-0.155l2.911,0c0.059,0 0.114,0.026 0.151,0.072c0.037,0.045 0.051,0.105 0.039,0.162c0,0 -0.169,0.811 -0.278,1.335Zm82.356,-0.375c0.597,-0.471 1.162,-0.818 1.693,-1.043c0.665,-0.282 1.366,-0.423 2.102,-0.423c1.007,0 1.799,0.295 2.38,0.872c0.582,0.578 0.877,1.343 0.877,2.299c0,0.413 -0.119,1.194 -0.362,2.343l-1.358,6.527c-0.019,0.091 -0.098,0.155 -0.19,0.155l-3.118,0c-0.058,0 -0.114,-0.026 -0.151,-0.072c-0.037,-0.045 -0.051,-0.105 -0.039,-0.162l1.368,-6.549c0.199,-0.956 0.3,-1.526 0.3,-1.71c0,-0.338 -0.094,-0.606 -0.293,-0.8c-0.203,-0.196 -0.487,-0.287 -0.848,-0.287c-0.424,0 -0.892,0.185 -1.41,0.542c-0.531,0.365 -0.948,0.849 -1.252,1.448c-0.227,0.441 -0.48,1.342 -0.765,2.7l-0.988,4.735c-0.019,0.091 -0.098,0.155 -0.19,0.155l-3.118,0c-0.058,0 -0.114,-0.026 -0.151,-0.072c-0.037,-0.045 -0.051,-0.105 -0.039,-0.162l2.411,-11.535c0.019,-0.09 0.099,-0.155 0.191,-0.155l2.954,0c0.058,0 0.114,0.026 0.151,0.071c0.037,0.046 0.051,0.105 0.04,0.162c-0,0 -0.122,0.598 -0.195,0.961Zm13.588,-0c0.597,-0.471 1.162,-0.818 1.693,-1.043c0.665,-0.282 1.366,-0.423 2.102,-0.423c1.007,0 1.799,0.295 2.38,0.872c0.582,0.578 0.877,1.343 0.877,2.299c0,0.413 -0.119,1.194 -0.362,2.343l-1.358,6.527c-0.019,0.091 -0.098,0.155 -0.19,0.155l-3.118,0c-0.058,0 -0.114,-0.026 -0.151,-0.072c-0.037,-0.045 -0.051,-0.105 -0.039,-0.162l1.368,-6.549c0.199,-0.956 0.301,-1.526 0.301,-1.71c-0,-0.338 -0.095,-0.606 -0.294,-0.8c-0.203,-0.196 -0.487,-0.287 -0.848,-0.287c-0.424,0 -0.892,0.185 -1.41,0.542c-0.531,0.365 -0.948,0.849 -1.252,1.448c-0.227,0.441 -0.48,1.342 -0.764,2.7l-0.989,4.735c-0.019,0.091 -0.098,0.155 -0.19,0.155l-3.118,0c-0.058,0 -0.114,-0.026 -0.151,-0.072c-0.037,-0.045 -0.051,-0.105 -0.039,-0.162l2.411,-11.535c0.019,-0.09 0.099,-0.155 0.191,-0.155l2.954,0c0.058,0 0.114,0.026 0.151,0.071c0.037,0.046 0.051,0.105 0.04,0.162c-0,0 -0.121,0.598 -0.195,0.961Zm25.615,0.375c0.982,-1.235 2.037,-1.841 3.151,-1.841c0.473,0 0.981,0.117 1.522,0.353c0.049,0.021 0.086,0.061 0.105,0.11c0.018,0.049 0.016,0.104 -0.006,0.151l-1.195,2.553c-0.043,0.091 -0.147,0.134 -0.242,0.1c-0.262,-0.094 -0.54,-0.14 -0.836,-0.14c-0.498,-0 -1.004,0.193 -1.519,0.57c-0.528,0.387 -0.94,0.903 -1.237,1.549c-0.307,0.668 -0.609,1.728 -0.909,3.178l-0.761,3.618c-0.018,0.09 -0.098,0.154 -0.19,0.154l-3.117,0c-0.059,0 -0.114,-0.026 -0.151,-0.072c-0.037,-0.045 -0.052,-0.105 -0.04,-0.162l2.412,-11.535c0.018,-0.09 0.098,-0.155 0.19,-0.155l2.911,0c0.059,0 0.114,0.026 0.151,0.072c0.037,0.045 0.051,0.105 0.039,0.162c0,0 -0.169,0.811 -0.278,1.335Zm116.109,-0c0.982,-1.235 2.037,-1.841 3.151,-1.841c0.473,0 0.981,0.117 1.523,0.353c0.048,0.021 0.085,0.061 0.104,0.11c0.018,0.049 0.016,0.104 -0.006,0.151l-1.195,2.553c-0.042,0.091 -0.147,0.134 -0.242,0.1c-0.262,-0.094 -0.54,-0.14 -0.836,-0.14c-0.498,-0 -1.004,0.193 -1.519,0.57c-0.528,0.387 -0.94,0.903 -1.236,1.549c-0.308,0.668 -0.61,1.728 -0.91,3.178l-0.76,3.618c-0.019,0.09 -0.099,0.154 -0.191,0.154l-3.117,0c-0.059,0 -0.114,-0.026 -0.151,-0.072c-0.037,-0.045 -0.051,-0.105 -0.04,-0.162l2.412,-11.535c0.019,-0.09 0.098,-0.155 0.19,-0.155l2.911,0c0.059,0 0.114,0.026 0.151,0.072c0.037,0.045 0.052,0.105 0.04,0.162c-0,0 -0.17,0.811 -0.279,1.335Zm67.067,-0.674c0.49,-0.365 0.956,-0.636 1.396,-0.815c0.573,-0.234 1.188,-0.352 1.844,-0.352c1.27,0 2.29,0.441 3.062,1.315c0.761,0.863 1.152,2.145 1.152,3.855c-0,2.129 -0.652,3.928 -1.95,5.397c-1.127,1.269 -2.462,1.901 -4.002,1.901c-1.437,-0 -2.558,-0.525 -3.366,-1.572l-1.157,5.544c-0.019,0.091 -0.099,0.155 -0.191,0.155l-3.117,0c-0.059,0 -0.114,-0.026 -0.151,-0.072c-0.037,-0.045 -0.051,-0.105 -0.039,-0.162l3.323,-15.934c0.019,-0.09 0.099,-0.155 0.191,-0.155l2.954,0c0.059,0 0.114,0.026 0.151,0.072c0.037,0.046 0.051,0.105 0.039,0.163c0,-0 -0.081,0.387 -0.139,0.66Zm-0.932,5.914c0,0.842 0.198,1.498 0.609,1.962c0.397,0.45 0.863,0.679 1.402,0.679c0.473,-0 0.928,-0.175 1.368,-0.518c0.455,-0.355 0.827,-0.948 1.126,-1.771c0.307,-0.841 0.461,-1.621 0.461,-2.339c0,-0.804 -0.184,-1.424 -0.569,-1.853c-0.375,-0.417 -0.852,-0.625 -1.431,-0.625c-0.547,0 -1.045,0.198 -1.496,0.588c-0.465,0.404 -0.822,0.999 -1.077,1.782c-0.261,0.799 -0.393,1.497 -0.393,2.095Zm14.52,-5.914c0.49,-0.365 0.956,-0.636 1.396,-0.815c0.573,-0.234 1.188,-0.352 1.844,-0.352c1.27,0 2.29,0.441 3.062,1.315c0.761,0.863 1.152,2.145 1.152,3.855c-0,2.129 -0.652,3.928 -1.95,5.397c-1.127,1.269 -2.462,1.901 -4.002,1.901c-1.437,-0 -2.558,-0.525 -3.366,-1.572l-1.157,5.544c-0.019,0.091 -0.099,0.155 -0.191,0.155l-3.117,0c-0.059,0 -0.114,-0.026 -0.151,-0.072c-0.037,-0.045 -0.051,-0.105 -0.039,-0.162l3.323,-15.934c0.019,-0.09 0.099,-0.155 0.191,-0.155l2.954,0c0.059,0 0.114,0.026 0.151,0.072c0.037,0.046 0.052,0.105 0.039,0.163c0,-0 -0.081,0.387 -0.139,0.66Zm-0.932,5.914c0,0.842 0.198,1.498 0.609,1.962c0.397,0.45 0.863,0.679 1.402,0.679c0.473,-0 0.928,-0.175 1.368,-0.518c0.455,-0.355 0.827,-0.948 1.126,-1.771c0.307,-0.841 0.461,-1.621 0.461,-2.339c0,-0.804 -0.184,-1.424 -0.569,-1.853c-0.375,-0.417 -0.852,-0.625 -1.43,-0.625c-0.548,0 -1.046,0.198 -1.497,0.588c-0.465,0.404 -0.822,0.999 -1.077,1.782c-0.261,0.799 -0.393,1.497 -0.393,2.095Zm26.633,-5.24c0.982,-1.235 2.037,-1.841 3.151,-1.841c0.473,0 0.981,0.117 1.523,0.353c0.048,0.021 0.085,0.061 0.104,0.11c0.018,0.049 0.016,0.104 -0.006,0.151l-1.195,2.553c-0.042,0.091 -0.147,0.134 -0.242,0.1c-0.261,-0.094 -0.54,-0.14 -0.835,-0.14c-0.499,-0 -1.005,0.193 -1.52,0.57c-0.528,0.387 -0.94,0.903 -1.236,1.549c-0.308,0.668 -0.61,1.728 -0.91,3.178l-0.76,3.618c-0.019,0.09 -0.099,0.154 -0.191,0.154l-3.117,0c-0.059,0 -0.114,-0.026 -0.151,-0.072c-0.037,-0.045 -0.051,-0.105 -0.039,-0.162l2.411,-11.535c0.019,-0.09 0.098,-0.155 0.19,-0.155l2.911,0c0.059,0 0.114,0.026 0.151,0.072c0.037,0.045 0.052,0.105 0.04,0.162c-0,0 -0.169,0.811 -0.279,1.335Zm-864.216,5.371c-0,-2.193 0.624,-3.94 1.862,-5.245c1.241,-1.309 2.871,-1.967 4.893,-1.967c1.761,0 3.133,0.492 4.122,1.463c0.992,0.972 1.492,2.279 1.492,3.924c0,1.918 -0.614,3.575 -1.84,4.973c-1.232,1.403 -2.88,2.108 -4.947,2.108c-1.12,-0 -2.113,-0.226 -2.979,-0.674c-0.878,-0.454 -1.531,-1.097 -1.962,-1.929c-0.428,-0.825 -0.641,-1.709 -0.641,-2.653Zm8.885,-2.227c-0,-0.682 -0.194,-1.23 -0.592,-1.641c-0.394,-0.407 -0.904,-0.608 -1.527,-0.608c-0.628,-0 -1.185,0.194 -1.671,0.582c-0.497,0.396 -0.88,0.974 -1.155,1.728c-0.281,0.769 -0.423,1.476 -0.423,2.122c-0,0.769 0.203,1.382 0.622,1.834c0.411,0.444 0.928,0.665 1.551,0.665c0.795,0 1.46,-0.343 1.999,-1.023c0.798,-1.002 1.196,-2.222 1.196,-3.659Zm18.291,2.227c-0,-2.193 0.624,-3.94 1.862,-5.245c1.241,-1.309 2.872,-1.967 4.893,-1.967c1.761,0 3.133,0.492 4.122,1.463c0.992,0.972 1.492,2.279 1.492,3.924c0,1.918 -0.614,3.575 -1.84,4.973c-1.232,1.403 -2.88,2.108 -4.947,2.108c-1.12,-0 -2.113,-0.226 -2.979,-0.674c-0.877,-0.454 -1.531,-1.097 -1.962,-1.929c-0.428,-0.825 -0.641,-1.709 -0.641,-2.653Zm8.885,-2.227c-0,-0.682 -0.194,-1.23 -0.592,-1.641c-0.394,-0.407 -0.904,-0.608 -1.527,-0.608c-0.628,-0 -1.185,0.194 -1.671,0.582c-0.496,0.396 -0.88,0.974 -1.155,1.728c-0.281,0.769 -0.423,1.476 -0.423,2.122c-0,0.769 0.203,1.382 0.622,1.834c0.411,0.444 0.928,0.665 1.551,0.665c0.795,0 1.46,-0.343 1.999,-1.023c0.798,-1.002 1.196,-2.222 1.196,-3.659Zm4.009,3.599l3.019,-0.478c0.089,-0.014 0.175,0.034 0.21,0.116c0.25,0.595 0.556,1.019 0.928,1.266c0.371,0.247 0.879,0.364 1.521,0.364c0.661,0 1.192,-0.143 1.59,-0.44c0.24,-0.175 0.366,-0.385 0.366,-0.636c0,-0.16 -0.059,-0.303 -0.176,-0.433c-0.154,-0.148 -0.561,-0.319 -1.211,-0.534c-1.917,-0.634 -3.101,-1.142 -3.558,-1.51c-0.751,-0.604 -1.126,-1.393 -1.126,-2.368c-0,-0.966 0.359,-1.798 1.08,-2.496c0.98,-0.95 2.431,-1.435 4.36,-1.435c1.536,0 2.694,0.29 3.481,0.851c0.8,0.572 1.308,1.346 1.521,2.322c0.012,0.052 0.001,0.106 -0.028,0.15c-0.03,0.044 -0.076,0.074 -0.128,0.083l-2.879,0.5c-0.093,0.016 -0.184,-0.037 -0.216,-0.126c-0.136,-0.375 -0.354,-0.657 -0.657,-0.845c-0.436,-0.265 -0.96,-0.395 -1.571,-0.395c-0.596,0 -1.028,0.088 -1.289,0.286c-0.229,0.174 -0.353,0.369 -0.353,0.595c0,0.225 0.121,0.407 0.346,0.553c0.176,0.113 0.743,0.305 1.698,0.585c1.556,0.453 2.595,0.903 3.122,1.341c0.773,0.642 1.156,1.417 1.156,2.322c0,1.149 -0.48,2.147 -1.446,2.992c-0.95,0.831 -2.288,1.254 -4.016,1.254c-1.714,-0 -3.036,-0.322 -3.97,-0.951c-0.947,-0.637 -1.591,-1.532 -1.93,-2.686c-0.016,-0.054 -0.008,-0.112 0.022,-0.159c0.03,-0.047 0.079,-0.08 0.134,-0.088Zm52.801,0.093l-6.028,0l-1.856,3.418c-0.034,0.062 -0.1,0.101 -0.171,0.101l-3.367,0c-0.069,0 -0.133,-0.036 -0.168,-0.096c-0.035,-0.06 -0.036,-0.134 -0.002,-0.194l9.005,-15.923c0.034,-0.061 0.099,-0.099 0.169,-0.099l3.639,-0c0.095,-0 0.177,0.069 0.192,0.163l2.585,15.924c0.009,0.056 -0.007,0.113 -0.044,0.157c-0.037,0.043 -0.091,0.068 -0.148,0.068l-3.107,0c-0.096,0 -0.178,-0.07 -0.192,-0.165l-0.507,-3.354Zm-4.659,-3.039l4.2,-0l-0.814,-5.645l-3.386,5.645Zm10.23,6.324l3.334,-15.923c0.019,-0.091 0.098,-0.155 0.191,-0.155l3.106,-0c0.059,-0 0.114,0.026 0.151,0.072c0.037,0.045 0.051,0.105 0.039,0.162l-3.323,15.923c-0.019,0.091 -0.099,0.155 -0.191,0.155l-3.117,0c-0.059,0 -0.114,-0.026 -0.151,-0.072c-0.037,-0.045 -0.051,-0.105 -0.039,-0.162Zm71.114,-5.888l3.302,0.5c0.057,0.009 0.108,0.043 0.138,0.093c0.03,0.05 0.035,0.111 0.016,0.165c-0.659,1.829 -1.65,3.225 -2.968,4.192c-1.322,0.969 -2.87,1.455 -4.645,1.455c-2.009,-0 -3.578,-0.611 -4.709,-1.822c-1.126,-1.204 -1.698,-2.948 -1.698,-5.237c-0,-1.842 0.374,-3.527 1.122,-5.055c0.752,-1.538 1.797,-2.714 3.131,-3.529c1.334,-0.816 2.787,-1.224 4.359,-1.224c1.777,0 3.212,0.481 4.309,1.433c1.1,0.954 1.751,2.252 1.945,3.898c0.006,0.052 -0.009,0.105 -0.042,0.145c-0.032,0.041 -0.08,0.067 -0.132,0.072l-3.139,0.304c-0.101,0.01 -0.192,-0.059 -0.21,-0.158c-0.164,-0.873 -0.472,-1.509 -0.939,-1.902c-0.464,-0.389 -1.084,-0.579 -1.857,-0.579c-0.865,0 -1.673,0.265 -2.425,0.791c-0.758,0.531 -1.361,1.364 -1.815,2.493c-0.461,1.145 -0.692,2.288 -0.692,3.43c-0,1.218 0.284,2.162 0.869,2.826c0.573,0.651 1.286,0.977 2.14,0.977c0.804,-0 1.541,-0.263 2.211,-0.785c0.678,-0.529 1.181,-1.313 1.514,-2.35c0.03,-0.091 0.12,-0.147 0.215,-0.133Zm4.74,1.138c-0,-2.193 0.624,-3.94 1.862,-5.245c1.242,-1.309 2.872,-1.967 4.893,-1.967c1.761,0 3.133,0.492 4.122,1.463c0.992,0.972 1.493,2.279 1.493,3.924c-0,1.918 -0.615,3.575 -1.841,4.973c-1.232,1.403 -2.88,2.108 -4.947,2.108c-1.12,-0 -2.113,-0.226 -2.979,-0.674c-0.877,-0.454 -1.531,-1.097 -1.962,-1.929c-0.427,-0.825 -0.641,-1.709 -0.641,-2.653Zm8.885,-2.227c-0,-0.682 -0.194,-1.23 -0.592,-1.641c-0.394,-0.407 -0.904,-0.608 -1.527,-0.608c-0.628,-0 -1.185,0.194 -1.671,0.582c-0.496,0.396 -0.879,0.974 -1.155,1.728c-0.281,0.769 -0.423,1.476 -0.423,2.122c0,0.769 0.204,1.382 0.622,1.834c0.411,0.444 0.928,0.665 1.552,0.665c0.794,0 1.459,-0.343 1.998,-1.023c0.799,-1.002 1.196,-2.222 1.196,-3.659Zm10.209,7.211l-2.683,0c-0.093,0 -0.172,-0.065 -0.191,-0.156l-2.313,-11.535c-0.012,-0.057 0.003,-0.117 0.04,-0.162c0.037,-0.045 0.092,-0.071 0.15,-0.071l3.064,0c0.095,0 0.176,0.069 0.192,0.163l0.814,5.029c0.149,0.902 0.258,1.605 0.328,2.108c0.357,-0.656 1.205,-2.2 1.289,-2.338l2.868,-4.866c0.035,-0.06 0.099,-0.096 0.167,-0.096l3.368,0c0.07,0 0.135,0.038 0.169,0.1c0.035,0.061 0.033,0.136 -0.004,0.196l-7.092,11.536c-0.036,0.057 -0.099,0.092 -0.166,0.092Zm27.2,-3.612l3.019,-0.478c0.089,-0.014 0.176,0.034 0.21,0.116c0.25,0.595 0.556,1.019 0.928,1.266c0.371,0.247 0.88,0.364 1.521,0.364c0.661,0 1.192,-0.143 1.59,-0.44c0.24,-0.175 0.367,-0.385 0.367,-0.636c-0,-0.16 -0.06,-0.303 -0.177,-0.433c-0.154,-0.148 -0.561,-0.319 -1.211,-0.534c-1.916,-0.634 -3.101,-1.142 -3.558,-1.51c-0.751,-0.604 -1.126,-1.393 -1.126,-2.368c-0,-0.966 0.359,-1.798 1.08,-2.496c0.98,-0.95 2.431,-1.435 4.361,-1.435c1.535,0 2.693,0.29 3.48,0.851c0.8,0.572 1.308,1.346 1.521,2.322c0.012,0.052 0.001,0.106 -0.028,0.15c-0.03,0.044 -0.076,0.074 -0.128,0.083l-2.879,0.5c-0.093,0.016 -0.184,-0.037 -0.216,-0.126c-0.136,-0.375 -0.354,-0.657 -0.657,-0.845c-0.435,-0.265 -0.96,-0.395 -1.571,-0.395c-0.596,0 -1.028,0.088 -1.289,0.286c-0.229,0.174 -0.352,0.369 -0.352,0.595c-0,0.225 0.12,0.407 0.345,0.553c0.176,0.113 0.743,0.305 1.698,0.585c1.557,0.453 2.595,0.903 3.122,1.341c0.773,0.642 1.156,1.417 1.156,2.322c0,1.149 -0.479,2.147 -1.446,2.992c-0.95,0.831 -2.288,1.254 -4.016,1.254c-1.713,-0 -3.036,-0.322 -3.97,-0.951c-0.947,-0.637 -1.591,-1.532 -1.93,-2.686c-0.016,-0.054 -0.008,-0.112 0.022,-0.159c0.03,-0.047 0.079,-0.08 0.134,-0.088Zm65.165,3.612l-3.497,0c-0.094,0 -0.175,-0.067 -0.192,-0.16l-2.856,-15.923c-0.01,-0.057 0.005,-0.115 0.042,-0.159c0.037,-0.045 0.092,-0.07 0.149,-0.07l3.27,-0c0.095,-0 0.176,0.069 0.191,0.162c0,0 1.928,11.492 1.928,11.492l6.323,-11.553c0.034,-0.062 0.1,-0.101 0.171,-0.101l3.248,-0c0.068,-0 0.132,0.036 0.167,0.095c0.035,0.06 0.036,0.133 0.003,0.193l-8.776,15.924c-0.035,0.062 -0.1,0.1 -0.171,0.1Zm15.739,-8.894l7.125,0c0.059,0 0.114,0.027 0.151,0.072c0.037,0.046 0.052,0.106 0.04,0.163l-1.434,6.832c-0.011,0.051 -0.041,0.095 -0.085,0.123c-0.853,0.552 -1.899,1.02 -3.138,1.402c-1.239,0.383 -2.502,0.574 -3.789,0.574c-2.025,-0 -3.575,-0.466 -4.655,-1.382c-1.475,-1.252 -2.219,-3.062 -2.219,-5.438c-0,-1.577 0.313,-3.087 0.939,-4.531c0.754,-1.745 1.828,-3.097 3.218,-4.058c1.393,-0.963 3.03,-1.447 4.911,-1.447c1.89,0 3.403,0.445 4.545,1.322c1.146,0.881 1.909,2.162 2.282,3.849c0.012,0.054 0,0.11 -0.032,0.155c-0.032,0.045 -0.081,0.074 -0.136,0.08l-3.052,0.348c-0.094,0.011 -0.182,-0.047 -0.209,-0.138c-0.254,-0.853 -0.662,-1.499 -1.229,-1.932c-0.566,-0.432 -1.279,-0.644 -2.136,-0.644c-1.02,-0 -1.956,0.265 -2.808,0.796c-0.852,0.531 -1.517,1.354 -1.999,2.465c-0.489,1.127 -0.733,2.358 -0.733,3.691c-0,1.278 0.278,2.226 0.858,2.837c0.576,0.606 1.422,0.901 2.531,0.901c0.686,-0 1.39,-0.098 2.111,-0.292c0.686,-0.185 1.283,-0.403 1.791,-0.655l0.422,-2.042l-3.824,-0c-0.059,-0 -0.114,-0.027 -0.151,-0.072c-0.037,-0.046 -0.051,-0.105 -0.039,-0.163l0.554,-2.661c0.018,-0.09 0.098,-0.155 0.19,-0.155Zm24.054,5.375l-6.027,0l-1.857,3.418c-0.034,0.062 -0.099,0.101 -0.171,0.101l-3.367,0c-0.069,0 -0.133,-0.036 -0.168,-0.096c-0.035,-0.06 -0.035,-0.134 -0.001,-0.194l9.004,-15.923c0.035,-0.061 0.099,-0.099 0.17,-0.099l3.638,-0c0.096,-0 0.177,0.069 0.192,0.163l2.585,15.924c0.01,0.056 -0.007,0.113 -0.043,0.157c-0.037,0.043 -0.092,0.068 -0.149,0.068l-3.106,0c-0.096,0 -0.178,-0.07 -0.192,-0.165l-0.508,-3.354Zm-4.659,-3.039l4.2,-0l-0.813,-5.645l-3.387,5.645Zm27.354,-9.754l3.117,-0c0.059,-0 0.114,0.026 0.151,0.072c0.037,0.045 0.052,0.105 0.04,0.162l-0.587,2.824c-0.019,0.09 -0.098,0.155 -0.19,0.155l-3.118,-0c-0.058,-0 -0.114,-0.026 -0.15,-0.072c-0.037,-0.045 -0.052,-0.105 -0.04,-0.162l0.586,-2.824c0.019,-0.09 0.099,-0.155 0.191,-0.155Zm-0.912,4.388l3.117,0c0.058,0 0.114,0.026 0.151,0.072c0.037,0.045 0.051,0.105 0.039,0.162l-2.411,11.536c-0.019,0.09 -0.098,0.154 -0.19,0.154l-3.118,0c-0.058,0 -0.114,-0.026 -0.151,-0.072c-0.037,-0.045 -0.051,-0.105 -0.039,-0.162l2.411,-11.535c0.019,-0.09 0.098,-0.155 0.191,-0.155Zm27.93,3.658l-3.041,-0.261c-0.06,-0.005 -0.113,-0.037 -0.146,-0.087c-0.033,-0.05 -0.041,-0.112 -0.022,-0.169c0.362,-1.071 0.995,-1.907 1.896,-2.511c0.893,-0.597 2.074,-0.902 3.546,-0.902c1.542,0 2.679,0.322 3.416,0.942c0.758,0.638 1.134,1.418 1.134,2.338c-0,0.357 -0.032,0.736 -0.095,1.138c-0.062,0.392 -0.278,1.425 -0.648,3.096c-0.3,1.356 -0.452,2.305 -0.452,2.848c-0,0.476 0.085,1.004 0.253,1.586c0.017,0.058 0.005,0.122 -0.031,0.171c-0.037,0.049 -0.095,0.077 -0.156,0.077l-3.03,0c-0.087,0 -0.163,-0.057 -0.187,-0.14c-0.088,-0.3 -0.153,-0.607 -0.195,-0.921c-0.401,0.38 -0.848,0.683 -1.34,0.908c-0.621,0.284 -1.245,0.425 -1.874,0.425c-1.011,-0 -1.846,-0.334 -2.505,-0.997c-0.659,-0.662 -0.991,-1.513 -0.991,-2.554c-0,-1.16 0.365,-2.085 1.086,-2.78c0.707,-0.681 1.966,-1.106 3.785,-1.248c1.371,-0.114 2.316,-0.247 2.834,-0.406c0.105,-0.365 0.159,-0.661 0.159,-0.888c-0,-0.274 -0.112,-0.503 -0.332,-0.688c-0.24,-0.2 -0.598,-0.291 -1.07,-0.291c-0.51,0 -0.913,0.098 -1.208,0.307c-0.286,0.202 -0.479,0.491 -0.582,0.865c-0.025,0.09 -0.11,0.15 -0.204,0.142Zm2.722,2.953c-0.136,0.027 -2.973,0.514 -3.435,0.864c-0.289,0.222 -0.433,0.522 -0.433,0.898c-0,0.307 0.11,0.566 0.331,0.778c0.226,0.217 0.526,0.32 0.897,0.32c0.438,0 0.85,-0.106 1.237,-0.318c0.382,-0.209 0.67,-0.477 0.859,-0.806c0.161,-0.28 0.442,-1.336 0.544,-1.736Zm15.999,-10.999l3.117,-0c0.059,-0 0.114,0.026 0.151,0.072c0.037,0.045 0.051,0.105 0.04,0.162l-0.587,2.824c-0.019,0.09 -0.098,0.155 -0.19,0.155l-3.118,-0c-0.058,-0 -0.114,-0.026 -0.151,-0.072c-0.037,-0.045 -0.051,-0.105 -0.039,-0.162l0.586,-2.824c0.019,-0.09 0.099,-0.155 0.191,-0.155Zm-0.913,4.388l3.118,0c0.058,0 0.114,0.026 0.151,0.072c0.037,0.045 0.051,0.105 0.039,0.162l-2.411,11.536c-0.019,0.09 -0.099,0.154 -0.191,0.154l-3.117,0c-0.058,0 -0.114,-0.026 -0.151,-0.072c-0.037,-0.045 -0.051,-0.105 -0.039,-0.162l2.411,-11.535c0.019,-0.09 0.098,-0.155 0.19,-0.155Zm4.031,6.94c0,-2.193 0.624,-3.94 1.862,-5.245c1.242,-1.309 2.872,-1.967 4.893,-1.967c1.761,0 3.134,0.492 4.123,1.463c0.991,0.972 1.492,2.279 1.492,3.924c-0,1.918 -0.614,3.575 -1.841,4.973c-1.231,1.403 -2.879,2.108 -4.947,2.108c-1.12,-0 -2.113,-0.226 -2.979,-0.674c-0.877,-0.454 -1.531,-1.097 -1.962,-1.929c-0.427,-0.825 -0.641,-1.709 -0.641,-2.653Zm8.885,-2.227c-0,-0.682 -0.194,-1.23 -0.592,-1.641c-0.394,-0.407 -0.904,-0.608 -1.527,-0.608c-0.628,-0 -1.185,0.194 -1.671,0.582c-0.496,0.396 -0.879,0.974 -1.155,1.728c-0.281,0.769 -0.423,1.476 -0.423,2.122c0,0.769 0.204,1.382 0.622,1.834c0.411,0.444 0.929,0.665 1.552,0.665c0.794,0 1.459,-0.343 1.998,-1.023c0.799,-1.002 1.196,-2.222 1.196,-3.659Zm63.669,2.227c0,-2.193 0.625,-3.94 1.862,-5.245c1.242,-1.309 2.872,-1.967 4.893,-1.967c1.761,0 3.134,0.492 4.123,1.463c0.991,0.972 1.492,2.279 1.492,3.924c-0,1.918 -0.614,3.575 -1.841,4.973c-1.231,1.403 -2.879,2.108 -4.947,2.108c-1.12,-0 -2.112,-0.226 -2.978,-0.674c-0.878,-0.454 -1.532,-1.097 -1.963,-1.929c-0.427,-0.825 -0.641,-1.709 -0.641,-2.653Zm8.885,-2.227c0,-0.682 -0.194,-1.23 -0.591,-1.641c-0.395,-0.407 -0.905,-0.608 -1.528,-0.608c-0.628,-0 -1.185,0.194 -1.671,0.582c-0.496,0.396 -0.879,0.974 -1.155,1.728c-0.281,0.769 -0.422,1.476 -0.422,2.122c-0,0.769 0.203,1.382 0.621,1.834c0.411,0.444 0.929,0.665 1.552,0.665c0.794,0 1.46,-0.343 1.998,-1.023c0.799,-1.002 1.196,-2.222 1.196,-3.659Zm4.009,3.599l3.02,-0.478c0.088,-0.014 0.175,0.034 0.21,0.116c0.25,0.595 0.556,1.019 0.927,1.266c0.372,0.247 0.88,0.364 1.522,0.364c0.661,0 1.192,-0.143 1.59,-0.44c0.239,-0.175 0.366,-0.385 0.366,-0.636c0,-0.16 -0.059,-0.303 -0.177,-0.433c-0.154,-0.148 -0.56,-0.319 -1.21,-0.534c-1.917,-0.634 -3.101,-1.142 -3.559,-1.51c-0.75,-0.604 -1.126,-1.393 -1.126,-2.368c0,-0.966 0.36,-1.798 1.081,-2.496c0.979,-0.95 2.431,-1.435 4.36,-1.435c1.535,0 2.694,0.29 3.48,0.851c0.801,0.572 1.308,1.346 1.522,2.322c0.011,0.052 0.001,0.106 -0.029,0.15c-0.029,0.044 -0.076,0.074 -0.128,0.083l-2.878,0.5c-0.093,0.016 -0.184,-0.037 -0.216,-0.126c-0.136,-0.375 -0.354,-0.657 -0.658,-0.845c-0.435,-0.265 -0.959,-0.395 -1.571,-0.395c-0.596,0 -1.027,0.088 -1.289,0.286c-0.229,0.174 -0.352,0.369 -0.352,0.595c0,0.225 0.12,0.407 0.345,0.553c0.177,0.113 0.744,0.305 1.699,0.585c1.556,0.453 2.595,0.903 3.121,1.341c0.774,0.642 1.157,1.417 1.157,2.322c-0,1.149 -0.48,2.147 -1.446,2.992c-0.951,0.831 -2.288,1.254 -4.017,1.254c-1.713,-0 -3.035,-0.322 -3.97,-0.951c-0.946,-0.637 -1.59,-1.532 -1.93,-2.686c-0.016,-0.054 -0.007,-0.112 0.022,-0.159c0.03,-0.047 0.079,-0.08 0.134,-0.088Zm40.808,-0l3.02,-0.478c0.088,-0.014 0.175,0.034 0.209,0.116c0.25,0.595 0.556,1.019 0.928,1.266c0.371,0.247 0.88,0.364 1.522,0.364c0.66,0 1.192,-0.143 1.589,-0.44c0.24,-0.175 0.367,-0.385 0.367,-0.636c-0,-0.16 -0.06,-0.303 -0.177,-0.433c-0.154,-0.148 -0.561,-0.319 -1.21,-0.534c-1.917,-0.634 -3.102,-1.142 -3.559,-1.51c-0.75,-0.604 -1.126,-1.393 -1.126,-2.368c-0,-0.966 0.359,-1.798 1.08,-2.496c0.98,-0.95 2.431,-1.435 4.361,-1.435c1.535,0 2.694,0.29 3.48,0.851c0.801,0.572 1.308,1.346 1.521,2.322c0.012,0.052 0.002,0.106 -0.028,0.15c-0.03,0.044 -0.076,0.074 -0.128,0.083l-2.879,0.5c-0.093,0.016 -0.184,-0.037 -0.216,-0.126c-0.136,-0.375 -0.353,-0.657 -0.657,-0.845c-0.435,-0.265 -0.959,-0.395 -1.571,-0.395c-0.596,0 -1.028,0.088 -1.289,0.286c-0.229,0.174 -0.352,0.369 -0.352,0.595c-0,0.225 0.12,0.407 0.345,0.553c0.176,0.113 0.743,0.305 1.698,0.585c1.557,0.453 2.595,0.903 3.122,1.341c0.773,0.642 1.156,1.417 1.156,2.322c0,1.149 -0.479,2.147 -1.446,2.992c-0.95,0.831 -2.287,1.254 -4.016,1.254c-1.713,-0 -3.036,-0.322 -3.97,-0.951c-0.947,-0.637 -1.591,-1.532 -1.93,-2.686c-0.016,-0.054 -0.008,-0.112 0.022,-0.159c0.03,-0.047 0.079,-0.08 0.134,-0.088Zm45.16,3.378l3.335,-15.923c0.019,-0.091 0.098,-0.155 0.19,-0.155l5.442,-0c1.193,-0 2.027,0.037 2.504,0.11c0.811,0.113 1.497,0.34 2.06,0.678c0.575,0.345 1.012,0.805 1.311,1.38c0.297,0.571 0.446,1.201 0.446,1.893c-0,0.929 -0.261,1.734 -0.779,2.415c-0.425,0.56 -1.041,1.011 -1.85,1.347c0.611,0.249 1.104,0.611 1.484,1.086c0.488,0.612 0.732,1.302 0.732,2.071c-0,0.992 -0.281,1.934 -0.845,2.825c-0.565,0.894 -1.346,1.537 -2.341,1.929c-0.974,0.383 -2.304,0.578 -3.993,0.578l-7.505,0c-0.059,0 -0.114,-0.026 -0.151,-0.072c-0.037,-0.045 -0.052,-0.105 -0.04,-0.162Zm4.934,-6.515l-0.002,0.005l0.017,0.021c0,-0 -0.007,-0.01 -0.015,-0.026Zm0.096,0.026l-0.787,3.771l2.921,-0c1.291,-0 2.157,-0.077 2.598,-0.243c0.415,-0.156 0.746,-0.413 0.995,-0.771c0.247,-0.356 0.373,-0.731 0.373,-1.127c-0,-0.469 -0.174,-0.857 -0.521,-1.163c-0.365,-0.32 -0.976,-0.467 -1.827,-0.467l-3.752,-0Zm0.658,-3.159l2.258,0c1.095,0 1.882,-0.074 2.362,-0.229c0.447,-0.145 0.784,-0.378 1.007,-0.707c0.223,-0.328 0.336,-0.679 0.336,-1.053c-0,-0.352 -0.097,-0.643 -0.298,-0.87c-0.206,-0.231 -0.501,-0.382 -0.88,-0.459c-0.235,-0.043 -0.799,-0.062 -1.691,-0.062l-2.383,0l-0.711,3.38Zm14.95,1.616l-3.042,-0.261c-0.059,-0.005 -0.113,-0.037 -0.146,-0.087c-0.032,-0.05 -0.04,-0.112 -0.021,-0.169c0.362,-1.071 0.994,-1.907 1.895,-2.511c0.893,-0.597 2.074,-0.902 3.546,-0.902c1.542,0 2.679,0.322 3.417,0.942c0.757,0.638 1.133,1.418 1.133,2.338c0,0.357 -0.031,0.736 -0.094,1.138c-0.062,0.392 -0.278,1.425 -0.649,3.096c-0.3,1.356 -0.452,2.305 -0.452,2.848c0,0.476 0.085,1.004 0.253,1.586c0.017,0.058 0.006,0.122 -0.031,0.171c-0.037,0.049 -0.094,0.077 -0.155,0.077l-3.031,0c-0.086,0 -0.162,-0.057 -0.186,-0.14c-0.088,-0.3 -0.153,-0.607 -0.195,-0.921c-0.402,0.38 -0.849,0.683 -1.341,0.908c-0.62,0.284 -1.245,0.425 -1.873,0.425c-1.012,-0 -1.847,-0.334 -2.506,-0.997c-0.658,-0.662 -0.991,-1.513 -0.991,-2.554c0,-1.16 0.365,-2.085 1.086,-2.78c0.708,-0.681 1.967,-1.106 3.785,-1.248c1.372,-0.114 2.317,-0.247 2.835,-0.406c0.104,-0.365 0.158,-0.661 0.158,-0.888c0,-0.274 -0.112,-0.503 -0.332,-0.688c-0.239,-0.2 -0.598,-0.291 -1.07,-0.291c-0.509,0 -0.913,0.098 -1.207,0.307c-0.286,0.202 -0.479,0.491 -0.582,0.865c-0.025,0.09 -0.111,0.15 -0.204,0.142Zm2.721,2.953c-0.135,0.027 -2.972,0.514 -3.434,0.864c-0.29,0.222 -0.434,0.522 -0.434,0.898c0,0.307 0.11,0.566 0.331,0.778c0.227,0.217 0.527,0.32 0.898,0.32c0.437,0 0.85,-0.106 1.237,-0.318c0.382,-0.209 0.669,-0.477 0.859,-0.806c0.161,-0.28 0.441,-1.336 0.543,-1.736Zm53.04,1.701l3.02,-0.478c0.088,-0.014 0.175,0.034 0.209,0.116c0.25,0.595 0.556,1.019 0.928,1.266c0.371,0.247 0.88,0.364 1.522,0.364c0.66,0 1.192,-0.143 1.589,-0.44c0.24,-0.175 0.367,-0.385 0.367,-0.636c-0,-0.16 -0.06,-0.303 -0.177,-0.433c-0.154,-0.148 -0.561,-0.319 -1.21,-0.534c-1.917,-0.634 -3.102,-1.142 -3.559,-1.51c-0.75,-0.604 -1.126,-1.393 -1.126,-2.368c-0,-0.966 0.359,-1.798 1.08,-2.496c0.98,-0.95 2.431,-1.435 4.361,-1.435c1.535,0 2.694,0.29 3.48,0.851c0.801,0.572 1.308,1.346 1.522,2.322c0.011,0.052 0.001,0.106 -0.029,0.15c-0.03,0.044 -0.076,0.074 -0.128,0.083l-2.879,0.5c-0.093,0.016 -0.184,-0.037 -0.216,-0.126c-0.136,-0.375 -0.353,-0.657 -0.657,-0.845c-0.435,-0.265 -0.959,-0.395 -1.571,-0.395c-0.596,0 -1.028,0.088 -1.289,0.286c-0.229,0.174 -0.352,0.369 -0.352,0.595c-0,0.225 0.12,0.407 0.345,0.553c0.176,0.113 0.743,0.305 1.698,0.585c1.557,0.453 2.595,0.903 3.122,1.341c0.773,0.642 1.156,1.417 1.156,2.322c0,1.149 -0.479,2.147 -1.446,2.992c-0.95,0.831 -2.287,1.254 -4.016,1.254c-1.713,-0 -3.036,-0.322 -3.97,-0.951c-0.947,-0.637 -1.591,-1.532 -1.93,-2.686c-0.016,-0.054 -0.008,-0.112 0.022,-0.159c0.03,-0.047 0.079,-0.08 0.134,-0.088Zm67.913,-12.7l3.118,-0c0.058,-0 0.114,0.026 0.151,0.072c0.037,0.045 0.051,0.105 0.039,0.162l-0.586,2.824c-0.019,0.09 -0.099,0.155 -0.191,0.155l-3.117,-0c-0.059,-0 -0.114,-0.026 -0.151,-0.072c-0.037,-0.045 -0.051,-0.105 -0.04,-0.162l0.587,-2.824c0.019,-0.09 0.098,-0.155 0.19,-0.155Zm-0.912,4.388l3.117,0c0.059,0 0.114,0.026 0.151,0.072c0.037,0.045 0.052,0.105 0.04,0.162l-2.412,11.536c-0.018,0.09 -0.098,0.154 -0.19,0.154l-3.117,0c-0.059,0 -0.114,-0.026 -0.151,-0.072c-0.037,-0.045 -0.052,-0.105 -0.04,-0.162l2.412,-11.535c0.018,-0.09 0.098,-0.155 0.19,-0.155Zm11.621,7.193l3.03,0.489c0.057,0.009 0.108,0.044 0.137,0.094c0.029,0.05 0.035,0.111 0.014,0.165c-0.514,1.388 -1.277,2.441 -2.284,3.165c-1.011,0.726 -2.181,1.09 -3.514,1.09c-1.529,-0 -2.739,-0.461 -3.636,-1.373c-0.894,-0.909 -1.348,-2.159 -1.348,-3.753c-0,-1.282 0.267,-2.493 0.8,-3.634c0.538,-1.151 1.349,-2.057 2.432,-2.718c1.081,-0.659 2.266,-0.99 3.556,-0.99c1.415,0 2.543,0.375 3.386,1.113c0.849,0.743 1.328,1.719 1.434,2.932c0.01,0.105 -0.067,0.199 -0.173,0.21l-2.965,0.315c-0.106,0.012 -0.202,-0.065 -0.214,-0.171c-0.066,-0.589 -0.238,-1.026 -0.532,-1.304c-0.288,-0.271 -0.666,-0.403 -1.132,-0.403c-0.556,0 -1.074,0.211 -1.557,0.627c-0.497,0.428 -0.875,1.071 -1.141,1.925c-0.272,0.874 -0.409,1.692 -0.409,2.456c-0,0.624 0.144,1.107 0.449,1.445c0.295,0.327 0.663,0.49 1.105,0.49c0.458,-0 0.899,-0.17 1.325,-0.502c0.438,-0.342 0.776,-0.858 1.023,-1.542c0.031,-0.088 0.121,-0.141 0.214,-0.126Zm37.487,1.119l3.02,-0.478c0.088,-0.014 0.175,0.034 0.21,0.116c0.25,0.595 0.555,1.019 0.927,1.266c0.372,0.247 0.88,0.364 1.522,0.364c0.66,0 1.192,-0.143 1.589,-0.44c0.24,-0.175 0.367,-0.385 0.367,-0.636c-0,-0.16 -0.059,-0.303 -0.177,-0.433c-0.154,-0.148 -0.56,-0.319 -1.21,-0.534c-1.917,-0.634 -3.102,-1.142 -3.559,-1.51c-0.75,-0.604 -1.126,-1.393 -1.126,-2.368c0,-0.966 0.359,-1.798 1.08,-2.496c0.98,-0.95 2.431,-1.435 4.361,-1.435c1.535,0 2.694,0.29 3.48,0.851c0.801,0.572 1.308,1.346 1.522,2.322c0.011,0.052 0.001,0.106 -0.029,0.15c-0.03,0.044 -0.076,0.074 -0.128,0.083l-2.878,0.5c-0.093,0.016 -0.185,-0.037 -0.217,-0.126c-0.135,-0.375 -0.353,-0.657 -0.657,-0.845c-0.435,-0.265 -0.959,-0.395 -1.571,-0.395c-0.596,0 -1.027,0.088 -1.289,0.286c-0.229,0.174 -0.352,0.369 -0.352,0.595c-0,0.225 0.12,0.407 0.345,0.553c0.176,0.113 0.744,0.305 1.698,0.585c1.557,0.453 2.596,0.903 3.122,1.341c0.773,0.642 1.156,1.417 1.156,2.322c0,1.149 -0.479,2.147 -1.446,2.992c-0.95,0.831 -2.287,1.254 -4.016,1.254c-1.713,-0 -3.035,-0.322 -3.97,-0.951c-0.947,-0.637 -1.591,-1.532 -1.93,-2.686c-0.016,-0.054 -0.008,-0.112 0.022,-0.159c0.03,-0.047 0.079,-0.08 0.134,-0.088Zm52.801,0.093l-6.027,0l-1.857,3.418c-0.034,0.062 -0.099,0.101 -0.171,0.101l-3.367,0c-0.069,0 -0.133,-0.036 -0.168,-0.096c-0.035,-0.06 -0.035,-0.134 -0.001,-0.194l9.004,-15.923c0.035,-0.061 0.099,-0.099 0.169,-0.099l3.639,-0c0.096,-0 0.177,0.069 0.192,0.163l2.585,15.924c0.009,0.056 -0.007,0.113 -0.044,0.157c-0.037,0.043 -0.091,0.068 -0.148,0.068l-3.106,0c-0.096,0 -0.178,-0.07 -0.193,-0.165l-0.507,-3.354Zm-4.659,-3.039l4.2,-0l-0.813,-5.645l-3.387,5.645Zm42.001,-1.708l-3.042,-0.261c-0.059,-0.005 -0.113,-0.037 -0.146,-0.087c-0.033,-0.05 -0.041,-0.112 -0.021,-0.169c0.362,-1.071 0.994,-1.907 1.895,-2.511c0.893,-0.597 2.074,-0.902 3.546,-0.902c1.542,0 2.679,0.322 3.416,0.942c0.758,0.638 1.134,1.418 1.134,2.338c0,0.357 -0.031,0.736 -0.095,1.138c-0.061,0.392 -0.277,1.425 -0.648,3.096c-0.3,1.356 -0.452,2.305 -0.452,2.848c0,0.476 0.085,1.004 0.253,1.586c0.017,0.058 0.006,0.122 -0.031,0.171c-0.037,0.049 -0.094,0.077 -0.156,0.077l-3.03,0c-0.086,0 -0.162,-0.057 -0.187,-0.14c-0.088,-0.3 -0.152,-0.607 -0.195,-0.921c-0.401,0.38 -0.848,0.683 -1.34,0.908c-0.621,0.284 -1.245,0.425 -1.873,0.425c-1.012,-0 -1.847,-0.334 -2.506,-0.997c-0.658,-0.662 -0.991,-1.513 -0.991,-2.554c0,-1.16 0.365,-2.085 1.086,-2.78c0.708,-0.681 1.967,-1.106 3.785,-1.248c1.372,-0.114 2.317,-0.247 2.835,-0.406c0.104,-0.365 0.158,-0.661 0.158,-0.888c0,-0.274 -0.112,-0.503 -0.332,-0.688c-0.239,-0.2 -0.598,-0.291 -1.07,-0.291c-0.509,0 -0.913,0.098 -1.207,0.307c-0.287,0.202 -0.479,0.491 -0.582,0.865c-0.025,0.09 -0.111,0.15 -0.204,0.142Zm2.721,2.953c-0.135,0.027 -2.972,0.514 -3.434,0.864c-0.29,0.222 -0.434,0.522 -0.434,0.898c0,0.307 0.11,0.566 0.331,0.778c0.226,0.217 0.527,0.32 0.897,0.32c0.438,0 0.85,-0.106 1.237,-0.318c0.383,-0.209 0.67,-0.477 0.859,-0.806c0.162,-0.28 0.442,-1.336 0.544,-1.736Zm26.084,5.079l3.335,-15.923c0.018,-0.091 0.098,-0.155 0.19,-0.155l3.106,-0c0.059,-0 0.114,0.026 0.151,0.072c0.037,0.045 0.052,0.105 0.04,0.162l-3.324,15.923c-0.019,0.091 -0.098,0.155 -0.19,0.155l-3.118,0c-0.058,0 -0.114,-0.026 -0.151,-0.072c-0.037,-0.045 -0.051,-0.105 -0.039,-0.162Z"/></svg>