<?xml version="1.0" encoding="UTF-8" standalone="no"?><!DOCTYPE svg PUBLIC "-//W3C//DTD SVG 1.1//EN" "http://www.w3.org/Graphics/SVG/1.1/DTD/svg11.dtd"><svg width="100%" height="100%" viewBox="0 0 70 70" version="1.1" xmlns="http://www.w3.org/2000/svg" xmlns:xlink="http://www.w3.org/1999/xlink" xml:space="preserve" xmlns:serif="http://www.serif.com/" style="fill-rule:evenodd;clip-rule:evenodd;stroke-linejoin:round;stroke-miterlimit:2;"><path d="M24.012,55.651l21.662,0c0.956,0 1.873,-0.376 2.549,-1.047c0.676,-0.67 1.056,-1.58 1.056,-2.527l0,-14.957l7.55,-2.534c1.262,-0.423 1.937,-1.781 1.511,-3.032l-3.771,-11.041c-0.252,-0.829 -0.799,-1.44 -1.674,-1.809l-9.153,-3.882c-0.736,-0.312 -1.528,-0.473 -2.329,-0.473l-12.826,-0c-0.801,-0 -1.593,0.161 -2.329,0.473l-9.153,3.882c-0.875,0.369 -1.422,0.98 -1.674,1.809l-3.771,11.041c-0.426,1.251 0.249,2.609 1.511,3.032l7.237,2.429l-0,15.062c-0,0.947 0.379,1.857 1.055,2.527c0.677,0.671 1.593,1.047 2.549,1.047Zm16.812,-38.038c-1.229,2.091 -3.53,3.129 -5.824,3.129c-2.294,-0 -4.595,-1.038 -5.824,-3.129l11.648,-0Zm-14.997,1.184c1.784,3.561 5.475,5.349 9.173,5.349c3.698,0 7.389,-1.788 9.173,-5.349l6.103,2.589c0.653,0.277 1.156,0.816 1.385,1.485l2.886,8.453c0.059,0.172 -0.033,0.357 -0.206,0.416l-5.062,1.699l0,-4.672c0,-0.463 -0.185,-0.906 -0.515,-1.233c-0.329,-0.326 -0.777,-0.51 -1.243,-0.51c-0.971,-0 -1.76,0.781 -1.76,1.743l0,22.029c0,0.755 -0.617,1.368 -1.379,1.368l-19.078,0c-0.762,0 -1.379,-0.613 -1.379,-1.368l-0,-22.029c-0,-0.962 -0.789,-1.743 -1.759,-1.743c-0.971,-0 -1.758,0.781 -1.758,1.743l-0,4.566l-4.749,-1.593c-0.173,-0.059 -0.265,-0.244 -0.206,-0.416l2.886,-8.453c0.229,-0.669 0.732,-1.208 1.385,-1.485l6.103,-2.589Z" style="fill:#fff4dd;"/></svg>