<?xml version="1.0" encoding="UTF-8" standalone="no"?>
<!DOCTYPE svg PUBLIC "-//W3C//DTD SVG 1.1//EN" "http://www.w3.org/Graphics/SVG/1.1/DTD/svg11.dtd">
<svg width="100%" height="100%" viewBox="0 0 70 70" version="1.1" xmlns="http://www.w3.org/2000/svg" xmlns:xlink="http://www.w3.org/1999/xlink" xml:space="preserve" xmlns:serif="http://www.serif.com/" style="fill-rule:evenodd;clip-rule:evenodd;stroke-linejoin:round;stroke-miterlimit:2;">
    <g transform="matrix(0.414326,0,0,0.414326,14.2234,14.4706)">
        <path d="M15.133,35.046C15.055,34.972 14.978,34.897 14.902,34.82C9.24,29.159 9.24,19.966 14.902,14.305C20.563,8.644 29.755,8.644 35.417,14.305C35.493,14.381 35.568,14.459 35.643,14.536C35.64,14.429 35.639,14.321 35.639,14.213C35.639,6.207 42.139,-0.293 50.145,-0.293C58.152,-0.293 64.652,6.207 64.652,14.213C64.652,14.321 64.651,14.429 64.648,14.536C64.723,14.459 64.798,14.381 64.874,14.305C70.536,8.644 79.728,8.644 85.389,14.305C91.051,19.966 91.051,29.159 85.389,34.82C85.313,34.897 85.236,34.972 85.158,35.046C85.266,35.044 85.373,35.043 85.481,35.043C93.488,35.043 99.988,41.543 99.988,49.549C99.988,57.555 93.488,64.055 85.481,64.055C85.373,64.055 85.266,64.054 85.158,64.052C85.236,64.126 85.313,64.201 85.389,64.278C91.051,69.939 91.051,79.132 85.389,84.793C79.728,90.454 70.536,90.454 64.874,84.793C64.798,84.716 64.723,84.639 64.648,84.562C64.651,84.669 64.652,84.777 64.652,84.885C64.652,92.891 58.152,99.391 50.145,99.391C42.139,99.391 35.639,92.891 35.639,84.885C35.639,84.777 35.64,84.669 35.643,84.562C35.568,84.639 35.493,84.716 35.417,84.793C29.755,90.454 20.563,90.454 14.902,84.793C9.24,79.132 9.24,69.939 14.902,64.278C14.978,64.201 15.055,64.126 15.133,64.052C15.025,64.054 14.917,64.055 14.809,64.055C6.803,64.055 0.303,57.555 0.303,49.549C0.303,41.543 6.803,35.043 14.809,35.043C14.917,35.043 15.025,35.044 15.133,35.046ZM36.445,55.224L25.626,66.043C23.295,65.916 20.923,66.742 19.144,68.52C15.825,71.84 15.825,77.231 19.144,80.55C22.464,83.87 27.854,83.87 31.174,80.55C32.952,78.772 33.778,76.399 33.651,74.069L44.471,63.249L44.471,78.55C42.733,80.108 41.639,82.37 41.639,84.885C41.639,89.58 45.451,93.391 50.145,93.391C54.84,93.391 58.652,89.58 58.652,84.885C58.652,82.37 57.558,80.108 55.82,78.55L55.82,63.249L66.64,74.069C66.513,76.399 67.338,78.772 69.117,80.55C72.437,83.87 77.827,83.87 81.147,80.55C84.466,77.231 84.466,71.84 81.147,68.52C79.368,66.742 76.995,65.916 74.665,66.043L63.845,55.224L79.147,55.224C80.705,56.961 82.966,58.055 85.481,58.055C90.176,58.055 93.988,54.244 93.988,49.549C93.988,44.854 90.176,41.043 85.481,41.043C82.966,41.043 80.705,42.137 79.147,43.874L63.845,43.874L74.665,33.055C76.995,33.182 79.368,32.356 81.147,30.578C84.466,27.258 84.466,21.867 81.147,18.548C77.827,15.228 72.437,15.228 69.117,18.548C67.338,20.326 66.513,22.699 66.64,25.029L55.82,35.849L55.82,20.548C57.558,18.99 58.652,16.728 58.652,14.213C58.652,9.518 54.84,5.707 50.145,5.707C45.451,5.707 41.639,9.518 41.639,14.213C41.639,16.728 42.733,18.99 44.471,20.548L44.471,35.849L33.651,25.029C33.778,22.699 32.952,20.326 31.174,18.548C27.854,15.228 22.464,15.228 19.144,18.548C15.825,21.867 15.825,27.258 19.144,30.578C20.923,32.356 23.295,33.182 25.626,33.055L36.445,43.874L21.144,43.874C19.586,42.137 17.325,41.043 14.809,41.043C10.115,41.043 6.303,44.854 6.303,49.549C6.303,54.244 10.115,58.055 14.809,58.055C17.325,58.055 19.586,56.961 21.144,55.224L36.445,55.224Z" style="fill:rgb(255,244,221);"/>
    </g>
</svg>
